%TF.GenerationSoftware,KiCad,Pcbnew,8.0.4*%
%TF.CreationDate,2025-03-29T15:05:10-04:00*%
%TF.ProjectId,X17-Power-Slab-Master,5831372d-506f-4776-9572-2d536c61622d,rev?*%
%TF.SameCoordinates,Original*%
%TF.FileFunction,Drillmap*%
%TF.FilePolarity,Positive*%
%FSLAX45Y45*%
G04 Gerber Fmt 4.5, Leading zero omitted, Abs format (unit mm)*
G04 Created by KiCad (PCBNEW 8.0.4) date 2025-03-29 15:05:10*
%MOMM*%
%LPD*%
G01*
G04 APERTURE LIST*
%ADD10C,0.050000*%
%ADD11C,0.200000*%
%ADD12C,0.100000*%
%ADD13C,0.102000*%
%ADD14C,0.152400*%
%ADD15C,0.160000*%
%ADD16C,0.203200*%
%ADD17C,0.210000*%
%ADD18C,0.245000*%
G04 APERTURE END LIST*
D10*
X16900000Y-14250000D02*
X16900000Y-4350000D01*
X7150000Y-12750000D02*
X7150000Y-4350000D01*
X7150000Y-4350000D02*
X16900000Y-4350000D01*
X3950000Y-12750000D02*
X3950000Y-14250000D01*
X3950000Y-14250000D02*
X16900000Y-14250000D01*
X3950000Y-12750000D02*
X7150000Y-12750000D01*
D11*
D12*
X10353000Y-13589000D02*
X10383000Y-13619000D01*
X10383000Y-13589000D02*
X10353000Y-13619000D01*
X10457772Y-13564490D02*
X10487772Y-13594490D01*
X10487772Y-13564490D02*
X10457772Y-13594490D01*
X10517876Y-13624594D02*
X10547876Y-13654594D01*
X10547876Y-13624594D02*
X10517876Y-13654594D01*
X14916225Y-4700000D02*
G75*
G02*
X14840025Y-4700000I-38100J0D01*
G01*
X14840025Y-4700000D02*
G75*
G02*
X14916225Y-4700000I38100J0D01*
G01*
X15738100Y-12990000D02*
G75*
G02*
X15661900Y-12990000I-38100J0D01*
G01*
X15661900Y-12990000D02*
G75*
G02*
X15738100Y-12990000I38100J0D01*
G01*
X14850000Y-11575000D02*
X14850000Y-11655000D01*
X14810000Y-11615000D02*
X14890000Y-11615000D01*
X14281820Y-11900820D02*
X14281820Y-11837180D01*
X14218180Y-11837180D01*
X14218180Y-11900820D01*
X14281820Y-11900820D01*
X14481820Y-11900820D02*
X14481820Y-11837180D01*
X14418180Y-11837180D01*
X14418180Y-11900820D01*
X14481820Y-11900820D01*
X14681820Y-11900820D02*
X14681820Y-11837180D01*
X14618180Y-11837180D01*
X14618180Y-11900820D01*
X14681820Y-11900820D01*
X14881820Y-11900820D02*
X14881820Y-11837180D01*
X14818180Y-11837180D01*
X14818180Y-11900820D01*
X14881820Y-11900820D01*
X15081820Y-11900820D02*
X15081820Y-11837180D01*
X15018180Y-11837180D01*
X15018180Y-11900820D01*
X15081820Y-11900820D01*
X15281820Y-11900820D02*
X15281820Y-11837180D01*
X15218180Y-11837180D01*
X15218180Y-11900820D01*
X15281820Y-11900820D01*
X15481820Y-11900820D02*
X15481820Y-11837180D01*
X15418180Y-11837180D01*
X15418180Y-11900820D01*
X15481820Y-11900820D01*
X11389000Y-7966500D02*
X11439000Y-7916500D01*
X11389000Y-7866500D01*
X11339000Y-7916500D01*
X11389000Y-7966500D01*
X11389000Y-11709000D02*
X11439000Y-11659000D01*
X11389000Y-11609000D01*
X11339000Y-11659000D01*
X11389000Y-11709000D01*
X11643000Y-7966500D02*
X11693000Y-7916500D01*
X11643000Y-7866500D01*
X11593000Y-7916500D01*
X11643000Y-7966500D01*
X11643000Y-11709000D02*
X11693000Y-11659000D01*
X11643000Y-11609000D01*
X11593000Y-11659000D01*
X11643000Y-11709000D01*
X11897000Y-7966500D02*
X11947000Y-7916500D01*
X11897000Y-7866500D01*
X11847000Y-7916500D01*
X11897000Y-7966500D01*
X11897000Y-11709000D02*
X11947000Y-11659000D01*
X11897000Y-11609000D01*
X11847000Y-11659000D01*
X11897000Y-11709000D01*
X12151000Y-7966500D02*
X12201000Y-7916500D01*
X12151000Y-7866500D01*
X12101000Y-7916500D01*
X12151000Y-7966500D01*
X12151000Y-11709000D02*
X12201000Y-11659000D01*
X12151000Y-11609000D01*
X12101000Y-11659000D01*
X12151000Y-11709000D01*
X12405000Y-7966500D02*
X12455000Y-7916500D01*
X12405000Y-7866500D01*
X12355000Y-7916500D01*
X12405000Y-7966500D01*
X12405000Y-11709000D02*
X12455000Y-11659000D01*
X12405000Y-11609000D01*
X12355000Y-11659000D01*
X12405000Y-11709000D01*
X12659000Y-7966500D02*
X12709000Y-7916500D01*
X12659000Y-7866500D01*
X12609000Y-7916500D01*
X12659000Y-7966500D01*
X12659000Y-11709000D02*
X12709000Y-11659000D01*
X12659000Y-11609000D01*
X12609000Y-11659000D01*
X12659000Y-11709000D01*
D13*
X5923000Y-12899000D02*
X6025000Y-13001000D01*
X6025000Y-12899000D02*
X5923000Y-13001000D01*
X6025000Y-12950000D02*
G75*
G02*
X5923000Y-12950000I-51000J0D01*
G01*
X5923000Y-12950000D02*
G75*
G02*
X6025000Y-12950000I51000J0D01*
G01*
X5923000Y-13149000D02*
X6025000Y-13251000D01*
X6025000Y-13149000D02*
X5923000Y-13251000D01*
X6025000Y-13200000D02*
G75*
G02*
X5923000Y-13200000I-51000J0D01*
G01*
X5923000Y-13200000D02*
G75*
G02*
X6025000Y-13200000I51000J0D01*
G01*
X5923000Y-13399000D02*
X6025000Y-13501000D01*
X6025000Y-13399000D02*
X5923000Y-13501000D01*
X6025000Y-13450000D02*
G75*
G02*
X5923000Y-13450000I-51000J0D01*
G01*
X5923000Y-13450000D02*
G75*
G02*
X6025000Y-13450000I51000J0D01*
G01*
X5923000Y-13649000D02*
X6025000Y-13751000D01*
X6025000Y-13649000D02*
X5923000Y-13751000D01*
X6025000Y-13700000D02*
G75*
G02*
X5923000Y-13700000I-51000J0D01*
G01*
X5923000Y-13700000D02*
G75*
G02*
X6025000Y-13700000I51000J0D01*
G01*
X5923000Y-13899000D02*
X6025000Y-14001000D01*
X6025000Y-13899000D02*
X5923000Y-14001000D01*
X6025000Y-13950000D02*
G75*
G02*
X5923000Y-13950000I-51000J0D01*
G01*
X5923000Y-13950000D02*
G75*
G02*
X6025000Y-13950000I51000J0D01*
G01*
X6223000Y-12899000D02*
X6325000Y-13001000D01*
X6325000Y-12899000D02*
X6223000Y-13001000D01*
X6325000Y-12950000D02*
G75*
G02*
X6223000Y-12950000I-51000J0D01*
G01*
X6223000Y-12950000D02*
G75*
G02*
X6325000Y-12950000I51000J0D01*
G01*
X6223000Y-13149000D02*
X6325000Y-13251000D01*
X6325000Y-13149000D02*
X6223000Y-13251000D01*
X6325000Y-13200000D02*
G75*
G02*
X6223000Y-13200000I-51000J0D01*
G01*
X6223000Y-13200000D02*
G75*
G02*
X6325000Y-13200000I51000J0D01*
G01*
X6223000Y-13399000D02*
X6325000Y-13501000D01*
X6325000Y-13399000D02*
X6223000Y-13501000D01*
X6325000Y-13450000D02*
G75*
G02*
X6223000Y-13450000I-51000J0D01*
G01*
X6223000Y-13450000D02*
G75*
G02*
X6325000Y-13450000I51000J0D01*
G01*
X6223000Y-13649000D02*
X6325000Y-13751000D01*
X6325000Y-13649000D02*
X6223000Y-13751000D01*
X6325000Y-13700000D02*
G75*
G02*
X6223000Y-13700000I-51000J0D01*
G01*
X6223000Y-13700000D02*
G75*
G02*
X6325000Y-13700000I51000J0D01*
G01*
X6223000Y-13899000D02*
X6325000Y-14001000D01*
X6325000Y-13899000D02*
X6223000Y-14001000D01*
X6325000Y-13950000D02*
G75*
G02*
X6223000Y-13950000I-51000J0D01*
G01*
X6223000Y-13950000D02*
G75*
G02*
X6325000Y-13950000I51000J0D01*
G01*
X6473000Y-12899000D02*
X6575000Y-13001000D01*
X6575000Y-12899000D02*
X6473000Y-13001000D01*
X6575000Y-12950000D02*
G75*
G02*
X6473000Y-12950000I-51000J0D01*
G01*
X6473000Y-12950000D02*
G75*
G02*
X6575000Y-12950000I51000J0D01*
G01*
X6473000Y-13149000D02*
X6575000Y-13251000D01*
X6575000Y-13149000D02*
X6473000Y-13251000D01*
X6575000Y-13200000D02*
G75*
G02*
X6473000Y-13200000I-51000J0D01*
G01*
X6473000Y-13200000D02*
G75*
G02*
X6575000Y-13200000I51000J0D01*
G01*
X6473000Y-13399000D02*
X6575000Y-13501000D01*
X6575000Y-13399000D02*
X6473000Y-13501000D01*
X6575000Y-13450000D02*
G75*
G02*
X6473000Y-13450000I-51000J0D01*
G01*
X6473000Y-13450000D02*
G75*
G02*
X6575000Y-13450000I51000J0D01*
G01*
X6473000Y-13649000D02*
X6575000Y-13751000D01*
X6575000Y-13649000D02*
X6473000Y-13751000D01*
X6575000Y-13700000D02*
G75*
G02*
X6473000Y-13700000I-51000J0D01*
G01*
X6473000Y-13700000D02*
G75*
G02*
X6575000Y-13700000I51000J0D01*
G01*
X6473000Y-13899000D02*
X6575000Y-14001000D01*
X6575000Y-13899000D02*
X6473000Y-14001000D01*
X6575000Y-13950000D02*
G75*
G02*
X6473000Y-13950000I-51000J0D01*
G01*
X6473000Y-13950000D02*
G75*
G02*
X6575000Y-13950000I51000J0D01*
G01*
X6773000Y-12899000D02*
X6875000Y-13001000D01*
X6875000Y-12899000D02*
X6773000Y-13001000D01*
X6875000Y-12950000D02*
G75*
G02*
X6773000Y-12950000I-51000J0D01*
G01*
X6773000Y-12950000D02*
G75*
G02*
X6875000Y-12950000I51000J0D01*
G01*
X6773000Y-13149000D02*
X6875000Y-13251000D01*
X6875000Y-13149000D02*
X6773000Y-13251000D01*
X6875000Y-13200000D02*
G75*
G02*
X6773000Y-13200000I-51000J0D01*
G01*
X6773000Y-13200000D02*
G75*
G02*
X6875000Y-13200000I51000J0D01*
G01*
X6773000Y-13399000D02*
X6875000Y-13501000D01*
X6875000Y-13399000D02*
X6773000Y-13501000D01*
X6875000Y-13450000D02*
G75*
G02*
X6773000Y-13450000I-51000J0D01*
G01*
X6773000Y-13450000D02*
G75*
G02*
X6875000Y-13450000I51000J0D01*
G01*
X6773000Y-13649000D02*
X6875000Y-13751000D01*
X6875000Y-13649000D02*
X6773000Y-13751000D01*
X6875000Y-13700000D02*
G75*
G02*
X6773000Y-13700000I-51000J0D01*
G01*
X6773000Y-13700000D02*
G75*
G02*
X6875000Y-13700000I51000J0D01*
G01*
X6773000Y-13899000D02*
X6875000Y-14001000D01*
X6875000Y-13899000D02*
X6773000Y-14001000D01*
X6875000Y-13950000D02*
G75*
G02*
X6773000Y-13950000I-51000J0D01*
G01*
X6773000Y-13950000D02*
G75*
G02*
X6875000Y-13950000I51000J0D01*
G01*
X7023000Y-12899000D02*
X7125000Y-13001000D01*
X7125000Y-12899000D02*
X7023000Y-13001000D01*
X7125000Y-12950000D02*
G75*
G02*
X7023000Y-12950000I-51000J0D01*
G01*
X7023000Y-12950000D02*
G75*
G02*
X7125000Y-12950000I51000J0D01*
G01*
X7023000Y-13149000D02*
X7125000Y-13251000D01*
X7125000Y-13149000D02*
X7023000Y-13251000D01*
X7125000Y-13200000D02*
G75*
G02*
X7023000Y-13200000I-51000J0D01*
G01*
X7023000Y-13200000D02*
G75*
G02*
X7125000Y-13200000I51000J0D01*
G01*
X7023000Y-13399000D02*
X7125000Y-13501000D01*
X7125000Y-13399000D02*
X7023000Y-13501000D01*
X7125000Y-13450000D02*
G75*
G02*
X7023000Y-13450000I-51000J0D01*
G01*
X7023000Y-13450000D02*
G75*
G02*
X7125000Y-13450000I51000J0D01*
G01*
X7023000Y-13649000D02*
X7125000Y-13751000D01*
X7125000Y-13649000D02*
X7023000Y-13751000D01*
X7125000Y-13700000D02*
G75*
G02*
X7023000Y-13700000I-51000J0D01*
G01*
X7023000Y-13700000D02*
G75*
G02*
X7125000Y-13700000I51000J0D01*
G01*
X7023000Y-13899000D02*
X7125000Y-14001000D01*
X7125000Y-13899000D02*
X7023000Y-14001000D01*
X7125000Y-13950000D02*
G75*
G02*
X7023000Y-13950000I-51000J0D01*
G01*
X7023000Y-13950000D02*
G75*
G02*
X7125000Y-13950000I51000J0D01*
G01*
X7323000Y-12899000D02*
X7425000Y-13001000D01*
X7425000Y-12899000D02*
X7323000Y-13001000D01*
X7425000Y-12950000D02*
G75*
G02*
X7323000Y-12950000I-51000J0D01*
G01*
X7323000Y-12950000D02*
G75*
G02*
X7425000Y-12950000I51000J0D01*
G01*
X7323000Y-13149000D02*
X7425000Y-13251000D01*
X7425000Y-13149000D02*
X7323000Y-13251000D01*
X7425000Y-13200000D02*
G75*
G02*
X7323000Y-13200000I-51000J0D01*
G01*
X7323000Y-13200000D02*
G75*
G02*
X7425000Y-13200000I51000J0D01*
G01*
X7323000Y-13399000D02*
X7425000Y-13501000D01*
X7425000Y-13399000D02*
X7323000Y-13501000D01*
X7425000Y-13450000D02*
G75*
G02*
X7323000Y-13450000I-51000J0D01*
G01*
X7323000Y-13450000D02*
G75*
G02*
X7425000Y-13450000I51000J0D01*
G01*
X7323000Y-13649000D02*
X7425000Y-13751000D01*
X7425000Y-13649000D02*
X7323000Y-13751000D01*
X7425000Y-13700000D02*
G75*
G02*
X7323000Y-13700000I-51000J0D01*
G01*
X7323000Y-13700000D02*
G75*
G02*
X7425000Y-13700000I51000J0D01*
G01*
X7323000Y-13899000D02*
X7425000Y-14001000D01*
X7425000Y-13899000D02*
X7323000Y-14001000D01*
X7425000Y-13950000D02*
G75*
G02*
X7323000Y-13950000I-51000J0D01*
G01*
X7323000Y-13950000D02*
G75*
G02*
X7425000Y-13950000I51000J0D01*
G01*
X7573000Y-12899000D02*
X7675000Y-13001000D01*
X7675000Y-12899000D02*
X7573000Y-13001000D01*
X7675000Y-12950000D02*
G75*
G02*
X7573000Y-12950000I-51000J0D01*
G01*
X7573000Y-12950000D02*
G75*
G02*
X7675000Y-12950000I51000J0D01*
G01*
X7573000Y-13149000D02*
X7675000Y-13251000D01*
X7675000Y-13149000D02*
X7573000Y-13251000D01*
X7675000Y-13200000D02*
G75*
G02*
X7573000Y-13200000I-51000J0D01*
G01*
X7573000Y-13200000D02*
G75*
G02*
X7675000Y-13200000I51000J0D01*
G01*
X7573000Y-13399000D02*
X7675000Y-13501000D01*
X7675000Y-13399000D02*
X7573000Y-13501000D01*
X7675000Y-13450000D02*
G75*
G02*
X7573000Y-13450000I-51000J0D01*
G01*
X7573000Y-13450000D02*
G75*
G02*
X7675000Y-13450000I51000J0D01*
G01*
X7573000Y-13649000D02*
X7675000Y-13751000D01*
X7675000Y-13649000D02*
X7573000Y-13751000D01*
X7675000Y-13700000D02*
G75*
G02*
X7573000Y-13700000I-51000J0D01*
G01*
X7573000Y-13700000D02*
G75*
G02*
X7675000Y-13700000I51000J0D01*
G01*
X7573000Y-13899000D02*
X7675000Y-14001000D01*
X7675000Y-13899000D02*
X7573000Y-14001000D01*
X7675000Y-13950000D02*
G75*
G02*
X7573000Y-13950000I-51000J0D01*
G01*
X7573000Y-13950000D02*
G75*
G02*
X7675000Y-13950000I51000J0D01*
G01*
X7873000Y-12899000D02*
X7975000Y-13001000D01*
X7975000Y-12899000D02*
X7873000Y-13001000D01*
X7975000Y-12950000D02*
G75*
G02*
X7873000Y-12950000I-51000J0D01*
G01*
X7873000Y-12950000D02*
G75*
G02*
X7975000Y-12950000I51000J0D01*
G01*
X7873000Y-13149000D02*
X7975000Y-13251000D01*
X7975000Y-13149000D02*
X7873000Y-13251000D01*
X7975000Y-13200000D02*
G75*
G02*
X7873000Y-13200000I-51000J0D01*
G01*
X7873000Y-13200000D02*
G75*
G02*
X7975000Y-13200000I51000J0D01*
G01*
X7873000Y-13399000D02*
X7975000Y-13501000D01*
X7975000Y-13399000D02*
X7873000Y-13501000D01*
X7975000Y-13450000D02*
G75*
G02*
X7873000Y-13450000I-51000J0D01*
G01*
X7873000Y-13450000D02*
G75*
G02*
X7975000Y-13450000I51000J0D01*
G01*
X7873000Y-13649000D02*
X7975000Y-13751000D01*
X7975000Y-13649000D02*
X7873000Y-13751000D01*
X7975000Y-13700000D02*
G75*
G02*
X7873000Y-13700000I-51000J0D01*
G01*
X7873000Y-13700000D02*
G75*
G02*
X7975000Y-13700000I51000J0D01*
G01*
X7873000Y-13899000D02*
X7975000Y-14001000D01*
X7975000Y-13899000D02*
X7873000Y-14001000D01*
X7975000Y-13950000D02*
G75*
G02*
X7873000Y-13950000I-51000J0D01*
G01*
X7873000Y-13950000D02*
G75*
G02*
X7975000Y-13950000I51000J0D01*
G01*
X8390000Y-13241000D02*
X8492000Y-13343000D01*
X8492000Y-13241000D02*
X8390000Y-13343000D01*
X8492000Y-13292000D02*
G75*
G02*
X8390000Y-13292000I-51000J0D01*
G01*
X8390000Y-13292000D02*
G75*
G02*
X8492000Y-13292000I51000J0D01*
G01*
X8390000Y-13495000D02*
X8492000Y-13597000D01*
X8492000Y-13495000D02*
X8390000Y-13597000D01*
X8492000Y-13546000D02*
G75*
G02*
X8390000Y-13546000I-51000J0D01*
G01*
X8390000Y-13546000D02*
G75*
G02*
X8492000Y-13546000I51000J0D01*
G01*
X8390000Y-13749000D02*
X8492000Y-13851000D01*
X8492000Y-13749000D02*
X8390000Y-13851000D01*
X8492000Y-13800000D02*
G75*
G02*
X8390000Y-13800000I-51000J0D01*
G01*
X8390000Y-13800000D02*
G75*
G02*
X8492000Y-13800000I51000J0D01*
G01*
X8644000Y-13241000D02*
X8746000Y-13343000D01*
X8746000Y-13241000D02*
X8644000Y-13343000D01*
X8746000Y-13292000D02*
G75*
G02*
X8644000Y-13292000I-51000J0D01*
G01*
X8644000Y-13292000D02*
G75*
G02*
X8746000Y-13292000I51000J0D01*
G01*
X8644000Y-13495000D02*
X8746000Y-13597000D01*
X8746000Y-13495000D02*
X8644000Y-13597000D01*
X8746000Y-13546000D02*
G75*
G02*
X8644000Y-13546000I-51000J0D01*
G01*
X8644000Y-13546000D02*
G75*
G02*
X8746000Y-13546000I51000J0D01*
G01*
X8644000Y-13749000D02*
X8746000Y-13851000D01*
X8746000Y-13749000D02*
X8644000Y-13851000D01*
X8746000Y-13800000D02*
G75*
G02*
X8644000Y-13800000I-51000J0D01*
G01*
X8644000Y-13800000D02*
G75*
G02*
X8746000Y-13800000I51000J0D01*
G01*
X8898000Y-13241000D02*
X9000000Y-13343000D01*
X9000000Y-13241000D02*
X8898000Y-13343000D01*
X9000000Y-13292000D02*
G75*
G02*
X8898000Y-13292000I-51000J0D01*
G01*
X8898000Y-13292000D02*
G75*
G02*
X9000000Y-13292000I51000J0D01*
G01*
X8898000Y-13495000D02*
X9000000Y-13597000D01*
X9000000Y-13495000D02*
X8898000Y-13597000D01*
X9000000Y-13546000D02*
G75*
G02*
X8898000Y-13546000I-51000J0D01*
G01*
X8898000Y-13546000D02*
G75*
G02*
X9000000Y-13546000I51000J0D01*
G01*
X8898000Y-13749000D02*
X9000000Y-13851000D01*
X9000000Y-13749000D02*
X8898000Y-13851000D01*
X9000000Y-13800000D02*
G75*
G02*
X8898000Y-13800000I-51000J0D01*
G01*
X8898000Y-13800000D02*
G75*
G02*
X9000000Y-13800000I51000J0D01*
G01*
X9152000Y-13241000D02*
X9254000Y-13343000D01*
X9254000Y-13241000D02*
X9152000Y-13343000D01*
X9254000Y-13292000D02*
G75*
G02*
X9152000Y-13292000I-51000J0D01*
G01*
X9152000Y-13292000D02*
G75*
G02*
X9254000Y-13292000I51000J0D01*
G01*
X9152000Y-13495000D02*
X9254000Y-13597000D01*
X9254000Y-13495000D02*
X9152000Y-13597000D01*
X9254000Y-13546000D02*
G75*
G02*
X9152000Y-13546000I-51000J0D01*
G01*
X9152000Y-13546000D02*
G75*
G02*
X9254000Y-13546000I51000J0D01*
G01*
X9152000Y-13749000D02*
X9254000Y-13851000D01*
X9254000Y-13749000D02*
X9152000Y-13851000D01*
X9254000Y-13800000D02*
G75*
G02*
X9152000Y-13800000I-51000J0D01*
G01*
X9152000Y-13800000D02*
G75*
G02*
X9254000Y-13800000I51000J0D01*
G01*
X9406000Y-13241000D02*
X9508000Y-13343000D01*
X9508000Y-13241000D02*
X9406000Y-13343000D01*
X9508000Y-13292000D02*
G75*
G02*
X9406000Y-13292000I-51000J0D01*
G01*
X9406000Y-13292000D02*
G75*
G02*
X9508000Y-13292000I51000J0D01*
G01*
X9406000Y-13495000D02*
X9508000Y-13597000D01*
X9508000Y-13495000D02*
X9406000Y-13597000D01*
X9508000Y-13546000D02*
G75*
G02*
X9406000Y-13546000I-51000J0D01*
G01*
X9406000Y-13546000D02*
G75*
G02*
X9508000Y-13546000I51000J0D01*
G01*
X9406000Y-13749000D02*
X9508000Y-13851000D01*
X9508000Y-13749000D02*
X9406000Y-13851000D01*
X9508000Y-13800000D02*
G75*
G02*
X9406000Y-13800000I-51000J0D01*
G01*
X9406000Y-13800000D02*
G75*
G02*
X9508000Y-13800000I51000J0D01*
G01*
X9660000Y-13241000D02*
X9762000Y-13343000D01*
X9762000Y-13241000D02*
X9660000Y-13343000D01*
X9762000Y-13292000D02*
G75*
G02*
X9660000Y-13292000I-51000J0D01*
G01*
X9660000Y-13292000D02*
G75*
G02*
X9762000Y-13292000I51000J0D01*
G01*
X9660000Y-13495000D02*
X9762000Y-13597000D01*
X9762000Y-13495000D02*
X9660000Y-13597000D01*
X9762000Y-13546000D02*
G75*
G02*
X9660000Y-13546000I-51000J0D01*
G01*
X9660000Y-13546000D02*
G75*
G02*
X9762000Y-13546000I51000J0D01*
G01*
X9660000Y-13749000D02*
X9762000Y-13851000D01*
X9762000Y-13749000D02*
X9660000Y-13851000D01*
X9762000Y-13800000D02*
G75*
G02*
X9660000Y-13800000I-51000J0D01*
G01*
X9660000Y-13800000D02*
G75*
G02*
X9762000Y-13800000I51000J0D01*
G01*
X9914000Y-13241000D02*
X10016000Y-13343000D01*
X10016000Y-13241000D02*
X9914000Y-13343000D01*
X10016000Y-13292000D02*
G75*
G02*
X9914000Y-13292000I-51000J0D01*
G01*
X9914000Y-13292000D02*
G75*
G02*
X10016000Y-13292000I51000J0D01*
G01*
X9914000Y-13495000D02*
X10016000Y-13597000D01*
X10016000Y-13495000D02*
X9914000Y-13597000D01*
X10016000Y-13546000D02*
G75*
G02*
X9914000Y-13546000I-51000J0D01*
G01*
X9914000Y-13546000D02*
G75*
G02*
X10016000Y-13546000I51000J0D01*
G01*
X9914000Y-13749000D02*
X10016000Y-13851000D01*
X10016000Y-13749000D02*
X9914000Y-13851000D01*
X10016000Y-13800000D02*
G75*
G02*
X9914000Y-13800000I-51000J0D01*
G01*
X9914000Y-13800000D02*
G75*
G02*
X10016000Y-13800000I51000J0D01*
G01*
X10168000Y-13241000D02*
X10270000Y-13343000D01*
X10270000Y-13241000D02*
X10168000Y-13343000D01*
X10270000Y-13292000D02*
G75*
G02*
X10168000Y-13292000I-51000J0D01*
G01*
X10168000Y-13292000D02*
G75*
G02*
X10270000Y-13292000I51000J0D01*
G01*
X10168000Y-13495000D02*
X10270000Y-13597000D01*
X10270000Y-13495000D02*
X10168000Y-13597000D01*
X10270000Y-13546000D02*
G75*
G02*
X10168000Y-13546000I-51000J0D01*
G01*
X10168000Y-13546000D02*
G75*
G02*
X10270000Y-13546000I51000J0D01*
G01*
X10168000Y-13749000D02*
X10270000Y-13851000D01*
X10270000Y-13749000D02*
X10168000Y-13851000D01*
X10270000Y-13800000D02*
G75*
G02*
X10168000Y-13800000I-51000J0D01*
G01*
X10168000Y-13800000D02*
G75*
G02*
X10270000Y-13800000I51000J0D01*
G01*
X10649000Y-12899000D02*
X10751000Y-13001000D01*
X10751000Y-12899000D02*
X10649000Y-13001000D01*
X10751000Y-12950000D02*
G75*
G02*
X10649000Y-12950000I-51000J0D01*
G01*
X10649000Y-12950000D02*
G75*
G02*
X10751000Y-12950000I51000J0D01*
G01*
X10649000Y-13149000D02*
X10751000Y-13251000D01*
X10751000Y-13149000D02*
X10649000Y-13251000D01*
X10751000Y-13200000D02*
G75*
G02*
X10649000Y-13200000I-51000J0D01*
G01*
X10649000Y-13200000D02*
G75*
G02*
X10751000Y-13200000I51000J0D01*
G01*
X10649000Y-13399000D02*
X10751000Y-13501000D01*
X10751000Y-13399000D02*
X10649000Y-13501000D01*
X10751000Y-13450000D02*
G75*
G02*
X10649000Y-13450000I-51000J0D01*
G01*
X10649000Y-13450000D02*
G75*
G02*
X10751000Y-13450000I51000J0D01*
G01*
X10649000Y-13649000D02*
X10751000Y-13751000D01*
X10751000Y-13649000D02*
X10649000Y-13751000D01*
X10751000Y-13700000D02*
G75*
G02*
X10649000Y-13700000I-51000J0D01*
G01*
X10649000Y-13700000D02*
G75*
G02*
X10751000Y-13700000I51000J0D01*
G01*
X10649000Y-13899000D02*
X10751000Y-14001000D01*
X10751000Y-13899000D02*
X10649000Y-14001000D01*
X10751000Y-13950000D02*
G75*
G02*
X10649000Y-13950000I-51000J0D01*
G01*
X10649000Y-13950000D02*
G75*
G02*
X10751000Y-13950000I51000J0D01*
G01*
X10949000Y-12899000D02*
X11051000Y-13001000D01*
X11051000Y-12899000D02*
X10949000Y-13001000D01*
X11051000Y-12950000D02*
G75*
G02*
X10949000Y-12950000I-51000J0D01*
G01*
X10949000Y-12950000D02*
G75*
G02*
X11051000Y-12950000I51000J0D01*
G01*
X10949000Y-13149000D02*
X11051000Y-13251000D01*
X11051000Y-13149000D02*
X10949000Y-13251000D01*
X11051000Y-13200000D02*
G75*
G02*
X10949000Y-13200000I-51000J0D01*
G01*
X10949000Y-13200000D02*
G75*
G02*
X11051000Y-13200000I51000J0D01*
G01*
X10949000Y-13399000D02*
X11051000Y-13501000D01*
X11051000Y-13399000D02*
X10949000Y-13501000D01*
X11051000Y-13450000D02*
G75*
G02*
X10949000Y-13450000I-51000J0D01*
G01*
X10949000Y-13450000D02*
G75*
G02*
X11051000Y-13450000I51000J0D01*
G01*
X10949000Y-13649000D02*
X11051000Y-13751000D01*
X11051000Y-13649000D02*
X10949000Y-13751000D01*
X11051000Y-13700000D02*
G75*
G02*
X10949000Y-13700000I-51000J0D01*
G01*
X10949000Y-13700000D02*
G75*
G02*
X11051000Y-13700000I51000J0D01*
G01*
X10949000Y-13899000D02*
X11051000Y-14001000D01*
X11051000Y-13899000D02*
X10949000Y-14001000D01*
X11051000Y-13950000D02*
G75*
G02*
X10949000Y-13950000I-51000J0D01*
G01*
X10949000Y-13950000D02*
G75*
G02*
X11051000Y-13950000I51000J0D01*
G01*
X11199000Y-12899000D02*
X11301000Y-13001000D01*
X11301000Y-12899000D02*
X11199000Y-13001000D01*
X11301000Y-12950000D02*
G75*
G02*
X11199000Y-12950000I-51000J0D01*
G01*
X11199000Y-12950000D02*
G75*
G02*
X11301000Y-12950000I51000J0D01*
G01*
X11199000Y-13149000D02*
X11301000Y-13251000D01*
X11301000Y-13149000D02*
X11199000Y-13251000D01*
X11301000Y-13200000D02*
G75*
G02*
X11199000Y-13200000I-51000J0D01*
G01*
X11199000Y-13200000D02*
G75*
G02*
X11301000Y-13200000I51000J0D01*
G01*
X11199000Y-13399000D02*
X11301000Y-13501000D01*
X11301000Y-13399000D02*
X11199000Y-13501000D01*
X11301000Y-13450000D02*
G75*
G02*
X11199000Y-13450000I-51000J0D01*
G01*
X11199000Y-13450000D02*
G75*
G02*
X11301000Y-13450000I51000J0D01*
G01*
X11199000Y-13649000D02*
X11301000Y-13751000D01*
X11301000Y-13649000D02*
X11199000Y-13751000D01*
X11301000Y-13700000D02*
G75*
G02*
X11199000Y-13700000I-51000J0D01*
G01*
X11199000Y-13700000D02*
G75*
G02*
X11301000Y-13700000I51000J0D01*
G01*
X11199000Y-13899000D02*
X11301000Y-14001000D01*
X11301000Y-13899000D02*
X11199000Y-14001000D01*
X11301000Y-13950000D02*
G75*
G02*
X11199000Y-13950000I-51000J0D01*
G01*
X11199000Y-13950000D02*
G75*
G02*
X11301000Y-13950000I51000J0D01*
G01*
X11499000Y-12899000D02*
X11601000Y-13001000D01*
X11601000Y-12899000D02*
X11499000Y-13001000D01*
X11601000Y-12950000D02*
G75*
G02*
X11499000Y-12950000I-51000J0D01*
G01*
X11499000Y-12950000D02*
G75*
G02*
X11601000Y-12950000I51000J0D01*
G01*
X11499000Y-13149000D02*
X11601000Y-13251000D01*
X11601000Y-13149000D02*
X11499000Y-13251000D01*
X11601000Y-13200000D02*
G75*
G02*
X11499000Y-13200000I-51000J0D01*
G01*
X11499000Y-13200000D02*
G75*
G02*
X11601000Y-13200000I51000J0D01*
G01*
X11499000Y-13399000D02*
X11601000Y-13501000D01*
X11601000Y-13399000D02*
X11499000Y-13501000D01*
X11601000Y-13450000D02*
G75*
G02*
X11499000Y-13450000I-51000J0D01*
G01*
X11499000Y-13450000D02*
G75*
G02*
X11601000Y-13450000I51000J0D01*
G01*
X11499000Y-13649000D02*
X11601000Y-13751000D01*
X11601000Y-13649000D02*
X11499000Y-13751000D01*
X11601000Y-13700000D02*
G75*
G02*
X11499000Y-13700000I-51000J0D01*
G01*
X11499000Y-13700000D02*
G75*
G02*
X11601000Y-13700000I51000J0D01*
G01*
X11499000Y-13899000D02*
X11601000Y-14001000D01*
X11601000Y-13899000D02*
X11499000Y-14001000D01*
X11601000Y-13950000D02*
G75*
G02*
X11499000Y-13950000I-51000J0D01*
G01*
X11499000Y-13950000D02*
G75*
G02*
X11601000Y-13950000I51000J0D01*
G01*
X11749000Y-12899000D02*
X11851000Y-13001000D01*
X11851000Y-12899000D02*
X11749000Y-13001000D01*
X11851000Y-12950000D02*
G75*
G02*
X11749000Y-12950000I-51000J0D01*
G01*
X11749000Y-12950000D02*
G75*
G02*
X11851000Y-12950000I51000J0D01*
G01*
X11749000Y-13149000D02*
X11851000Y-13251000D01*
X11851000Y-13149000D02*
X11749000Y-13251000D01*
X11851000Y-13200000D02*
G75*
G02*
X11749000Y-13200000I-51000J0D01*
G01*
X11749000Y-13200000D02*
G75*
G02*
X11851000Y-13200000I51000J0D01*
G01*
X11749000Y-13399000D02*
X11851000Y-13501000D01*
X11851000Y-13399000D02*
X11749000Y-13501000D01*
X11851000Y-13450000D02*
G75*
G02*
X11749000Y-13450000I-51000J0D01*
G01*
X11749000Y-13450000D02*
G75*
G02*
X11851000Y-13450000I51000J0D01*
G01*
X11749000Y-13649000D02*
X11851000Y-13751000D01*
X11851000Y-13649000D02*
X11749000Y-13751000D01*
X11851000Y-13700000D02*
G75*
G02*
X11749000Y-13700000I-51000J0D01*
G01*
X11749000Y-13700000D02*
G75*
G02*
X11851000Y-13700000I51000J0D01*
G01*
X11749000Y-13899000D02*
X11851000Y-14001000D01*
X11851000Y-13899000D02*
X11749000Y-14001000D01*
X11851000Y-13950000D02*
G75*
G02*
X11749000Y-13950000I-51000J0D01*
G01*
X11749000Y-13950000D02*
G75*
G02*
X11851000Y-13950000I51000J0D01*
G01*
X12049000Y-12899000D02*
X12151000Y-13001000D01*
X12151000Y-12899000D02*
X12049000Y-13001000D01*
X12151000Y-12950000D02*
G75*
G02*
X12049000Y-12950000I-51000J0D01*
G01*
X12049000Y-12950000D02*
G75*
G02*
X12151000Y-12950000I51000J0D01*
G01*
X12049000Y-13149000D02*
X12151000Y-13251000D01*
X12151000Y-13149000D02*
X12049000Y-13251000D01*
X12151000Y-13200000D02*
G75*
G02*
X12049000Y-13200000I-51000J0D01*
G01*
X12049000Y-13200000D02*
G75*
G02*
X12151000Y-13200000I51000J0D01*
G01*
X12049000Y-13399000D02*
X12151000Y-13501000D01*
X12151000Y-13399000D02*
X12049000Y-13501000D01*
X12151000Y-13450000D02*
G75*
G02*
X12049000Y-13450000I-51000J0D01*
G01*
X12049000Y-13450000D02*
G75*
G02*
X12151000Y-13450000I51000J0D01*
G01*
X12049000Y-13649000D02*
X12151000Y-13751000D01*
X12151000Y-13649000D02*
X12049000Y-13751000D01*
X12151000Y-13700000D02*
G75*
G02*
X12049000Y-13700000I-51000J0D01*
G01*
X12049000Y-13700000D02*
G75*
G02*
X12151000Y-13700000I51000J0D01*
G01*
X12049000Y-13899000D02*
X12151000Y-14001000D01*
X12151000Y-13899000D02*
X12049000Y-14001000D01*
X12151000Y-13950000D02*
G75*
G02*
X12049000Y-13950000I-51000J0D01*
G01*
X12049000Y-13950000D02*
G75*
G02*
X12151000Y-13950000I51000J0D01*
G01*
X12299000Y-12899000D02*
X12401000Y-13001000D01*
X12401000Y-12899000D02*
X12299000Y-13001000D01*
X12401000Y-12950000D02*
G75*
G02*
X12299000Y-12950000I-51000J0D01*
G01*
X12299000Y-12950000D02*
G75*
G02*
X12401000Y-12950000I51000J0D01*
G01*
X12299000Y-13149000D02*
X12401000Y-13251000D01*
X12401000Y-13149000D02*
X12299000Y-13251000D01*
X12401000Y-13200000D02*
G75*
G02*
X12299000Y-13200000I-51000J0D01*
G01*
X12299000Y-13200000D02*
G75*
G02*
X12401000Y-13200000I51000J0D01*
G01*
X12299000Y-13399000D02*
X12401000Y-13501000D01*
X12401000Y-13399000D02*
X12299000Y-13501000D01*
X12401000Y-13450000D02*
G75*
G02*
X12299000Y-13450000I-51000J0D01*
G01*
X12299000Y-13450000D02*
G75*
G02*
X12401000Y-13450000I51000J0D01*
G01*
X12299000Y-13649000D02*
X12401000Y-13751000D01*
X12401000Y-13649000D02*
X12299000Y-13751000D01*
X12401000Y-13700000D02*
G75*
G02*
X12299000Y-13700000I-51000J0D01*
G01*
X12299000Y-13700000D02*
G75*
G02*
X12401000Y-13700000I51000J0D01*
G01*
X12299000Y-13899000D02*
X12401000Y-14001000D01*
X12401000Y-13899000D02*
X12299000Y-14001000D01*
X12401000Y-13950000D02*
G75*
G02*
X12299000Y-13950000I-51000J0D01*
G01*
X12299000Y-13950000D02*
G75*
G02*
X12401000Y-13950000I51000J0D01*
G01*
X12599000Y-12899000D02*
X12701000Y-13001000D01*
X12701000Y-12899000D02*
X12599000Y-13001000D01*
X12701000Y-12950000D02*
G75*
G02*
X12599000Y-12950000I-51000J0D01*
G01*
X12599000Y-12950000D02*
G75*
G02*
X12701000Y-12950000I51000J0D01*
G01*
X12599000Y-13149000D02*
X12701000Y-13251000D01*
X12701000Y-13149000D02*
X12599000Y-13251000D01*
X12701000Y-13200000D02*
G75*
G02*
X12599000Y-13200000I-51000J0D01*
G01*
X12599000Y-13200000D02*
G75*
G02*
X12701000Y-13200000I51000J0D01*
G01*
X12599000Y-13399000D02*
X12701000Y-13501000D01*
X12701000Y-13399000D02*
X12599000Y-13501000D01*
X12701000Y-13450000D02*
G75*
G02*
X12599000Y-13450000I-51000J0D01*
G01*
X12599000Y-13450000D02*
G75*
G02*
X12701000Y-13450000I51000J0D01*
G01*
X12599000Y-13649000D02*
X12701000Y-13751000D01*
X12701000Y-13649000D02*
X12599000Y-13751000D01*
X12701000Y-13700000D02*
G75*
G02*
X12599000Y-13700000I-51000J0D01*
G01*
X12599000Y-13700000D02*
G75*
G02*
X12701000Y-13700000I51000J0D01*
G01*
X12599000Y-13899000D02*
X12701000Y-14001000D01*
X12701000Y-13899000D02*
X12599000Y-14001000D01*
X12701000Y-13950000D02*
G75*
G02*
X12599000Y-13950000I-51000J0D01*
G01*
X12599000Y-13950000D02*
G75*
G02*
X12701000Y-13950000I51000J0D01*
G01*
D14*
X8465800Y-4923800D02*
X8618200Y-5076200D01*
X8618200Y-4923800D02*
X8465800Y-5076200D01*
X8542000Y-4923800D02*
X8542000Y-5076200D01*
X8465800Y-5000000D02*
X8618200Y-5000000D01*
X8973800Y-4923800D02*
X9126200Y-5076200D01*
X9126200Y-4923800D02*
X8973800Y-5076200D01*
X9050000Y-4923800D02*
X9050000Y-5076200D01*
X8973800Y-5000000D02*
X9126200Y-5000000D01*
X9481800Y-4923800D02*
X9634200Y-5076200D01*
X9634200Y-4923800D02*
X9481800Y-5076200D01*
X9558000Y-4923800D02*
X9558000Y-5076200D01*
X9481800Y-5000000D02*
X9634200Y-5000000D01*
X9989800Y-4923800D02*
X10142200Y-5076200D01*
X10142200Y-4923800D02*
X9989800Y-5076200D01*
X10066000Y-4923800D02*
X10066000Y-5076200D01*
X9989800Y-5000000D02*
X10142200Y-5000000D01*
X10497800Y-4923800D02*
X10650200Y-5076200D01*
X10650200Y-4923800D02*
X10497800Y-5076200D01*
X10574000Y-4923800D02*
X10574000Y-5076200D01*
X10497800Y-5000000D02*
X10650200Y-5000000D01*
X11005800Y-4923800D02*
X11158200Y-5076200D01*
X11158200Y-4923800D02*
X11005800Y-5076200D01*
X11082000Y-4923800D02*
X11082000Y-5076200D01*
X11005800Y-5000000D02*
X11158200Y-5000000D01*
D15*
X14008000Y-6431000D02*
X14168000Y-6591000D01*
X14168000Y-6431000D02*
X14008000Y-6591000D01*
X14144569Y-6567569D02*
X14144569Y-6454431D01*
X14031431Y-6454431D01*
X14031431Y-6567569D01*
X14144569Y-6567569D01*
X14770000Y-6431000D02*
X14930000Y-6591000D01*
X14930000Y-6431000D02*
X14770000Y-6591000D01*
X14906569Y-6567569D02*
X14906569Y-6454431D01*
X14793431Y-6454431D01*
X14793431Y-6567569D01*
X14906569Y-6567569D01*
X15532000Y-6431000D02*
X15692000Y-6591000D01*
X15692000Y-6431000D02*
X15532000Y-6591000D01*
X15668569Y-6567569D02*
X15668569Y-6454431D01*
X15555431Y-6454431D01*
X15555431Y-6567569D01*
X15668569Y-6567569D01*
D16*
X7798400Y-9098400D02*
X8001600Y-9301600D01*
X8001600Y-9098400D02*
X7798400Y-9301600D01*
X7900000Y-9301600D02*
X8001600Y-9200000D01*
X7900000Y-9098400D01*
X7798400Y-9200000D01*
X7900000Y-9301600D01*
X8198400Y-5698400D02*
X8401600Y-5901600D01*
X8401600Y-5698400D02*
X8198400Y-5901600D01*
X8300000Y-5901600D02*
X8401600Y-5800000D01*
X8300000Y-5698400D01*
X8198400Y-5800000D01*
X8300000Y-5901600D01*
X8398400Y-11998400D02*
X8601600Y-12201600D01*
X8601600Y-11998400D02*
X8398400Y-12201600D01*
X8500000Y-12201600D02*
X8601600Y-12100000D01*
X8500000Y-11998400D01*
X8398400Y-12100000D01*
X8500000Y-12201600D01*
X11698400Y-6598400D02*
X11901600Y-6801600D01*
X11901600Y-6598400D02*
X11698400Y-6801600D01*
X11800000Y-6801600D02*
X11901600Y-6700000D01*
X11800000Y-6598400D01*
X11698400Y-6700000D01*
X11800000Y-6801600D01*
X11818400Y-9669400D02*
X12021600Y-9872600D01*
X12021600Y-9669400D02*
X11818400Y-9872600D01*
X11920000Y-9872600D02*
X12021600Y-9771000D01*
X11920000Y-9669400D01*
X11818400Y-9771000D01*
X11920000Y-9872600D01*
X15007110Y-5308280D02*
X15210310Y-5511480D01*
X15210310Y-5308280D02*
X15007110Y-5511480D01*
X15108710Y-5511480D02*
X15210310Y-5409880D01*
X15108710Y-5308280D01*
X15007110Y-5409880D01*
X15108710Y-5511480D01*
X15007110Y-7256340D02*
X15210310Y-7459540D01*
X15210310Y-7256340D02*
X15007110Y-7459540D01*
X15108710Y-7459540D02*
X15210310Y-7357940D01*
X15108710Y-7256340D01*
X15007110Y-7357940D01*
X15108710Y-7459540D01*
X15022170Y-8471400D02*
X15225370Y-8674600D01*
X15225370Y-8471400D02*
X15022170Y-8674600D01*
X15123770Y-8674600D02*
X15225370Y-8573000D01*
X15123770Y-8471400D01*
X15022170Y-8573000D01*
X15123770Y-8674600D01*
D17*
X13707000Y-11486000D02*
X13707000Y-11696000D01*
X13602000Y-11591000D02*
X13812000Y-11591000D01*
X13812000Y-11591000D02*
G75*
G02*
X13602000Y-11591000I-105000J0D01*
G01*
X13602000Y-11591000D02*
G75*
G02*
X13812000Y-11591000I105000J0D01*
G01*
X14088000Y-11486000D02*
X14088000Y-11696000D01*
X13983000Y-11591000D02*
X14193000Y-11591000D01*
X14193000Y-11591000D02*
G75*
G02*
X13983000Y-11591000I-105000J0D01*
G01*
X13983000Y-11591000D02*
G75*
G02*
X14193000Y-11591000I105000J0D01*
G01*
X15612000Y-11486000D02*
X15612000Y-11696000D01*
X15507000Y-11591000D02*
X15717000Y-11591000D01*
X15717000Y-11591000D02*
G75*
G02*
X15507000Y-11591000I-105000J0D01*
G01*
X15507000Y-11591000D02*
G75*
G02*
X15717000Y-11591000I105000J0D01*
G01*
X15993000Y-11486000D02*
X15993000Y-11696000D01*
X15888000Y-11591000D02*
X16098000Y-11591000D01*
X16098000Y-11591000D02*
G75*
G02*
X15888000Y-11591000I-105000J0D01*
G01*
X15888000Y-11591000D02*
G75*
G02*
X16098000Y-11591000I105000J0D01*
G01*
D18*
X7812621Y-7542621D02*
X7812621Y-7369379D01*
X7639379Y-7369379D01*
X7639379Y-7542621D01*
X7812621Y-7542621D01*
X7848500Y-7456000D02*
G75*
G02*
X7603500Y-7456000I-122500J0D01*
G01*
X7603500Y-7456000D02*
G75*
G02*
X7848500Y-7456000I122500J0D01*
G01*
X7812621Y-10336621D02*
X7812621Y-10163379D01*
X7639379Y-10163379D01*
X7639379Y-10336621D01*
X7812621Y-10336621D01*
X7848500Y-10250000D02*
G75*
G02*
X7603500Y-10250000I-122500J0D01*
G01*
X7603500Y-10250000D02*
G75*
G02*
X7848500Y-10250000I122500J0D01*
G01*
X8574621Y-7542621D02*
X8574621Y-7369379D01*
X8401379Y-7369379D01*
X8401379Y-7542621D01*
X8574621Y-7542621D01*
X8610500Y-7456000D02*
G75*
G02*
X8365500Y-7456000I-122500J0D01*
G01*
X8365500Y-7456000D02*
G75*
G02*
X8610500Y-7456000I122500J0D01*
G01*
X8574621Y-10336621D02*
X8574621Y-10163379D01*
X8401379Y-10163379D01*
X8401379Y-10336621D01*
X8574621Y-10336621D01*
X8610500Y-10250000D02*
G75*
G02*
X8365500Y-10250000I-122500J0D01*
G01*
X8365500Y-10250000D02*
G75*
G02*
X8610500Y-10250000I122500J0D01*
G01*
X9336621Y-7542621D02*
X9336621Y-7369379D01*
X9163379Y-7369379D01*
X9163379Y-7542621D01*
X9336621Y-7542621D01*
X9372500Y-7456000D02*
G75*
G02*
X9127500Y-7456000I-122500J0D01*
G01*
X9127500Y-7456000D02*
G75*
G02*
X9372500Y-7456000I122500J0D01*
G01*
X9336621Y-10336621D02*
X9336621Y-10163379D01*
X9163379Y-10163379D01*
X9163379Y-10336621D01*
X9336621Y-10336621D01*
X9372500Y-10250000D02*
G75*
G02*
X9127500Y-10250000I-122500J0D01*
G01*
X9127500Y-10250000D02*
G75*
G02*
X9372500Y-10250000I122500J0D01*
G01*
D11*
X4208277Y-14563984D02*
X4208277Y-14363984D01*
X4208277Y-14363984D02*
X4255896Y-14363984D01*
X4255896Y-14363984D02*
X4284467Y-14373508D01*
X4284467Y-14373508D02*
X4303515Y-14392555D01*
X4303515Y-14392555D02*
X4313039Y-14411603D01*
X4313039Y-14411603D02*
X4322563Y-14449698D01*
X4322563Y-14449698D02*
X4322563Y-14478269D01*
X4322563Y-14478269D02*
X4313039Y-14516365D01*
X4313039Y-14516365D02*
X4303515Y-14535412D01*
X4303515Y-14535412D02*
X4284467Y-14554460D01*
X4284467Y-14554460D02*
X4255896Y-14563984D01*
X4255896Y-14563984D02*
X4208277Y-14563984D01*
X4408277Y-14563984D02*
X4408277Y-14430650D01*
X4408277Y-14468746D02*
X4417801Y-14449698D01*
X4417801Y-14449698D02*
X4427324Y-14440174D01*
X4427324Y-14440174D02*
X4446372Y-14430650D01*
X4446372Y-14430650D02*
X4465420Y-14430650D01*
X4532086Y-14563984D02*
X4532086Y-14430650D01*
X4532086Y-14363984D02*
X4522563Y-14373508D01*
X4522563Y-14373508D02*
X4532086Y-14383031D01*
X4532086Y-14383031D02*
X4541610Y-14373508D01*
X4541610Y-14373508D02*
X4532086Y-14363984D01*
X4532086Y-14363984D02*
X4532086Y-14383031D01*
X4655896Y-14563984D02*
X4636848Y-14554460D01*
X4636848Y-14554460D02*
X4627324Y-14535412D01*
X4627324Y-14535412D02*
X4627324Y-14363984D01*
X4760658Y-14563984D02*
X4741610Y-14554460D01*
X4741610Y-14554460D02*
X4732086Y-14535412D01*
X4732086Y-14535412D02*
X4732086Y-14363984D01*
X4989229Y-14563984D02*
X4989229Y-14363984D01*
X4989229Y-14363984D02*
X5055896Y-14506841D01*
X5055896Y-14506841D02*
X5122563Y-14363984D01*
X5122563Y-14363984D02*
X5122563Y-14563984D01*
X5303515Y-14563984D02*
X5303515Y-14459222D01*
X5303515Y-14459222D02*
X5293991Y-14440174D01*
X5293991Y-14440174D02*
X5274944Y-14430650D01*
X5274944Y-14430650D02*
X5236848Y-14430650D01*
X5236848Y-14430650D02*
X5217801Y-14440174D01*
X5303515Y-14554460D02*
X5284467Y-14563984D01*
X5284467Y-14563984D02*
X5236848Y-14563984D01*
X5236848Y-14563984D02*
X5217801Y-14554460D01*
X5217801Y-14554460D02*
X5208277Y-14535412D01*
X5208277Y-14535412D02*
X5208277Y-14516365D01*
X5208277Y-14516365D02*
X5217801Y-14497317D01*
X5217801Y-14497317D02*
X5236848Y-14487793D01*
X5236848Y-14487793D02*
X5284467Y-14487793D01*
X5284467Y-14487793D02*
X5303515Y-14478269D01*
X5398753Y-14430650D02*
X5398753Y-14630650D01*
X5398753Y-14440174D02*
X5417801Y-14430650D01*
X5417801Y-14430650D02*
X5455896Y-14430650D01*
X5455896Y-14430650D02*
X5474944Y-14440174D01*
X5474944Y-14440174D02*
X5484467Y-14449698D01*
X5484467Y-14449698D02*
X5493991Y-14468746D01*
X5493991Y-14468746D02*
X5493991Y-14525888D01*
X5493991Y-14525888D02*
X5484467Y-14544936D01*
X5484467Y-14544936D02*
X5474944Y-14554460D01*
X5474944Y-14554460D02*
X5455896Y-14563984D01*
X5455896Y-14563984D02*
X5417801Y-14563984D01*
X5417801Y-14563984D02*
X5398753Y-14554460D01*
X5579705Y-14544936D02*
X5589229Y-14554460D01*
X5589229Y-14554460D02*
X5579705Y-14563984D01*
X5579705Y-14563984D02*
X5570182Y-14554460D01*
X5570182Y-14554460D02*
X5579705Y-14544936D01*
X5579705Y-14544936D02*
X5579705Y-14563984D01*
X5579705Y-14440174D02*
X5589229Y-14449698D01*
X5589229Y-14449698D02*
X5579705Y-14459222D01*
X5579705Y-14459222D02*
X5570182Y-14449698D01*
X5570182Y-14449698D02*
X5579705Y-14440174D01*
X5579705Y-14440174D02*
X5579705Y-14459222D01*
D12*
X3917500Y-14877500D02*
X3947500Y-14907500D01*
X3947500Y-14877500D02*
X3917500Y-14907500D01*
D11*
X4246372Y-14783984D02*
X4265420Y-14783984D01*
X4265420Y-14783984D02*
X4284467Y-14793508D01*
X4284467Y-14793508D02*
X4293991Y-14803031D01*
X4293991Y-14803031D02*
X4303515Y-14822079D01*
X4303515Y-14822079D02*
X4313039Y-14860174D01*
X4313039Y-14860174D02*
X4313039Y-14907793D01*
X4313039Y-14907793D02*
X4303515Y-14945888D01*
X4303515Y-14945888D02*
X4293991Y-14964936D01*
X4293991Y-14964936D02*
X4284467Y-14974460D01*
X4284467Y-14974460D02*
X4265420Y-14983984D01*
X4265420Y-14983984D02*
X4246372Y-14983984D01*
X4246372Y-14983984D02*
X4227324Y-14974460D01*
X4227324Y-14974460D02*
X4217801Y-14964936D01*
X4217801Y-14964936D02*
X4208277Y-14945888D01*
X4208277Y-14945888D02*
X4198753Y-14907793D01*
X4198753Y-14907793D02*
X4198753Y-14860174D01*
X4198753Y-14860174D02*
X4208277Y-14822079D01*
X4208277Y-14822079D02*
X4217801Y-14803031D01*
X4217801Y-14803031D02*
X4227324Y-14793508D01*
X4227324Y-14793508D02*
X4246372Y-14783984D01*
X4398753Y-14964936D02*
X4408277Y-14974460D01*
X4408277Y-14974460D02*
X4398753Y-14983984D01*
X4398753Y-14983984D02*
X4389229Y-14974460D01*
X4389229Y-14974460D02*
X4398753Y-14964936D01*
X4398753Y-14964936D02*
X4398753Y-14983984D01*
X4474944Y-14783984D02*
X4598753Y-14783984D01*
X4598753Y-14783984D02*
X4532086Y-14860174D01*
X4532086Y-14860174D02*
X4560658Y-14860174D01*
X4560658Y-14860174D02*
X4579705Y-14869698D01*
X4579705Y-14869698D02*
X4589229Y-14879222D01*
X4589229Y-14879222D02*
X4598753Y-14898269D01*
X4598753Y-14898269D02*
X4598753Y-14945888D01*
X4598753Y-14945888D02*
X4589229Y-14964936D01*
X4589229Y-14964936D02*
X4579705Y-14974460D01*
X4579705Y-14974460D02*
X4560658Y-14983984D01*
X4560658Y-14983984D02*
X4503515Y-14983984D01*
X4503515Y-14983984D02*
X4484467Y-14974460D01*
X4484467Y-14974460D02*
X4474944Y-14964936D01*
X4722563Y-14783984D02*
X4741610Y-14783984D01*
X4741610Y-14783984D02*
X4760658Y-14793508D01*
X4760658Y-14793508D02*
X4770182Y-14803031D01*
X4770182Y-14803031D02*
X4779705Y-14822079D01*
X4779705Y-14822079D02*
X4789229Y-14860174D01*
X4789229Y-14860174D02*
X4789229Y-14907793D01*
X4789229Y-14907793D02*
X4779705Y-14945888D01*
X4779705Y-14945888D02*
X4770182Y-14964936D01*
X4770182Y-14964936D02*
X4760658Y-14974460D01*
X4760658Y-14974460D02*
X4741610Y-14983984D01*
X4741610Y-14983984D02*
X4722563Y-14983984D01*
X4722563Y-14983984D02*
X4703515Y-14974460D01*
X4703515Y-14974460D02*
X4693991Y-14964936D01*
X4693991Y-14964936D02*
X4684467Y-14945888D01*
X4684467Y-14945888D02*
X4674944Y-14907793D01*
X4674944Y-14907793D02*
X4674944Y-14860174D01*
X4674944Y-14860174D02*
X4684467Y-14822079D01*
X4684467Y-14822079D02*
X4693991Y-14803031D01*
X4693991Y-14803031D02*
X4703515Y-14793508D01*
X4703515Y-14793508D02*
X4722563Y-14783984D01*
X4913039Y-14783984D02*
X4932086Y-14783984D01*
X4932086Y-14783984D02*
X4951134Y-14793508D01*
X4951134Y-14793508D02*
X4960658Y-14803031D01*
X4960658Y-14803031D02*
X4970182Y-14822079D01*
X4970182Y-14822079D02*
X4979705Y-14860174D01*
X4979705Y-14860174D02*
X4979705Y-14907793D01*
X4979705Y-14907793D02*
X4970182Y-14945888D01*
X4970182Y-14945888D02*
X4960658Y-14964936D01*
X4960658Y-14964936D02*
X4951134Y-14974460D01*
X4951134Y-14974460D02*
X4932086Y-14983984D01*
X4932086Y-14983984D02*
X4913039Y-14983984D01*
X4913039Y-14983984D02*
X4893991Y-14974460D01*
X4893991Y-14974460D02*
X4884467Y-14964936D01*
X4884467Y-14964936D02*
X4874944Y-14945888D01*
X4874944Y-14945888D02*
X4865420Y-14907793D01*
X4865420Y-14907793D02*
X4865420Y-14860174D01*
X4865420Y-14860174D02*
X4874944Y-14822079D01*
X4874944Y-14822079D02*
X4884467Y-14803031D01*
X4884467Y-14803031D02*
X4893991Y-14793508D01*
X4893991Y-14793508D02*
X4913039Y-14783984D01*
X5065420Y-14983984D02*
X5065420Y-14850650D01*
X5065420Y-14869698D02*
X5074944Y-14860174D01*
X5074944Y-14860174D02*
X5093991Y-14850650D01*
X5093991Y-14850650D02*
X5122563Y-14850650D01*
X5122563Y-14850650D02*
X5141610Y-14860174D01*
X5141610Y-14860174D02*
X5151134Y-14879222D01*
X5151134Y-14879222D02*
X5151134Y-14983984D01*
X5151134Y-14879222D02*
X5160658Y-14860174D01*
X5160658Y-14860174D02*
X5179705Y-14850650D01*
X5179705Y-14850650D02*
X5208277Y-14850650D01*
X5208277Y-14850650D02*
X5227325Y-14860174D01*
X5227325Y-14860174D02*
X5236848Y-14879222D01*
X5236848Y-14879222D02*
X5236848Y-14983984D01*
X5332086Y-14983984D02*
X5332086Y-14850650D01*
X5332086Y-14869698D02*
X5341610Y-14860174D01*
X5341610Y-14860174D02*
X5360658Y-14850650D01*
X5360658Y-14850650D02*
X5389229Y-14850650D01*
X5389229Y-14850650D02*
X5408277Y-14860174D01*
X5408277Y-14860174D02*
X5417801Y-14879222D01*
X5417801Y-14879222D02*
X5417801Y-14983984D01*
X5417801Y-14879222D02*
X5427325Y-14860174D01*
X5427325Y-14860174D02*
X5446372Y-14850650D01*
X5446372Y-14850650D02*
X5474944Y-14850650D01*
X5474944Y-14850650D02*
X5493991Y-14860174D01*
X5493991Y-14860174D02*
X5503515Y-14879222D01*
X5503515Y-14879222D02*
X5503515Y-14983984D01*
X5893991Y-14774460D02*
X5722563Y-15031603D01*
X6151134Y-14783984D02*
X6170182Y-14783984D01*
X6170182Y-14783984D02*
X6189229Y-14793508D01*
X6189229Y-14793508D02*
X6198753Y-14803031D01*
X6198753Y-14803031D02*
X6208277Y-14822079D01*
X6208277Y-14822079D02*
X6217801Y-14860174D01*
X6217801Y-14860174D02*
X6217801Y-14907793D01*
X6217801Y-14907793D02*
X6208277Y-14945888D01*
X6208277Y-14945888D02*
X6198753Y-14964936D01*
X6198753Y-14964936D02*
X6189229Y-14974460D01*
X6189229Y-14974460D02*
X6170182Y-14983984D01*
X6170182Y-14983984D02*
X6151134Y-14983984D01*
X6151134Y-14983984D02*
X6132086Y-14974460D01*
X6132086Y-14974460D02*
X6122563Y-14964936D01*
X6122563Y-14964936D02*
X6113039Y-14945888D01*
X6113039Y-14945888D02*
X6103515Y-14907793D01*
X6103515Y-14907793D02*
X6103515Y-14860174D01*
X6103515Y-14860174D02*
X6113039Y-14822079D01*
X6113039Y-14822079D02*
X6122563Y-14803031D01*
X6122563Y-14803031D02*
X6132086Y-14793508D01*
X6132086Y-14793508D02*
X6151134Y-14783984D01*
X6303515Y-14964936D02*
X6313039Y-14974460D01*
X6313039Y-14974460D02*
X6303515Y-14983984D01*
X6303515Y-14983984D02*
X6293991Y-14974460D01*
X6293991Y-14974460D02*
X6303515Y-14964936D01*
X6303515Y-14964936D02*
X6303515Y-14983984D01*
X6436848Y-14783984D02*
X6455896Y-14783984D01*
X6455896Y-14783984D02*
X6474944Y-14793508D01*
X6474944Y-14793508D02*
X6484467Y-14803031D01*
X6484467Y-14803031D02*
X6493991Y-14822079D01*
X6493991Y-14822079D02*
X6503515Y-14860174D01*
X6503515Y-14860174D02*
X6503515Y-14907793D01*
X6503515Y-14907793D02*
X6493991Y-14945888D01*
X6493991Y-14945888D02*
X6484467Y-14964936D01*
X6484467Y-14964936D02*
X6474944Y-14974460D01*
X6474944Y-14974460D02*
X6455896Y-14983984D01*
X6455896Y-14983984D02*
X6436848Y-14983984D01*
X6436848Y-14983984D02*
X6417801Y-14974460D01*
X6417801Y-14974460D02*
X6408277Y-14964936D01*
X6408277Y-14964936D02*
X6398753Y-14945888D01*
X6398753Y-14945888D02*
X6389229Y-14907793D01*
X6389229Y-14907793D02*
X6389229Y-14860174D01*
X6389229Y-14860174D02*
X6398753Y-14822079D01*
X6398753Y-14822079D02*
X6408277Y-14803031D01*
X6408277Y-14803031D02*
X6417801Y-14793508D01*
X6417801Y-14793508D02*
X6436848Y-14783984D01*
X6693991Y-14983984D02*
X6579706Y-14983984D01*
X6636848Y-14983984D02*
X6636848Y-14783984D01*
X6636848Y-14783984D02*
X6617801Y-14812555D01*
X6617801Y-14812555D02*
X6598753Y-14831603D01*
X6598753Y-14831603D02*
X6579706Y-14841127D01*
X6884467Y-14983984D02*
X6770182Y-14983984D01*
X6827325Y-14983984D02*
X6827325Y-14783984D01*
X6827325Y-14783984D02*
X6808277Y-14812555D01*
X6808277Y-14812555D02*
X6789229Y-14831603D01*
X6789229Y-14831603D02*
X6770182Y-14841127D01*
X6998753Y-14869698D02*
X6979706Y-14860174D01*
X6979706Y-14860174D02*
X6970182Y-14850650D01*
X6970182Y-14850650D02*
X6960658Y-14831603D01*
X6960658Y-14831603D02*
X6960658Y-14822079D01*
X6960658Y-14822079D02*
X6970182Y-14803031D01*
X6970182Y-14803031D02*
X6979706Y-14793508D01*
X6979706Y-14793508D02*
X6998753Y-14783984D01*
X6998753Y-14783984D02*
X7036848Y-14783984D01*
X7036848Y-14783984D02*
X7055896Y-14793508D01*
X7055896Y-14793508D02*
X7065420Y-14803031D01*
X7065420Y-14803031D02*
X7074944Y-14822079D01*
X7074944Y-14822079D02*
X7074944Y-14831603D01*
X7074944Y-14831603D02*
X7065420Y-14850650D01*
X7065420Y-14850650D02*
X7055896Y-14860174D01*
X7055896Y-14860174D02*
X7036848Y-14869698D01*
X7036848Y-14869698D02*
X6998753Y-14869698D01*
X6998753Y-14869698D02*
X6979706Y-14879222D01*
X6979706Y-14879222D02*
X6970182Y-14888746D01*
X6970182Y-14888746D02*
X6960658Y-14907793D01*
X6960658Y-14907793D02*
X6960658Y-14945888D01*
X6960658Y-14945888D02*
X6970182Y-14964936D01*
X6970182Y-14964936D02*
X6979706Y-14974460D01*
X6979706Y-14974460D02*
X6998753Y-14983984D01*
X6998753Y-14983984D02*
X7036848Y-14983984D01*
X7036848Y-14983984D02*
X7055896Y-14974460D01*
X7055896Y-14974460D02*
X7065420Y-14964936D01*
X7065420Y-14964936D02*
X7074944Y-14945888D01*
X7074944Y-14945888D02*
X7074944Y-14907793D01*
X7074944Y-14907793D02*
X7065420Y-14888746D01*
X7065420Y-14888746D02*
X7055896Y-14879222D01*
X7055896Y-14879222D02*
X7036848Y-14869698D01*
X7151134Y-14783984D02*
X7151134Y-14822079D01*
X7227325Y-14783984D02*
X7227325Y-14822079D01*
X7522563Y-15060174D02*
X7513039Y-15050650D01*
X7513039Y-15050650D02*
X7493991Y-15022079D01*
X7493991Y-15022079D02*
X7484468Y-15003031D01*
X7484468Y-15003031D02*
X7474944Y-14974460D01*
X7474944Y-14974460D02*
X7465420Y-14926841D01*
X7465420Y-14926841D02*
X7465420Y-14888746D01*
X7465420Y-14888746D02*
X7474944Y-14841127D01*
X7474944Y-14841127D02*
X7484468Y-14812555D01*
X7484468Y-14812555D02*
X7493991Y-14793508D01*
X7493991Y-14793508D02*
X7513039Y-14764936D01*
X7513039Y-14764936D02*
X7522563Y-14755412D01*
X7579706Y-14783984D02*
X7703515Y-14783984D01*
X7703515Y-14783984D02*
X7636848Y-14860174D01*
X7636848Y-14860174D02*
X7665420Y-14860174D01*
X7665420Y-14860174D02*
X7684468Y-14869698D01*
X7684468Y-14869698D02*
X7693991Y-14879222D01*
X7693991Y-14879222D02*
X7703515Y-14898269D01*
X7703515Y-14898269D02*
X7703515Y-14945888D01*
X7703515Y-14945888D02*
X7693991Y-14964936D01*
X7693991Y-14964936D02*
X7684468Y-14974460D01*
X7684468Y-14974460D02*
X7665420Y-14983984D01*
X7665420Y-14983984D02*
X7608277Y-14983984D01*
X7608277Y-14983984D02*
X7589229Y-14974460D01*
X7589229Y-14974460D02*
X7579706Y-14964936D01*
X7941610Y-14983984D02*
X7941610Y-14783984D01*
X8027325Y-14983984D02*
X8027325Y-14879222D01*
X8027325Y-14879222D02*
X8017801Y-14860174D01*
X8017801Y-14860174D02*
X7998753Y-14850650D01*
X7998753Y-14850650D02*
X7970182Y-14850650D01*
X7970182Y-14850650D02*
X7951134Y-14860174D01*
X7951134Y-14860174D02*
X7941610Y-14869698D01*
X8151134Y-14983984D02*
X8132087Y-14974460D01*
X8132087Y-14974460D02*
X8122563Y-14964936D01*
X8122563Y-14964936D02*
X8113039Y-14945888D01*
X8113039Y-14945888D02*
X8113039Y-14888746D01*
X8113039Y-14888746D02*
X8122563Y-14869698D01*
X8122563Y-14869698D02*
X8132087Y-14860174D01*
X8132087Y-14860174D02*
X8151134Y-14850650D01*
X8151134Y-14850650D02*
X8179706Y-14850650D01*
X8179706Y-14850650D02*
X8198753Y-14860174D01*
X8198753Y-14860174D02*
X8208277Y-14869698D01*
X8208277Y-14869698D02*
X8217801Y-14888746D01*
X8217801Y-14888746D02*
X8217801Y-14945888D01*
X8217801Y-14945888D02*
X8208277Y-14964936D01*
X8208277Y-14964936D02*
X8198753Y-14974460D01*
X8198753Y-14974460D02*
X8179706Y-14983984D01*
X8179706Y-14983984D02*
X8151134Y-14983984D01*
X8332087Y-14983984D02*
X8313039Y-14974460D01*
X8313039Y-14974460D02*
X8303515Y-14955412D01*
X8303515Y-14955412D02*
X8303515Y-14783984D01*
X8484468Y-14974460D02*
X8465420Y-14983984D01*
X8465420Y-14983984D02*
X8427325Y-14983984D01*
X8427325Y-14983984D02*
X8408277Y-14974460D01*
X8408277Y-14974460D02*
X8398753Y-14955412D01*
X8398753Y-14955412D02*
X8398753Y-14879222D01*
X8398753Y-14879222D02*
X8408277Y-14860174D01*
X8408277Y-14860174D02*
X8427325Y-14850650D01*
X8427325Y-14850650D02*
X8465420Y-14850650D01*
X8465420Y-14850650D02*
X8484468Y-14860174D01*
X8484468Y-14860174D02*
X8493992Y-14879222D01*
X8493992Y-14879222D02*
X8493992Y-14898269D01*
X8493992Y-14898269D02*
X8398753Y-14917317D01*
X8570182Y-14974460D02*
X8589230Y-14983984D01*
X8589230Y-14983984D02*
X8627325Y-14983984D01*
X8627325Y-14983984D02*
X8646373Y-14974460D01*
X8646373Y-14974460D02*
X8655896Y-14955412D01*
X8655896Y-14955412D02*
X8655896Y-14945888D01*
X8655896Y-14945888D02*
X8646373Y-14926841D01*
X8646373Y-14926841D02*
X8627325Y-14917317D01*
X8627325Y-14917317D02*
X8598753Y-14917317D01*
X8598753Y-14917317D02*
X8579706Y-14907793D01*
X8579706Y-14907793D02*
X8570182Y-14888746D01*
X8570182Y-14888746D02*
X8570182Y-14879222D01*
X8570182Y-14879222D02*
X8579706Y-14860174D01*
X8579706Y-14860174D02*
X8598753Y-14850650D01*
X8598753Y-14850650D02*
X8627325Y-14850650D01*
X8627325Y-14850650D02*
X8646373Y-14860174D01*
X8722563Y-15060174D02*
X8732087Y-15050650D01*
X8732087Y-15050650D02*
X8751134Y-15022079D01*
X8751134Y-15022079D02*
X8760658Y-15003031D01*
X8760658Y-15003031D02*
X8770182Y-14974460D01*
X8770182Y-14974460D02*
X8779706Y-14926841D01*
X8779706Y-14926841D02*
X8779706Y-14888746D01*
X8779706Y-14888746D02*
X8770182Y-14841127D01*
X8770182Y-14841127D02*
X8760658Y-14812555D01*
X8760658Y-14812555D02*
X8751134Y-14793508D01*
X8751134Y-14793508D02*
X8732087Y-14764936D01*
X8732087Y-14764936D02*
X8722563Y-14755412D01*
D12*
X3947500Y-15156500D02*
G75*
G02*
X3871300Y-15156500I-38100J0D01*
G01*
X3871300Y-15156500D02*
G75*
G02*
X3947500Y-15156500I38100J0D01*
G01*
D11*
X4246372Y-15047984D02*
X4265420Y-15047984D01*
X4265420Y-15047984D02*
X4284467Y-15057508D01*
X4284467Y-15057508D02*
X4293991Y-15067031D01*
X4293991Y-15067031D02*
X4303515Y-15086079D01*
X4303515Y-15086079D02*
X4313039Y-15124174D01*
X4313039Y-15124174D02*
X4313039Y-15171793D01*
X4313039Y-15171793D02*
X4303515Y-15209888D01*
X4303515Y-15209888D02*
X4293991Y-15228936D01*
X4293991Y-15228936D02*
X4284467Y-15238460D01*
X4284467Y-15238460D02*
X4265420Y-15247984D01*
X4265420Y-15247984D02*
X4246372Y-15247984D01*
X4246372Y-15247984D02*
X4227324Y-15238460D01*
X4227324Y-15238460D02*
X4217801Y-15228936D01*
X4217801Y-15228936D02*
X4208277Y-15209888D01*
X4208277Y-15209888D02*
X4198753Y-15171793D01*
X4198753Y-15171793D02*
X4198753Y-15124174D01*
X4198753Y-15124174D02*
X4208277Y-15086079D01*
X4208277Y-15086079D02*
X4217801Y-15067031D01*
X4217801Y-15067031D02*
X4227324Y-15057508D01*
X4227324Y-15057508D02*
X4246372Y-15047984D01*
X4398753Y-15228936D02*
X4408277Y-15238460D01*
X4408277Y-15238460D02*
X4398753Y-15247984D01*
X4398753Y-15247984D02*
X4389229Y-15238460D01*
X4389229Y-15238460D02*
X4398753Y-15228936D01*
X4398753Y-15228936D02*
X4398753Y-15247984D01*
X4474944Y-15047984D02*
X4608277Y-15047984D01*
X4608277Y-15047984D02*
X4522563Y-15247984D01*
X4770182Y-15047984D02*
X4732086Y-15047984D01*
X4732086Y-15047984D02*
X4713039Y-15057508D01*
X4713039Y-15057508D02*
X4703515Y-15067031D01*
X4703515Y-15067031D02*
X4684467Y-15095603D01*
X4684467Y-15095603D02*
X4674944Y-15133698D01*
X4674944Y-15133698D02*
X4674944Y-15209888D01*
X4674944Y-15209888D02*
X4684467Y-15228936D01*
X4684467Y-15228936D02*
X4693991Y-15238460D01*
X4693991Y-15238460D02*
X4713039Y-15247984D01*
X4713039Y-15247984D02*
X4751134Y-15247984D01*
X4751134Y-15247984D02*
X4770182Y-15238460D01*
X4770182Y-15238460D02*
X4779705Y-15228936D01*
X4779705Y-15228936D02*
X4789229Y-15209888D01*
X4789229Y-15209888D02*
X4789229Y-15162269D01*
X4789229Y-15162269D02*
X4779705Y-15143222D01*
X4779705Y-15143222D02*
X4770182Y-15133698D01*
X4770182Y-15133698D02*
X4751134Y-15124174D01*
X4751134Y-15124174D02*
X4713039Y-15124174D01*
X4713039Y-15124174D02*
X4693991Y-15133698D01*
X4693991Y-15133698D02*
X4684467Y-15143222D01*
X4684467Y-15143222D02*
X4674944Y-15162269D01*
X4865420Y-15067031D02*
X4874944Y-15057508D01*
X4874944Y-15057508D02*
X4893991Y-15047984D01*
X4893991Y-15047984D02*
X4941610Y-15047984D01*
X4941610Y-15047984D02*
X4960658Y-15057508D01*
X4960658Y-15057508D02*
X4970182Y-15067031D01*
X4970182Y-15067031D02*
X4979705Y-15086079D01*
X4979705Y-15086079D02*
X4979705Y-15105127D01*
X4979705Y-15105127D02*
X4970182Y-15133698D01*
X4970182Y-15133698D02*
X4855896Y-15247984D01*
X4855896Y-15247984D02*
X4979705Y-15247984D01*
X5065420Y-15247984D02*
X5065420Y-15114650D01*
X5065420Y-15133698D02*
X5074944Y-15124174D01*
X5074944Y-15124174D02*
X5093991Y-15114650D01*
X5093991Y-15114650D02*
X5122563Y-15114650D01*
X5122563Y-15114650D02*
X5141610Y-15124174D01*
X5141610Y-15124174D02*
X5151134Y-15143222D01*
X5151134Y-15143222D02*
X5151134Y-15247984D01*
X5151134Y-15143222D02*
X5160658Y-15124174D01*
X5160658Y-15124174D02*
X5179705Y-15114650D01*
X5179705Y-15114650D02*
X5208277Y-15114650D01*
X5208277Y-15114650D02*
X5227325Y-15124174D01*
X5227325Y-15124174D02*
X5236848Y-15143222D01*
X5236848Y-15143222D02*
X5236848Y-15247984D01*
X5332086Y-15247984D02*
X5332086Y-15114650D01*
X5332086Y-15133698D02*
X5341610Y-15124174D01*
X5341610Y-15124174D02*
X5360658Y-15114650D01*
X5360658Y-15114650D02*
X5389229Y-15114650D01*
X5389229Y-15114650D02*
X5408277Y-15124174D01*
X5408277Y-15124174D02*
X5417801Y-15143222D01*
X5417801Y-15143222D02*
X5417801Y-15247984D01*
X5417801Y-15143222D02*
X5427325Y-15124174D01*
X5427325Y-15124174D02*
X5446372Y-15114650D01*
X5446372Y-15114650D02*
X5474944Y-15114650D01*
X5474944Y-15114650D02*
X5493991Y-15124174D01*
X5493991Y-15124174D02*
X5503515Y-15143222D01*
X5503515Y-15143222D02*
X5503515Y-15247984D01*
X5893991Y-15038460D02*
X5722563Y-15295603D01*
X6151134Y-15047984D02*
X6170182Y-15047984D01*
X6170182Y-15047984D02*
X6189229Y-15057508D01*
X6189229Y-15057508D02*
X6198753Y-15067031D01*
X6198753Y-15067031D02*
X6208277Y-15086079D01*
X6208277Y-15086079D02*
X6217801Y-15124174D01*
X6217801Y-15124174D02*
X6217801Y-15171793D01*
X6217801Y-15171793D02*
X6208277Y-15209888D01*
X6208277Y-15209888D02*
X6198753Y-15228936D01*
X6198753Y-15228936D02*
X6189229Y-15238460D01*
X6189229Y-15238460D02*
X6170182Y-15247984D01*
X6170182Y-15247984D02*
X6151134Y-15247984D01*
X6151134Y-15247984D02*
X6132086Y-15238460D01*
X6132086Y-15238460D02*
X6122563Y-15228936D01*
X6122563Y-15228936D02*
X6113039Y-15209888D01*
X6113039Y-15209888D02*
X6103515Y-15171793D01*
X6103515Y-15171793D02*
X6103515Y-15124174D01*
X6103515Y-15124174D02*
X6113039Y-15086079D01*
X6113039Y-15086079D02*
X6122563Y-15067031D01*
X6122563Y-15067031D02*
X6132086Y-15057508D01*
X6132086Y-15057508D02*
X6151134Y-15047984D01*
X6303515Y-15228936D02*
X6313039Y-15238460D01*
X6313039Y-15238460D02*
X6303515Y-15247984D01*
X6303515Y-15247984D02*
X6293991Y-15238460D01*
X6293991Y-15238460D02*
X6303515Y-15228936D01*
X6303515Y-15228936D02*
X6303515Y-15247984D01*
X6436848Y-15047984D02*
X6455896Y-15047984D01*
X6455896Y-15047984D02*
X6474944Y-15057508D01*
X6474944Y-15057508D02*
X6484467Y-15067031D01*
X6484467Y-15067031D02*
X6493991Y-15086079D01*
X6493991Y-15086079D02*
X6503515Y-15124174D01*
X6503515Y-15124174D02*
X6503515Y-15171793D01*
X6503515Y-15171793D02*
X6493991Y-15209888D01*
X6493991Y-15209888D02*
X6484467Y-15228936D01*
X6484467Y-15228936D02*
X6474944Y-15238460D01*
X6474944Y-15238460D02*
X6455896Y-15247984D01*
X6455896Y-15247984D02*
X6436848Y-15247984D01*
X6436848Y-15247984D02*
X6417801Y-15238460D01*
X6417801Y-15238460D02*
X6408277Y-15228936D01*
X6408277Y-15228936D02*
X6398753Y-15209888D01*
X6398753Y-15209888D02*
X6389229Y-15171793D01*
X6389229Y-15171793D02*
X6389229Y-15124174D01*
X6389229Y-15124174D02*
X6398753Y-15086079D01*
X6398753Y-15086079D02*
X6408277Y-15067031D01*
X6408277Y-15067031D02*
X6417801Y-15057508D01*
X6417801Y-15057508D02*
X6436848Y-15047984D01*
X6570182Y-15047984D02*
X6693991Y-15047984D01*
X6693991Y-15047984D02*
X6627325Y-15124174D01*
X6627325Y-15124174D02*
X6655896Y-15124174D01*
X6655896Y-15124174D02*
X6674944Y-15133698D01*
X6674944Y-15133698D02*
X6684467Y-15143222D01*
X6684467Y-15143222D02*
X6693991Y-15162269D01*
X6693991Y-15162269D02*
X6693991Y-15209888D01*
X6693991Y-15209888D02*
X6684467Y-15228936D01*
X6684467Y-15228936D02*
X6674944Y-15238460D01*
X6674944Y-15238460D02*
X6655896Y-15247984D01*
X6655896Y-15247984D02*
X6598753Y-15247984D01*
X6598753Y-15247984D02*
X6579706Y-15238460D01*
X6579706Y-15238460D02*
X6570182Y-15228936D01*
X6817801Y-15047984D02*
X6836848Y-15047984D01*
X6836848Y-15047984D02*
X6855896Y-15057508D01*
X6855896Y-15057508D02*
X6865420Y-15067031D01*
X6865420Y-15067031D02*
X6874944Y-15086079D01*
X6874944Y-15086079D02*
X6884467Y-15124174D01*
X6884467Y-15124174D02*
X6884467Y-15171793D01*
X6884467Y-15171793D02*
X6874944Y-15209888D01*
X6874944Y-15209888D02*
X6865420Y-15228936D01*
X6865420Y-15228936D02*
X6855896Y-15238460D01*
X6855896Y-15238460D02*
X6836848Y-15247984D01*
X6836848Y-15247984D02*
X6817801Y-15247984D01*
X6817801Y-15247984D02*
X6798753Y-15238460D01*
X6798753Y-15238460D02*
X6789229Y-15228936D01*
X6789229Y-15228936D02*
X6779706Y-15209888D01*
X6779706Y-15209888D02*
X6770182Y-15171793D01*
X6770182Y-15171793D02*
X6770182Y-15124174D01*
X6770182Y-15124174D02*
X6779706Y-15086079D01*
X6779706Y-15086079D02*
X6789229Y-15067031D01*
X6789229Y-15067031D02*
X6798753Y-15057508D01*
X6798753Y-15057508D02*
X6817801Y-15047984D01*
X7008277Y-15047984D02*
X7027325Y-15047984D01*
X7027325Y-15047984D02*
X7046372Y-15057508D01*
X7046372Y-15057508D02*
X7055896Y-15067031D01*
X7055896Y-15067031D02*
X7065420Y-15086079D01*
X7065420Y-15086079D02*
X7074944Y-15124174D01*
X7074944Y-15124174D02*
X7074944Y-15171793D01*
X7074944Y-15171793D02*
X7065420Y-15209888D01*
X7065420Y-15209888D02*
X7055896Y-15228936D01*
X7055896Y-15228936D02*
X7046372Y-15238460D01*
X7046372Y-15238460D02*
X7027325Y-15247984D01*
X7027325Y-15247984D02*
X7008277Y-15247984D01*
X7008277Y-15247984D02*
X6989229Y-15238460D01*
X6989229Y-15238460D02*
X6979706Y-15228936D01*
X6979706Y-15228936D02*
X6970182Y-15209888D01*
X6970182Y-15209888D02*
X6960658Y-15171793D01*
X6960658Y-15171793D02*
X6960658Y-15124174D01*
X6960658Y-15124174D02*
X6970182Y-15086079D01*
X6970182Y-15086079D02*
X6979706Y-15067031D01*
X6979706Y-15067031D02*
X6989229Y-15057508D01*
X6989229Y-15057508D02*
X7008277Y-15047984D01*
X7151134Y-15047984D02*
X7151134Y-15086079D01*
X7227325Y-15047984D02*
X7227325Y-15086079D01*
X7522563Y-15324174D02*
X7513039Y-15314650D01*
X7513039Y-15314650D02*
X7493991Y-15286079D01*
X7493991Y-15286079D02*
X7484468Y-15267031D01*
X7484468Y-15267031D02*
X7474944Y-15238460D01*
X7474944Y-15238460D02*
X7465420Y-15190841D01*
X7465420Y-15190841D02*
X7465420Y-15152746D01*
X7465420Y-15152746D02*
X7474944Y-15105127D01*
X7474944Y-15105127D02*
X7484468Y-15076555D01*
X7484468Y-15076555D02*
X7493991Y-15057508D01*
X7493991Y-15057508D02*
X7513039Y-15028936D01*
X7513039Y-15028936D02*
X7522563Y-15019412D01*
X7589229Y-15067031D02*
X7598753Y-15057508D01*
X7598753Y-15057508D02*
X7617801Y-15047984D01*
X7617801Y-15047984D02*
X7665420Y-15047984D01*
X7665420Y-15047984D02*
X7684468Y-15057508D01*
X7684468Y-15057508D02*
X7693991Y-15067031D01*
X7693991Y-15067031D02*
X7703515Y-15086079D01*
X7703515Y-15086079D02*
X7703515Y-15105127D01*
X7703515Y-15105127D02*
X7693991Y-15133698D01*
X7693991Y-15133698D02*
X7579706Y-15247984D01*
X7579706Y-15247984D02*
X7703515Y-15247984D01*
X7941610Y-15247984D02*
X7941610Y-15047984D01*
X8027325Y-15247984D02*
X8027325Y-15143222D01*
X8027325Y-15143222D02*
X8017801Y-15124174D01*
X8017801Y-15124174D02*
X7998753Y-15114650D01*
X7998753Y-15114650D02*
X7970182Y-15114650D01*
X7970182Y-15114650D02*
X7951134Y-15124174D01*
X7951134Y-15124174D02*
X7941610Y-15133698D01*
X8151134Y-15247984D02*
X8132087Y-15238460D01*
X8132087Y-15238460D02*
X8122563Y-15228936D01*
X8122563Y-15228936D02*
X8113039Y-15209888D01*
X8113039Y-15209888D02*
X8113039Y-15152746D01*
X8113039Y-15152746D02*
X8122563Y-15133698D01*
X8122563Y-15133698D02*
X8132087Y-15124174D01*
X8132087Y-15124174D02*
X8151134Y-15114650D01*
X8151134Y-15114650D02*
X8179706Y-15114650D01*
X8179706Y-15114650D02*
X8198753Y-15124174D01*
X8198753Y-15124174D02*
X8208277Y-15133698D01*
X8208277Y-15133698D02*
X8217801Y-15152746D01*
X8217801Y-15152746D02*
X8217801Y-15209888D01*
X8217801Y-15209888D02*
X8208277Y-15228936D01*
X8208277Y-15228936D02*
X8198753Y-15238460D01*
X8198753Y-15238460D02*
X8179706Y-15247984D01*
X8179706Y-15247984D02*
X8151134Y-15247984D01*
X8332087Y-15247984D02*
X8313039Y-15238460D01*
X8313039Y-15238460D02*
X8303515Y-15219412D01*
X8303515Y-15219412D02*
X8303515Y-15047984D01*
X8484468Y-15238460D02*
X8465420Y-15247984D01*
X8465420Y-15247984D02*
X8427325Y-15247984D01*
X8427325Y-15247984D02*
X8408277Y-15238460D01*
X8408277Y-15238460D02*
X8398753Y-15219412D01*
X8398753Y-15219412D02*
X8398753Y-15143222D01*
X8398753Y-15143222D02*
X8408277Y-15124174D01*
X8408277Y-15124174D02*
X8427325Y-15114650D01*
X8427325Y-15114650D02*
X8465420Y-15114650D01*
X8465420Y-15114650D02*
X8484468Y-15124174D01*
X8484468Y-15124174D02*
X8493992Y-15143222D01*
X8493992Y-15143222D02*
X8493992Y-15162269D01*
X8493992Y-15162269D02*
X8398753Y-15181317D01*
X8570182Y-15238460D02*
X8589230Y-15247984D01*
X8589230Y-15247984D02*
X8627325Y-15247984D01*
X8627325Y-15247984D02*
X8646373Y-15238460D01*
X8646373Y-15238460D02*
X8655896Y-15219412D01*
X8655896Y-15219412D02*
X8655896Y-15209888D01*
X8655896Y-15209888D02*
X8646373Y-15190841D01*
X8646373Y-15190841D02*
X8627325Y-15181317D01*
X8627325Y-15181317D02*
X8598753Y-15181317D01*
X8598753Y-15181317D02*
X8579706Y-15171793D01*
X8579706Y-15171793D02*
X8570182Y-15152746D01*
X8570182Y-15152746D02*
X8570182Y-15143222D01*
X8570182Y-15143222D02*
X8579706Y-15124174D01*
X8579706Y-15124174D02*
X8598753Y-15114650D01*
X8598753Y-15114650D02*
X8627325Y-15114650D01*
X8627325Y-15114650D02*
X8646373Y-15124174D01*
X8722563Y-15324174D02*
X8732087Y-15314650D01*
X8732087Y-15314650D02*
X8751134Y-15286079D01*
X8751134Y-15286079D02*
X8760658Y-15267031D01*
X8760658Y-15267031D02*
X8770182Y-15238460D01*
X8770182Y-15238460D02*
X8779706Y-15190841D01*
X8779706Y-15190841D02*
X8779706Y-15152746D01*
X8779706Y-15152746D02*
X8770182Y-15105127D01*
X8770182Y-15105127D02*
X8760658Y-15076555D01*
X8760658Y-15076555D02*
X8751134Y-15057508D01*
X8751134Y-15057508D02*
X8732087Y-15028936D01*
X8732087Y-15028936D02*
X8722563Y-15019412D01*
D12*
X3907500Y-15380500D02*
X3907500Y-15460500D01*
X3867500Y-15420500D02*
X3947500Y-15420500D01*
D11*
X4246372Y-15311984D02*
X4265420Y-15311984D01*
X4265420Y-15311984D02*
X4284467Y-15321508D01*
X4284467Y-15321508D02*
X4293991Y-15331031D01*
X4293991Y-15331031D02*
X4303515Y-15350079D01*
X4303515Y-15350079D02*
X4313039Y-15388174D01*
X4313039Y-15388174D02*
X4313039Y-15435793D01*
X4313039Y-15435793D02*
X4303515Y-15473888D01*
X4303515Y-15473888D02*
X4293991Y-15492936D01*
X4293991Y-15492936D02*
X4284467Y-15502460D01*
X4284467Y-15502460D02*
X4265420Y-15511984D01*
X4265420Y-15511984D02*
X4246372Y-15511984D01*
X4246372Y-15511984D02*
X4227324Y-15502460D01*
X4227324Y-15502460D02*
X4217801Y-15492936D01*
X4217801Y-15492936D02*
X4208277Y-15473888D01*
X4208277Y-15473888D02*
X4198753Y-15435793D01*
X4198753Y-15435793D02*
X4198753Y-15388174D01*
X4198753Y-15388174D02*
X4208277Y-15350079D01*
X4208277Y-15350079D02*
X4217801Y-15331031D01*
X4217801Y-15331031D02*
X4227324Y-15321508D01*
X4227324Y-15321508D02*
X4246372Y-15311984D01*
X4398753Y-15492936D02*
X4408277Y-15502460D01*
X4408277Y-15502460D02*
X4398753Y-15511984D01*
X4398753Y-15511984D02*
X4389229Y-15502460D01*
X4389229Y-15502460D02*
X4398753Y-15492936D01*
X4398753Y-15492936D02*
X4398753Y-15511984D01*
X4522563Y-15397698D02*
X4503515Y-15388174D01*
X4503515Y-15388174D02*
X4493991Y-15378650D01*
X4493991Y-15378650D02*
X4484467Y-15359603D01*
X4484467Y-15359603D02*
X4484467Y-15350079D01*
X4484467Y-15350079D02*
X4493991Y-15331031D01*
X4493991Y-15331031D02*
X4503515Y-15321508D01*
X4503515Y-15321508D02*
X4522563Y-15311984D01*
X4522563Y-15311984D02*
X4560658Y-15311984D01*
X4560658Y-15311984D02*
X4579705Y-15321508D01*
X4579705Y-15321508D02*
X4589229Y-15331031D01*
X4589229Y-15331031D02*
X4598753Y-15350079D01*
X4598753Y-15350079D02*
X4598753Y-15359603D01*
X4598753Y-15359603D02*
X4589229Y-15378650D01*
X4589229Y-15378650D02*
X4579705Y-15388174D01*
X4579705Y-15388174D02*
X4560658Y-15397698D01*
X4560658Y-15397698D02*
X4522563Y-15397698D01*
X4522563Y-15397698D02*
X4503515Y-15407222D01*
X4503515Y-15407222D02*
X4493991Y-15416746D01*
X4493991Y-15416746D02*
X4484467Y-15435793D01*
X4484467Y-15435793D02*
X4484467Y-15473888D01*
X4484467Y-15473888D02*
X4493991Y-15492936D01*
X4493991Y-15492936D02*
X4503515Y-15502460D01*
X4503515Y-15502460D02*
X4522563Y-15511984D01*
X4522563Y-15511984D02*
X4560658Y-15511984D01*
X4560658Y-15511984D02*
X4579705Y-15502460D01*
X4579705Y-15502460D02*
X4589229Y-15492936D01*
X4589229Y-15492936D02*
X4598753Y-15473888D01*
X4598753Y-15473888D02*
X4598753Y-15435793D01*
X4598753Y-15435793D02*
X4589229Y-15416746D01*
X4589229Y-15416746D02*
X4579705Y-15407222D01*
X4579705Y-15407222D02*
X4560658Y-15397698D01*
X4722563Y-15311984D02*
X4741610Y-15311984D01*
X4741610Y-15311984D02*
X4760658Y-15321508D01*
X4760658Y-15321508D02*
X4770182Y-15331031D01*
X4770182Y-15331031D02*
X4779705Y-15350079D01*
X4779705Y-15350079D02*
X4789229Y-15388174D01*
X4789229Y-15388174D02*
X4789229Y-15435793D01*
X4789229Y-15435793D02*
X4779705Y-15473888D01*
X4779705Y-15473888D02*
X4770182Y-15492936D01*
X4770182Y-15492936D02*
X4760658Y-15502460D01*
X4760658Y-15502460D02*
X4741610Y-15511984D01*
X4741610Y-15511984D02*
X4722563Y-15511984D01*
X4722563Y-15511984D02*
X4703515Y-15502460D01*
X4703515Y-15502460D02*
X4693991Y-15492936D01*
X4693991Y-15492936D02*
X4684467Y-15473888D01*
X4684467Y-15473888D02*
X4674944Y-15435793D01*
X4674944Y-15435793D02*
X4674944Y-15388174D01*
X4674944Y-15388174D02*
X4684467Y-15350079D01*
X4684467Y-15350079D02*
X4693991Y-15331031D01*
X4693991Y-15331031D02*
X4703515Y-15321508D01*
X4703515Y-15321508D02*
X4722563Y-15311984D01*
X4913039Y-15311984D02*
X4932086Y-15311984D01*
X4932086Y-15311984D02*
X4951134Y-15321508D01*
X4951134Y-15321508D02*
X4960658Y-15331031D01*
X4960658Y-15331031D02*
X4970182Y-15350079D01*
X4970182Y-15350079D02*
X4979705Y-15388174D01*
X4979705Y-15388174D02*
X4979705Y-15435793D01*
X4979705Y-15435793D02*
X4970182Y-15473888D01*
X4970182Y-15473888D02*
X4960658Y-15492936D01*
X4960658Y-15492936D02*
X4951134Y-15502460D01*
X4951134Y-15502460D02*
X4932086Y-15511984D01*
X4932086Y-15511984D02*
X4913039Y-15511984D01*
X4913039Y-15511984D02*
X4893991Y-15502460D01*
X4893991Y-15502460D02*
X4884467Y-15492936D01*
X4884467Y-15492936D02*
X4874944Y-15473888D01*
X4874944Y-15473888D02*
X4865420Y-15435793D01*
X4865420Y-15435793D02*
X4865420Y-15388174D01*
X4865420Y-15388174D02*
X4874944Y-15350079D01*
X4874944Y-15350079D02*
X4884467Y-15331031D01*
X4884467Y-15331031D02*
X4893991Y-15321508D01*
X4893991Y-15321508D02*
X4913039Y-15311984D01*
X5065420Y-15511984D02*
X5065420Y-15378650D01*
X5065420Y-15397698D02*
X5074944Y-15388174D01*
X5074944Y-15388174D02*
X5093991Y-15378650D01*
X5093991Y-15378650D02*
X5122563Y-15378650D01*
X5122563Y-15378650D02*
X5141610Y-15388174D01*
X5141610Y-15388174D02*
X5151134Y-15407222D01*
X5151134Y-15407222D02*
X5151134Y-15511984D01*
X5151134Y-15407222D02*
X5160658Y-15388174D01*
X5160658Y-15388174D02*
X5179705Y-15378650D01*
X5179705Y-15378650D02*
X5208277Y-15378650D01*
X5208277Y-15378650D02*
X5227325Y-15388174D01*
X5227325Y-15388174D02*
X5236848Y-15407222D01*
X5236848Y-15407222D02*
X5236848Y-15511984D01*
X5332086Y-15511984D02*
X5332086Y-15378650D01*
X5332086Y-15397698D02*
X5341610Y-15388174D01*
X5341610Y-15388174D02*
X5360658Y-15378650D01*
X5360658Y-15378650D02*
X5389229Y-15378650D01*
X5389229Y-15378650D02*
X5408277Y-15388174D01*
X5408277Y-15388174D02*
X5417801Y-15407222D01*
X5417801Y-15407222D02*
X5417801Y-15511984D01*
X5417801Y-15407222D02*
X5427325Y-15388174D01*
X5427325Y-15388174D02*
X5446372Y-15378650D01*
X5446372Y-15378650D02*
X5474944Y-15378650D01*
X5474944Y-15378650D02*
X5493991Y-15388174D01*
X5493991Y-15388174D02*
X5503515Y-15407222D01*
X5503515Y-15407222D02*
X5503515Y-15511984D01*
X5893991Y-15302460D02*
X5722563Y-15559603D01*
X6151134Y-15311984D02*
X6170182Y-15311984D01*
X6170182Y-15311984D02*
X6189229Y-15321508D01*
X6189229Y-15321508D02*
X6198753Y-15331031D01*
X6198753Y-15331031D02*
X6208277Y-15350079D01*
X6208277Y-15350079D02*
X6217801Y-15388174D01*
X6217801Y-15388174D02*
X6217801Y-15435793D01*
X6217801Y-15435793D02*
X6208277Y-15473888D01*
X6208277Y-15473888D02*
X6198753Y-15492936D01*
X6198753Y-15492936D02*
X6189229Y-15502460D01*
X6189229Y-15502460D02*
X6170182Y-15511984D01*
X6170182Y-15511984D02*
X6151134Y-15511984D01*
X6151134Y-15511984D02*
X6132086Y-15502460D01*
X6132086Y-15502460D02*
X6122563Y-15492936D01*
X6122563Y-15492936D02*
X6113039Y-15473888D01*
X6113039Y-15473888D02*
X6103515Y-15435793D01*
X6103515Y-15435793D02*
X6103515Y-15388174D01*
X6103515Y-15388174D02*
X6113039Y-15350079D01*
X6113039Y-15350079D02*
X6122563Y-15331031D01*
X6122563Y-15331031D02*
X6132086Y-15321508D01*
X6132086Y-15321508D02*
X6151134Y-15311984D01*
X6303515Y-15492936D02*
X6313039Y-15502460D01*
X6313039Y-15502460D02*
X6303515Y-15511984D01*
X6303515Y-15511984D02*
X6293991Y-15502460D01*
X6293991Y-15502460D02*
X6303515Y-15492936D01*
X6303515Y-15492936D02*
X6303515Y-15511984D01*
X6436848Y-15311984D02*
X6455896Y-15311984D01*
X6455896Y-15311984D02*
X6474944Y-15321508D01*
X6474944Y-15321508D02*
X6484467Y-15331031D01*
X6484467Y-15331031D02*
X6493991Y-15350079D01*
X6493991Y-15350079D02*
X6503515Y-15388174D01*
X6503515Y-15388174D02*
X6503515Y-15435793D01*
X6503515Y-15435793D02*
X6493991Y-15473888D01*
X6493991Y-15473888D02*
X6484467Y-15492936D01*
X6484467Y-15492936D02*
X6474944Y-15502460D01*
X6474944Y-15502460D02*
X6455896Y-15511984D01*
X6455896Y-15511984D02*
X6436848Y-15511984D01*
X6436848Y-15511984D02*
X6417801Y-15502460D01*
X6417801Y-15502460D02*
X6408277Y-15492936D01*
X6408277Y-15492936D02*
X6398753Y-15473888D01*
X6398753Y-15473888D02*
X6389229Y-15435793D01*
X6389229Y-15435793D02*
X6389229Y-15388174D01*
X6389229Y-15388174D02*
X6398753Y-15350079D01*
X6398753Y-15350079D02*
X6408277Y-15331031D01*
X6408277Y-15331031D02*
X6417801Y-15321508D01*
X6417801Y-15321508D02*
X6436848Y-15311984D01*
X6570182Y-15311984D02*
X6693991Y-15311984D01*
X6693991Y-15311984D02*
X6627325Y-15388174D01*
X6627325Y-15388174D02*
X6655896Y-15388174D01*
X6655896Y-15388174D02*
X6674944Y-15397698D01*
X6674944Y-15397698D02*
X6684467Y-15407222D01*
X6684467Y-15407222D02*
X6693991Y-15426269D01*
X6693991Y-15426269D02*
X6693991Y-15473888D01*
X6693991Y-15473888D02*
X6684467Y-15492936D01*
X6684467Y-15492936D02*
X6674944Y-15502460D01*
X6674944Y-15502460D02*
X6655896Y-15511984D01*
X6655896Y-15511984D02*
X6598753Y-15511984D01*
X6598753Y-15511984D02*
X6579706Y-15502460D01*
X6579706Y-15502460D02*
X6570182Y-15492936D01*
X6884467Y-15511984D02*
X6770182Y-15511984D01*
X6827325Y-15511984D02*
X6827325Y-15311984D01*
X6827325Y-15311984D02*
X6808277Y-15340555D01*
X6808277Y-15340555D02*
X6789229Y-15359603D01*
X6789229Y-15359603D02*
X6770182Y-15369127D01*
X7065420Y-15311984D02*
X6970182Y-15311984D01*
X6970182Y-15311984D02*
X6960658Y-15407222D01*
X6960658Y-15407222D02*
X6970182Y-15397698D01*
X6970182Y-15397698D02*
X6989229Y-15388174D01*
X6989229Y-15388174D02*
X7036848Y-15388174D01*
X7036848Y-15388174D02*
X7055896Y-15397698D01*
X7055896Y-15397698D02*
X7065420Y-15407222D01*
X7065420Y-15407222D02*
X7074944Y-15426269D01*
X7074944Y-15426269D02*
X7074944Y-15473888D01*
X7074944Y-15473888D02*
X7065420Y-15492936D01*
X7065420Y-15492936D02*
X7055896Y-15502460D01*
X7055896Y-15502460D02*
X7036848Y-15511984D01*
X7036848Y-15511984D02*
X6989229Y-15511984D01*
X6989229Y-15511984D02*
X6970182Y-15502460D01*
X6970182Y-15502460D02*
X6960658Y-15492936D01*
X7151134Y-15311984D02*
X7151134Y-15350079D01*
X7227325Y-15311984D02*
X7227325Y-15350079D01*
X7522563Y-15588174D02*
X7513039Y-15578650D01*
X7513039Y-15578650D02*
X7493991Y-15550079D01*
X7493991Y-15550079D02*
X7484468Y-15531031D01*
X7484468Y-15531031D02*
X7474944Y-15502460D01*
X7474944Y-15502460D02*
X7465420Y-15454841D01*
X7465420Y-15454841D02*
X7465420Y-15416746D01*
X7465420Y-15416746D02*
X7474944Y-15369127D01*
X7474944Y-15369127D02*
X7484468Y-15340555D01*
X7484468Y-15340555D02*
X7493991Y-15321508D01*
X7493991Y-15321508D02*
X7513039Y-15292936D01*
X7513039Y-15292936D02*
X7522563Y-15283412D01*
X7703515Y-15511984D02*
X7589229Y-15511984D01*
X7646372Y-15511984D02*
X7646372Y-15311984D01*
X7646372Y-15311984D02*
X7627325Y-15340555D01*
X7627325Y-15340555D02*
X7608277Y-15359603D01*
X7608277Y-15359603D02*
X7589229Y-15369127D01*
X7941610Y-15511984D02*
X7941610Y-15311984D01*
X8027325Y-15511984D02*
X8027325Y-15407222D01*
X8027325Y-15407222D02*
X8017801Y-15388174D01*
X8017801Y-15388174D02*
X7998753Y-15378650D01*
X7998753Y-15378650D02*
X7970182Y-15378650D01*
X7970182Y-15378650D02*
X7951134Y-15388174D01*
X7951134Y-15388174D02*
X7941610Y-15397698D01*
X8151134Y-15511984D02*
X8132087Y-15502460D01*
X8132087Y-15502460D02*
X8122563Y-15492936D01*
X8122563Y-15492936D02*
X8113039Y-15473888D01*
X8113039Y-15473888D02*
X8113039Y-15416746D01*
X8113039Y-15416746D02*
X8122563Y-15397698D01*
X8122563Y-15397698D02*
X8132087Y-15388174D01*
X8132087Y-15388174D02*
X8151134Y-15378650D01*
X8151134Y-15378650D02*
X8179706Y-15378650D01*
X8179706Y-15378650D02*
X8198753Y-15388174D01*
X8198753Y-15388174D02*
X8208277Y-15397698D01*
X8208277Y-15397698D02*
X8217801Y-15416746D01*
X8217801Y-15416746D02*
X8217801Y-15473888D01*
X8217801Y-15473888D02*
X8208277Y-15492936D01*
X8208277Y-15492936D02*
X8198753Y-15502460D01*
X8198753Y-15502460D02*
X8179706Y-15511984D01*
X8179706Y-15511984D02*
X8151134Y-15511984D01*
X8332087Y-15511984D02*
X8313039Y-15502460D01*
X8313039Y-15502460D02*
X8303515Y-15483412D01*
X8303515Y-15483412D02*
X8303515Y-15311984D01*
X8484468Y-15502460D02*
X8465420Y-15511984D01*
X8465420Y-15511984D02*
X8427325Y-15511984D01*
X8427325Y-15511984D02*
X8408277Y-15502460D01*
X8408277Y-15502460D02*
X8398753Y-15483412D01*
X8398753Y-15483412D02*
X8398753Y-15407222D01*
X8398753Y-15407222D02*
X8408277Y-15388174D01*
X8408277Y-15388174D02*
X8427325Y-15378650D01*
X8427325Y-15378650D02*
X8465420Y-15378650D01*
X8465420Y-15378650D02*
X8484468Y-15388174D01*
X8484468Y-15388174D02*
X8493992Y-15407222D01*
X8493992Y-15407222D02*
X8493992Y-15426269D01*
X8493992Y-15426269D02*
X8398753Y-15445317D01*
X8560658Y-15588174D02*
X8570182Y-15578650D01*
X8570182Y-15578650D02*
X8589230Y-15550079D01*
X8589230Y-15550079D02*
X8598753Y-15531031D01*
X8598753Y-15531031D02*
X8608277Y-15502460D01*
X8608277Y-15502460D02*
X8617801Y-15454841D01*
X8617801Y-15454841D02*
X8617801Y-15416746D01*
X8617801Y-15416746D02*
X8608277Y-15369127D01*
X8608277Y-15369127D02*
X8598753Y-15340555D01*
X8598753Y-15340555D02*
X8589230Y-15321508D01*
X8589230Y-15321508D02*
X8570182Y-15292936D01*
X8570182Y-15292936D02*
X8560658Y-15283412D01*
D12*
X3934320Y-15716320D02*
X3934320Y-15652680D01*
X3870680Y-15652680D01*
X3870680Y-15716320D01*
X3934320Y-15716320D01*
D11*
X4246372Y-15575984D02*
X4265420Y-15575984D01*
X4265420Y-15575984D02*
X4284467Y-15585508D01*
X4284467Y-15585508D02*
X4293991Y-15595031D01*
X4293991Y-15595031D02*
X4303515Y-15614079D01*
X4303515Y-15614079D02*
X4313039Y-15652174D01*
X4313039Y-15652174D02*
X4313039Y-15699793D01*
X4313039Y-15699793D02*
X4303515Y-15737888D01*
X4303515Y-15737888D02*
X4293991Y-15756936D01*
X4293991Y-15756936D02*
X4284467Y-15766460D01*
X4284467Y-15766460D02*
X4265420Y-15775984D01*
X4265420Y-15775984D02*
X4246372Y-15775984D01*
X4246372Y-15775984D02*
X4227324Y-15766460D01*
X4227324Y-15766460D02*
X4217801Y-15756936D01*
X4217801Y-15756936D02*
X4208277Y-15737888D01*
X4208277Y-15737888D02*
X4198753Y-15699793D01*
X4198753Y-15699793D02*
X4198753Y-15652174D01*
X4198753Y-15652174D02*
X4208277Y-15614079D01*
X4208277Y-15614079D02*
X4217801Y-15595031D01*
X4217801Y-15595031D02*
X4227324Y-15585508D01*
X4227324Y-15585508D02*
X4246372Y-15575984D01*
X4398753Y-15756936D02*
X4408277Y-15766460D01*
X4408277Y-15766460D02*
X4398753Y-15775984D01*
X4398753Y-15775984D02*
X4389229Y-15766460D01*
X4389229Y-15766460D02*
X4398753Y-15756936D01*
X4398753Y-15756936D02*
X4398753Y-15775984D01*
X4503515Y-15775984D02*
X4541610Y-15775984D01*
X4541610Y-15775984D02*
X4560658Y-15766460D01*
X4560658Y-15766460D02*
X4570182Y-15756936D01*
X4570182Y-15756936D02*
X4589229Y-15728365D01*
X4589229Y-15728365D02*
X4598753Y-15690269D01*
X4598753Y-15690269D02*
X4598753Y-15614079D01*
X4598753Y-15614079D02*
X4589229Y-15595031D01*
X4589229Y-15595031D02*
X4579705Y-15585508D01*
X4579705Y-15585508D02*
X4560658Y-15575984D01*
X4560658Y-15575984D02*
X4522563Y-15575984D01*
X4522563Y-15575984D02*
X4503515Y-15585508D01*
X4503515Y-15585508D02*
X4493991Y-15595031D01*
X4493991Y-15595031D02*
X4484467Y-15614079D01*
X4484467Y-15614079D02*
X4484467Y-15661698D01*
X4484467Y-15661698D02*
X4493991Y-15680746D01*
X4493991Y-15680746D02*
X4503515Y-15690269D01*
X4503515Y-15690269D02*
X4522563Y-15699793D01*
X4522563Y-15699793D02*
X4560658Y-15699793D01*
X4560658Y-15699793D02*
X4579705Y-15690269D01*
X4579705Y-15690269D02*
X4589229Y-15680746D01*
X4589229Y-15680746D02*
X4598753Y-15661698D01*
X4722563Y-15575984D02*
X4741610Y-15575984D01*
X4741610Y-15575984D02*
X4760658Y-15585508D01*
X4760658Y-15585508D02*
X4770182Y-15595031D01*
X4770182Y-15595031D02*
X4779705Y-15614079D01*
X4779705Y-15614079D02*
X4789229Y-15652174D01*
X4789229Y-15652174D02*
X4789229Y-15699793D01*
X4789229Y-15699793D02*
X4779705Y-15737888D01*
X4779705Y-15737888D02*
X4770182Y-15756936D01*
X4770182Y-15756936D02*
X4760658Y-15766460D01*
X4760658Y-15766460D02*
X4741610Y-15775984D01*
X4741610Y-15775984D02*
X4722563Y-15775984D01*
X4722563Y-15775984D02*
X4703515Y-15766460D01*
X4703515Y-15766460D02*
X4693991Y-15756936D01*
X4693991Y-15756936D02*
X4684467Y-15737888D01*
X4684467Y-15737888D02*
X4674944Y-15699793D01*
X4674944Y-15699793D02*
X4674944Y-15652174D01*
X4674944Y-15652174D02*
X4684467Y-15614079D01*
X4684467Y-15614079D02*
X4693991Y-15595031D01*
X4693991Y-15595031D02*
X4703515Y-15585508D01*
X4703515Y-15585508D02*
X4722563Y-15575984D01*
X4913039Y-15575984D02*
X4932086Y-15575984D01*
X4932086Y-15575984D02*
X4951134Y-15585508D01*
X4951134Y-15585508D02*
X4960658Y-15595031D01*
X4960658Y-15595031D02*
X4970182Y-15614079D01*
X4970182Y-15614079D02*
X4979705Y-15652174D01*
X4979705Y-15652174D02*
X4979705Y-15699793D01*
X4979705Y-15699793D02*
X4970182Y-15737888D01*
X4970182Y-15737888D02*
X4960658Y-15756936D01*
X4960658Y-15756936D02*
X4951134Y-15766460D01*
X4951134Y-15766460D02*
X4932086Y-15775984D01*
X4932086Y-15775984D02*
X4913039Y-15775984D01*
X4913039Y-15775984D02*
X4893991Y-15766460D01*
X4893991Y-15766460D02*
X4884467Y-15756936D01*
X4884467Y-15756936D02*
X4874944Y-15737888D01*
X4874944Y-15737888D02*
X4865420Y-15699793D01*
X4865420Y-15699793D02*
X4865420Y-15652174D01*
X4865420Y-15652174D02*
X4874944Y-15614079D01*
X4874944Y-15614079D02*
X4884467Y-15595031D01*
X4884467Y-15595031D02*
X4893991Y-15585508D01*
X4893991Y-15585508D02*
X4913039Y-15575984D01*
X5065420Y-15775984D02*
X5065420Y-15642650D01*
X5065420Y-15661698D02*
X5074944Y-15652174D01*
X5074944Y-15652174D02*
X5093991Y-15642650D01*
X5093991Y-15642650D02*
X5122563Y-15642650D01*
X5122563Y-15642650D02*
X5141610Y-15652174D01*
X5141610Y-15652174D02*
X5151134Y-15671222D01*
X5151134Y-15671222D02*
X5151134Y-15775984D01*
X5151134Y-15671222D02*
X5160658Y-15652174D01*
X5160658Y-15652174D02*
X5179705Y-15642650D01*
X5179705Y-15642650D02*
X5208277Y-15642650D01*
X5208277Y-15642650D02*
X5227325Y-15652174D01*
X5227325Y-15652174D02*
X5236848Y-15671222D01*
X5236848Y-15671222D02*
X5236848Y-15775984D01*
X5332086Y-15775984D02*
X5332086Y-15642650D01*
X5332086Y-15661698D02*
X5341610Y-15652174D01*
X5341610Y-15652174D02*
X5360658Y-15642650D01*
X5360658Y-15642650D02*
X5389229Y-15642650D01*
X5389229Y-15642650D02*
X5408277Y-15652174D01*
X5408277Y-15652174D02*
X5417801Y-15671222D01*
X5417801Y-15671222D02*
X5417801Y-15775984D01*
X5417801Y-15671222D02*
X5427325Y-15652174D01*
X5427325Y-15652174D02*
X5446372Y-15642650D01*
X5446372Y-15642650D02*
X5474944Y-15642650D01*
X5474944Y-15642650D02*
X5493991Y-15652174D01*
X5493991Y-15652174D02*
X5503515Y-15671222D01*
X5503515Y-15671222D02*
X5503515Y-15775984D01*
X5893991Y-15566460D02*
X5722563Y-15823603D01*
X6151134Y-15575984D02*
X6170182Y-15575984D01*
X6170182Y-15575984D02*
X6189229Y-15585508D01*
X6189229Y-15585508D02*
X6198753Y-15595031D01*
X6198753Y-15595031D02*
X6208277Y-15614079D01*
X6208277Y-15614079D02*
X6217801Y-15652174D01*
X6217801Y-15652174D02*
X6217801Y-15699793D01*
X6217801Y-15699793D02*
X6208277Y-15737888D01*
X6208277Y-15737888D02*
X6198753Y-15756936D01*
X6198753Y-15756936D02*
X6189229Y-15766460D01*
X6189229Y-15766460D02*
X6170182Y-15775984D01*
X6170182Y-15775984D02*
X6151134Y-15775984D01*
X6151134Y-15775984D02*
X6132086Y-15766460D01*
X6132086Y-15766460D02*
X6122563Y-15756936D01*
X6122563Y-15756936D02*
X6113039Y-15737888D01*
X6113039Y-15737888D02*
X6103515Y-15699793D01*
X6103515Y-15699793D02*
X6103515Y-15652174D01*
X6103515Y-15652174D02*
X6113039Y-15614079D01*
X6113039Y-15614079D02*
X6122563Y-15595031D01*
X6122563Y-15595031D02*
X6132086Y-15585508D01*
X6132086Y-15585508D02*
X6151134Y-15575984D01*
X6303515Y-15756936D02*
X6313039Y-15766460D01*
X6313039Y-15766460D02*
X6303515Y-15775984D01*
X6303515Y-15775984D02*
X6293991Y-15766460D01*
X6293991Y-15766460D02*
X6303515Y-15756936D01*
X6303515Y-15756936D02*
X6303515Y-15775984D01*
X6436848Y-15575984D02*
X6455896Y-15575984D01*
X6455896Y-15575984D02*
X6474944Y-15585508D01*
X6474944Y-15585508D02*
X6484467Y-15595031D01*
X6484467Y-15595031D02*
X6493991Y-15614079D01*
X6493991Y-15614079D02*
X6503515Y-15652174D01*
X6503515Y-15652174D02*
X6503515Y-15699793D01*
X6503515Y-15699793D02*
X6493991Y-15737888D01*
X6493991Y-15737888D02*
X6484467Y-15756936D01*
X6484467Y-15756936D02*
X6474944Y-15766460D01*
X6474944Y-15766460D02*
X6455896Y-15775984D01*
X6455896Y-15775984D02*
X6436848Y-15775984D01*
X6436848Y-15775984D02*
X6417801Y-15766460D01*
X6417801Y-15766460D02*
X6408277Y-15756936D01*
X6408277Y-15756936D02*
X6398753Y-15737888D01*
X6398753Y-15737888D02*
X6389229Y-15699793D01*
X6389229Y-15699793D02*
X6389229Y-15652174D01*
X6389229Y-15652174D02*
X6398753Y-15614079D01*
X6398753Y-15614079D02*
X6408277Y-15595031D01*
X6408277Y-15595031D02*
X6417801Y-15585508D01*
X6417801Y-15585508D02*
X6436848Y-15575984D01*
X6570182Y-15575984D02*
X6693991Y-15575984D01*
X6693991Y-15575984D02*
X6627325Y-15652174D01*
X6627325Y-15652174D02*
X6655896Y-15652174D01*
X6655896Y-15652174D02*
X6674944Y-15661698D01*
X6674944Y-15661698D02*
X6684467Y-15671222D01*
X6684467Y-15671222D02*
X6693991Y-15690269D01*
X6693991Y-15690269D02*
X6693991Y-15737888D01*
X6693991Y-15737888D02*
X6684467Y-15756936D01*
X6684467Y-15756936D02*
X6674944Y-15766460D01*
X6674944Y-15766460D02*
X6655896Y-15775984D01*
X6655896Y-15775984D02*
X6598753Y-15775984D01*
X6598753Y-15775984D02*
X6579706Y-15766460D01*
X6579706Y-15766460D02*
X6570182Y-15756936D01*
X6874944Y-15575984D02*
X6779706Y-15575984D01*
X6779706Y-15575984D02*
X6770182Y-15671222D01*
X6770182Y-15671222D02*
X6779706Y-15661698D01*
X6779706Y-15661698D02*
X6798753Y-15652174D01*
X6798753Y-15652174D02*
X6846372Y-15652174D01*
X6846372Y-15652174D02*
X6865420Y-15661698D01*
X6865420Y-15661698D02*
X6874944Y-15671222D01*
X6874944Y-15671222D02*
X6884467Y-15690269D01*
X6884467Y-15690269D02*
X6884467Y-15737888D01*
X6884467Y-15737888D02*
X6874944Y-15756936D01*
X6874944Y-15756936D02*
X6865420Y-15766460D01*
X6865420Y-15766460D02*
X6846372Y-15775984D01*
X6846372Y-15775984D02*
X6798753Y-15775984D01*
X6798753Y-15775984D02*
X6779706Y-15766460D01*
X6779706Y-15766460D02*
X6770182Y-15756936D01*
X7055896Y-15642650D02*
X7055896Y-15775984D01*
X7008277Y-15566460D02*
X6960658Y-15709317D01*
X6960658Y-15709317D02*
X7084467Y-15709317D01*
X7151134Y-15575984D02*
X7151134Y-15614079D01*
X7227325Y-15575984D02*
X7227325Y-15614079D01*
X7522563Y-15852174D02*
X7513039Y-15842650D01*
X7513039Y-15842650D02*
X7493991Y-15814079D01*
X7493991Y-15814079D02*
X7484468Y-15795031D01*
X7484468Y-15795031D02*
X7474944Y-15766460D01*
X7474944Y-15766460D02*
X7465420Y-15718841D01*
X7465420Y-15718841D02*
X7465420Y-15680746D01*
X7465420Y-15680746D02*
X7474944Y-15633127D01*
X7474944Y-15633127D02*
X7484468Y-15604555D01*
X7484468Y-15604555D02*
X7493991Y-15585508D01*
X7493991Y-15585508D02*
X7513039Y-15556936D01*
X7513039Y-15556936D02*
X7522563Y-15547412D01*
X7579706Y-15575984D02*
X7713039Y-15575984D01*
X7713039Y-15575984D02*
X7627325Y-15775984D01*
X7941610Y-15775984D02*
X7941610Y-15575984D01*
X8027325Y-15775984D02*
X8027325Y-15671222D01*
X8027325Y-15671222D02*
X8017801Y-15652174D01*
X8017801Y-15652174D02*
X7998753Y-15642650D01*
X7998753Y-15642650D02*
X7970182Y-15642650D01*
X7970182Y-15642650D02*
X7951134Y-15652174D01*
X7951134Y-15652174D02*
X7941610Y-15661698D01*
X8151134Y-15775984D02*
X8132087Y-15766460D01*
X8132087Y-15766460D02*
X8122563Y-15756936D01*
X8122563Y-15756936D02*
X8113039Y-15737888D01*
X8113039Y-15737888D02*
X8113039Y-15680746D01*
X8113039Y-15680746D02*
X8122563Y-15661698D01*
X8122563Y-15661698D02*
X8132087Y-15652174D01*
X8132087Y-15652174D02*
X8151134Y-15642650D01*
X8151134Y-15642650D02*
X8179706Y-15642650D01*
X8179706Y-15642650D02*
X8198753Y-15652174D01*
X8198753Y-15652174D02*
X8208277Y-15661698D01*
X8208277Y-15661698D02*
X8217801Y-15680746D01*
X8217801Y-15680746D02*
X8217801Y-15737888D01*
X8217801Y-15737888D02*
X8208277Y-15756936D01*
X8208277Y-15756936D02*
X8198753Y-15766460D01*
X8198753Y-15766460D02*
X8179706Y-15775984D01*
X8179706Y-15775984D02*
X8151134Y-15775984D01*
X8332087Y-15775984D02*
X8313039Y-15766460D01*
X8313039Y-15766460D02*
X8303515Y-15747412D01*
X8303515Y-15747412D02*
X8303515Y-15575984D01*
X8484468Y-15766460D02*
X8465420Y-15775984D01*
X8465420Y-15775984D02*
X8427325Y-15775984D01*
X8427325Y-15775984D02*
X8408277Y-15766460D01*
X8408277Y-15766460D02*
X8398753Y-15747412D01*
X8398753Y-15747412D02*
X8398753Y-15671222D01*
X8398753Y-15671222D02*
X8408277Y-15652174D01*
X8408277Y-15652174D02*
X8427325Y-15642650D01*
X8427325Y-15642650D02*
X8465420Y-15642650D01*
X8465420Y-15642650D02*
X8484468Y-15652174D01*
X8484468Y-15652174D02*
X8493992Y-15671222D01*
X8493992Y-15671222D02*
X8493992Y-15690269D01*
X8493992Y-15690269D02*
X8398753Y-15709317D01*
X8570182Y-15766460D02*
X8589230Y-15775984D01*
X8589230Y-15775984D02*
X8627325Y-15775984D01*
X8627325Y-15775984D02*
X8646373Y-15766460D01*
X8646373Y-15766460D02*
X8655896Y-15747412D01*
X8655896Y-15747412D02*
X8655896Y-15737888D01*
X8655896Y-15737888D02*
X8646373Y-15718841D01*
X8646373Y-15718841D02*
X8627325Y-15709317D01*
X8627325Y-15709317D02*
X8598753Y-15709317D01*
X8598753Y-15709317D02*
X8579706Y-15699793D01*
X8579706Y-15699793D02*
X8570182Y-15680746D01*
X8570182Y-15680746D02*
X8570182Y-15671222D01*
X8570182Y-15671222D02*
X8579706Y-15652174D01*
X8579706Y-15652174D02*
X8598753Y-15642650D01*
X8598753Y-15642650D02*
X8627325Y-15642650D01*
X8627325Y-15642650D02*
X8646373Y-15652174D01*
X8722563Y-15852174D02*
X8732087Y-15842650D01*
X8732087Y-15842650D02*
X8751134Y-15814079D01*
X8751134Y-15814079D02*
X8760658Y-15795031D01*
X8760658Y-15795031D02*
X8770182Y-15766460D01*
X8770182Y-15766460D02*
X8779706Y-15718841D01*
X8779706Y-15718841D02*
X8779706Y-15680746D01*
X8779706Y-15680746D02*
X8770182Y-15633127D01*
X8770182Y-15633127D02*
X8760658Y-15604555D01*
X8760658Y-15604555D02*
X8751134Y-15585508D01*
X8751134Y-15585508D02*
X8732087Y-15556936D01*
X8732087Y-15556936D02*
X8722563Y-15547412D01*
D12*
X3897500Y-15998500D02*
X3947500Y-15948500D01*
X3897500Y-15898500D01*
X3847500Y-15948500D01*
X3897500Y-15998500D01*
D11*
X4313039Y-16039984D02*
X4198753Y-16039984D01*
X4255896Y-16039984D02*
X4255896Y-15839984D01*
X4255896Y-15839984D02*
X4236848Y-15868555D01*
X4236848Y-15868555D02*
X4217801Y-15887603D01*
X4217801Y-15887603D02*
X4198753Y-15897127D01*
X4398753Y-16020936D02*
X4408277Y-16030460D01*
X4408277Y-16030460D02*
X4398753Y-16039984D01*
X4398753Y-16039984D02*
X4389229Y-16030460D01*
X4389229Y-16030460D02*
X4398753Y-16020936D01*
X4398753Y-16020936D02*
X4398753Y-16039984D01*
X4532086Y-15839984D02*
X4551134Y-15839984D01*
X4551134Y-15839984D02*
X4570182Y-15849508D01*
X4570182Y-15849508D02*
X4579705Y-15859031D01*
X4579705Y-15859031D02*
X4589229Y-15878079D01*
X4589229Y-15878079D02*
X4598753Y-15916174D01*
X4598753Y-15916174D02*
X4598753Y-15963793D01*
X4598753Y-15963793D02*
X4589229Y-16001888D01*
X4589229Y-16001888D02*
X4579705Y-16020936D01*
X4579705Y-16020936D02*
X4570182Y-16030460D01*
X4570182Y-16030460D02*
X4551134Y-16039984D01*
X4551134Y-16039984D02*
X4532086Y-16039984D01*
X4532086Y-16039984D02*
X4513039Y-16030460D01*
X4513039Y-16030460D02*
X4503515Y-16020936D01*
X4503515Y-16020936D02*
X4493991Y-16001888D01*
X4493991Y-16001888D02*
X4484467Y-15963793D01*
X4484467Y-15963793D02*
X4484467Y-15916174D01*
X4484467Y-15916174D02*
X4493991Y-15878079D01*
X4493991Y-15878079D02*
X4503515Y-15859031D01*
X4503515Y-15859031D02*
X4513039Y-15849508D01*
X4513039Y-15849508D02*
X4532086Y-15839984D01*
X4722563Y-15839984D02*
X4741610Y-15839984D01*
X4741610Y-15839984D02*
X4760658Y-15849508D01*
X4760658Y-15849508D02*
X4770182Y-15859031D01*
X4770182Y-15859031D02*
X4779705Y-15878079D01*
X4779705Y-15878079D02*
X4789229Y-15916174D01*
X4789229Y-15916174D02*
X4789229Y-15963793D01*
X4789229Y-15963793D02*
X4779705Y-16001888D01*
X4779705Y-16001888D02*
X4770182Y-16020936D01*
X4770182Y-16020936D02*
X4760658Y-16030460D01*
X4760658Y-16030460D02*
X4741610Y-16039984D01*
X4741610Y-16039984D02*
X4722563Y-16039984D01*
X4722563Y-16039984D02*
X4703515Y-16030460D01*
X4703515Y-16030460D02*
X4693991Y-16020936D01*
X4693991Y-16020936D02*
X4684467Y-16001888D01*
X4684467Y-16001888D02*
X4674944Y-15963793D01*
X4674944Y-15963793D02*
X4674944Y-15916174D01*
X4674944Y-15916174D02*
X4684467Y-15878079D01*
X4684467Y-15878079D02*
X4693991Y-15859031D01*
X4693991Y-15859031D02*
X4703515Y-15849508D01*
X4703515Y-15849508D02*
X4722563Y-15839984D01*
X4913039Y-15839984D02*
X4932086Y-15839984D01*
X4932086Y-15839984D02*
X4951134Y-15849508D01*
X4951134Y-15849508D02*
X4960658Y-15859031D01*
X4960658Y-15859031D02*
X4970182Y-15878079D01*
X4970182Y-15878079D02*
X4979705Y-15916174D01*
X4979705Y-15916174D02*
X4979705Y-15963793D01*
X4979705Y-15963793D02*
X4970182Y-16001888D01*
X4970182Y-16001888D02*
X4960658Y-16020936D01*
X4960658Y-16020936D02*
X4951134Y-16030460D01*
X4951134Y-16030460D02*
X4932086Y-16039984D01*
X4932086Y-16039984D02*
X4913039Y-16039984D01*
X4913039Y-16039984D02*
X4893991Y-16030460D01*
X4893991Y-16030460D02*
X4884467Y-16020936D01*
X4884467Y-16020936D02*
X4874944Y-16001888D01*
X4874944Y-16001888D02*
X4865420Y-15963793D01*
X4865420Y-15963793D02*
X4865420Y-15916174D01*
X4865420Y-15916174D02*
X4874944Y-15878079D01*
X4874944Y-15878079D02*
X4884467Y-15859031D01*
X4884467Y-15859031D02*
X4893991Y-15849508D01*
X4893991Y-15849508D02*
X4913039Y-15839984D01*
X5065420Y-16039984D02*
X5065420Y-15906650D01*
X5065420Y-15925698D02*
X5074944Y-15916174D01*
X5074944Y-15916174D02*
X5093991Y-15906650D01*
X5093991Y-15906650D02*
X5122563Y-15906650D01*
X5122563Y-15906650D02*
X5141610Y-15916174D01*
X5141610Y-15916174D02*
X5151134Y-15935222D01*
X5151134Y-15935222D02*
X5151134Y-16039984D01*
X5151134Y-15935222D02*
X5160658Y-15916174D01*
X5160658Y-15916174D02*
X5179705Y-15906650D01*
X5179705Y-15906650D02*
X5208277Y-15906650D01*
X5208277Y-15906650D02*
X5227325Y-15916174D01*
X5227325Y-15916174D02*
X5236848Y-15935222D01*
X5236848Y-15935222D02*
X5236848Y-16039984D01*
X5332086Y-16039984D02*
X5332086Y-15906650D01*
X5332086Y-15925698D02*
X5341610Y-15916174D01*
X5341610Y-15916174D02*
X5360658Y-15906650D01*
X5360658Y-15906650D02*
X5389229Y-15906650D01*
X5389229Y-15906650D02*
X5408277Y-15916174D01*
X5408277Y-15916174D02*
X5417801Y-15935222D01*
X5417801Y-15935222D02*
X5417801Y-16039984D01*
X5417801Y-15935222D02*
X5427325Y-15916174D01*
X5427325Y-15916174D02*
X5446372Y-15906650D01*
X5446372Y-15906650D02*
X5474944Y-15906650D01*
X5474944Y-15906650D02*
X5493991Y-15916174D01*
X5493991Y-15916174D02*
X5503515Y-15935222D01*
X5503515Y-15935222D02*
X5503515Y-16039984D01*
X5893991Y-15830460D02*
X5722563Y-16087603D01*
X6151134Y-15839984D02*
X6170182Y-15839984D01*
X6170182Y-15839984D02*
X6189229Y-15849508D01*
X6189229Y-15849508D02*
X6198753Y-15859031D01*
X6198753Y-15859031D02*
X6208277Y-15878079D01*
X6208277Y-15878079D02*
X6217801Y-15916174D01*
X6217801Y-15916174D02*
X6217801Y-15963793D01*
X6217801Y-15963793D02*
X6208277Y-16001888D01*
X6208277Y-16001888D02*
X6198753Y-16020936D01*
X6198753Y-16020936D02*
X6189229Y-16030460D01*
X6189229Y-16030460D02*
X6170182Y-16039984D01*
X6170182Y-16039984D02*
X6151134Y-16039984D01*
X6151134Y-16039984D02*
X6132086Y-16030460D01*
X6132086Y-16030460D02*
X6122563Y-16020936D01*
X6122563Y-16020936D02*
X6113039Y-16001888D01*
X6113039Y-16001888D02*
X6103515Y-15963793D01*
X6103515Y-15963793D02*
X6103515Y-15916174D01*
X6103515Y-15916174D02*
X6113039Y-15878079D01*
X6113039Y-15878079D02*
X6122563Y-15859031D01*
X6122563Y-15859031D02*
X6132086Y-15849508D01*
X6132086Y-15849508D02*
X6151134Y-15839984D01*
X6303515Y-16020936D02*
X6313039Y-16030460D01*
X6313039Y-16030460D02*
X6303515Y-16039984D01*
X6303515Y-16039984D02*
X6293991Y-16030460D01*
X6293991Y-16030460D02*
X6303515Y-16020936D01*
X6303515Y-16020936D02*
X6303515Y-16039984D01*
X6436848Y-15839984D02*
X6455896Y-15839984D01*
X6455896Y-15839984D02*
X6474944Y-15849508D01*
X6474944Y-15849508D02*
X6484467Y-15859031D01*
X6484467Y-15859031D02*
X6493991Y-15878079D01*
X6493991Y-15878079D02*
X6503515Y-15916174D01*
X6503515Y-15916174D02*
X6503515Y-15963793D01*
X6503515Y-15963793D02*
X6493991Y-16001888D01*
X6493991Y-16001888D02*
X6484467Y-16020936D01*
X6484467Y-16020936D02*
X6474944Y-16030460D01*
X6474944Y-16030460D02*
X6455896Y-16039984D01*
X6455896Y-16039984D02*
X6436848Y-16039984D01*
X6436848Y-16039984D02*
X6417801Y-16030460D01*
X6417801Y-16030460D02*
X6408277Y-16020936D01*
X6408277Y-16020936D02*
X6398753Y-16001888D01*
X6398753Y-16001888D02*
X6389229Y-15963793D01*
X6389229Y-15963793D02*
X6389229Y-15916174D01*
X6389229Y-15916174D02*
X6398753Y-15878079D01*
X6398753Y-15878079D02*
X6408277Y-15859031D01*
X6408277Y-15859031D02*
X6417801Y-15849508D01*
X6417801Y-15849508D02*
X6436848Y-15839984D01*
X6570182Y-15839984D02*
X6693991Y-15839984D01*
X6693991Y-15839984D02*
X6627325Y-15916174D01*
X6627325Y-15916174D02*
X6655896Y-15916174D01*
X6655896Y-15916174D02*
X6674944Y-15925698D01*
X6674944Y-15925698D02*
X6684467Y-15935222D01*
X6684467Y-15935222D02*
X6693991Y-15954269D01*
X6693991Y-15954269D02*
X6693991Y-16001888D01*
X6693991Y-16001888D02*
X6684467Y-16020936D01*
X6684467Y-16020936D02*
X6674944Y-16030460D01*
X6674944Y-16030460D02*
X6655896Y-16039984D01*
X6655896Y-16039984D02*
X6598753Y-16039984D01*
X6598753Y-16039984D02*
X6579706Y-16030460D01*
X6579706Y-16030460D02*
X6570182Y-16020936D01*
X6789229Y-16039984D02*
X6827325Y-16039984D01*
X6827325Y-16039984D02*
X6846372Y-16030460D01*
X6846372Y-16030460D02*
X6855896Y-16020936D01*
X6855896Y-16020936D02*
X6874944Y-15992365D01*
X6874944Y-15992365D02*
X6884467Y-15954269D01*
X6884467Y-15954269D02*
X6884467Y-15878079D01*
X6884467Y-15878079D02*
X6874944Y-15859031D01*
X6874944Y-15859031D02*
X6865420Y-15849508D01*
X6865420Y-15849508D02*
X6846372Y-15839984D01*
X6846372Y-15839984D02*
X6808277Y-15839984D01*
X6808277Y-15839984D02*
X6789229Y-15849508D01*
X6789229Y-15849508D02*
X6779706Y-15859031D01*
X6779706Y-15859031D02*
X6770182Y-15878079D01*
X6770182Y-15878079D02*
X6770182Y-15925698D01*
X6770182Y-15925698D02*
X6779706Y-15944746D01*
X6779706Y-15944746D02*
X6789229Y-15954269D01*
X6789229Y-15954269D02*
X6808277Y-15963793D01*
X6808277Y-15963793D02*
X6846372Y-15963793D01*
X6846372Y-15963793D02*
X6865420Y-15954269D01*
X6865420Y-15954269D02*
X6874944Y-15944746D01*
X6874944Y-15944746D02*
X6884467Y-15925698D01*
X7055896Y-15906650D02*
X7055896Y-16039984D01*
X7008277Y-15830460D02*
X6960658Y-15973317D01*
X6960658Y-15973317D02*
X7084467Y-15973317D01*
X7151134Y-15839984D02*
X7151134Y-15878079D01*
X7227325Y-15839984D02*
X7227325Y-15878079D01*
X7522563Y-16116174D02*
X7513039Y-16106650D01*
X7513039Y-16106650D02*
X7493991Y-16078079D01*
X7493991Y-16078079D02*
X7484468Y-16059031D01*
X7484468Y-16059031D02*
X7474944Y-16030460D01*
X7474944Y-16030460D02*
X7465420Y-15982841D01*
X7465420Y-15982841D02*
X7465420Y-15944746D01*
X7465420Y-15944746D02*
X7474944Y-15897127D01*
X7474944Y-15897127D02*
X7484468Y-15868555D01*
X7484468Y-15868555D02*
X7493991Y-15849508D01*
X7493991Y-15849508D02*
X7513039Y-15820936D01*
X7513039Y-15820936D02*
X7522563Y-15811412D01*
X7703515Y-16039984D02*
X7589229Y-16039984D01*
X7646372Y-16039984D02*
X7646372Y-15839984D01*
X7646372Y-15839984D02*
X7627325Y-15868555D01*
X7627325Y-15868555D02*
X7608277Y-15887603D01*
X7608277Y-15887603D02*
X7589229Y-15897127D01*
X7779706Y-15859031D02*
X7789229Y-15849508D01*
X7789229Y-15849508D02*
X7808277Y-15839984D01*
X7808277Y-15839984D02*
X7855896Y-15839984D01*
X7855896Y-15839984D02*
X7874944Y-15849508D01*
X7874944Y-15849508D02*
X7884468Y-15859031D01*
X7884468Y-15859031D02*
X7893991Y-15878079D01*
X7893991Y-15878079D02*
X7893991Y-15897127D01*
X7893991Y-15897127D02*
X7884468Y-15925698D01*
X7884468Y-15925698D02*
X7770182Y-16039984D01*
X7770182Y-16039984D02*
X7893991Y-16039984D01*
X8132087Y-16039984D02*
X8132087Y-15839984D01*
X8217801Y-16039984D02*
X8217801Y-15935222D01*
X8217801Y-15935222D02*
X8208277Y-15916174D01*
X8208277Y-15916174D02*
X8189230Y-15906650D01*
X8189230Y-15906650D02*
X8160658Y-15906650D01*
X8160658Y-15906650D02*
X8141610Y-15916174D01*
X8141610Y-15916174D02*
X8132087Y-15925698D01*
X8341610Y-16039984D02*
X8322563Y-16030460D01*
X8322563Y-16030460D02*
X8313039Y-16020936D01*
X8313039Y-16020936D02*
X8303515Y-16001888D01*
X8303515Y-16001888D02*
X8303515Y-15944746D01*
X8303515Y-15944746D02*
X8313039Y-15925698D01*
X8313039Y-15925698D02*
X8322563Y-15916174D01*
X8322563Y-15916174D02*
X8341610Y-15906650D01*
X8341610Y-15906650D02*
X8370182Y-15906650D01*
X8370182Y-15906650D02*
X8389230Y-15916174D01*
X8389230Y-15916174D02*
X8398753Y-15925698D01*
X8398753Y-15925698D02*
X8408277Y-15944746D01*
X8408277Y-15944746D02*
X8408277Y-16001888D01*
X8408277Y-16001888D02*
X8398753Y-16020936D01*
X8398753Y-16020936D02*
X8389230Y-16030460D01*
X8389230Y-16030460D02*
X8370182Y-16039984D01*
X8370182Y-16039984D02*
X8341610Y-16039984D01*
X8522563Y-16039984D02*
X8503515Y-16030460D01*
X8503515Y-16030460D02*
X8493992Y-16011412D01*
X8493992Y-16011412D02*
X8493992Y-15839984D01*
X8674944Y-16030460D02*
X8655896Y-16039984D01*
X8655896Y-16039984D02*
X8617801Y-16039984D01*
X8617801Y-16039984D02*
X8598753Y-16030460D01*
X8598753Y-16030460D02*
X8589230Y-16011412D01*
X8589230Y-16011412D02*
X8589230Y-15935222D01*
X8589230Y-15935222D02*
X8598753Y-15916174D01*
X8598753Y-15916174D02*
X8617801Y-15906650D01*
X8617801Y-15906650D02*
X8655896Y-15906650D01*
X8655896Y-15906650D02*
X8674944Y-15916174D01*
X8674944Y-15916174D02*
X8684468Y-15935222D01*
X8684468Y-15935222D02*
X8684468Y-15954269D01*
X8684468Y-15954269D02*
X8589230Y-15973317D01*
X8760658Y-16030460D02*
X8779706Y-16039984D01*
X8779706Y-16039984D02*
X8817801Y-16039984D01*
X8817801Y-16039984D02*
X8836849Y-16030460D01*
X8836849Y-16030460D02*
X8846373Y-16011412D01*
X8846373Y-16011412D02*
X8846373Y-16001888D01*
X8846373Y-16001888D02*
X8836849Y-15982841D01*
X8836849Y-15982841D02*
X8817801Y-15973317D01*
X8817801Y-15973317D02*
X8789230Y-15973317D01*
X8789230Y-15973317D02*
X8770182Y-15963793D01*
X8770182Y-15963793D02*
X8760658Y-15944746D01*
X8760658Y-15944746D02*
X8760658Y-15935222D01*
X8760658Y-15935222D02*
X8770182Y-15916174D01*
X8770182Y-15916174D02*
X8789230Y-15906650D01*
X8789230Y-15906650D02*
X8817801Y-15906650D01*
X8817801Y-15906650D02*
X8836849Y-15916174D01*
X8913039Y-16116174D02*
X8922563Y-16106650D01*
X8922563Y-16106650D02*
X8941611Y-16078079D01*
X8941611Y-16078079D02*
X8951134Y-16059031D01*
X8951134Y-16059031D02*
X8960658Y-16030460D01*
X8960658Y-16030460D02*
X8970182Y-15982841D01*
X8970182Y-15982841D02*
X8970182Y-15944746D01*
X8970182Y-15944746D02*
X8960658Y-15897127D01*
X8960658Y-15897127D02*
X8951134Y-15868555D01*
X8951134Y-15868555D02*
X8941611Y-15849508D01*
X8941611Y-15849508D02*
X8922563Y-15820936D01*
X8922563Y-15820936D02*
X8913039Y-15811412D01*
D13*
X3845500Y-16161500D02*
X3947500Y-16263500D01*
X3947500Y-16161500D02*
X3845500Y-16263500D01*
X3947500Y-16212500D02*
G75*
G02*
X3845500Y-16212500I-51000J0D01*
G01*
X3845500Y-16212500D02*
G75*
G02*
X3947500Y-16212500I51000J0D01*
G01*
D11*
X4313039Y-16303984D02*
X4198753Y-16303984D01*
X4255896Y-16303984D02*
X4255896Y-16103984D01*
X4255896Y-16103984D02*
X4236848Y-16132555D01*
X4236848Y-16132555D02*
X4217801Y-16151603D01*
X4217801Y-16151603D02*
X4198753Y-16161127D01*
X4398753Y-16284936D02*
X4408277Y-16294460D01*
X4408277Y-16294460D02*
X4398753Y-16303984D01*
X4398753Y-16303984D02*
X4389229Y-16294460D01*
X4389229Y-16294460D02*
X4398753Y-16284936D01*
X4398753Y-16284936D02*
X4398753Y-16303984D01*
X4532086Y-16103984D02*
X4551134Y-16103984D01*
X4551134Y-16103984D02*
X4570182Y-16113508D01*
X4570182Y-16113508D02*
X4579705Y-16123031D01*
X4579705Y-16123031D02*
X4589229Y-16142079D01*
X4589229Y-16142079D02*
X4598753Y-16180174D01*
X4598753Y-16180174D02*
X4598753Y-16227793D01*
X4598753Y-16227793D02*
X4589229Y-16265888D01*
X4589229Y-16265888D02*
X4579705Y-16284936D01*
X4579705Y-16284936D02*
X4570182Y-16294460D01*
X4570182Y-16294460D02*
X4551134Y-16303984D01*
X4551134Y-16303984D02*
X4532086Y-16303984D01*
X4532086Y-16303984D02*
X4513039Y-16294460D01*
X4513039Y-16294460D02*
X4503515Y-16284936D01*
X4503515Y-16284936D02*
X4493991Y-16265888D01*
X4493991Y-16265888D02*
X4484467Y-16227793D01*
X4484467Y-16227793D02*
X4484467Y-16180174D01*
X4484467Y-16180174D02*
X4493991Y-16142079D01*
X4493991Y-16142079D02*
X4503515Y-16123031D01*
X4503515Y-16123031D02*
X4513039Y-16113508D01*
X4513039Y-16113508D02*
X4532086Y-16103984D01*
X4674944Y-16123031D02*
X4684467Y-16113508D01*
X4684467Y-16113508D02*
X4703515Y-16103984D01*
X4703515Y-16103984D02*
X4751134Y-16103984D01*
X4751134Y-16103984D02*
X4770182Y-16113508D01*
X4770182Y-16113508D02*
X4779705Y-16123031D01*
X4779705Y-16123031D02*
X4789229Y-16142079D01*
X4789229Y-16142079D02*
X4789229Y-16161127D01*
X4789229Y-16161127D02*
X4779705Y-16189698D01*
X4779705Y-16189698D02*
X4665420Y-16303984D01*
X4665420Y-16303984D02*
X4789229Y-16303984D01*
X4913039Y-16103984D02*
X4932086Y-16103984D01*
X4932086Y-16103984D02*
X4951134Y-16113508D01*
X4951134Y-16113508D02*
X4960658Y-16123031D01*
X4960658Y-16123031D02*
X4970182Y-16142079D01*
X4970182Y-16142079D02*
X4979705Y-16180174D01*
X4979705Y-16180174D02*
X4979705Y-16227793D01*
X4979705Y-16227793D02*
X4970182Y-16265888D01*
X4970182Y-16265888D02*
X4960658Y-16284936D01*
X4960658Y-16284936D02*
X4951134Y-16294460D01*
X4951134Y-16294460D02*
X4932086Y-16303984D01*
X4932086Y-16303984D02*
X4913039Y-16303984D01*
X4913039Y-16303984D02*
X4893991Y-16294460D01*
X4893991Y-16294460D02*
X4884467Y-16284936D01*
X4884467Y-16284936D02*
X4874944Y-16265888D01*
X4874944Y-16265888D02*
X4865420Y-16227793D01*
X4865420Y-16227793D02*
X4865420Y-16180174D01*
X4865420Y-16180174D02*
X4874944Y-16142079D01*
X4874944Y-16142079D02*
X4884467Y-16123031D01*
X4884467Y-16123031D02*
X4893991Y-16113508D01*
X4893991Y-16113508D02*
X4913039Y-16103984D01*
X5065420Y-16303984D02*
X5065420Y-16170650D01*
X5065420Y-16189698D02*
X5074944Y-16180174D01*
X5074944Y-16180174D02*
X5093991Y-16170650D01*
X5093991Y-16170650D02*
X5122563Y-16170650D01*
X5122563Y-16170650D02*
X5141610Y-16180174D01*
X5141610Y-16180174D02*
X5151134Y-16199222D01*
X5151134Y-16199222D02*
X5151134Y-16303984D01*
X5151134Y-16199222D02*
X5160658Y-16180174D01*
X5160658Y-16180174D02*
X5179705Y-16170650D01*
X5179705Y-16170650D02*
X5208277Y-16170650D01*
X5208277Y-16170650D02*
X5227325Y-16180174D01*
X5227325Y-16180174D02*
X5236848Y-16199222D01*
X5236848Y-16199222D02*
X5236848Y-16303984D01*
X5332086Y-16303984D02*
X5332086Y-16170650D01*
X5332086Y-16189698D02*
X5341610Y-16180174D01*
X5341610Y-16180174D02*
X5360658Y-16170650D01*
X5360658Y-16170650D02*
X5389229Y-16170650D01*
X5389229Y-16170650D02*
X5408277Y-16180174D01*
X5408277Y-16180174D02*
X5417801Y-16199222D01*
X5417801Y-16199222D02*
X5417801Y-16303984D01*
X5417801Y-16199222D02*
X5427325Y-16180174D01*
X5427325Y-16180174D02*
X5446372Y-16170650D01*
X5446372Y-16170650D02*
X5474944Y-16170650D01*
X5474944Y-16170650D02*
X5493991Y-16180174D01*
X5493991Y-16180174D02*
X5503515Y-16199222D01*
X5503515Y-16199222D02*
X5503515Y-16303984D01*
X5893991Y-16094460D02*
X5722563Y-16351603D01*
X6151134Y-16103984D02*
X6170182Y-16103984D01*
X6170182Y-16103984D02*
X6189229Y-16113508D01*
X6189229Y-16113508D02*
X6198753Y-16123031D01*
X6198753Y-16123031D02*
X6208277Y-16142079D01*
X6208277Y-16142079D02*
X6217801Y-16180174D01*
X6217801Y-16180174D02*
X6217801Y-16227793D01*
X6217801Y-16227793D02*
X6208277Y-16265888D01*
X6208277Y-16265888D02*
X6198753Y-16284936D01*
X6198753Y-16284936D02*
X6189229Y-16294460D01*
X6189229Y-16294460D02*
X6170182Y-16303984D01*
X6170182Y-16303984D02*
X6151134Y-16303984D01*
X6151134Y-16303984D02*
X6132086Y-16294460D01*
X6132086Y-16294460D02*
X6122563Y-16284936D01*
X6122563Y-16284936D02*
X6113039Y-16265888D01*
X6113039Y-16265888D02*
X6103515Y-16227793D01*
X6103515Y-16227793D02*
X6103515Y-16180174D01*
X6103515Y-16180174D02*
X6113039Y-16142079D01*
X6113039Y-16142079D02*
X6122563Y-16123031D01*
X6122563Y-16123031D02*
X6132086Y-16113508D01*
X6132086Y-16113508D02*
X6151134Y-16103984D01*
X6303515Y-16284936D02*
X6313039Y-16294460D01*
X6313039Y-16294460D02*
X6303515Y-16303984D01*
X6303515Y-16303984D02*
X6293991Y-16294460D01*
X6293991Y-16294460D02*
X6303515Y-16284936D01*
X6303515Y-16284936D02*
X6303515Y-16303984D01*
X6436848Y-16103984D02*
X6455896Y-16103984D01*
X6455896Y-16103984D02*
X6474944Y-16113508D01*
X6474944Y-16113508D02*
X6484467Y-16123031D01*
X6484467Y-16123031D02*
X6493991Y-16142079D01*
X6493991Y-16142079D02*
X6503515Y-16180174D01*
X6503515Y-16180174D02*
X6503515Y-16227793D01*
X6503515Y-16227793D02*
X6493991Y-16265888D01*
X6493991Y-16265888D02*
X6484467Y-16284936D01*
X6484467Y-16284936D02*
X6474944Y-16294460D01*
X6474944Y-16294460D02*
X6455896Y-16303984D01*
X6455896Y-16303984D02*
X6436848Y-16303984D01*
X6436848Y-16303984D02*
X6417801Y-16294460D01*
X6417801Y-16294460D02*
X6408277Y-16284936D01*
X6408277Y-16284936D02*
X6398753Y-16265888D01*
X6398753Y-16265888D02*
X6389229Y-16227793D01*
X6389229Y-16227793D02*
X6389229Y-16180174D01*
X6389229Y-16180174D02*
X6398753Y-16142079D01*
X6398753Y-16142079D02*
X6408277Y-16123031D01*
X6408277Y-16123031D02*
X6417801Y-16113508D01*
X6417801Y-16113508D02*
X6436848Y-16103984D01*
X6674944Y-16170650D02*
X6674944Y-16303984D01*
X6627325Y-16094460D02*
X6579706Y-16237317D01*
X6579706Y-16237317D02*
X6703515Y-16237317D01*
X6817801Y-16103984D02*
X6836848Y-16103984D01*
X6836848Y-16103984D02*
X6855896Y-16113508D01*
X6855896Y-16113508D02*
X6865420Y-16123031D01*
X6865420Y-16123031D02*
X6874944Y-16142079D01*
X6874944Y-16142079D02*
X6884467Y-16180174D01*
X6884467Y-16180174D02*
X6884467Y-16227793D01*
X6884467Y-16227793D02*
X6874944Y-16265888D01*
X6874944Y-16265888D02*
X6865420Y-16284936D01*
X6865420Y-16284936D02*
X6855896Y-16294460D01*
X6855896Y-16294460D02*
X6836848Y-16303984D01*
X6836848Y-16303984D02*
X6817801Y-16303984D01*
X6817801Y-16303984D02*
X6798753Y-16294460D01*
X6798753Y-16294460D02*
X6789229Y-16284936D01*
X6789229Y-16284936D02*
X6779706Y-16265888D01*
X6779706Y-16265888D02*
X6770182Y-16227793D01*
X6770182Y-16227793D02*
X6770182Y-16180174D01*
X6770182Y-16180174D02*
X6779706Y-16142079D01*
X6779706Y-16142079D02*
X6789229Y-16123031D01*
X6789229Y-16123031D02*
X6798753Y-16113508D01*
X6798753Y-16113508D02*
X6817801Y-16103984D01*
X6960658Y-16123031D02*
X6970182Y-16113508D01*
X6970182Y-16113508D02*
X6989229Y-16103984D01*
X6989229Y-16103984D02*
X7036848Y-16103984D01*
X7036848Y-16103984D02*
X7055896Y-16113508D01*
X7055896Y-16113508D02*
X7065420Y-16123031D01*
X7065420Y-16123031D02*
X7074944Y-16142079D01*
X7074944Y-16142079D02*
X7074944Y-16161127D01*
X7074944Y-16161127D02*
X7065420Y-16189698D01*
X7065420Y-16189698D02*
X6951134Y-16303984D01*
X6951134Y-16303984D02*
X7074944Y-16303984D01*
X7151134Y-16103984D02*
X7151134Y-16142079D01*
X7227325Y-16103984D02*
X7227325Y-16142079D01*
X7522563Y-16380174D02*
X7513039Y-16370650D01*
X7513039Y-16370650D02*
X7493991Y-16342079D01*
X7493991Y-16342079D02*
X7484468Y-16323031D01*
X7484468Y-16323031D02*
X7474944Y-16294460D01*
X7474944Y-16294460D02*
X7465420Y-16246841D01*
X7465420Y-16246841D02*
X7465420Y-16208746D01*
X7465420Y-16208746D02*
X7474944Y-16161127D01*
X7474944Y-16161127D02*
X7484468Y-16132555D01*
X7484468Y-16132555D02*
X7493991Y-16113508D01*
X7493991Y-16113508D02*
X7513039Y-16084936D01*
X7513039Y-16084936D02*
X7522563Y-16075412D01*
X7703515Y-16303984D02*
X7589229Y-16303984D01*
X7646372Y-16303984D02*
X7646372Y-16103984D01*
X7646372Y-16103984D02*
X7627325Y-16132555D01*
X7627325Y-16132555D02*
X7608277Y-16151603D01*
X7608277Y-16151603D02*
X7589229Y-16161127D01*
X7827325Y-16103984D02*
X7846372Y-16103984D01*
X7846372Y-16103984D02*
X7865420Y-16113508D01*
X7865420Y-16113508D02*
X7874944Y-16123031D01*
X7874944Y-16123031D02*
X7884468Y-16142079D01*
X7884468Y-16142079D02*
X7893991Y-16180174D01*
X7893991Y-16180174D02*
X7893991Y-16227793D01*
X7893991Y-16227793D02*
X7884468Y-16265888D01*
X7884468Y-16265888D02*
X7874944Y-16284936D01*
X7874944Y-16284936D02*
X7865420Y-16294460D01*
X7865420Y-16294460D02*
X7846372Y-16303984D01*
X7846372Y-16303984D02*
X7827325Y-16303984D01*
X7827325Y-16303984D02*
X7808277Y-16294460D01*
X7808277Y-16294460D02*
X7798753Y-16284936D01*
X7798753Y-16284936D02*
X7789229Y-16265888D01*
X7789229Y-16265888D02*
X7779706Y-16227793D01*
X7779706Y-16227793D02*
X7779706Y-16180174D01*
X7779706Y-16180174D02*
X7789229Y-16142079D01*
X7789229Y-16142079D02*
X7798753Y-16123031D01*
X7798753Y-16123031D02*
X7808277Y-16113508D01*
X7808277Y-16113508D02*
X7827325Y-16103984D01*
X8065420Y-16170650D02*
X8065420Y-16303984D01*
X8017801Y-16094460D02*
X7970182Y-16237317D01*
X7970182Y-16237317D02*
X8093991Y-16237317D01*
X8322563Y-16303984D02*
X8322563Y-16103984D01*
X8408277Y-16303984D02*
X8408277Y-16199222D01*
X8408277Y-16199222D02*
X8398753Y-16180174D01*
X8398753Y-16180174D02*
X8379706Y-16170650D01*
X8379706Y-16170650D02*
X8351134Y-16170650D01*
X8351134Y-16170650D02*
X8332087Y-16180174D01*
X8332087Y-16180174D02*
X8322563Y-16189698D01*
X8532087Y-16303984D02*
X8513039Y-16294460D01*
X8513039Y-16294460D02*
X8503515Y-16284936D01*
X8503515Y-16284936D02*
X8493992Y-16265888D01*
X8493992Y-16265888D02*
X8493992Y-16208746D01*
X8493992Y-16208746D02*
X8503515Y-16189698D01*
X8503515Y-16189698D02*
X8513039Y-16180174D01*
X8513039Y-16180174D02*
X8532087Y-16170650D01*
X8532087Y-16170650D02*
X8560658Y-16170650D01*
X8560658Y-16170650D02*
X8579706Y-16180174D01*
X8579706Y-16180174D02*
X8589230Y-16189698D01*
X8589230Y-16189698D02*
X8598753Y-16208746D01*
X8598753Y-16208746D02*
X8598753Y-16265888D01*
X8598753Y-16265888D02*
X8589230Y-16284936D01*
X8589230Y-16284936D02*
X8579706Y-16294460D01*
X8579706Y-16294460D02*
X8560658Y-16303984D01*
X8560658Y-16303984D02*
X8532087Y-16303984D01*
X8713039Y-16303984D02*
X8693992Y-16294460D01*
X8693992Y-16294460D02*
X8684468Y-16275412D01*
X8684468Y-16275412D02*
X8684468Y-16103984D01*
X8865420Y-16294460D02*
X8846373Y-16303984D01*
X8846373Y-16303984D02*
X8808277Y-16303984D01*
X8808277Y-16303984D02*
X8789230Y-16294460D01*
X8789230Y-16294460D02*
X8779706Y-16275412D01*
X8779706Y-16275412D02*
X8779706Y-16199222D01*
X8779706Y-16199222D02*
X8789230Y-16180174D01*
X8789230Y-16180174D02*
X8808277Y-16170650D01*
X8808277Y-16170650D02*
X8846373Y-16170650D01*
X8846373Y-16170650D02*
X8865420Y-16180174D01*
X8865420Y-16180174D02*
X8874944Y-16199222D01*
X8874944Y-16199222D02*
X8874944Y-16218269D01*
X8874944Y-16218269D02*
X8779706Y-16237317D01*
X8951134Y-16294460D02*
X8970182Y-16303984D01*
X8970182Y-16303984D02*
X9008277Y-16303984D01*
X9008277Y-16303984D02*
X9027325Y-16294460D01*
X9027325Y-16294460D02*
X9036849Y-16275412D01*
X9036849Y-16275412D02*
X9036849Y-16265888D01*
X9036849Y-16265888D02*
X9027325Y-16246841D01*
X9027325Y-16246841D02*
X9008277Y-16237317D01*
X9008277Y-16237317D02*
X8979706Y-16237317D01*
X8979706Y-16237317D02*
X8960658Y-16227793D01*
X8960658Y-16227793D02*
X8951134Y-16208746D01*
X8951134Y-16208746D02*
X8951134Y-16199222D01*
X8951134Y-16199222D02*
X8960658Y-16180174D01*
X8960658Y-16180174D02*
X8979706Y-16170650D01*
X8979706Y-16170650D02*
X9008277Y-16170650D01*
X9008277Y-16170650D02*
X9027325Y-16180174D01*
X9103515Y-16380174D02*
X9113039Y-16370650D01*
X9113039Y-16370650D02*
X9132087Y-16342079D01*
X9132087Y-16342079D02*
X9141611Y-16323031D01*
X9141611Y-16323031D02*
X9151134Y-16294460D01*
X9151134Y-16294460D02*
X9160658Y-16246841D01*
X9160658Y-16246841D02*
X9160658Y-16208746D01*
X9160658Y-16208746D02*
X9151134Y-16161127D01*
X9151134Y-16161127D02*
X9141611Y-16132555D01*
X9141611Y-16132555D02*
X9132087Y-16113508D01*
X9132087Y-16113508D02*
X9113039Y-16084936D01*
X9113039Y-16084936D02*
X9103515Y-16075412D01*
D14*
X3795100Y-16400300D02*
X3947500Y-16552700D01*
X3947500Y-16400300D02*
X3795100Y-16552700D01*
X3871300Y-16400300D02*
X3871300Y-16552700D01*
X3795100Y-16476500D02*
X3947500Y-16476500D01*
D11*
X4313039Y-16567984D02*
X4198753Y-16567984D01*
X4255896Y-16567984D02*
X4255896Y-16367984D01*
X4255896Y-16367984D02*
X4236848Y-16396555D01*
X4236848Y-16396555D02*
X4217801Y-16415603D01*
X4217801Y-16415603D02*
X4198753Y-16425127D01*
X4398753Y-16548936D02*
X4408277Y-16558460D01*
X4408277Y-16558460D02*
X4398753Y-16567984D01*
X4398753Y-16567984D02*
X4389229Y-16558460D01*
X4389229Y-16558460D02*
X4398753Y-16548936D01*
X4398753Y-16548936D02*
X4398753Y-16567984D01*
X4589229Y-16367984D02*
X4493991Y-16367984D01*
X4493991Y-16367984D02*
X4484467Y-16463222D01*
X4484467Y-16463222D02*
X4493991Y-16453698D01*
X4493991Y-16453698D02*
X4513039Y-16444174D01*
X4513039Y-16444174D02*
X4560658Y-16444174D01*
X4560658Y-16444174D02*
X4579705Y-16453698D01*
X4579705Y-16453698D02*
X4589229Y-16463222D01*
X4589229Y-16463222D02*
X4598753Y-16482269D01*
X4598753Y-16482269D02*
X4598753Y-16529888D01*
X4598753Y-16529888D02*
X4589229Y-16548936D01*
X4589229Y-16548936D02*
X4579705Y-16558460D01*
X4579705Y-16558460D02*
X4560658Y-16567984D01*
X4560658Y-16567984D02*
X4513039Y-16567984D01*
X4513039Y-16567984D02*
X4493991Y-16558460D01*
X4493991Y-16558460D02*
X4484467Y-16548936D01*
X4674944Y-16387031D02*
X4684467Y-16377508D01*
X4684467Y-16377508D02*
X4703515Y-16367984D01*
X4703515Y-16367984D02*
X4751134Y-16367984D01*
X4751134Y-16367984D02*
X4770182Y-16377508D01*
X4770182Y-16377508D02*
X4779705Y-16387031D01*
X4779705Y-16387031D02*
X4789229Y-16406079D01*
X4789229Y-16406079D02*
X4789229Y-16425127D01*
X4789229Y-16425127D02*
X4779705Y-16453698D01*
X4779705Y-16453698D02*
X4665420Y-16567984D01*
X4665420Y-16567984D02*
X4789229Y-16567984D01*
X4960658Y-16434650D02*
X4960658Y-16567984D01*
X4913039Y-16358460D02*
X4865420Y-16501317D01*
X4865420Y-16501317D02*
X4989229Y-16501317D01*
X5065420Y-16567984D02*
X5065420Y-16434650D01*
X5065420Y-16453698D02*
X5074944Y-16444174D01*
X5074944Y-16444174D02*
X5093991Y-16434650D01*
X5093991Y-16434650D02*
X5122563Y-16434650D01*
X5122563Y-16434650D02*
X5141610Y-16444174D01*
X5141610Y-16444174D02*
X5151134Y-16463222D01*
X5151134Y-16463222D02*
X5151134Y-16567984D01*
X5151134Y-16463222D02*
X5160658Y-16444174D01*
X5160658Y-16444174D02*
X5179705Y-16434650D01*
X5179705Y-16434650D02*
X5208277Y-16434650D01*
X5208277Y-16434650D02*
X5227325Y-16444174D01*
X5227325Y-16444174D02*
X5236848Y-16463222D01*
X5236848Y-16463222D02*
X5236848Y-16567984D01*
X5332086Y-16567984D02*
X5332086Y-16434650D01*
X5332086Y-16453698D02*
X5341610Y-16444174D01*
X5341610Y-16444174D02*
X5360658Y-16434650D01*
X5360658Y-16434650D02*
X5389229Y-16434650D01*
X5389229Y-16434650D02*
X5408277Y-16444174D01*
X5408277Y-16444174D02*
X5417801Y-16463222D01*
X5417801Y-16463222D02*
X5417801Y-16567984D01*
X5417801Y-16463222D02*
X5427325Y-16444174D01*
X5427325Y-16444174D02*
X5446372Y-16434650D01*
X5446372Y-16434650D02*
X5474944Y-16434650D01*
X5474944Y-16434650D02*
X5493991Y-16444174D01*
X5493991Y-16444174D02*
X5503515Y-16463222D01*
X5503515Y-16463222D02*
X5503515Y-16567984D01*
X5893991Y-16358460D02*
X5722563Y-16615603D01*
X6151134Y-16367984D02*
X6170182Y-16367984D01*
X6170182Y-16367984D02*
X6189229Y-16377508D01*
X6189229Y-16377508D02*
X6198753Y-16387031D01*
X6198753Y-16387031D02*
X6208277Y-16406079D01*
X6208277Y-16406079D02*
X6217801Y-16444174D01*
X6217801Y-16444174D02*
X6217801Y-16491793D01*
X6217801Y-16491793D02*
X6208277Y-16529888D01*
X6208277Y-16529888D02*
X6198753Y-16548936D01*
X6198753Y-16548936D02*
X6189229Y-16558460D01*
X6189229Y-16558460D02*
X6170182Y-16567984D01*
X6170182Y-16567984D02*
X6151134Y-16567984D01*
X6151134Y-16567984D02*
X6132086Y-16558460D01*
X6132086Y-16558460D02*
X6122563Y-16548936D01*
X6122563Y-16548936D02*
X6113039Y-16529888D01*
X6113039Y-16529888D02*
X6103515Y-16491793D01*
X6103515Y-16491793D02*
X6103515Y-16444174D01*
X6103515Y-16444174D02*
X6113039Y-16406079D01*
X6113039Y-16406079D02*
X6122563Y-16387031D01*
X6122563Y-16387031D02*
X6132086Y-16377508D01*
X6132086Y-16377508D02*
X6151134Y-16367984D01*
X6303515Y-16548936D02*
X6313039Y-16558460D01*
X6313039Y-16558460D02*
X6303515Y-16567984D01*
X6303515Y-16567984D02*
X6293991Y-16558460D01*
X6293991Y-16558460D02*
X6303515Y-16548936D01*
X6303515Y-16548936D02*
X6303515Y-16567984D01*
X6436848Y-16367984D02*
X6455896Y-16367984D01*
X6455896Y-16367984D02*
X6474944Y-16377508D01*
X6474944Y-16377508D02*
X6484467Y-16387031D01*
X6484467Y-16387031D02*
X6493991Y-16406079D01*
X6493991Y-16406079D02*
X6503515Y-16444174D01*
X6503515Y-16444174D02*
X6503515Y-16491793D01*
X6503515Y-16491793D02*
X6493991Y-16529888D01*
X6493991Y-16529888D02*
X6484467Y-16548936D01*
X6484467Y-16548936D02*
X6474944Y-16558460D01*
X6474944Y-16558460D02*
X6455896Y-16567984D01*
X6455896Y-16567984D02*
X6436848Y-16567984D01*
X6436848Y-16567984D02*
X6417801Y-16558460D01*
X6417801Y-16558460D02*
X6408277Y-16548936D01*
X6408277Y-16548936D02*
X6398753Y-16529888D01*
X6398753Y-16529888D02*
X6389229Y-16491793D01*
X6389229Y-16491793D02*
X6389229Y-16444174D01*
X6389229Y-16444174D02*
X6398753Y-16406079D01*
X6398753Y-16406079D02*
X6408277Y-16387031D01*
X6408277Y-16387031D02*
X6417801Y-16377508D01*
X6417801Y-16377508D02*
X6436848Y-16367984D01*
X6674944Y-16367984D02*
X6636848Y-16367984D01*
X6636848Y-16367984D02*
X6617801Y-16377508D01*
X6617801Y-16377508D02*
X6608277Y-16387031D01*
X6608277Y-16387031D02*
X6589229Y-16415603D01*
X6589229Y-16415603D02*
X6579706Y-16453698D01*
X6579706Y-16453698D02*
X6579706Y-16529888D01*
X6579706Y-16529888D02*
X6589229Y-16548936D01*
X6589229Y-16548936D02*
X6598753Y-16558460D01*
X6598753Y-16558460D02*
X6617801Y-16567984D01*
X6617801Y-16567984D02*
X6655896Y-16567984D01*
X6655896Y-16567984D02*
X6674944Y-16558460D01*
X6674944Y-16558460D02*
X6684467Y-16548936D01*
X6684467Y-16548936D02*
X6693991Y-16529888D01*
X6693991Y-16529888D02*
X6693991Y-16482269D01*
X6693991Y-16482269D02*
X6684467Y-16463222D01*
X6684467Y-16463222D02*
X6674944Y-16453698D01*
X6674944Y-16453698D02*
X6655896Y-16444174D01*
X6655896Y-16444174D02*
X6617801Y-16444174D01*
X6617801Y-16444174D02*
X6598753Y-16453698D01*
X6598753Y-16453698D02*
X6589229Y-16463222D01*
X6589229Y-16463222D02*
X6579706Y-16482269D01*
X6817801Y-16367984D02*
X6836848Y-16367984D01*
X6836848Y-16367984D02*
X6855896Y-16377508D01*
X6855896Y-16377508D02*
X6865420Y-16387031D01*
X6865420Y-16387031D02*
X6874944Y-16406079D01*
X6874944Y-16406079D02*
X6884467Y-16444174D01*
X6884467Y-16444174D02*
X6884467Y-16491793D01*
X6884467Y-16491793D02*
X6874944Y-16529888D01*
X6874944Y-16529888D02*
X6865420Y-16548936D01*
X6865420Y-16548936D02*
X6855896Y-16558460D01*
X6855896Y-16558460D02*
X6836848Y-16567984D01*
X6836848Y-16567984D02*
X6817801Y-16567984D01*
X6817801Y-16567984D02*
X6798753Y-16558460D01*
X6798753Y-16558460D02*
X6789229Y-16548936D01*
X6789229Y-16548936D02*
X6779706Y-16529888D01*
X6779706Y-16529888D02*
X6770182Y-16491793D01*
X6770182Y-16491793D02*
X6770182Y-16444174D01*
X6770182Y-16444174D02*
X6779706Y-16406079D01*
X6779706Y-16406079D02*
X6789229Y-16387031D01*
X6789229Y-16387031D02*
X6798753Y-16377508D01*
X6798753Y-16377508D02*
X6817801Y-16367984D01*
X7008277Y-16367984D02*
X7027325Y-16367984D01*
X7027325Y-16367984D02*
X7046372Y-16377508D01*
X7046372Y-16377508D02*
X7055896Y-16387031D01*
X7055896Y-16387031D02*
X7065420Y-16406079D01*
X7065420Y-16406079D02*
X7074944Y-16444174D01*
X7074944Y-16444174D02*
X7074944Y-16491793D01*
X7074944Y-16491793D02*
X7065420Y-16529888D01*
X7065420Y-16529888D02*
X7055896Y-16548936D01*
X7055896Y-16548936D02*
X7046372Y-16558460D01*
X7046372Y-16558460D02*
X7027325Y-16567984D01*
X7027325Y-16567984D02*
X7008277Y-16567984D01*
X7008277Y-16567984D02*
X6989229Y-16558460D01*
X6989229Y-16558460D02*
X6979706Y-16548936D01*
X6979706Y-16548936D02*
X6970182Y-16529888D01*
X6970182Y-16529888D02*
X6960658Y-16491793D01*
X6960658Y-16491793D02*
X6960658Y-16444174D01*
X6960658Y-16444174D02*
X6970182Y-16406079D01*
X6970182Y-16406079D02*
X6979706Y-16387031D01*
X6979706Y-16387031D02*
X6989229Y-16377508D01*
X6989229Y-16377508D02*
X7008277Y-16367984D01*
X7151134Y-16367984D02*
X7151134Y-16406079D01*
X7227325Y-16367984D02*
X7227325Y-16406079D01*
X7522563Y-16644174D02*
X7513039Y-16634650D01*
X7513039Y-16634650D02*
X7493991Y-16606079D01*
X7493991Y-16606079D02*
X7484468Y-16587031D01*
X7484468Y-16587031D02*
X7474944Y-16558460D01*
X7474944Y-16558460D02*
X7465420Y-16510841D01*
X7465420Y-16510841D02*
X7465420Y-16472746D01*
X7465420Y-16472746D02*
X7474944Y-16425127D01*
X7474944Y-16425127D02*
X7484468Y-16396555D01*
X7484468Y-16396555D02*
X7493991Y-16377508D01*
X7493991Y-16377508D02*
X7513039Y-16348936D01*
X7513039Y-16348936D02*
X7522563Y-16339412D01*
X7684468Y-16367984D02*
X7646372Y-16367984D01*
X7646372Y-16367984D02*
X7627325Y-16377508D01*
X7627325Y-16377508D02*
X7617801Y-16387031D01*
X7617801Y-16387031D02*
X7598753Y-16415603D01*
X7598753Y-16415603D02*
X7589229Y-16453698D01*
X7589229Y-16453698D02*
X7589229Y-16529888D01*
X7589229Y-16529888D02*
X7598753Y-16548936D01*
X7598753Y-16548936D02*
X7608277Y-16558460D01*
X7608277Y-16558460D02*
X7627325Y-16567984D01*
X7627325Y-16567984D02*
X7665420Y-16567984D01*
X7665420Y-16567984D02*
X7684468Y-16558460D01*
X7684468Y-16558460D02*
X7693991Y-16548936D01*
X7693991Y-16548936D02*
X7703515Y-16529888D01*
X7703515Y-16529888D02*
X7703515Y-16482269D01*
X7703515Y-16482269D02*
X7693991Y-16463222D01*
X7693991Y-16463222D02*
X7684468Y-16453698D01*
X7684468Y-16453698D02*
X7665420Y-16444174D01*
X7665420Y-16444174D02*
X7627325Y-16444174D01*
X7627325Y-16444174D02*
X7608277Y-16453698D01*
X7608277Y-16453698D02*
X7598753Y-16463222D01*
X7598753Y-16463222D02*
X7589229Y-16482269D01*
X7941610Y-16567984D02*
X7941610Y-16367984D01*
X8027325Y-16567984D02*
X8027325Y-16463222D01*
X8027325Y-16463222D02*
X8017801Y-16444174D01*
X8017801Y-16444174D02*
X7998753Y-16434650D01*
X7998753Y-16434650D02*
X7970182Y-16434650D01*
X7970182Y-16434650D02*
X7951134Y-16444174D01*
X7951134Y-16444174D02*
X7941610Y-16453698D01*
X8151134Y-16567984D02*
X8132087Y-16558460D01*
X8132087Y-16558460D02*
X8122563Y-16548936D01*
X8122563Y-16548936D02*
X8113039Y-16529888D01*
X8113039Y-16529888D02*
X8113039Y-16472746D01*
X8113039Y-16472746D02*
X8122563Y-16453698D01*
X8122563Y-16453698D02*
X8132087Y-16444174D01*
X8132087Y-16444174D02*
X8151134Y-16434650D01*
X8151134Y-16434650D02*
X8179706Y-16434650D01*
X8179706Y-16434650D02*
X8198753Y-16444174D01*
X8198753Y-16444174D02*
X8208277Y-16453698D01*
X8208277Y-16453698D02*
X8217801Y-16472746D01*
X8217801Y-16472746D02*
X8217801Y-16529888D01*
X8217801Y-16529888D02*
X8208277Y-16548936D01*
X8208277Y-16548936D02*
X8198753Y-16558460D01*
X8198753Y-16558460D02*
X8179706Y-16567984D01*
X8179706Y-16567984D02*
X8151134Y-16567984D01*
X8332087Y-16567984D02*
X8313039Y-16558460D01*
X8313039Y-16558460D02*
X8303515Y-16539412D01*
X8303515Y-16539412D02*
X8303515Y-16367984D01*
X8484468Y-16558460D02*
X8465420Y-16567984D01*
X8465420Y-16567984D02*
X8427325Y-16567984D01*
X8427325Y-16567984D02*
X8408277Y-16558460D01*
X8408277Y-16558460D02*
X8398753Y-16539412D01*
X8398753Y-16539412D02*
X8398753Y-16463222D01*
X8398753Y-16463222D02*
X8408277Y-16444174D01*
X8408277Y-16444174D02*
X8427325Y-16434650D01*
X8427325Y-16434650D02*
X8465420Y-16434650D01*
X8465420Y-16434650D02*
X8484468Y-16444174D01*
X8484468Y-16444174D02*
X8493992Y-16463222D01*
X8493992Y-16463222D02*
X8493992Y-16482269D01*
X8493992Y-16482269D02*
X8398753Y-16501317D01*
X8570182Y-16558460D02*
X8589230Y-16567984D01*
X8589230Y-16567984D02*
X8627325Y-16567984D01*
X8627325Y-16567984D02*
X8646373Y-16558460D01*
X8646373Y-16558460D02*
X8655896Y-16539412D01*
X8655896Y-16539412D02*
X8655896Y-16529888D01*
X8655896Y-16529888D02*
X8646373Y-16510841D01*
X8646373Y-16510841D02*
X8627325Y-16501317D01*
X8627325Y-16501317D02*
X8598753Y-16501317D01*
X8598753Y-16501317D02*
X8579706Y-16491793D01*
X8579706Y-16491793D02*
X8570182Y-16472746D01*
X8570182Y-16472746D02*
X8570182Y-16463222D01*
X8570182Y-16463222D02*
X8579706Y-16444174D01*
X8579706Y-16444174D02*
X8598753Y-16434650D01*
X8598753Y-16434650D02*
X8627325Y-16434650D01*
X8627325Y-16434650D02*
X8646373Y-16444174D01*
X8722563Y-16644174D02*
X8732087Y-16634650D01*
X8732087Y-16634650D02*
X8751134Y-16606079D01*
X8751134Y-16606079D02*
X8760658Y-16587031D01*
X8760658Y-16587031D02*
X8770182Y-16558460D01*
X8770182Y-16558460D02*
X8779706Y-16510841D01*
X8779706Y-16510841D02*
X8779706Y-16472746D01*
X8779706Y-16472746D02*
X8770182Y-16425127D01*
X8770182Y-16425127D02*
X8760658Y-16396555D01*
X8760658Y-16396555D02*
X8751134Y-16377508D01*
X8751134Y-16377508D02*
X8732087Y-16348936D01*
X8732087Y-16348936D02*
X8722563Y-16339412D01*
D15*
X3787500Y-16668900D02*
X3947500Y-16828900D01*
X3947500Y-16668900D02*
X3787500Y-16828900D01*
X3924069Y-16805469D02*
X3924069Y-16692331D01*
X3810931Y-16692331D01*
X3810931Y-16805469D01*
X3924069Y-16805469D01*
D11*
X4313039Y-16840384D02*
X4198753Y-16840384D01*
X4255896Y-16840384D02*
X4255896Y-16640384D01*
X4255896Y-16640384D02*
X4236848Y-16668955D01*
X4236848Y-16668955D02*
X4217801Y-16688003D01*
X4217801Y-16688003D02*
X4198753Y-16697527D01*
X4398753Y-16821336D02*
X4408277Y-16830860D01*
X4408277Y-16830860D02*
X4398753Y-16840384D01*
X4398753Y-16840384D02*
X4389229Y-16830860D01*
X4389229Y-16830860D02*
X4398753Y-16821336D01*
X4398753Y-16821336D02*
X4398753Y-16840384D01*
X4579705Y-16640384D02*
X4541610Y-16640384D01*
X4541610Y-16640384D02*
X4522563Y-16649908D01*
X4522563Y-16649908D02*
X4513039Y-16659431D01*
X4513039Y-16659431D02*
X4493991Y-16688003D01*
X4493991Y-16688003D02*
X4484467Y-16726098D01*
X4484467Y-16726098D02*
X4484467Y-16802289D01*
X4484467Y-16802289D02*
X4493991Y-16821336D01*
X4493991Y-16821336D02*
X4503515Y-16830860D01*
X4503515Y-16830860D02*
X4522563Y-16840384D01*
X4522563Y-16840384D02*
X4560658Y-16840384D01*
X4560658Y-16840384D02*
X4579705Y-16830860D01*
X4579705Y-16830860D02*
X4589229Y-16821336D01*
X4589229Y-16821336D02*
X4598753Y-16802289D01*
X4598753Y-16802289D02*
X4598753Y-16754669D01*
X4598753Y-16754669D02*
X4589229Y-16735622D01*
X4589229Y-16735622D02*
X4579705Y-16726098D01*
X4579705Y-16726098D02*
X4560658Y-16716574D01*
X4560658Y-16716574D02*
X4522563Y-16716574D01*
X4522563Y-16716574D02*
X4503515Y-16726098D01*
X4503515Y-16726098D02*
X4493991Y-16735622D01*
X4493991Y-16735622D02*
X4484467Y-16754669D01*
X4722563Y-16640384D02*
X4741610Y-16640384D01*
X4741610Y-16640384D02*
X4760658Y-16649908D01*
X4760658Y-16649908D02*
X4770182Y-16659431D01*
X4770182Y-16659431D02*
X4779705Y-16678479D01*
X4779705Y-16678479D02*
X4789229Y-16716574D01*
X4789229Y-16716574D02*
X4789229Y-16764193D01*
X4789229Y-16764193D02*
X4779705Y-16802289D01*
X4779705Y-16802289D02*
X4770182Y-16821336D01*
X4770182Y-16821336D02*
X4760658Y-16830860D01*
X4760658Y-16830860D02*
X4741610Y-16840384D01*
X4741610Y-16840384D02*
X4722563Y-16840384D01*
X4722563Y-16840384D02*
X4703515Y-16830860D01*
X4703515Y-16830860D02*
X4693991Y-16821336D01*
X4693991Y-16821336D02*
X4684467Y-16802289D01*
X4684467Y-16802289D02*
X4674944Y-16764193D01*
X4674944Y-16764193D02*
X4674944Y-16716574D01*
X4674944Y-16716574D02*
X4684467Y-16678479D01*
X4684467Y-16678479D02*
X4693991Y-16659431D01*
X4693991Y-16659431D02*
X4703515Y-16649908D01*
X4703515Y-16649908D02*
X4722563Y-16640384D01*
X4913039Y-16640384D02*
X4932086Y-16640384D01*
X4932086Y-16640384D02*
X4951134Y-16649908D01*
X4951134Y-16649908D02*
X4960658Y-16659431D01*
X4960658Y-16659431D02*
X4970182Y-16678479D01*
X4970182Y-16678479D02*
X4979705Y-16716574D01*
X4979705Y-16716574D02*
X4979705Y-16764193D01*
X4979705Y-16764193D02*
X4970182Y-16802289D01*
X4970182Y-16802289D02*
X4960658Y-16821336D01*
X4960658Y-16821336D02*
X4951134Y-16830860D01*
X4951134Y-16830860D02*
X4932086Y-16840384D01*
X4932086Y-16840384D02*
X4913039Y-16840384D01*
X4913039Y-16840384D02*
X4893991Y-16830860D01*
X4893991Y-16830860D02*
X4884467Y-16821336D01*
X4884467Y-16821336D02*
X4874944Y-16802289D01*
X4874944Y-16802289D02*
X4865420Y-16764193D01*
X4865420Y-16764193D02*
X4865420Y-16716574D01*
X4865420Y-16716574D02*
X4874944Y-16678479D01*
X4874944Y-16678479D02*
X4884467Y-16659431D01*
X4884467Y-16659431D02*
X4893991Y-16649908D01*
X4893991Y-16649908D02*
X4913039Y-16640384D01*
X5065420Y-16840384D02*
X5065420Y-16707050D01*
X5065420Y-16726098D02*
X5074944Y-16716574D01*
X5074944Y-16716574D02*
X5093991Y-16707050D01*
X5093991Y-16707050D02*
X5122563Y-16707050D01*
X5122563Y-16707050D02*
X5141610Y-16716574D01*
X5141610Y-16716574D02*
X5151134Y-16735622D01*
X5151134Y-16735622D02*
X5151134Y-16840384D01*
X5151134Y-16735622D02*
X5160658Y-16716574D01*
X5160658Y-16716574D02*
X5179705Y-16707050D01*
X5179705Y-16707050D02*
X5208277Y-16707050D01*
X5208277Y-16707050D02*
X5227325Y-16716574D01*
X5227325Y-16716574D02*
X5236848Y-16735622D01*
X5236848Y-16735622D02*
X5236848Y-16840384D01*
X5332086Y-16840384D02*
X5332086Y-16707050D01*
X5332086Y-16726098D02*
X5341610Y-16716574D01*
X5341610Y-16716574D02*
X5360658Y-16707050D01*
X5360658Y-16707050D02*
X5389229Y-16707050D01*
X5389229Y-16707050D02*
X5408277Y-16716574D01*
X5408277Y-16716574D02*
X5417801Y-16735622D01*
X5417801Y-16735622D02*
X5417801Y-16840384D01*
X5417801Y-16735622D02*
X5427325Y-16716574D01*
X5427325Y-16716574D02*
X5446372Y-16707050D01*
X5446372Y-16707050D02*
X5474944Y-16707050D01*
X5474944Y-16707050D02*
X5493991Y-16716574D01*
X5493991Y-16716574D02*
X5503515Y-16735622D01*
X5503515Y-16735622D02*
X5503515Y-16840384D01*
X5893991Y-16630860D02*
X5722563Y-16888003D01*
X6151134Y-16640384D02*
X6170182Y-16640384D01*
X6170182Y-16640384D02*
X6189229Y-16649908D01*
X6189229Y-16649908D02*
X6198753Y-16659431D01*
X6198753Y-16659431D02*
X6208277Y-16678479D01*
X6208277Y-16678479D02*
X6217801Y-16716574D01*
X6217801Y-16716574D02*
X6217801Y-16764193D01*
X6217801Y-16764193D02*
X6208277Y-16802289D01*
X6208277Y-16802289D02*
X6198753Y-16821336D01*
X6198753Y-16821336D02*
X6189229Y-16830860D01*
X6189229Y-16830860D02*
X6170182Y-16840384D01*
X6170182Y-16840384D02*
X6151134Y-16840384D01*
X6151134Y-16840384D02*
X6132086Y-16830860D01*
X6132086Y-16830860D02*
X6122563Y-16821336D01*
X6122563Y-16821336D02*
X6113039Y-16802289D01*
X6113039Y-16802289D02*
X6103515Y-16764193D01*
X6103515Y-16764193D02*
X6103515Y-16716574D01*
X6103515Y-16716574D02*
X6113039Y-16678479D01*
X6113039Y-16678479D02*
X6122563Y-16659431D01*
X6122563Y-16659431D02*
X6132086Y-16649908D01*
X6132086Y-16649908D02*
X6151134Y-16640384D01*
X6303515Y-16821336D02*
X6313039Y-16830860D01*
X6313039Y-16830860D02*
X6303515Y-16840384D01*
X6303515Y-16840384D02*
X6293991Y-16830860D01*
X6293991Y-16830860D02*
X6303515Y-16821336D01*
X6303515Y-16821336D02*
X6303515Y-16840384D01*
X6436848Y-16640384D02*
X6455896Y-16640384D01*
X6455896Y-16640384D02*
X6474944Y-16649908D01*
X6474944Y-16649908D02*
X6484467Y-16659431D01*
X6484467Y-16659431D02*
X6493991Y-16678479D01*
X6493991Y-16678479D02*
X6503515Y-16716574D01*
X6503515Y-16716574D02*
X6503515Y-16764193D01*
X6503515Y-16764193D02*
X6493991Y-16802289D01*
X6493991Y-16802289D02*
X6484467Y-16821336D01*
X6484467Y-16821336D02*
X6474944Y-16830860D01*
X6474944Y-16830860D02*
X6455896Y-16840384D01*
X6455896Y-16840384D02*
X6436848Y-16840384D01*
X6436848Y-16840384D02*
X6417801Y-16830860D01*
X6417801Y-16830860D02*
X6408277Y-16821336D01*
X6408277Y-16821336D02*
X6398753Y-16802289D01*
X6398753Y-16802289D02*
X6389229Y-16764193D01*
X6389229Y-16764193D02*
X6389229Y-16716574D01*
X6389229Y-16716574D02*
X6398753Y-16678479D01*
X6398753Y-16678479D02*
X6408277Y-16659431D01*
X6408277Y-16659431D02*
X6417801Y-16649908D01*
X6417801Y-16649908D02*
X6436848Y-16640384D01*
X6674944Y-16640384D02*
X6636848Y-16640384D01*
X6636848Y-16640384D02*
X6617801Y-16649908D01*
X6617801Y-16649908D02*
X6608277Y-16659431D01*
X6608277Y-16659431D02*
X6589229Y-16688003D01*
X6589229Y-16688003D02*
X6579706Y-16726098D01*
X6579706Y-16726098D02*
X6579706Y-16802289D01*
X6579706Y-16802289D02*
X6589229Y-16821336D01*
X6589229Y-16821336D02*
X6598753Y-16830860D01*
X6598753Y-16830860D02*
X6617801Y-16840384D01*
X6617801Y-16840384D02*
X6655896Y-16840384D01*
X6655896Y-16840384D02*
X6674944Y-16830860D01*
X6674944Y-16830860D02*
X6684467Y-16821336D01*
X6684467Y-16821336D02*
X6693991Y-16802289D01*
X6693991Y-16802289D02*
X6693991Y-16754669D01*
X6693991Y-16754669D02*
X6684467Y-16735622D01*
X6684467Y-16735622D02*
X6674944Y-16726098D01*
X6674944Y-16726098D02*
X6655896Y-16716574D01*
X6655896Y-16716574D02*
X6617801Y-16716574D01*
X6617801Y-16716574D02*
X6598753Y-16726098D01*
X6598753Y-16726098D02*
X6589229Y-16735622D01*
X6589229Y-16735622D02*
X6579706Y-16754669D01*
X6760658Y-16640384D02*
X6884467Y-16640384D01*
X6884467Y-16640384D02*
X6817801Y-16716574D01*
X6817801Y-16716574D02*
X6846372Y-16716574D01*
X6846372Y-16716574D02*
X6865420Y-16726098D01*
X6865420Y-16726098D02*
X6874944Y-16735622D01*
X6874944Y-16735622D02*
X6884467Y-16754669D01*
X6884467Y-16754669D02*
X6884467Y-16802289D01*
X6884467Y-16802289D02*
X6874944Y-16821336D01*
X6874944Y-16821336D02*
X6865420Y-16830860D01*
X6865420Y-16830860D02*
X6846372Y-16840384D01*
X6846372Y-16840384D02*
X6789229Y-16840384D01*
X6789229Y-16840384D02*
X6770182Y-16830860D01*
X6770182Y-16830860D02*
X6760658Y-16821336D01*
X7008277Y-16640384D02*
X7027325Y-16640384D01*
X7027325Y-16640384D02*
X7046372Y-16649908D01*
X7046372Y-16649908D02*
X7055896Y-16659431D01*
X7055896Y-16659431D02*
X7065420Y-16678479D01*
X7065420Y-16678479D02*
X7074944Y-16716574D01*
X7074944Y-16716574D02*
X7074944Y-16764193D01*
X7074944Y-16764193D02*
X7065420Y-16802289D01*
X7065420Y-16802289D02*
X7055896Y-16821336D01*
X7055896Y-16821336D02*
X7046372Y-16830860D01*
X7046372Y-16830860D02*
X7027325Y-16840384D01*
X7027325Y-16840384D02*
X7008277Y-16840384D01*
X7008277Y-16840384D02*
X6989229Y-16830860D01*
X6989229Y-16830860D02*
X6979706Y-16821336D01*
X6979706Y-16821336D02*
X6970182Y-16802289D01*
X6970182Y-16802289D02*
X6960658Y-16764193D01*
X6960658Y-16764193D02*
X6960658Y-16716574D01*
X6960658Y-16716574D02*
X6970182Y-16678479D01*
X6970182Y-16678479D02*
X6979706Y-16659431D01*
X6979706Y-16659431D02*
X6989229Y-16649908D01*
X6989229Y-16649908D02*
X7008277Y-16640384D01*
X7151134Y-16640384D02*
X7151134Y-16678479D01*
X7227325Y-16640384D02*
X7227325Y-16678479D01*
X7522563Y-16916574D02*
X7513039Y-16907050D01*
X7513039Y-16907050D02*
X7493991Y-16878479D01*
X7493991Y-16878479D02*
X7484468Y-16859431D01*
X7484468Y-16859431D02*
X7474944Y-16830860D01*
X7474944Y-16830860D02*
X7465420Y-16783241D01*
X7465420Y-16783241D02*
X7465420Y-16745146D01*
X7465420Y-16745146D02*
X7474944Y-16697527D01*
X7474944Y-16697527D02*
X7484468Y-16668955D01*
X7484468Y-16668955D02*
X7493991Y-16649908D01*
X7493991Y-16649908D02*
X7513039Y-16621336D01*
X7513039Y-16621336D02*
X7522563Y-16611812D01*
X7579706Y-16640384D02*
X7703515Y-16640384D01*
X7703515Y-16640384D02*
X7636848Y-16716574D01*
X7636848Y-16716574D02*
X7665420Y-16716574D01*
X7665420Y-16716574D02*
X7684468Y-16726098D01*
X7684468Y-16726098D02*
X7693991Y-16735622D01*
X7693991Y-16735622D02*
X7703515Y-16754669D01*
X7703515Y-16754669D02*
X7703515Y-16802289D01*
X7703515Y-16802289D02*
X7693991Y-16821336D01*
X7693991Y-16821336D02*
X7684468Y-16830860D01*
X7684468Y-16830860D02*
X7665420Y-16840384D01*
X7665420Y-16840384D02*
X7608277Y-16840384D01*
X7608277Y-16840384D02*
X7589229Y-16830860D01*
X7589229Y-16830860D02*
X7579706Y-16821336D01*
X7941610Y-16840384D02*
X7941610Y-16640384D01*
X8027325Y-16840384D02*
X8027325Y-16735622D01*
X8027325Y-16735622D02*
X8017801Y-16716574D01*
X8017801Y-16716574D02*
X7998753Y-16707050D01*
X7998753Y-16707050D02*
X7970182Y-16707050D01*
X7970182Y-16707050D02*
X7951134Y-16716574D01*
X7951134Y-16716574D02*
X7941610Y-16726098D01*
X8151134Y-16840384D02*
X8132087Y-16830860D01*
X8132087Y-16830860D02*
X8122563Y-16821336D01*
X8122563Y-16821336D02*
X8113039Y-16802289D01*
X8113039Y-16802289D02*
X8113039Y-16745146D01*
X8113039Y-16745146D02*
X8122563Y-16726098D01*
X8122563Y-16726098D02*
X8132087Y-16716574D01*
X8132087Y-16716574D02*
X8151134Y-16707050D01*
X8151134Y-16707050D02*
X8179706Y-16707050D01*
X8179706Y-16707050D02*
X8198753Y-16716574D01*
X8198753Y-16716574D02*
X8208277Y-16726098D01*
X8208277Y-16726098D02*
X8217801Y-16745146D01*
X8217801Y-16745146D02*
X8217801Y-16802289D01*
X8217801Y-16802289D02*
X8208277Y-16821336D01*
X8208277Y-16821336D02*
X8198753Y-16830860D01*
X8198753Y-16830860D02*
X8179706Y-16840384D01*
X8179706Y-16840384D02*
X8151134Y-16840384D01*
X8332087Y-16840384D02*
X8313039Y-16830860D01*
X8313039Y-16830860D02*
X8303515Y-16811812D01*
X8303515Y-16811812D02*
X8303515Y-16640384D01*
X8484468Y-16830860D02*
X8465420Y-16840384D01*
X8465420Y-16840384D02*
X8427325Y-16840384D01*
X8427325Y-16840384D02*
X8408277Y-16830860D01*
X8408277Y-16830860D02*
X8398753Y-16811812D01*
X8398753Y-16811812D02*
X8398753Y-16735622D01*
X8398753Y-16735622D02*
X8408277Y-16716574D01*
X8408277Y-16716574D02*
X8427325Y-16707050D01*
X8427325Y-16707050D02*
X8465420Y-16707050D01*
X8465420Y-16707050D02*
X8484468Y-16716574D01*
X8484468Y-16716574D02*
X8493992Y-16735622D01*
X8493992Y-16735622D02*
X8493992Y-16754669D01*
X8493992Y-16754669D02*
X8398753Y-16773717D01*
X8570182Y-16830860D02*
X8589230Y-16840384D01*
X8589230Y-16840384D02*
X8627325Y-16840384D01*
X8627325Y-16840384D02*
X8646373Y-16830860D01*
X8646373Y-16830860D02*
X8655896Y-16811812D01*
X8655896Y-16811812D02*
X8655896Y-16802289D01*
X8655896Y-16802289D02*
X8646373Y-16783241D01*
X8646373Y-16783241D02*
X8627325Y-16773717D01*
X8627325Y-16773717D02*
X8598753Y-16773717D01*
X8598753Y-16773717D02*
X8579706Y-16764193D01*
X8579706Y-16764193D02*
X8570182Y-16745146D01*
X8570182Y-16745146D02*
X8570182Y-16735622D01*
X8570182Y-16735622D02*
X8579706Y-16716574D01*
X8579706Y-16716574D02*
X8598753Y-16707050D01*
X8598753Y-16707050D02*
X8627325Y-16707050D01*
X8627325Y-16707050D02*
X8646373Y-16716574D01*
X8722563Y-16916574D02*
X8732087Y-16907050D01*
X8732087Y-16907050D02*
X8751134Y-16878479D01*
X8751134Y-16878479D02*
X8760658Y-16859431D01*
X8760658Y-16859431D02*
X8770182Y-16830860D01*
X8770182Y-16830860D02*
X8779706Y-16783241D01*
X8779706Y-16783241D02*
X8779706Y-16745146D01*
X8779706Y-16745146D02*
X8770182Y-16697527D01*
X8770182Y-16697527D02*
X8760658Y-16668955D01*
X8760658Y-16668955D02*
X8751134Y-16649908D01*
X8751134Y-16649908D02*
X8732087Y-16621336D01*
X8732087Y-16621336D02*
X8722563Y-16611812D01*
X3747500Y-16928900D02*
X3947500Y-17128900D01*
X3947500Y-16928900D02*
X3747500Y-17128900D01*
X3847500Y-17128900D02*
X3947500Y-17028900D01*
X3847500Y-16928900D01*
X3747500Y-17028900D01*
X3847500Y-17128900D01*
X4198753Y-16939431D02*
X4208277Y-16929908D01*
X4208277Y-16929908D02*
X4227324Y-16920384D01*
X4227324Y-16920384D02*
X4274944Y-16920384D01*
X4274944Y-16920384D02*
X4293991Y-16929908D01*
X4293991Y-16929908D02*
X4303515Y-16939431D01*
X4303515Y-16939431D02*
X4313039Y-16958479D01*
X4313039Y-16958479D02*
X4313039Y-16977527D01*
X4313039Y-16977527D02*
X4303515Y-17006098D01*
X4303515Y-17006098D02*
X4189229Y-17120384D01*
X4189229Y-17120384D02*
X4313039Y-17120384D01*
X4398753Y-17101336D02*
X4408277Y-17110860D01*
X4408277Y-17110860D02*
X4398753Y-17120384D01*
X4398753Y-17120384D02*
X4389229Y-17110860D01*
X4389229Y-17110860D02*
X4398753Y-17101336D01*
X4398753Y-17101336D02*
X4398753Y-17120384D01*
X4532086Y-16920384D02*
X4551134Y-16920384D01*
X4551134Y-16920384D02*
X4570182Y-16929908D01*
X4570182Y-16929908D02*
X4579705Y-16939431D01*
X4579705Y-16939431D02*
X4589229Y-16958479D01*
X4589229Y-16958479D02*
X4598753Y-16996574D01*
X4598753Y-16996574D02*
X4598753Y-17044193D01*
X4598753Y-17044193D02*
X4589229Y-17082289D01*
X4589229Y-17082289D02*
X4579705Y-17101336D01*
X4579705Y-17101336D02*
X4570182Y-17110860D01*
X4570182Y-17110860D02*
X4551134Y-17120384D01*
X4551134Y-17120384D02*
X4532086Y-17120384D01*
X4532086Y-17120384D02*
X4513039Y-17110860D01*
X4513039Y-17110860D02*
X4503515Y-17101336D01*
X4503515Y-17101336D02*
X4493991Y-17082289D01*
X4493991Y-17082289D02*
X4484467Y-17044193D01*
X4484467Y-17044193D02*
X4484467Y-16996574D01*
X4484467Y-16996574D02*
X4493991Y-16958479D01*
X4493991Y-16958479D02*
X4503515Y-16939431D01*
X4503515Y-16939431D02*
X4513039Y-16929908D01*
X4513039Y-16929908D02*
X4532086Y-16920384D01*
X4665420Y-16920384D02*
X4789229Y-16920384D01*
X4789229Y-16920384D02*
X4722563Y-16996574D01*
X4722563Y-16996574D02*
X4751134Y-16996574D01*
X4751134Y-16996574D02*
X4770182Y-17006098D01*
X4770182Y-17006098D02*
X4779705Y-17015622D01*
X4779705Y-17015622D02*
X4789229Y-17034670D01*
X4789229Y-17034670D02*
X4789229Y-17082289D01*
X4789229Y-17082289D02*
X4779705Y-17101336D01*
X4779705Y-17101336D02*
X4770182Y-17110860D01*
X4770182Y-17110860D02*
X4751134Y-17120384D01*
X4751134Y-17120384D02*
X4693991Y-17120384D01*
X4693991Y-17120384D02*
X4674944Y-17110860D01*
X4674944Y-17110860D02*
X4665420Y-17101336D01*
X4865420Y-16939431D02*
X4874944Y-16929908D01*
X4874944Y-16929908D02*
X4893991Y-16920384D01*
X4893991Y-16920384D02*
X4941610Y-16920384D01*
X4941610Y-16920384D02*
X4960658Y-16929908D01*
X4960658Y-16929908D02*
X4970182Y-16939431D01*
X4970182Y-16939431D02*
X4979705Y-16958479D01*
X4979705Y-16958479D02*
X4979705Y-16977527D01*
X4979705Y-16977527D02*
X4970182Y-17006098D01*
X4970182Y-17006098D02*
X4855896Y-17120384D01*
X4855896Y-17120384D02*
X4979705Y-17120384D01*
X5065420Y-17120384D02*
X5065420Y-16987050D01*
X5065420Y-17006098D02*
X5074944Y-16996574D01*
X5074944Y-16996574D02*
X5093991Y-16987050D01*
X5093991Y-16987050D02*
X5122563Y-16987050D01*
X5122563Y-16987050D02*
X5141610Y-16996574D01*
X5141610Y-16996574D02*
X5151134Y-17015622D01*
X5151134Y-17015622D02*
X5151134Y-17120384D01*
X5151134Y-17015622D02*
X5160658Y-16996574D01*
X5160658Y-16996574D02*
X5179705Y-16987050D01*
X5179705Y-16987050D02*
X5208277Y-16987050D01*
X5208277Y-16987050D02*
X5227325Y-16996574D01*
X5227325Y-16996574D02*
X5236848Y-17015622D01*
X5236848Y-17015622D02*
X5236848Y-17120384D01*
X5332086Y-17120384D02*
X5332086Y-16987050D01*
X5332086Y-17006098D02*
X5341610Y-16996574D01*
X5341610Y-16996574D02*
X5360658Y-16987050D01*
X5360658Y-16987050D02*
X5389229Y-16987050D01*
X5389229Y-16987050D02*
X5408277Y-16996574D01*
X5408277Y-16996574D02*
X5417801Y-17015622D01*
X5417801Y-17015622D02*
X5417801Y-17120384D01*
X5417801Y-17015622D02*
X5427325Y-16996574D01*
X5427325Y-16996574D02*
X5446372Y-16987050D01*
X5446372Y-16987050D02*
X5474944Y-16987050D01*
X5474944Y-16987050D02*
X5493991Y-16996574D01*
X5493991Y-16996574D02*
X5503515Y-17015622D01*
X5503515Y-17015622D02*
X5503515Y-17120384D01*
X5893991Y-16910860D02*
X5722563Y-17168003D01*
X6151134Y-16920384D02*
X6170182Y-16920384D01*
X6170182Y-16920384D02*
X6189229Y-16929908D01*
X6189229Y-16929908D02*
X6198753Y-16939431D01*
X6198753Y-16939431D02*
X6208277Y-16958479D01*
X6208277Y-16958479D02*
X6217801Y-16996574D01*
X6217801Y-16996574D02*
X6217801Y-17044193D01*
X6217801Y-17044193D02*
X6208277Y-17082289D01*
X6208277Y-17082289D02*
X6198753Y-17101336D01*
X6198753Y-17101336D02*
X6189229Y-17110860D01*
X6189229Y-17110860D02*
X6170182Y-17120384D01*
X6170182Y-17120384D02*
X6151134Y-17120384D01*
X6151134Y-17120384D02*
X6132086Y-17110860D01*
X6132086Y-17110860D02*
X6122563Y-17101336D01*
X6122563Y-17101336D02*
X6113039Y-17082289D01*
X6113039Y-17082289D02*
X6103515Y-17044193D01*
X6103515Y-17044193D02*
X6103515Y-16996574D01*
X6103515Y-16996574D02*
X6113039Y-16958479D01*
X6113039Y-16958479D02*
X6122563Y-16939431D01*
X6122563Y-16939431D02*
X6132086Y-16929908D01*
X6132086Y-16929908D02*
X6151134Y-16920384D01*
X6303515Y-17101336D02*
X6313039Y-17110860D01*
X6313039Y-17110860D02*
X6303515Y-17120384D01*
X6303515Y-17120384D02*
X6293991Y-17110860D01*
X6293991Y-17110860D02*
X6303515Y-17101336D01*
X6303515Y-17101336D02*
X6303515Y-17120384D01*
X6436848Y-16920384D02*
X6455896Y-16920384D01*
X6455896Y-16920384D02*
X6474944Y-16929908D01*
X6474944Y-16929908D02*
X6484467Y-16939431D01*
X6484467Y-16939431D02*
X6493991Y-16958479D01*
X6493991Y-16958479D02*
X6503515Y-16996574D01*
X6503515Y-16996574D02*
X6503515Y-17044193D01*
X6503515Y-17044193D02*
X6493991Y-17082289D01*
X6493991Y-17082289D02*
X6484467Y-17101336D01*
X6484467Y-17101336D02*
X6474944Y-17110860D01*
X6474944Y-17110860D02*
X6455896Y-17120384D01*
X6455896Y-17120384D02*
X6436848Y-17120384D01*
X6436848Y-17120384D02*
X6417801Y-17110860D01*
X6417801Y-17110860D02*
X6408277Y-17101336D01*
X6408277Y-17101336D02*
X6398753Y-17082289D01*
X6398753Y-17082289D02*
X6389229Y-17044193D01*
X6389229Y-17044193D02*
X6389229Y-16996574D01*
X6389229Y-16996574D02*
X6398753Y-16958479D01*
X6398753Y-16958479D02*
X6408277Y-16939431D01*
X6408277Y-16939431D02*
X6417801Y-16929908D01*
X6417801Y-16929908D02*
X6436848Y-16920384D01*
X6617801Y-17006098D02*
X6598753Y-16996574D01*
X6598753Y-16996574D02*
X6589229Y-16987050D01*
X6589229Y-16987050D02*
X6579706Y-16968003D01*
X6579706Y-16968003D02*
X6579706Y-16958479D01*
X6579706Y-16958479D02*
X6589229Y-16939431D01*
X6589229Y-16939431D02*
X6598753Y-16929908D01*
X6598753Y-16929908D02*
X6617801Y-16920384D01*
X6617801Y-16920384D02*
X6655896Y-16920384D01*
X6655896Y-16920384D02*
X6674944Y-16929908D01*
X6674944Y-16929908D02*
X6684467Y-16939431D01*
X6684467Y-16939431D02*
X6693991Y-16958479D01*
X6693991Y-16958479D02*
X6693991Y-16968003D01*
X6693991Y-16968003D02*
X6684467Y-16987050D01*
X6684467Y-16987050D02*
X6674944Y-16996574D01*
X6674944Y-16996574D02*
X6655896Y-17006098D01*
X6655896Y-17006098D02*
X6617801Y-17006098D01*
X6617801Y-17006098D02*
X6598753Y-17015622D01*
X6598753Y-17015622D02*
X6589229Y-17025146D01*
X6589229Y-17025146D02*
X6579706Y-17044193D01*
X6579706Y-17044193D02*
X6579706Y-17082289D01*
X6579706Y-17082289D02*
X6589229Y-17101336D01*
X6589229Y-17101336D02*
X6598753Y-17110860D01*
X6598753Y-17110860D02*
X6617801Y-17120384D01*
X6617801Y-17120384D02*
X6655896Y-17120384D01*
X6655896Y-17120384D02*
X6674944Y-17110860D01*
X6674944Y-17110860D02*
X6684467Y-17101336D01*
X6684467Y-17101336D02*
X6693991Y-17082289D01*
X6693991Y-17082289D02*
X6693991Y-17044193D01*
X6693991Y-17044193D02*
X6684467Y-17025146D01*
X6684467Y-17025146D02*
X6674944Y-17015622D01*
X6674944Y-17015622D02*
X6655896Y-17006098D01*
X6817801Y-16920384D02*
X6836848Y-16920384D01*
X6836848Y-16920384D02*
X6855896Y-16929908D01*
X6855896Y-16929908D02*
X6865420Y-16939431D01*
X6865420Y-16939431D02*
X6874944Y-16958479D01*
X6874944Y-16958479D02*
X6884467Y-16996574D01*
X6884467Y-16996574D02*
X6884467Y-17044193D01*
X6884467Y-17044193D02*
X6874944Y-17082289D01*
X6874944Y-17082289D02*
X6865420Y-17101336D01*
X6865420Y-17101336D02*
X6855896Y-17110860D01*
X6855896Y-17110860D02*
X6836848Y-17120384D01*
X6836848Y-17120384D02*
X6817801Y-17120384D01*
X6817801Y-17120384D02*
X6798753Y-17110860D01*
X6798753Y-17110860D02*
X6789229Y-17101336D01*
X6789229Y-17101336D02*
X6779706Y-17082289D01*
X6779706Y-17082289D02*
X6770182Y-17044193D01*
X6770182Y-17044193D02*
X6770182Y-16996574D01*
X6770182Y-16996574D02*
X6779706Y-16958479D01*
X6779706Y-16958479D02*
X6789229Y-16939431D01*
X6789229Y-16939431D02*
X6798753Y-16929908D01*
X6798753Y-16929908D02*
X6817801Y-16920384D01*
X7008277Y-16920384D02*
X7027325Y-16920384D01*
X7027325Y-16920384D02*
X7046372Y-16929908D01*
X7046372Y-16929908D02*
X7055896Y-16939431D01*
X7055896Y-16939431D02*
X7065420Y-16958479D01*
X7065420Y-16958479D02*
X7074944Y-16996574D01*
X7074944Y-16996574D02*
X7074944Y-17044193D01*
X7074944Y-17044193D02*
X7065420Y-17082289D01*
X7065420Y-17082289D02*
X7055896Y-17101336D01*
X7055896Y-17101336D02*
X7046372Y-17110860D01*
X7046372Y-17110860D02*
X7027325Y-17120384D01*
X7027325Y-17120384D02*
X7008277Y-17120384D01*
X7008277Y-17120384D02*
X6989229Y-17110860D01*
X6989229Y-17110860D02*
X6979706Y-17101336D01*
X6979706Y-17101336D02*
X6970182Y-17082289D01*
X6970182Y-17082289D02*
X6960658Y-17044193D01*
X6960658Y-17044193D02*
X6960658Y-16996574D01*
X6960658Y-16996574D02*
X6970182Y-16958479D01*
X6970182Y-16958479D02*
X6979706Y-16939431D01*
X6979706Y-16939431D02*
X6989229Y-16929908D01*
X6989229Y-16929908D02*
X7008277Y-16920384D01*
X7151134Y-16920384D02*
X7151134Y-16958479D01*
X7227325Y-16920384D02*
X7227325Y-16958479D01*
X7522563Y-17196574D02*
X7513039Y-17187050D01*
X7513039Y-17187050D02*
X7493991Y-17158479D01*
X7493991Y-17158479D02*
X7484468Y-17139431D01*
X7484468Y-17139431D02*
X7474944Y-17110860D01*
X7474944Y-17110860D02*
X7465420Y-17063241D01*
X7465420Y-17063241D02*
X7465420Y-17025146D01*
X7465420Y-17025146D02*
X7474944Y-16977527D01*
X7474944Y-16977527D02*
X7484468Y-16948955D01*
X7484468Y-16948955D02*
X7493991Y-16929908D01*
X7493991Y-16929908D02*
X7513039Y-16901336D01*
X7513039Y-16901336D02*
X7522563Y-16891812D01*
X7627325Y-17006098D02*
X7608277Y-16996574D01*
X7608277Y-16996574D02*
X7598753Y-16987050D01*
X7598753Y-16987050D02*
X7589229Y-16968003D01*
X7589229Y-16968003D02*
X7589229Y-16958479D01*
X7589229Y-16958479D02*
X7598753Y-16939431D01*
X7598753Y-16939431D02*
X7608277Y-16929908D01*
X7608277Y-16929908D02*
X7627325Y-16920384D01*
X7627325Y-16920384D02*
X7665420Y-16920384D01*
X7665420Y-16920384D02*
X7684468Y-16929908D01*
X7684468Y-16929908D02*
X7693991Y-16939431D01*
X7693991Y-16939431D02*
X7703515Y-16958479D01*
X7703515Y-16958479D02*
X7703515Y-16968003D01*
X7703515Y-16968003D02*
X7693991Y-16987050D01*
X7693991Y-16987050D02*
X7684468Y-16996574D01*
X7684468Y-16996574D02*
X7665420Y-17006098D01*
X7665420Y-17006098D02*
X7627325Y-17006098D01*
X7627325Y-17006098D02*
X7608277Y-17015622D01*
X7608277Y-17015622D02*
X7598753Y-17025146D01*
X7598753Y-17025146D02*
X7589229Y-17044193D01*
X7589229Y-17044193D02*
X7589229Y-17082289D01*
X7589229Y-17082289D02*
X7598753Y-17101336D01*
X7598753Y-17101336D02*
X7608277Y-17110860D01*
X7608277Y-17110860D02*
X7627325Y-17120384D01*
X7627325Y-17120384D02*
X7665420Y-17120384D01*
X7665420Y-17120384D02*
X7684468Y-17110860D01*
X7684468Y-17110860D02*
X7693991Y-17101336D01*
X7693991Y-17101336D02*
X7703515Y-17082289D01*
X7703515Y-17082289D02*
X7703515Y-17044193D01*
X7703515Y-17044193D02*
X7693991Y-17025146D01*
X7693991Y-17025146D02*
X7684468Y-17015622D01*
X7684468Y-17015622D02*
X7665420Y-17006098D01*
X7941610Y-17120384D02*
X7941610Y-16920384D01*
X8027325Y-17120384D02*
X8027325Y-17015622D01*
X8027325Y-17015622D02*
X8017801Y-16996574D01*
X8017801Y-16996574D02*
X7998753Y-16987050D01*
X7998753Y-16987050D02*
X7970182Y-16987050D01*
X7970182Y-16987050D02*
X7951134Y-16996574D01*
X7951134Y-16996574D02*
X7941610Y-17006098D01*
X8151134Y-17120384D02*
X8132087Y-17110860D01*
X8132087Y-17110860D02*
X8122563Y-17101336D01*
X8122563Y-17101336D02*
X8113039Y-17082289D01*
X8113039Y-17082289D02*
X8113039Y-17025146D01*
X8113039Y-17025146D02*
X8122563Y-17006098D01*
X8122563Y-17006098D02*
X8132087Y-16996574D01*
X8132087Y-16996574D02*
X8151134Y-16987050D01*
X8151134Y-16987050D02*
X8179706Y-16987050D01*
X8179706Y-16987050D02*
X8198753Y-16996574D01*
X8198753Y-16996574D02*
X8208277Y-17006098D01*
X8208277Y-17006098D02*
X8217801Y-17025146D01*
X8217801Y-17025146D02*
X8217801Y-17082289D01*
X8217801Y-17082289D02*
X8208277Y-17101336D01*
X8208277Y-17101336D02*
X8198753Y-17110860D01*
X8198753Y-17110860D02*
X8179706Y-17120384D01*
X8179706Y-17120384D02*
X8151134Y-17120384D01*
X8332087Y-17120384D02*
X8313039Y-17110860D01*
X8313039Y-17110860D02*
X8303515Y-17091812D01*
X8303515Y-17091812D02*
X8303515Y-16920384D01*
X8484468Y-17110860D02*
X8465420Y-17120384D01*
X8465420Y-17120384D02*
X8427325Y-17120384D01*
X8427325Y-17120384D02*
X8408277Y-17110860D01*
X8408277Y-17110860D02*
X8398753Y-17091812D01*
X8398753Y-17091812D02*
X8398753Y-17015622D01*
X8398753Y-17015622D02*
X8408277Y-16996574D01*
X8408277Y-16996574D02*
X8427325Y-16987050D01*
X8427325Y-16987050D02*
X8465420Y-16987050D01*
X8465420Y-16987050D02*
X8484468Y-16996574D01*
X8484468Y-16996574D02*
X8493992Y-17015622D01*
X8493992Y-17015622D02*
X8493992Y-17034670D01*
X8493992Y-17034670D02*
X8398753Y-17053717D01*
X8570182Y-17110860D02*
X8589230Y-17120384D01*
X8589230Y-17120384D02*
X8627325Y-17120384D01*
X8627325Y-17120384D02*
X8646373Y-17110860D01*
X8646373Y-17110860D02*
X8655896Y-17091812D01*
X8655896Y-17091812D02*
X8655896Y-17082289D01*
X8655896Y-17082289D02*
X8646373Y-17063241D01*
X8646373Y-17063241D02*
X8627325Y-17053717D01*
X8627325Y-17053717D02*
X8598753Y-17053717D01*
X8598753Y-17053717D02*
X8579706Y-17044193D01*
X8579706Y-17044193D02*
X8570182Y-17025146D01*
X8570182Y-17025146D02*
X8570182Y-17015622D01*
X8570182Y-17015622D02*
X8579706Y-16996574D01*
X8579706Y-16996574D02*
X8598753Y-16987050D01*
X8598753Y-16987050D02*
X8627325Y-16987050D01*
X8627325Y-16987050D02*
X8646373Y-16996574D01*
X8722563Y-17196574D02*
X8732087Y-17187050D01*
X8732087Y-17187050D02*
X8751134Y-17158479D01*
X8751134Y-17158479D02*
X8760658Y-17139431D01*
X8760658Y-17139431D02*
X8770182Y-17110860D01*
X8770182Y-17110860D02*
X8779706Y-17063241D01*
X8779706Y-17063241D02*
X8779706Y-17025146D01*
X8779706Y-17025146D02*
X8770182Y-16977527D01*
X8770182Y-16977527D02*
X8760658Y-16948955D01*
X8760658Y-16948955D02*
X8751134Y-16929908D01*
X8751134Y-16929908D02*
X8732087Y-16901336D01*
X8732087Y-16901336D02*
X8722563Y-16891812D01*
X3847500Y-17248900D02*
X3847500Y-17448900D01*
X3747500Y-17348900D02*
X3947500Y-17348900D01*
X3947500Y-17348900D02*
G75*
G02*
X3747500Y-17348900I-100000J0D01*
G01*
X3747500Y-17348900D02*
G75*
G02*
X3947500Y-17348900I100000J0D01*
G01*
X4198753Y-17259431D02*
X4208277Y-17249908D01*
X4208277Y-17249908D02*
X4227324Y-17240384D01*
X4227324Y-17240384D02*
X4274944Y-17240384D01*
X4274944Y-17240384D02*
X4293991Y-17249908D01*
X4293991Y-17249908D02*
X4303515Y-17259431D01*
X4303515Y-17259431D02*
X4313039Y-17278479D01*
X4313039Y-17278479D02*
X4313039Y-17297527D01*
X4313039Y-17297527D02*
X4303515Y-17326098D01*
X4303515Y-17326098D02*
X4189229Y-17440384D01*
X4189229Y-17440384D02*
X4313039Y-17440384D01*
X4398753Y-17421336D02*
X4408277Y-17430860D01*
X4408277Y-17430860D02*
X4398753Y-17440384D01*
X4398753Y-17440384D02*
X4389229Y-17430860D01*
X4389229Y-17430860D02*
X4398753Y-17421336D01*
X4398753Y-17421336D02*
X4398753Y-17440384D01*
X4598753Y-17440384D02*
X4484467Y-17440384D01*
X4541610Y-17440384D02*
X4541610Y-17240384D01*
X4541610Y-17240384D02*
X4522563Y-17268955D01*
X4522563Y-17268955D02*
X4503515Y-17288003D01*
X4503515Y-17288003D02*
X4484467Y-17297527D01*
X4722563Y-17240384D02*
X4741610Y-17240384D01*
X4741610Y-17240384D02*
X4760658Y-17249908D01*
X4760658Y-17249908D02*
X4770182Y-17259431D01*
X4770182Y-17259431D02*
X4779705Y-17278479D01*
X4779705Y-17278479D02*
X4789229Y-17316574D01*
X4789229Y-17316574D02*
X4789229Y-17364193D01*
X4789229Y-17364193D02*
X4779705Y-17402289D01*
X4779705Y-17402289D02*
X4770182Y-17421336D01*
X4770182Y-17421336D02*
X4760658Y-17430860D01*
X4760658Y-17430860D02*
X4741610Y-17440384D01*
X4741610Y-17440384D02*
X4722563Y-17440384D01*
X4722563Y-17440384D02*
X4703515Y-17430860D01*
X4703515Y-17430860D02*
X4693991Y-17421336D01*
X4693991Y-17421336D02*
X4684467Y-17402289D01*
X4684467Y-17402289D02*
X4674944Y-17364193D01*
X4674944Y-17364193D02*
X4674944Y-17316574D01*
X4674944Y-17316574D02*
X4684467Y-17278479D01*
X4684467Y-17278479D02*
X4693991Y-17259431D01*
X4693991Y-17259431D02*
X4703515Y-17249908D01*
X4703515Y-17249908D02*
X4722563Y-17240384D01*
X4913039Y-17240384D02*
X4932086Y-17240384D01*
X4932086Y-17240384D02*
X4951134Y-17249908D01*
X4951134Y-17249908D02*
X4960658Y-17259431D01*
X4960658Y-17259431D02*
X4970182Y-17278479D01*
X4970182Y-17278479D02*
X4979705Y-17316574D01*
X4979705Y-17316574D02*
X4979705Y-17364193D01*
X4979705Y-17364193D02*
X4970182Y-17402289D01*
X4970182Y-17402289D02*
X4960658Y-17421336D01*
X4960658Y-17421336D02*
X4951134Y-17430860D01*
X4951134Y-17430860D02*
X4932086Y-17440384D01*
X4932086Y-17440384D02*
X4913039Y-17440384D01*
X4913039Y-17440384D02*
X4893991Y-17430860D01*
X4893991Y-17430860D02*
X4884467Y-17421336D01*
X4884467Y-17421336D02*
X4874944Y-17402289D01*
X4874944Y-17402289D02*
X4865420Y-17364193D01*
X4865420Y-17364193D02*
X4865420Y-17316574D01*
X4865420Y-17316574D02*
X4874944Y-17278479D01*
X4874944Y-17278479D02*
X4884467Y-17259431D01*
X4884467Y-17259431D02*
X4893991Y-17249908D01*
X4893991Y-17249908D02*
X4913039Y-17240384D01*
X5065420Y-17440384D02*
X5065420Y-17307050D01*
X5065420Y-17326098D02*
X5074944Y-17316574D01*
X5074944Y-17316574D02*
X5093991Y-17307050D01*
X5093991Y-17307050D02*
X5122563Y-17307050D01*
X5122563Y-17307050D02*
X5141610Y-17316574D01*
X5141610Y-17316574D02*
X5151134Y-17335622D01*
X5151134Y-17335622D02*
X5151134Y-17440384D01*
X5151134Y-17335622D02*
X5160658Y-17316574D01*
X5160658Y-17316574D02*
X5179705Y-17307050D01*
X5179705Y-17307050D02*
X5208277Y-17307050D01*
X5208277Y-17307050D02*
X5227325Y-17316574D01*
X5227325Y-17316574D02*
X5236848Y-17335622D01*
X5236848Y-17335622D02*
X5236848Y-17440384D01*
X5332086Y-17440384D02*
X5332086Y-17307050D01*
X5332086Y-17326098D02*
X5341610Y-17316574D01*
X5341610Y-17316574D02*
X5360658Y-17307050D01*
X5360658Y-17307050D02*
X5389229Y-17307050D01*
X5389229Y-17307050D02*
X5408277Y-17316574D01*
X5408277Y-17316574D02*
X5417801Y-17335622D01*
X5417801Y-17335622D02*
X5417801Y-17440384D01*
X5417801Y-17335622D02*
X5427325Y-17316574D01*
X5427325Y-17316574D02*
X5446372Y-17307050D01*
X5446372Y-17307050D02*
X5474944Y-17307050D01*
X5474944Y-17307050D02*
X5493991Y-17316574D01*
X5493991Y-17316574D02*
X5503515Y-17335622D01*
X5503515Y-17335622D02*
X5503515Y-17440384D01*
X5893991Y-17230860D02*
X5722563Y-17488003D01*
X6151134Y-17240384D02*
X6170182Y-17240384D01*
X6170182Y-17240384D02*
X6189229Y-17249908D01*
X6189229Y-17249908D02*
X6198753Y-17259431D01*
X6198753Y-17259431D02*
X6208277Y-17278479D01*
X6208277Y-17278479D02*
X6217801Y-17316574D01*
X6217801Y-17316574D02*
X6217801Y-17364193D01*
X6217801Y-17364193D02*
X6208277Y-17402289D01*
X6208277Y-17402289D02*
X6198753Y-17421336D01*
X6198753Y-17421336D02*
X6189229Y-17430860D01*
X6189229Y-17430860D02*
X6170182Y-17440384D01*
X6170182Y-17440384D02*
X6151134Y-17440384D01*
X6151134Y-17440384D02*
X6132086Y-17430860D01*
X6132086Y-17430860D02*
X6122563Y-17421336D01*
X6122563Y-17421336D02*
X6113039Y-17402289D01*
X6113039Y-17402289D02*
X6103515Y-17364193D01*
X6103515Y-17364193D02*
X6103515Y-17316574D01*
X6103515Y-17316574D02*
X6113039Y-17278479D01*
X6113039Y-17278479D02*
X6122563Y-17259431D01*
X6122563Y-17259431D02*
X6132086Y-17249908D01*
X6132086Y-17249908D02*
X6151134Y-17240384D01*
X6303515Y-17421336D02*
X6313039Y-17430860D01*
X6313039Y-17430860D02*
X6303515Y-17440384D01*
X6303515Y-17440384D02*
X6293991Y-17430860D01*
X6293991Y-17430860D02*
X6303515Y-17421336D01*
X6303515Y-17421336D02*
X6303515Y-17440384D01*
X6436848Y-17240384D02*
X6455896Y-17240384D01*
X6455896Y-17240384D02*
X6474944Y-17249908D01*
X6474944Y-17249908D02*
X6484467Y-17259431D01*
X6484467Y-17259431D02*
X6493991Y-17278479D01*
X6493991Y-17278479D02*
X6503515Y-17316574D01*
X6503515Y-17316574D02*
X6503515Y-17364193D01*
X6503515Y-17364193D02*
X6493991Y-17402289D01*
X6493991Y-17402289D02*
X6484467Y-17421336D01*
X6484467Y-17421336D02*
X6474944Y-17430860D01*
X6474944Y-17430860D02*
X6455896Y-17440384D01*
X6455896Y-17440384D02*
X6436848Y-17440384D01*
X6436848Y-17440384D02*
X6417801Y-17430860D01*
X6417801Y-17430860D02*
X6408277Y-17421336D01*
X6408277Y-17421336D02*
X6398753Y-17402289D01*
X6398753Y-17402289D02*
X6389229Y-17364193D01*
X6389229Y-17364193D02*
X6389229Y-17316574D01*
X6389229Y-17316574D02*
X6398753Y-17278479D01*
X6398753Y-17278479D02*
X6408277Y-17259431D01*
X6408277Y-17259431D02*
X6417801Y-17249908D01*
X6417801Y-17249908D02*
X6436848Y-17240384D01*
X6617801Y-17326098D02*
X6598753Y-17316574D01*
X6598753Y-17316574D02*
X6589229Y-17307050D01*
X6589229Y-17307050D02*
X6579706Y-17288003D01*
X6579706Y-17288003D02*
X6579706Y-17278479D01*
X6579706Y-17278479D02*
X6589229Y-17259431D01*
X6589229Y-17259431D02*
X6598753Y-17249908D01*
X6598753Y-17249908D02*
X6617801Y-17240384D01*
X6617801Y-17240384D02*
X6655896Y-17240384D01*
X6655896Y-17240384D02*
X6674944Y-17249908D01*
X6674944Y-17249908D02*
X6684467Y-17259431D01*
X6684467Y-17259431D02*
X6693991Y-17278479D01*
X6693991Y-17278479D02*
X6693991Y-17288003D01*
X6693991Y-17288003D02*
X6684467Y-17307050D01*
X6684467Y-17307050D02*
X6674944Y-17316574D01*
X6674944Y-17316574D02*
X6655896Y-17326098D01*
X6655896Y-17326098D02*
X6617801Y-17326098D01*
X6617801Y-17326098D02*
X6598753Y-17335622D01*
X6598753Y-17335622D02*
X6589229Y-17345146D01*
X6589229Y-17345146D02*
X6579706Y-17364193D01*
X6579706Y-17364193D02*
X6579706Y-17402289D01*
X6579706Y-17402289D02*
X6589229Y-17421336D01*
X6589229Y-17421336D02*
X6598753Y-17430860D01*
X6598753Y-17430860D02*
X6617801Y-17440384D01*
X6617801Y-17440384D02*
X6655896Y-17440384D01*
X6655896Y-17440384D02*
X6674944Y-17430860D01*
X6674944Y-17430860D02*
X6684467Y-17421336D01*
X6684467Y-17421336D02*
X6693991Y-17402289D01*
X6693991Y-17402289D02*
X6693991Y-17364193D01*
X6693991Y-17364193D02*
X6684467Y-17345146D01*
X6684467Y-17345146D02*
X6674944Y-17335622D01*
X6674944Y-17335622D02*
X6655896Y-17326098D01*
X6770182Y-17259431D02*
X6779706Y-17249908D01*
X6779706Y-17249908D02*
X6798753Y-17240384D01*
X6798753Y-17240384D02*
X6846372Y-17240384D01*
X6846372Y-17240384D02*
X6865420Y-17249908D01*
X6865420Y-17249908D02*
X6874944Y-17259431D01*
X6874944Y-17259431D02*
X6884467Y-17278479D01*
X6884467Y-17278479D02*
X6884467Y-17297527D01*
X6884467Y-17297527D02*
X6874944Y-17326098D01*
X6874944Y-17326098D02*
X6760658Y-17440384D01*
X6760658Y-17440384D02*
X6884467Y-17440384D01*
X6951134Y-17240384D02*
X7084467Y-17240384D01*
X7084467Y-17240384D02*
X6998753Y-17440384D01*
X7151134Y-17240384D02*
X7151134Y-17278479D01*
X7227325Y-17240384D02*
X7227325Y-17278479D01*
X7522563Y-17516574D02*
X7513039Y-17507050D01*
X7513039Y-17507050D02*
X7493991Y-17478479D01*
X7493991Y-17478479D02*
X7484468Y-17459431D01*
X7484468Y-17459431D02*
X7474944Y-17430860D01*
X7474944Y-17430860D02*
X7465420Y-17383241D01*
X7465420Y-17383241D02*
X7465420Y-17345146D01*
X7465420Y-17345146D02*
X7474944Y-17297527D01*
X7474944Y-17297527D02*
X7484468Y-17268955D01*
X7484468Y-17268955D02*
X7493991Y-17249908D01*
X7493991Y-17249908D02*
X7513039Y-17221336D01*
X7513039Y-17221336D02*
X7522563Y-17211812D01*
X7684468Y-17307050D02*
X7684468Y-17440384D01*
X7636848Y-17230860D02*
X7589229Y-17373717D01*
X7589229Y-17373717D02*
X7713039Y-17373717D01*
X7941610Y-17440384D02*
X7941610Y-17240384D01*
X8027325Y-17440384D02*
X8027325Y-17335622D01*
X8027325Y-17335622D02*
X8017801Y-17316574D01*
X8017801Y-17316574D02*
X7998753Y-17307050D01*
X7998753Y-17307050D02*
X7970182Y-17307050D01*
X7970182Y-17307050D02*
X7951134Y-17316574D01*
X7951134Y-17316574D02*
X7941610Y-17326098D01*
X8151134Y-17440384D02*
X8132087Y-17430860D01*
X8132087Y-17430860D02*
X8122563Y-17421336D01*
X8122563Y-17421336D02*
X8113039Y-17402289D01*
X8113039Y-17402289D02*
X8113039Y-17345146D01*
X8113039Y-17345146D02*
X8122563Y-17326098D01*
X8122563Y-17326098D02*
X8132087Y-17316574D01*
X8132087Y-17316574D02*
X8151134Y-17307050D01*
X8151134Y-17307050D02*
X8179706Y-17307050D01*
X8179706Y-17307050D02*
X8198753Y-17316574D01*
X8198753Y-17316574D02*
X8208277Y-17326098D01*
X8208277Y-17326098D02*
X8217801Y-17345146D01*
X8217801Y-17345146D02*
X8217801Y-17402289D01*
X8217801Y-17402289D02*
X8208277Y-17421336D01*
X8208277Y-17421336D02*
X8198753Y-17430860D01*
X8198753Y-17430860D02*
X8179706Y-17440384D01*
X8179706Y-17440384D02*
X8151134Y-17440384D01*
X8332087Y-17440384D02*
X8313039Y-17430860D01*
X8313039Y-17430860D02*
X8303515Y-17411812D01*
X8303515Y-17411812D02*
X8303515Y-17240384D01*
X8484468Y-17430860D02*
X8465420Y-17440384D01*
X8465420Y-17440384D02*
X8427325Y-17440384D01*
X8427325Y-17440384D02*
X8408277Y-17430860D01*
X8408277Y-17430860D02*
X8398753Y-17411812D01*
X8398753Y-17411812D02*
X8398753Y-17335622D01*
X8398753Y-17335622D02*
X8408277Y-17316574D01*
X8408277Y-17316574D02*
X8427325Y-17307050D01*
X8427325Y-17307050D02*
X8465420Y-17307050D01*
X8465420Y-17307050D02*
X8484468Y-17316574D01*
X8484468Y-17316574D02*
X8493992Y-17335622D01*
X8493992Y-17335622D02*
X8493992Y-17354670D01*
X8493992Y-17354670D02*
X8398753Y-17373717D01*
X8570182Y-17430860D02*
X8589230Y-17440384D01*
X8589230Y-17440384D02*
X8627325Y-17440384D01*
X8627325Y-17440384D02*
X8646373Y-17430860D01*
X8646373Y-17430860D02*
X8655896Y-17411812D01*
X8655896Y-17411812D02*
X8655896Y-17402289D01*
X8655896Y-17402289D02*
X8646373Y-17383241D01*
X8646373Y-17383241D02*
X8627325Y-17373717D01*
X8627325Y-17373717D02*
X8598753Y-17373717D01*
X8598753Y-17373717D02*
X8579706Y-17364193D01*
X8579706Y-17364193D02*
X8570182Y-17345146D01*
X8570182Y-17345146D02*
X8570182Y-17335622D01*
X8570182Y-17335622D02*
X8579706Y-17316574D01*
X8579706Y-17316574D02*
X8598753Y-17307050D01*
X8598753Y-17307050D02*
X8627325Y-17307050D01*
X8627325Y-17307050D02*
X8646373Y-17316574D01*
X8722563Y-17516574D02*
X8732087Y-17507050D01*
X8732087Y-17507050D02*
X8751134Y-17478479D01*
X8751134Y-17478479D02*
X8760658Y-17459431D01*
X8760658Y-17459431D02*
X8770182Y-17430860D01*
X8770182Y-17430860D02*
X8779706Y-17383241D01*
X8779706Y-17383241D02*
X8779706Y-17345146D01*
X8779706Y-17345146D02*
X8770182Y-17297527D01*
X8770182Y-17297527D02*
X8760658Y-17268955D01*
X8760658Y-17268955D02*
X8751134Y-17249908D01*
X8751134Y-17249908D02*
X8732087Y-17221336D01*
X8732087Y-17221336D02*
X8722563Y-17211812D01*
X3918211Y-17739611D02*
X3918211Y-17598189D01*
X3776789Y-17598189D01*
X3776789Y-17739611D01*
X3918211Y-17739611D01*
X3947500Y-17668900D02*
G75*
G02*
X3747500Y-17668900I-100000J0D01*
G01*
X3747500Y-17668900D02*
G75*
G02*
X3947500Y-17668900I100000J0D01*
G01*
X4198753Y-17579431D02*
X4208277Y-17569908D01*
X4208277Y-17569908D02*
X4227324Y-17560384D01*
X4227324Y-17560384D02*
X4274944Y-17560384D01*
X4274944Y-17560384D02*
X4293991Y-17569908D01*
X4293991Y-17569908D02*
X4303515Y-17579431D01*
X4303515Y-17579431D02*
X4313039Y-17598479D01*
X4313039Y-17598479D02*
X4313039Y-17617527D01*
X4313039Y-17617527D02*
X4303515Y-17646098D01*
X4303515Y-17646098D02*
X4189229Y-17760384D01*
X4189229Y-17760384D02*
X4313039Y-17760384D01*
X4398753Y-17741336D02*
X4408277Y-17750860D01*
X4408277Y-17750860D02*
X4398753Y-17760384D01*
X4398753Y-17760384D02*
X4389229Y-17750860D01*
X4389229Y-17750860D02*
X4398753Y-17741336D01*
X4398753Y-17741336D02*
X4398753Y-17760384D01*
X4579705Y-17627050D02*
X4579705Y-17760384D01*
X4532086Y-17550860D02*
X4484467Y-17693717D01*
X4484467Y-17693717D02*
X4608277Y-17693717D01*
X4779705Y-17560384D02*
X4684467Y-17560384D01*
X4684467Y-17560384D02*
X4674944Y-17655622D01*
X4674944Y-17655622D02*
X4684467Y-17646098D01*
X4684467Y-17646098D02*
X4703515Y-17636574D01*
X4703515Y-17636574D02*
X4751134Y-17636574D01*
X4751134Y-17636574D02*
X4770182Y-17646098D01*
X4770182Y-17646098D02*
X4779705Y-17655622D01*
X4779705Y-17655622D02*
X4789229Y-17674670D01*
X4789229Y-17674670D02*
X4789229Y-17722289D01*
X4789229Y-17722289D02*
X4779705Y-17741336D01*
X4779705Y-17741336D02*
X4770182Y-17750860D01*
X4770182Y-17750860D02*
X4751134Y-17760384D01*
X4751134Y-17760384D02*
X4703515Y-17760384D01*
X4703515Y-17760384D02*
X4684467Y-17750860D01*
X4684467Y-17750860D02*
X4674944Y-17741336D01*
X4913039Y-17560384D02*
X4932086Y-17560384D01*
X4932086Y-17560384D02*
X4951134Y-17569908D01*
X4951134Y-17569908D02*
X4960658Y-17579431D01*
X4960658Y-17579431D02*
X4970182Y-17598479D01*
X4970182Y-17598479D02*
X4979705Y-17636574D01*
X4979705Y-17636574D02*
X4979705Y-17684193D01*
X4979705Y-17684193D02*
X4970182Y-17722289D01*
X4970182Y-17722289D02*
X4960658Y-17741336D01*
X4960658Y-17741336D02*
X4951134Y-17750860D01*
X4951134Y-17750860D02*
X4932086Y-17760384D01*
X4932086Y-17760384D02*
X4913039Y-17760384D01*
X4913039Y-17760384D02*
X4893991Y-17750860D01*
X4893991Y-17750860D02*
X4884467Y-17741336D01*
X4884467Y-17741336D02*
X4874944Y-17722289D01*
X4874944Y-17722289D02*
X4865420Y-17684193D01*
X4865420Y-17684193D02*
X4865420Y-17636574D01*
X4865420Y-17636574D02*
X4874944Y-17598479D01*
X4874944Y-17598479D02*
X4884467Y-17579431D01*
X4884467Y-17579431D02*
X4893991Y-17569908D01*
X4893991Y-17569908D02*
X4913039Y-17560384D01*
X5065420Y-17760384D02*
X5065420Y-17627050D01*
X5065420Y-17646098D02*
X5074944Y-17636574D01*
X5074944Y-17636574D02*
X5093991Y-17627050D01*
X5093991Y-17627050D02*
X5122563Y-17627050D01*
X5122563Y-17627050D02*
X5141610Y-17636574D01*
X5141610Y-17636574D02*
X5151134Y-17655622D01*
X5151134Y-17655622D02*
X5151134Y-17760384D01*
X5151134Y-17655622D02*
X5160658Y-17636574D01*
X5160658Y-17636574D02*
X5179705Y-17627050D01*
X5179705Y-17627050D02*
X5208277Y-17627050D01*
X5208277Y-17627050D02*
X5227325Y-17636574D01*
X5227325Y-17636574D02*
X5236848Y-17655622D01*
X5236848Y-17655622D02*
X5236848Y-17760384D01*
X5332086Y-17760384D02*
X5332086Y-17627050D01*
X5332086Y-17646098D02*
X5341610Y-17636574D01*
X5341610Y-17636574D02*
X5360658Y-17627050D01*
X5360658Y-17627050D02*
X5389229Y-17627050D01*
X5389229Y-17627050D02*
X5408277Y-17636574D01*
X5408277Y-17636574D02*
X5417801Y-17655622D01*
X5417801Y-17655622D02*
X5417801Y-17760384D01*
X5417801Y-17655622D02*
X5427325Y-17636574D01*
X5427325Y-17636574D02*
X5446372Y-17627050D01*
X5446372Y-17627050D02*
X5474944Y-17627050D01*
X5474944Y-17627050D02*
X5493991Y-17636574D01*
X5493991Y-17636574D02*
X5503515Y-17655622D01*
X5503515Y-17655622D02*
X5503515Y-17760384D01*
X5893991Y-17550860D02*
X5722563Y-17808003D01*
X6151134Y-17560384D02*
X6170182Y-17560384D01*
X6170182Y-17560384D02*
X6189229Y-17569908D01*
X6189229Y-17569908D02*
X6198753Y-17579431D01*
X6198753Y-17579431D02*
X6208277Y-17598479D01*
X6208277Y-17598479D02*
X6217801Y-17636574D01*
X6217801Y-17636574D02*
X6217801Y-17684193D01*
X6217801Y-17684193D02*
X6208277Y-17722289D01*
X6208277Y-17722289D02*
X6198753Y-17741336D01*
X6198753Y-17741336D02*
X6189229Y-17750860D01*
X6189229Y-17750860D02*
X6170182Y-17760384D01*
X6170182Y-17760384D02*
X6151134Y-17760384D01*
X6151134Y-17760384D02*
X6132086Y-17750860D01*
X6132086Y-17750860D02*
X6122563Y-17741336D01*
X6122563Y-17741336D02*
X6113039Y-17722289D01*
X6113039Y-17722289D02*
X6103515Y-17684193D01*
X6103515Y-17684193D02*
X6103515Y-17636574D01*
X6103515Y-17636574D02*
X6113039Y-17598479D01*
X6113039Y-17598479D02*
X6122563Y-17579431D01*
X6122563Y-17579431D02*
X6132086Y-17569908D01*
X6132086Y-17569908D02*
X6151134Y-17560384D01*
X6303515Y-17741336D02*
X6313039Y-17750860D01*
X6313039Y-17750860D02*
X6303515Y-17760384D01*
X6303515Y-17760384D02*
X6293991Y-17750860D01*
X6293991Y-17750860D02*
X6303515Y-17741336D01*
X6303515Y-17741336D02*
X6303515Y-17760384D01*
X6436848Y-17560384D02*
X6455896Y-17560384D01*
X6455896Y-17560384D02*
X6474944Y-17569908D01*
X6474944Y-17569908D02*
X6484467Y-17579431D01*
X6484467Y-17579431D02*
X6493991Y-17598479D01*
X6493991Y-17598479D02*
X6503515Y-17636574D01*
X6503515Y-17636574D02*
X6503515Y-17684193D01*
X6503515Y-17684193D02*
X6493991Y-17722289D01*
X6493991Y-17722289D02*
X6484467Y-17741336D01*
X6484467Y-17741336D02*
X6474944Y-17750860D01*
X6474944Y-17750860D02*
X6455896Y-17760384D01*
X6455896Y-17760384D02*
X6436848Y-17760384D01*
X6436848Y-17760384D02*
X6417801Y-17750860D01*
X6417801Y-17750860D02*
X6408277Y-17741336D01*
X6408277Y-17741336D02*
X6398753Y-17722289D01*
X6398753Y-17722289D02*
X6389229Y-17684193D01*
X6389229Y-17684193D02*
X6389229Y-17636574D01*
X6389229Y-17636574D02*
X6398753Y-17598479D01*
X6398753Y-17598479D02*
X6408277Y-17579431D01*
X6408277Y-17579431D02*
X6417801Y-17569908D01*
X6417801Y-17569908D02*
X6436848Y-17560384D01*
X6598753Y-17760384D02*
X6636848Y-17760384D01*
X6636848Y-17760384D02*
X6655896Y-17750860D01*
X6655896Y-17750860D02*
X6665420Y-17741336D01*
X6665420Y-17741336D02*
X6684467Y-17712765D01*
X6684467Y-17712765D02*
X6693991Y-17674670D01*
X6693991Y-17674670D02*
X6693991Y-17598479D01*
X6693991Y-17598479D02*
X6684467Y-17579431D01*
X6684467Y-17579431D02*
X6674944Y-17569908D01*
X6674944Y-17569908D02*
X6655896Y-17560384D01*
X6655896Y-17560384D02*
X6617801Y-17560384D01*
X6617801Y-17560384D02*
X6598753Y-17569908D01*
X6598753Y-17569908D02*
X6589229Y-17579431D01*
X6589229Y-17579431D02*
X6579706Y-17598479D01*
X6579706Y-17598479D02*
X6579706Y-17646098D01*
X6579706Y-17646098D02*
X6589229Y-17665146D01*
X6589229Y-17665146D02*
X6598753Y-17674670D01*
X6598753Y-17674670D02*
X6617801Y-17684193D01*
X6617801Y-17684193D02*
X6655896Y-17684193D01*
X6655896Y-17684193D02*
X6674944Y-17674670D01*
X6674944Y-17674670D02*
X6684467Y-17665146D01*
X6684467Y-17665146D02*
X6693991Y-17646098D01*
X6865420Y-17560384D02*
X6827325Y-17560384D01*
X6827325Y-17560384D02*
X6808277Y-17569908D01*
X6808277Y-17569908D02*
X6798753Y-17579431D01*
X6798753Y-17579431D02*
X6779706Y-17608003D01*
X6779706Y-17608003D02*
X6770182Y-17646098D01*
X6770182Y-17646098D02*
X6770182Y-17722289D01*
X6770182Y-17722289D02*
X6779706Y-17741336D01*
X6779706Y-17741336D02*
X6789229Y-17750860D01*
X6789229Y-17750860D02*
X6808277Y-17760384D01*
X6808277Y-17760384D02*
X6846372Y-17760384D01*
X6846372Y-17760384D02*
X6865420Y-17750860D01*
X6865420Y-17750860D02*
X6874944Y-17741336D01*
X6874944Y-17741336D02*
X6884467Y-17722289D01*
X6884467Y-17722289D02*
X6884467Y-17674670D01*
X6884467Y-17674670D02*
X6874944Y-17655622D01*
X6874944Y-17655622D02*
X6865420Y-17646098D01*
X6865420Y-17646098D02*
X6846372Y-17636574D01*
X6846372Y-17636574D02*
X6808277Y-17636574D01*
X6808277Y-17636574D02*
X6789229Y-17646098D01*
X6789229Y-17646098D02*
X6779706Y-17655622D01*
X6779706Y-17655622D02*
X6770182Y-17674670D01*
X7065420Y-17560384D02*
X6970182Y-17560384D01*
X6970182Y-17560384D02*
X6960658Y-17655622D01*
X6960658Y-17655622D02*
X6970182Y-17646098D01*
X6970182Y-17646098D02*
X6989229Y-17636574D01*
X6989229Y-17636574D02*
X7036848Y-17636574D01*
X7036848Y-17636574D02*
X7055896Y-17646098D01*
X7055896Y-17646098D02*
X7065420Y-17655622D01*
X7065420Y-17655622D02*
X7074944Y-17674670D01*
X7074944Y-17674670D02*
X7074944Y-17722289D01*
X7074944Y-17722289D02*
X7065420Y-17741336D01*
X7065420Y-17741336D02*
X7055896Y-17750860D01*
X7055896Y-17750860D02*
X7036848Y-17760384D01*
X7036848Y-17760384D02*
X6989229Y-17760384D01*
X6989229Y-17760384D02*
X6970182Y-17750860D01*
X6970182Y-17750860D02*
X6960658Y-17741336D01*
X7151134Y-17560384D02*
X7151134Y-17598479D01*
X7227325Y-17560384D02*
X7227325Y-17598479D01*
X7522563Y-17836574D02*
X7513039Y-17827050D01*
X7513039Y-17827050D02*
X7493991Y-17798479D01*
X7493991Y-17798479D02*
X7484468Y-17779431D01*
X7484468Y-17779431D02*
X7474944Y-17750860D01*
X7474944Y-17750860D02*
X7465420Y-17703241D01*
X7465420Y-17703241D02*
X7465420Y-17665146D01*
X7465420Y-17665146D02*
X7474944Y-17617527D01*
X7474944Y-17617527D02*
X7484468Y-17588955D01*
X7484468Y-17588955D02*
X7493991Y-17569908D01*
X7493991Y-17569908D02*
X7513039Y-17541336D01*
X7513039Y-17541336D02*
X7522563Y-17531812D01*
X7684468Y-17560384D02*
X7646372Y-17560384D01*
X7646372Y-17560384D02*
X7627325Y-17569908D01*
X7627325Y-17569908D02*
X7617801Y-17579431D01*
X7617801Y-17579431D02*
X7598753Y-17608003D01*
X7598753Y-17608003D02*
X7589229Y-17646098D01*
X7589229Y-17646098D02*
X7589229Y-17722289D01*
X7589229Y-17722289D02*
X7598753Y-17741336D01*
X7598753Y-17741336D02*
X7608277Y-17750860D01*
X7608277Y-17750860D02*
X7627325Y-17760384D01*
X7627325Y-17760384D02*
X7665420Y-17760384D01*
X7665420Y-17760384D02*
X7684468Y-17750860D01*
X7684468Y-17750860D02*
X7693991Y-17741336D01*
X7693991Y-17741336D02*
X7703515Y-17722289D01*
X7703515Y-17722289D02*
X7703515Y-17674670D01*
X7703515Y-17674670D02*
X7693991Y-17655622D01*
X7693991Y-17655622D02*
X7684468Y-17646098D01*
X7684468Y-17646098D02*
X7665420Y-17636574D01*
X7665420Y-17636574D02*
X7627325Y-17636574D01*
X7627325Y-17636574D02*
X7608277Y-17646098D01*
X7608277Y-17646098D02*
X7598753Y-17655622D01*
X7598753Y-17655622D02*
X7589229Y-17674670D01*
X7941610Y-17760384D02*
X7941610Y-17560384D01*
X8027325Y-17760384D02*
X8027325Y-17655622D01*
X8027325Y-17655622D02*
X8017801Y-17636574D01*
X8017801Y-17636574D02*
X7998753Y-17627050D01*
X7998753Y-17627050D02*
X7970182Y-17627050D01*
X7970182Y-17627050D02*
X7951134Y-17636574D01*
X7951134Y-17636574D02*
X7941610Y-17646098D01*
X8151134Y-17760384D02*
X8132087Y-17750860D01*
X8132087Y-17750860D02*
X8122563Y-17741336D01*
X8122563Y-17741336D02*
X8113039Y-17722289D01*
X8113039Y-17722289D02*
X8113039Y-17665146D01*
X8113039Y-17665146D02*
X8122563Y-17646098D01*
X8122563Y-17646098D02*
X8132087Y-17636574D01*
X8132087Y-17636574D02*
X8151134Y-17627050D01*
X8151134Y-17627050D02*
X8179706Y-17627050D01*
X8179706Y-17627050D02*
X8198753Y-17636574D01*
X8198753Y-17636574D02*
X8208277Y-17646098D01*
X8208277Y-17646098D02*
X8217801Y-17665146D01*
X8217801Y-17665146D02*
X8217801Y-17722289D01*
X8217801Y-17722289D02*
X8208277Y-17741336D01*
X8208277Y-17741336D02*
X8198753Y-17750860D01*
X8198753Y-17750860D02*
X8179706Y-17760384D01*
X8179706Y-17760384D02*
X8151134Y-17760384D01*
X8332087Y-17760384D02*
X8313039Y-17750860D01*
X8313039Y-17750860D02*
X8303515Y-17731812D01*
X8303515Y-17731812D02*
X8303515Y-17560384D01*
X8484468Y-17750860D02*
X8465420Y-17760384D01*
X8465420Y-17760384D02*
X8427325Y-17760384D01*
X8427325Y-17760384D02*
X8408277Y-17750860D01*
X8408277Y-17750860D02*
X8398753Y-17731812D01*
X8398753Y-17731812D02*
X8398753Y-17655622D01*
X8398753Y-17655622D02*
X8408277Y-17636574D01*
X8408277Y-17636574D02*
X8427325Y-17627050D01*
X8427325Y-17627050D02*
X8465420Y-17627050D01*
X8465420Y-17627050D02*
X8484468Y-17636574D01*
X8484468Y-17636574D02*
X8493992Y-17655622D01*
X8493992Y-17655622D02*
X8493992Y-17674670D01*
X8493992Y-17674670D02*
X8398753Y-17693717D01*
X8570182Y-17750860D02*
X8589230Y-17760384D01*
X8589230Y-17760384D02*
X8627325Y-17760384D01*
X8627325Y-17760384D02*
X8646373Y-17750860D01*
X8646373Y-17750860D02*
X8655896Y-17731812D01*
X8655896Y-17731812D02*
X8655896Y-17722289D01*
X8655896Y-17722289D02*
X8646373Y-17703241D01*
X8646373Y-17703241D02*
X8627325Y-17693717D01*
X8627325Y-17693717D02*
X8598753Y-17693717D01*
X8598753Y-17693717D02*
X8579706Y-17684193D01*
X8579706Y-17684193D02*
X8570182Y-17665146D01*
X8570182Y-17665146D02*
X8570182Y-17655622D01*
X8570182Y-17655622D02*
X8579706Y-17636574D01*
X8579706Y-17636574D02*
X8598753Y-17627050D01*
X8598753Y-17627050D02*
X8627325Y-17627050D01*
X8627325Y-17627050D02*
X8646373Y-17636574D01*
X8722563Y-17836574D02*
X8732087Y-17827050D01*
X8732087Y-17827050D02*
X8751134Y-17798479D01*
X8751134Y-17798479D02*
X8760658Y-17779431D01*
X8760658Y-17779431D02*
X8770182Y-17750860D01*
X8770182Y-17750860D02*
X8779706Y-17703241D01*
X8779706Y-17703241D02*
X8779706Y-17665146D01*
X8779706Y-17665146D02*
X8770182Y-17617527D01*
X8770182Y-17617527D02*
X8760658Y-17588955D01*
X8760658Y-17588955D02*
X8751134Y-17569908D01*
X8751134Y-17569908D02*
X8732087Y-17541336D01*
X8732087Y-17541336D02*
X8722563Y-17531812D01*
M02*
