G04 #@! TF.GenerationSoftware,KiCad,Pcbnew,8.0.4*
G04 #@! TF.CreationDate,2025-03-29T15:05:00-04:00*
G04 #@! TF.ProjectId,X17-Power-Slab-Master,5831372d-506f-4776-9572-2d536c61622d,rev?*
G04 #@! TF.SameCoordinates,Original*
G04 #@! TF.FileFunction,Paste,Top*
G04 #@! TF.FilePolarity,Positive*
%FSLAX46Y46*%
G04 Gerber Fmt 4.6, Leading zero omitted, Abs format (unit mm)*
G04 Created by KiCad (PCBNEW 8.0.4) date 2025-03-29 15:05:00*
%MOMM*%
%LPD*%
G01*
G04 APERTURE LIST*
G04 Aperture macros list*
%AMRoundRect*
0 Rectangle with rounded corners*
0 $1 Rounding radius*
0 $2 $3 $4 $5 $6 $7 $8 $9 X,Y pos of 4 corners*
0 Add a 4 corners polygon primitive as box body*
4,1,4,$2,$3,$4,$5,$6,$7,$8,$9,$2,$3,0*
0 Add four circle primitives for the rounded corners*
1,1,$1+$1,$2,$3*
1,1,$1+$1,$4,$5*
1,1,$1+$1,$6,$7*
1,1,$1+$1,$8,$9*
0 Add four rect primitives between the rounded corners*
20,1,$1+$1,$2,$3,$4,$5,0*
20,1,$1+$1,$4,$5,$6,$7,0*
20,1,$1+$1,$6,$7,$8,$9,0*
20,1,$1+$1,$8,$9,$2,$3,0*%
G04 Aperture macros list end*
%ADD10C,0.010000*%
%ADD11RoundRect,0.250000X-1.500000X-0.900000X1.500000X-0.900000X1.500000X0.900000X-1.500000X0.900000X0*%
%ADD12RoundRect,0.237500X-0.250000X-0.237500X0.250000X-0.237500X0.250000X0.237500X-0.250000X0.237500X0*%
%ADD13R,1.100000X1.200000*%
%ADD14RoundRect,0.237500X0.237500X-0.250000X0.237500X0.250000X-0.237500X0.250000X-0.237500X-0.250000X0*%
%ADD15R,3.606800X1.498600*%
%ADD16RoundRect,0.250000X-0.600000X0.400000X-0.600000X-0.400000X0.600000X-0.400000X0.600000X0.400000X0*%
%ADD17R,1.400000X2.290000*%
G04 APERTURE END LIST*
D10*
X119170000Y-51170000D02*
X117410000Y-51170000D01*
X117410000Y-49840000D01*
X119170000Y-49840000D01*
X119170000Y-51170000D01*
G36*
X119170000Y-51170000D02*
G01*
X117410000Y-51170000D01*
X117410000Y-49840000D01*
X119170000Y-49840000D01*
X119170000Y-51170000D01*
G37*
X119170000Y-53230000D02*
X117410000Y-53230000D01*
X117410000Y-51900000D01*
X119170000Y-51900000D01*
X119170000Y-53230000D01*
G36*
X119170000Y-53230000D02*
G01*
X117410000Y-53230000D01*
X117410000Y-51900000D01*
X119170000Y-51900000D01*
X119170000Y-53230000D01*
G37*
X119170000Y-55290000D02*
X117410000Y-55290000D01*
X117410000Y-53960000D01*
X119170000Y-53960000D01*
X119170000Y-55290000D01*
G36*
X119170000Y-55290000D02*
G01*
X117410000Y-55290000D01*
X117410000Y-53960000D01*
X119170000Y-53960000D01*
X119170000Y-55290000D01*
G37*
X122020000Y-51170000D02*
X120260000Y-51170000D01*
X120260000Y-49840000D01*
X122020000Y-49840000D01*
X122020000Y-51170000D01*
G36*
X122020000Y-51170000D02*
G01*
X120260000Y-51170000D01*
X120260000Y-49840000D01*
X122020000Y-49840000D01*
X122020000Y-51170000D01*
G37*
X122020000Y-53230000D02*
X120260000Y-53230000D01*
X120260000Y-51900000D01*
X122020000Y-51900000D01*
X122020000Y-53230000D01*
G36*
X122020000Y-53230000D02*
G01*
X120260000Y-53230000D01*
X120260000Y-51900000D01*
X122020000Y-51900000D01*
X122020000Y-53230000D01*
G37*
X122020000Y-55290000D02*
X120260000Y-55290000D01*
X120260000Y-53960000D01*
X122020000Y-53960000D01*
X122020000Y-55290000D01*
G36*
X122020000Y-55290000D02*
G01*
X120260000Y-55290000D01*
X120260000Y-53960000D01*
X122020000Y-53960000D01*
X122020000Y-55290000D01*
G37*
D11*
X147600000Y-129900000D03*
X153000000Y-129900000D03*
D12*
X81087500Y-98000000D03*
X82912500Y-98000000D03*
D13*
X158000000Y-47000000D03*
X155900000Y-47000000D03*
D12*
X72950000Y-116000000D03*
X74775000Y-116000000D03*
D14*
X118000000Y-64000000D03*
X118000000Y-62175000D03*
D12*
X151037500Y-47000000D03*
X152862500Y-47000000D03*
X144950000Y-125000000D03*
X146775000Y-125000000D03*
D15*
X145440000Y-54000000D03*
X137134200Y-54000000D03*
X145440000Y-85730000D03*
X137134200Y-85730000D03*
D16*
X111000000Y-62250000D03*
X111000000Y-65750000D03*
D13*
X80000000Y-116000000D03*
X77900000Y-116000000D03*
X153050000Y-125000000D03*
X150950000Y-125000000D03*
D15*
X145440000Y-73579400D03*
X137134200Y-73579400D03*
D17*
X117430000Y-59000000D03*
X122000000Y-59000000D03*
M02*
