G04 #@! TF.GenerationSoftware,KiCad,Pcbnew,8.0.4*
G04 #@! TF.CreationDate,2025-03-29T15:05:00-04:00*
G04 #@! TF.ProjectId,X17-Power-Slab-Master,5831372d-506f-4776-9572-2d536c61622d,rev?*
G04 #@! TF.SameCoordinates,Original*
G04 #@! TF.FileFunction,Legend,Bot*
G04 #@! TF.FilePolarity,Positive*
%FSLAX46Y46*%
G04 Gerber Fmt 4.6, Leading zero omitted, Abs format (unit mm)*
G04 Created by KiCad (PCBNEW 8.0.4) date 2025-03-29 15:05:00*
%MOMM*%
%LPD*%
G01*
G04 APERTURE LIST*
G04 Aperture macros list*
%AMRoundRect*
0 Rectangle with rounded corners*
0 $1 Rounding radius*
0 $2 $3 $4 $5 $6 $7 $8 $9 X,Y pos of 4 corners*
0 Add a 4 corners polygon primitive as box body*
4,1,4,$2,$3,$4,$5,$6,$7,$8,$9,$2,$3,0*
0 Add four circle primitives for the rounded corners*
1,1,$1+$1,$2,$3*
1,1,$1+$1,$4,$5*
1,1,$1+$1,$6,$7*
1,1,$1+$1,$8,$9*
0 Add four rect primitives between the rounded corners*
20,1,$1+$1,$2,$3,$4,$5,0*
20,1,$1+$1,$4,$5,$6,$7,0*
20,1,$1+$1,$6,$7,$8,$9,0*
20,1,$1+$1,$8,$9,$2,$3,0*%
G04 Aperture macros list end*
%ADD10C,0.150000*%
%ADD11C,0.152400*%
%ADD12C,0.508000*%
%ADD13C,0.100000*%
%ADD14C,0.120000*%
%ADD15C,3.200000*%
%ADD16RoundRect,0.102000X-0.765000X-0.765000X0.765000X-0.765000X0.765000X0.765000X-0.765000X0.765000X0*%
%ADD17C,1.734000*%
%ADD18R,1.700000X1.700000*%
%ADD19O,1.700000X1.700000*%
%ADD20C,2.032000*%
%ADD21C,3.500000*%
%ADD22C,3.810000*%
%ADD23RoundRect,0.237500X-0.250000X-0.237500X0.250000X-0.237500X0.250000X0.237500X-0.250000X0.237500X0*%
%ADD24C,2.600000*%
%ADD25C,3.100000*%
%ADD26C,1.600000*%
G04 APERTURE END LIST*
D10*
X83673714Y-50454819D02*
X83102286Y-50454819D01*
X83388000Y-50454819D02*
X83388000Y-49454819D01*
X83388000Y-49454819D02*
X83292762Y-49597676D01*
X83292762Y-49597676D02*
X83197524Y-49692914D01*
X83197524Y-49692914D02*
X83102286Y-49740533D01*
D11*
X83834694Y-87768095D02*
X84644217Y-87768095D01*
X84644217Y-87768095D02*
X84739455Y-87815714D01*
X84739455Y-87815714D02*
X84787075Y-87863333D01*
X84787075Y-87863333D02*
X84834694Y-87958571D01*
X84834694Y-87958571D02*
X84834694Y-88149047D01*
X84834694Y-88149047D02*
X84787075Y-88244285D01*
X84787075Y-88244285D02*
X84739455Y-88291904D01*
X84739455Y-88291904D02*
X84644217Y-88339523D01*
X84644217Y-88339523D02*
X83834694Y-88339523D01*
X83834694Y-89291904D02*
X83834694Y-88815714D01*
X83834694Y-88815714D02*
X84310884Y-88768095D01*
X84310884Y-88768095D02*
X84263265Y-88815714D01*
X84263265Y-88815714D02*
X84215646Y-88910952D01*
X84215646Y-88910952D02*
X84215646Y-89149047D01*
X84215646Y-89149047D02*
X84263265Y-89244285D01*
X84263265Y-89244285D02*
X84310884Y-89291904D01*
X84310884Y-89291904D02*
X84406122Y-89339523D01*
X84406122Y-89339523D02*
X84644217Y-89339523D01*
X84644217Y-89339523D02*
X84739455Y-89291904D01*
X84739455Y-89291904D02*
X84787075Y-89244285D01*
X84787075Y-89244285D02*
X84834694Y-89149047D01*
X84834694Y-89149047D02*
X84834694Y-88910952D01*
X84834694Y-88910952D02*
X84787075Y-88815714D01*
X84787075Y-88815714D02*
X84739455Y-88768095D01*
D10*
X140342857Y-125084819D02*
X140676190Y-124608628D01*
X140914285Y-125084819D02*
X140914285Y-124084819D01*
X140914285Y-124084819D02*
X140533333Y-124084819D01*
X140533333Y-124084819D02*
X140438095Y-124132438D01*
X140438095Y-124132438D02*
X140390476Y-124180057D01*
X140390476Y-124180057D02*
X140342857Y-124275295D01*
X140342857Y-124275295D02*
X140342857Y-124418152D01*
X140342857Y-124418152D02*
X140390476Y-124513390D01*
X140390476Y-124513390D02*
X140438095Y-124561009D01*
X140438095Y-124561009D02*
X140533333Y-124608628D01*
X140533333Y-124608628D02*
X140914285Y-124608628D01*
X139390476Y-125084819D02*
X139961904Y-125084819D01*
X139676190Y-125084819D02*
X139676190Y-124084819D01*
X139676190Y-124084819D02*
X139771428Y-124227676D01*
X139771428Y-124227676D02*
X139866666Y-124322914D01*
X139866666Y-124322914D02*
X139961904Y-124370533D01*
X138771428Y-124084819D02*
X138676190Y-124084819D01*
X138676190Y-124084819D02*
X138580952Y-124132438D01*
X138580952Y-124132438D02*
X138533333Y-124180057D01*
X138533333Y-124180057D02*
X138485714Y-124275295D01*
X138485714Y-124275295D02*
X138438095Y-124465771D01*
X138438095Y-124465771D02*
X138438095Y-124703866D01*
X138438095Y-124703866D02*
X138485714Y-124894342D01*
X138485714Y-124894342D02*
X138533333Y-124989580D01*
X138533333Y-124989580D02*
X138580952Y-125037200D01*
X138580952Y-125037200D02*
X138676190Y-125084819D01*
X138676190Y-125084819D02*
X138771428Y-125084819D01*
X138771428Y-125084819D02*
X138866666Y-125037200D01*
X138866666Y-125037200D02*
X138914285Y-124989580D01*
X138914285Y-124989580D02*
X138961904Y-124894342D01*
X138961904Y-124894342D02*
X139009523Y-124703866D01*
X139009523Y-124703866D02*
X139009523Y-124465771D01*
X139009523Y-124465771D02*
X138961904Y-124275295D01*
X138961904Y-124275295D02*
X138914285Y-124180057D01*
X138914285Y-124180057D02*
X138866666Y-124132438D01*
X138866666Y-124132438D02*
X138771428Y-124084819D01*
D11*
X149544694Y-92378095D02*
X150354217Y-92378095D01*
X150354217Y-92378095D02*
X150449455Y-92425714D01*
X150449455Y-92425714D02*
X150497075Y-92473333D01*
X150497075Y-92473333D02*
X150544694Y-92568571D01*
X150544694Y-92568571D02*
X150544694Y-92759047D01*
X150544694Y-92759047D02*
X150497075Y-92854285D01*
X150497075Y-92854285D02*
X150449455Y-92901904D01*
X150449455Y-92901904D02*
X150354217Y-92949523D01*
X150354217Y-92949523D02*
X149544694Y-92949523D01*
X149973265Y-93568571D02*
X149925646Y-93473333D01*
X149925646Y-93473333D02*
X149878027Y-93425714D01*
X149878027Y-93425714D02*
X149782789Y-93378095D01*
X149782789Y-93378095D02*
X149735170Y-93378095D01*
X149735170Y-93378095D02*
X149639932Y-93425714D01*
X149639932Y-93425714D02*
X149592313Y-93473333D01*
X149592313Y-93473333D02*
X149544694Y-93568571D01*
X149544694Y-93568571D02*
X149544694Y-93759047D01*
X149544694Y-93759047D02*
X149592313Y-93854285D01*
X149592313Y-93854285D02*
X149639932Y-93901904D01*
X149639932Y-93901904D02*
X149735170Y-93949523D01*
X149735170Y-93949523D02*
X149782789Y-93949523D01*
X149782789Y-93949523D02*
X149878027Y-93901904D01*
X149878027Y-93901904D02*
X149925646Y-93854285D01*
X149925646Y-93854285D02*
X149973265Y-93759047D01*
X149973265Y-93759047D02*
X149973265Y-93568571D01*
X149973265Y-93568571D02*
X150020884Y-93473333D01*
X150020884Y-93473333D02*
X150068503Y-93425714D01*
X150068503Y-93425714D02*
X150163741Y-93378095D01*
X150163741Y-93378095D02*
X150354217Y-93378095D01*
X150354217Y-93378095D02*
X150449455Y-93425714D01*
X150449455Y-93425714D02*
X150497075Y-93473333D01*
X150497075Y-93473333D02*
X150544694Y-93568571D01*
X150544694Y-93568571D02*
X150544694Y-93759047D01*
X150544694Y-93759047D02*
X150497075Y-93854285D01*
X150497075Y-93854285D02*
X150449455Y-93901904D01*
X150449455Y-93901904D02*
X150354217Y-93949523D01*
X150354217Y-93949523D02*
X150163741Y-93949523D01*
X150163741Y-93949523D02*
X150068503Y-93901904D01*
X150068503Y-93901904D02*
X150020884Y-93854285D01*
X150020884Y-93854285D02*
X149973265Y-93759047D01*
D12*
X85801000Y-51905000D02*
G75*
G02*
X85039000Y-51905000I-381000J0D01*
G01*
X85039000Y-51905000D02*
G75*
G02*
X85801000Y-51905000I381000J0D01*
G01*
D13*
X73070000Y-71510000D02*
X96690000Y-71510000D01*
X96690000Y-105550000D01*
X73070000Y-105550000D01*
X73070000Y-71510000D01*
D14*
X139954724Y-122677500D02*
X139445276Y-122677500D01*
X139954724Y-123722500D02*
X139445276Y-123722500D01*
D13*
X129600000Y-61050000D02*
X167400000Y-61050000D01*
X167400000Y-120450000D01*
X129600000Y-120450000D01*
X129600000Y-61050000D01*
%LPC*%
D15*
X54240000Y-134500000D03*
X132000000Y-134500000D03*
D16*
X84410000Y-138000000D03*
D17*
X86950000Y-138000000D03*
X89490000Y-138000000D03*
X92030000Y-138000000D03*
X94570000Y-138000000D03*
X97110000Y-138000000D03*
X99650000Y-138000000D03*
X102190000Y-138000000D03*
X84410000Y-135460000D03*
X86950000Y-135460000D03*
X89490000Y-135460000D03*
X92030000Y-135460000D03*
X94570000Y-135460000D03*
X97110000Y-135460000D03*
X99650000Y-135460000D03*
X102190000Y-135460000D03*
X84410000Y-132920000D03*
X86950000Y-132920000D03*
X89490000Y-132920000D03*
X92030000Y-132920000D03*
X94570000Y-132920000D03*
X97110000Y-132920000D03*
X99650000Y-132920000D03*
X102190000Y-132920000D03*
X59740000Y-129500000D03*
X59740000Y-132000000D03*
X59740000Y-134500000D03*
X59740000Y-137000000D03*
X59740000Y-139500000D03*
X62740000Y-139500000D03*
X62740000Y-137000000D03*
X62740000Y-134500000D03*
X62740000Y-132000000D03*
X62740000Y-129500000D03*
X65240000Y-129500000D03*
X65240000Y-132000000D03*
X65240000Y-134500000D03*
X65240000Y-137000000D03*
X65240000Y-139500000D03*
X68240000Y-139500000D03*
X68240000Y-137000000D03*
X68240000Y-134500000D03*
X68240000Y-132000000D03*
X68240000Y-129500000D03*
X70740000Y-129500000D03*
X70740000Y-132000000D03*
X70740000Y-134500000D03*
X70740000Y-137000000D03*
X70740000Y-139500000D03*
X73740000Y-139500000D03*
X73740000Y-137000000D03*
X73740000Y-134500000D03*
X73740000Y-132000000D03*
X73740000Y-129500000D03*
X76240000Y-129500000D03*
X76240000Y-132000000D03*
X76240000Y-134500000D03*
X76240000Y-137000000D03*
X76240000Y-139500000D03*
X79240000Y-139500000D03*
X79240000Y-137000000D03*
X79240000Y-134500000D03*
X79240000Y-132000000D03*
X79240000Y-129500000D03*
X107000000Y-129500000D03*
X107000000Y-132000000D03*
X107000000Y-134500000D03*
X107000000Y-137000000D03*
X107000000Y-139500000D03*
X110000000Y-139500000D03*
X110000000Y-137000000D03*
X110000000Y-134500000D03*
X110000000Y-132000000D03*
X110000000Y-129500000D03*
X112500000Y-129500000D03*
X112500000Y-132000000D03*
X112500000Y-134500000D03*
X112500000Y-137000000D03*
X112500000Y-139500000D03*
X115500000Y-139500000D03*
X115500000Y-137000000D03*
X115500000Y-134500000D03*
X115500000Y-132000000D03*
X115500000Y-129500000D03*
X118000000Y-129500000D03*
X118000000Y-132000000D03*
X118000000Y-134500000D03*
X118000000Y-137000000D03*
X118000000Y-139500000D03*
X121000000Y-139500000D03*
X121000000Y-137000000D03*
X121000000Y-134500000D03*
X121000000Y-132000000D03*
X121000000Y-129500000D03*
X123500000Y-129500000D03*
X123500000Y-132000000D03*
X123500000Y-134500000D03*
X123500000Y-137000000D03*
X123500000Y-139500000D03*
X126500000Y-139500000D03*
X126500000Y-137000000D03*
X126500000Y-134500000D03*
X126500000Y-132000000D03*
X126500000Y-129500000D03*
D18*
X126590000Y-79165000D03*
D19*
X124050000Y-79165000D03*
X121510000Y-79165000D03*
X118970000Y-79165000D03*
X116430000Y-79165000D03*
X113890000Y-79165000D03*
D18*
X126590000Y-116590000D03*
D19*
X124050000Y-116590000D03*
X121510000Y-116590000D03*
X118970000Y-116590000D03*
X116430000Y-116590000D03*
X113890000Y-116590000D03*
D20*
X85420000Y-50000000D03*
X90500000Y-50000000D03*
X95580000Y-50000000D03*
X100660000Y-50000000D03*
X105740000Y-50000000D03*
X110820000Y-50000000D03*
D21*
X77260000Y-74560000D03*
X84880000Y-74560000D03*
X92500000Y-74560000D03*
X92500000Y-102500000D03*
X84880000Y-102500000D03*
X77260000Y-102500000D03*
D22*
X164000000Y-48500000D03*
X44500000Y-137500000D03*
X163500000Y-137500000D03*
D23*
X138787500Y-123200000D03*
X140612500Y-123200000D03*
D22*
X76500000Y-123500000D03*
X76500000Y-48500000D03*
D24*
X140880000Y-65110000D03*
X148500000Y-65110000D03*
X156120000Y-65110000D03*
D25*
X159930000Y-115910000D03*
X156120000Y-115910000D03*
D26*
X148500000Y-116150000D03*
D25*
X140880000Y-115910000D03*
X137070000Y-115910000D03*
D26*
X154500000Y-118690000D03*
X152500000Y-118690000D03*
X150500000Y-118690000D03*
X148500000Y-118690000D03*
X146500000Y-118690000D03*
X144500000Y-118690000D03*
X142500000Y-118690000D03*
%LPD*%
M02*
