M48
; DRILL file {KiCad 8.0.4} date 2025-03-28T19:04:44-0400
; FORMAT={-:-/ absolute / metric / decimal}
; #@! TF.CreationDate,2025-03-28T19:04:44-04:00
; #@! TF.GenerationSoftware,Kicad,Pcbnew,8.0.4
; #@! TF.FileFunction,Plated,1,2,PTH
FMAT,2
METRIC
; #@! TA.AperFunction,Plated,PTH,ViaDrill
T1C0.300
; #@! TA.AperFunction,Plated,PTH,ViaDrill
T2C0.762
; #@! TA.AperFunction,Plated,PTH,ComponentDrill
T3C0.800
; #@! TA.AperFunction,Plated,PTH,ComponentDrill
T4C0.900
; #@! TA.AperFunction,Plated,PTH,ComponentDrill
T5C1.000
; #@! TA.AperFunction,Plated,PTH,ComponentDrill
T6C1.020
; #@! TA.AperFunction,Plated,PTH,ComponentDrill
T7C1.524
; #@! TA.AperFunction,Plated,PTH,ComponentDrill
T8C1.600
; #@! TA.AperFunction,Plated,PTH,ViaDrill
T9C2.032
; #@! TA.AperFunction,Plated,PTH,ComponentDrill
T10C2.100
; #@! TA.AperFunction,Plated,PTH,ComponentDrill
T11C2.450
%
G90
G05
T1
X103.68Y-136.04
X104.728Y-135.795
X105.329Y-136.396
T2
X148.781Y-47.0
X157.0Y-129.9
T3
X148.5Y-116.15
T4
X142.5Y-118.69
X144.5Y-118.69
X146.5Y-118.69
X148.5Y-118.69
X150.5Y-118.69
X152.5Y-118.69
X154.5Y-118.69
T5
X113.89Y-79.165
X113.89Y-116.59
X116.43Y-79.165
X116.43Y-116.59
X118.97Y-79.165
X118.97Y-116.59
X121.51Y-79.165
X121.51Y-116.59
X124.05Y-79.165
X124.05Y-116.59
X126.59Y-79.165
X126.59Y-116.59
T6
X59.74Y-129.5
X59.74Y-132.0
X59.74Y-134.5
X59.74Y-137.0
X59.74Y-139.5
X62.74Y-129.5
X62.74Y-132.0
X62.74Y-134.5
X62.74Y-137.0
X62.74Y-139.5
X65.24Y-129.5
X65.24Y-132.0
X65.24Y-134.5
X65.24Y-137.0
X65.24Y-139.5
X68.24Y-129.5
X68.24Y-132.0
X68.24Y-134.5
X68.24Y-137.0
X68.24Y-139.5
X70.74Y-129.5
X70.74Y-132.0
X70.74Y-134.5
X70.74Y-137.0
X70.74Y-139.5
X73.74Y-129.5
X73.74Y-132.0
X73.74Y-134.5
X73.74Y-137.0
X73.74Y-139.5
X76.24Y-129.5
X76.24Y-132.0
X76.24Y-134.5
X76.24Y-137.0
X76.24Y-139.5
X79.24Y-129.5
X79.24Y-132.0
X79.24Y-134.5
X79.24Y-137.0
X79.24Y-139.5
X84.41Y-132.92
X84.41Y-135.46
X84.41Y-138.0
X86.95Y-132.92
X86.95Y-135.46
X86.95Y-138.0
X89.49Y-132.92
X89.49Y-135.46
X89.49Y-138.0
X92.03Y-132.92
X92.03Y-135.46
X92.03Y-138.0
X94.57Y-132.92
X94.57Y-135.46
X94.57Y-138.0
X97.11Y-132.92
X97.11Y-135.46
X97.11Y-138.0
X99.65Y-132.92
X99.65Y-135.46
X99.65Y-138.0
X102.19Y-132.92
X102.19Y-135.46
X102.19Y-138.0
X107.0Y-129.5
X107.0Y-132.0
X107.0Y-134.5
X107.0Y-137.0
X107.0Y-139.5
X110.0Y-129.5
X110.0Y-132.0
X110.0Y-134.5
X110.0Y-137.0
X110.0Y-139.5
X112.5Y-129.5
X112.5Y-132.0
X112.5Y-134.5
X112.5Y-137.0
X112.5Y-139.5
X115.5Y-129.5
X115.5Y-132.0
X115.5Y-134.5
X115.5Y-137.0
X115.5Y-139.5
X118.0Y-129.5
X118.0Y-132.0
X118.0Y-134.5
X118.0Y-137.0
X118.0Y-139.5
X121.0Y-129.5
X121.0Y-132.0
X121.0Y-134.5
X121.0Y-137.0
X121.0Y-139.5
X123.5Y-129.5
X123.5Y-132.0
X123.5Y-134.5
X123.5Y-137.0
X123.5Y-139.5
X126.5Y-129.5
X126.5Y-132.0
X126.5Y-134.5
X126.5Y-137.0
X126.5Y-139.5
T7
X85.42Y-50.0
X90.5Y-50.0
X95.58Y-50.0
X100.66Y-50.0
X105.74Y-50.0
X110.82Y-50.0
T8
X140.88Y-65.11
X148.5Y-65.11
X156.12Y-65.11
T9
X79.0Y-92.0
X83.0Y-58.0
X85.0Y-121.0
X118.0Y-67.0
X119.2Y-97.71
X151.087Y-54.099
X151.087Y-73.579
X151.238Y-85.73
T10
X137.07Y-115.91
X140.88Y-115.91
X156.12Y-115.91
X159.93Y-115.91
T11
X77.26Y-74.56
X77.26Y-102.5
X84.88Y-74.56
X84.88Y-102.5
X92.5Y-74.56
X92.5Y-102.5
M30
