%TF.GenerationSoftware,KiCad,Pcbnew,8.0.4*%
%TF.CreationDate,2025-01-10T12:27:39-08:00*%
%TF.ProjectId,X17-Power-Slab-Master,5831372d-506f-4776-9572-2d536c61622d,rev?*%
%TF.SameCoordinates,Original*%
%TF.FileFunction,Copper,L2,Bot*%
%TF.FilePolarity,Positive*%
%FSLAX46Y46*%
G04 Gerber Fmt 4.6, Leading zero omitted, Abs format (unit mm)*
G04 Created by KiCad (PCBNEW 8.0.4) date 2025-01-10 12:27:39*
%MOMM*%
%LPD*%
G01*
G04 APERTURE LIST*
G04 Aperture macros list*
%AMRoundRect*
0 Rectangle with rounded corners*
0 $1 Rounding radius*
0 $2 $3 $4 $5 $6 $7 $8 $9 X,Y pos of 4 corners*
0 Add a 4 corners polygon primitive as box body*
4,1,4,$2,$3,$4,$5,$6,$7,$8,$9,$2,$3,0*
0 Add four circle primitives for the rounded corners*
1,1,$1+$1,$2,$3*
1,1,$1+$1,$4,$5*
1,1,$1+$1,$6,$7*
1,1,$1+$1,$8,$9*
0 Add four rect primitives between the rounded corners*
20,1,$1+$1,$2,$3,$4,$5,0*
20,1,$1+$1,$4,$5,$6,$7,0*
20,1,$1+$1,$6,$7,$8,$9,0*
20,1,$1+$1,$8,$9,$2,$3,0*%
G04 Aperture macros list end*
%TA.AperFunction,ComponentPad*%
%ADD10C,1.530000*%
%TD*%
%TA.AperFunction,ComponentPad*%
%ADD11R,1.530000X1.530000*%
%TD*%
%TA.AperFunction,ComponentPad*%
%ADD12R,1.700000X1.700000*%
%TD*%
%TA.AperFunction,ComponentPad*%
%ADD13O,1.700000X1.700000*%
%TD*%
%TA.AperFunction,ComponentPad*%
%ADD14C,2.032000*%
%TD*%
%TA.AperFunction,ComponentPad*%
%ADD15C,3.500000*%
%TD*%
%TA.AperFunction,SMDPad,CuDef*%
%ADD16RoundRect,0.237500X-0.250000X-0.237500X0.250000X-0.237500X0.250000X0.237500X-0.250000X0.237500X0*%
%TD*%
%TA.AperFunction,ComponentPad*%
%ADD17C,2.600000*%
%TD*%
%TA.AperFunction,ComponentPad*%
%ADD18C,3.100000*%
%TD*%
%TA.AperFunction,ComponentPad*%
%ADD19C,1.600000*%
%TD*%
%TA.AperFunction,ViaPad*%
%ADD20C,0.600000*%
%TD*%
%TA.AperFunction,ViaPad*%
%ADD21C,3.048000*%
%TD*%
%TA.AperFunction,ViaPad*%
%ADD22C,1.270000*%
%TD*%
%TA.AperFunction,Conductor*%
%ADD23C,0.279400*%
%TD*%
%TA.AperFunction,Conductor*%
%ADD24C,0.762000*%
%TD*%
%TA.AperFunction,Conductor*%
%ADD25C,1.270000*%
%TD*%
%TA.AperFunction,Conductor*%
%ADD26C,0.200000*%
%TD*%
G04 APERTURE END LIST*
D10*
%TO.P,J2,P08_10*%
%TO.N,N/C*%
X126500000Y-129500000D03*
%TO.P,J2,P08_9*%
X126500000Y-132000000D03*
%TO.P,J2,P08_8*%
X126500000Y-134500000D03*
%TO.P,J2,P08_7*%
X126500000Y-137000000D03*
%TO.P,J2,P08_6*%
X126500000Y-139500000D03*
%TO.P,J2,P08_5*%
X123500000Y-139500000D03*
%TO.P,J2,P08_4*%
X123500000Y-137000000D03*
%TO.P,J2,P08_3*%
X123500000Y-134500000D03*
%TO.P,J2,P08_2*%
X123500000Y-132000000D03*
%TO.P,J2,P08_1,P08*%
%TO.N,unconnected-(J2-P08-PadP08_1)*%
X123500000Y-129500000D03*
%TO.P,J2,P07_10*%
%TO.N,N/C*%
X121000000Y-129500000D03*
%TO.P,J2,P07_9*%
X121000000Y-132000000D03*
%TO.P,J2,P07_8*%
X121000000Y-134500000D03*
%TO.P,J2,P07_7*%
X121000000Y-137000000D03*
%TO.P,J2,P07_6*%
X121000000Y-139500000D03*
%TO.P,J2,P07_5*%
X118000000Y-139500000D03*
%TO.P,J2,P07_4*%
X118000000Y-137000000D03*
%TO.P,J2,P07_3*%
X118000000Y-134500000D03*
%TO.P,J2,P07_2*%
X118000000Y-132000000D03*
%TO.P,J2,P07_1,P07*%
%TO.N,unconnected-(J2-P07-PadP07_1)*%
X118000000Y-129500000D03*
%TO.P,J2,P06_10*%
%TO.N,N/C*%
X115500000Y-129500000D03*
%TO.P,J2,P06_9*%
X115500000Y-132000000D03*
%TO.P,J2,P06_8*%
X115500000Y-134500000D03*
%TO.P,J2,P06_7*%
X115500000Y-137000000D03*
%TO.P,J2,P06_6*%
X115500000Y-139500000D03*
%TO.P,J2,P06_5*%
X112500000Y-139500000D03*
%TO.P,J2,P06_4*%
X112500000Y-137000000D03*
%TO.P,J2,P06_3*%
X112500000Y-134500000D03*
%TO.P,J2,P06_2*%
X112500000Y-132000000D03*
%TO.P,J2,P06_1,P06*%
%TO.N,unconnected-(J2-P06-PadP06_1)*%
X112500000Y-129500000D03*
%TO.P,J2,P05_10*%
%TO.N,N/C*%
X110000000Y-129500000D03*
%TO.P,J2,P05_9*%
X110000000Y-132000000D03*
%TO.P,J2,P05_8*%
X110000000Y-134500000D03*
%TO.P,J2,P05_7*%
X110000000Y-137000000D03*
%TO.P,J2,P05_6*%
X110000000Y-139500000D03*
%TO.P,J2,P05_5*%
X107000000Y-139500000D03*
%TO.P,J2,P05_4*%
X107000000Y-137000000D03*
%TO.P,J2,P05_3*%
X107000000Y-134500000D03*
%TO.P,J2,P05_2*%
X107000000Y-132000000D03*
%TO.P,J2,P05_1,P05*%
%TO.N,12V*%
X107000000Y-129500000D03*
%TO.P,J2,P04_10*%
%TO.N,N/C*%
X79240000Y-129500000D03*
%TO.P,J2,P04_9*%
X79240000Y-132000000D03*
%TO.P,J2,P04_8*%
X79240000Y-134500000D03*
%TO.P,J2,P04_7*%
X79240000Y-137000000D03*
%TO.P,J2,P04_6*%
X79240000Y-139500000D03*
%TO.P,J2,P04_5*%
X76240000Y-139500000D03*
%TO.P,J2,P04_4*%
X76240000Y-137000000D03*
%TO.P,J2,P04_3*%
X76240000Y-134500000D03*
%TO.P,J2,P04_2*%
X76240000Y-132000000D03*
%TO.P,J2,P04_1,P04*%
%TO.N,unconnected-(J2-P04-PadP04_1)*%
X76240000Y-129500000D03*
%TO.P,J2,P03_10*%
%TO.N,N/C*%
X73740000Y-129500000D03*
%TO.P,J2,P03_9*%
X73740000Y-132000000D03*
%TO.P,J2,P03_8*%
X73740000Y-134500000D03*
%TO.P,J2,P03_7*%
X73740000Y-137000000D03*
%TO.P,J2,P03_6*%
X73740000Y-139500000D03*
%TO.P,J2,P03_5*%
X70740000Y-139500000D03*
%TO.P,J2,P03_4*%
X70740000Y-137000000D03*
%TO.P,J2,P03_3*%
X70740000Y-134500000D03*
%TO.P,J2,P03_2*%
X70740000Y-132000000D03*
%TO.P,J2,P03_1,P03*%
%TO.N,unconnected-(J2-P03-PadP03_1)*%
X70740000Y-129500000D03*
%TO.P,J2,P02_10*%
%TO.N,N/C*%
X68240000Y-129500000D03*
%TO.P,J2,P02_9*%
X68240000Y-132000000D03*
%TO.P,J2,P02_8*%
X68240000Y-134500000D03*
%TO.P,J2,P02_7*%
X68240000Y-137000000D03*
%TO.P,J2,P02_6*%
X68240000Y-139500000D03*
%TO.P,J2,P02_5*%
X65240000Y-139500000D03*
%TO.P,J2,P02_4*%
X65240000Y-137000000D03*
%TO.P,J2,P02_3*%
X65240000Y-134500000D03*
%TO.P,J2,P02_2*%
X65240000Y-132000000D03*
%TO.P,J2,P02_1,P02*%
%TO.N,unconnected-(J2-P02-PadP02_1)*%
X65240000Y-129500000D03*
%TO.P,J2,P01_10*%
%TO.N,N/C*%
X62740000Y-129500000D03*
%TO.P,J2,P01_9*%
X62740000Y-132000000D03*
%TO.P,J2,P01_8*%
X62740000Y-134500000D03*
%TO.P,J2,P01_7*%
X62740000Y-137000000D03*
%TO.P,J2,P01_6*%
X62740000Y-139500000D03*
%TO.P,J2,P01_5*%
X59740000Y-139500000D03*
%TO.P,J2,P01_4*%
X59740000Y-137000000D03*
%TO.P,J2,P01_3*%
X59740000Y-134500000D03*
%TO.P,J2,P01_2*%
X59740000Y-132000000D03*
%TO.P,J2,P01_1,P01*%
%TO.N,unconnected-(J2-P01-PadP01_1)*%
X59740000Y-129500000D03*
%TO.P,J2,24,24*%
%TO.N,48V_GND*%
X102190000Y-132920000D03*
%TO.P,J2,23,23*%
X99650000Y-132920000D03*
%TO.P,J2,22,22*%
%TO.N,48V*%
X97110000Y-132920000D03*
%TO.P,J2,21,21*%
X94570000Y-132920000D03*
%TO.P,J2,20,20*%
%TO.N,5V*%
X92030000Y-132920000D03*
%TO.P,J2,19,19*%
X89490000Y-132920000D03*
%TO.P,J2,18,18*%
%TO.N,12V_5V_GND*%
X86950000Y-132920000D03*
%TO.P,J2,17,17*%
X84410000Y-132920000D03*
%TO.P,J2,16,16*%
%TO.N,48V_GND*%
X102190000Y-135460000D03*
%TO.P,J2,15,15*%
X99650000Y-135460000D03*
%TO.P,J2,14,14*%
%TO.N,48V*%
X97110000Y-135460000D03*
%TO.P,J2,13,13*%
X94570000Y-135460000D03*
%TO.P,J2,12,12*%
%TO.N,5V*%
X92030000Y-135460000D03*
%TO.P,J2,11,11*%
X89490000Y-135460000D03*
%TO.P,J2,10,10*%
%TO.N,12V_5V_GND*%
X86950000Y-135460000D03*
%TO.P,J2,09,09*%
X84410000Y-135460000D03*
%TO.P,J2,08,08*%
%TO.N,unconnected-(J2-Pad08)*%
X102190000Y-138000000D03*
%TO.P,J2,07,07*%
%TO.N,unconnected-(J2-Pad07)*%
X99650000Y-138000000D03*
%TO.P,J2,06,06*%
%TO.N,unconnected-(J2-Pad06)*%
X97110000Y-138000000D03*
%TO.P,J2,05,05*%
%TO.N,unconnected-(J2-Pad05)*%
X94570000Y-138000000D03*
%TO.P,J2,04,04*%
%TO.N,unconnected-(J2-Pad04)*%
X92030000Y-138000000D03*
%TO.P,J2,03,03*%
%TO.N,NRST_PSB*%
X89490000Y-138000000D03*
%TO.P,J2,02,02*%
%TO.N,A+*%
X86950000Y-138000000D03*
D11*
%TO.P,J2,01,01*%
%TO.N,A-*%
X84410000Y-138000000D03*
%TD*%
D12*
%TO.P,J1,1,Pin_1*%
%TO.N,12V_5V_GND*%
X126590000Y-79165000D03*
D13*
%TO.P,J1,2,Pin_2*%
%TO.N,DATA*%
X124050000Y-79165000D03*
%TO.P,J1,3,Pin_3*%
%TO.N,unconnected-(J1-Pin_3-Pad3)*%
X121510000Y-79165000D03*
%TO.P,J1,4,Pin_4*%
%TO.N,unconnected-(J1-Pin_4-Pad4)*%
X118970000Y-79165000D03*
%TO.P,J1,5,Pin_5*%
%TO.N,ALERT1*%
X116430000Y-79165000D03*
%TO.P,J1,6,Pin_6*%
%TO.N,PG*%
X113890000Y-79165000D03*
D12*
%TO.P,J1,7,Pin_7*%
%TO.N,5V*%
X126590000Y-116590000D03*
D13*
%TO.P,J1,8,Pin_8*%
%TO.N,12V_5V_GND*%
X124050000Y-116590000D03*
%TO.P,J1,9,Pin_9*%
%TO.N,SWCLK*%
X121510000Y-116590000D03*
%TO.P,J1,10,Pin_10*%
%TO.N,NRST_PSB*%
X118970000Y-116590000D03*
%TO.P,J1,11,Pin_11*%
%TO.N,A+*%
X116430000Y-116590000D03*
%TO.P,J1,12,Pin_12*%
%TO.N,A-*%
X113890000Y-116590000D03*
%TD*%
D14*
%TO.P,J3,1,1*%
%TO.N,48V*%
X85420000Y-50000000D03*
%TO.P,J3,2,2*%
X90500000Y-50000000D03*
%TO.P,J3,3,3*%
X95580000Y-50000000D03*
%TO.P,J3,4,4*%
%TO.N,RAW_48V_GND*%
X100660000Y-50000000D03*
%TO.P,J3,5,5*%
X105740000Y-50000000D03*
%TO.P,J3,6,6*%
X110820000Y-50000000D03*
%TD*%
D15*
%TO.P,U5,1,+In*%
%TO.N,48V*%
X77260000Y-74560000D03*
%TO.P,U5,2,RC*%
%TO.N,unconnected-(U5-RC-Pad2)*%
X84880000Y-74560000D03*
%TO.P,U5,3,In-*%
%TO.N,48V_GND*%
X92500000Y-74560000D03*
%TO.P,U5,4,Out-*%
%TO.N,12V_5V_GND*%
X92500000Y-102500000D03*
%TO.P,U5,5,Vadj*%
%TO.N,Net-(U5-Vadj)*%
X84880000Y-102500000D03*
%TO.P,U5,6,Out+*%
%TO.N,5V*%
X77260000Y-102500000D03*
%TD*%
D16*
%TO.P,R10,1*%
%TO.N,12V_5V_GND*%
X138787500Y-123200000D03*
%TO.P,R10,2*%
%TO.N,Net-(U8-SA0{slash}SA1)*%
X140612500Y-123200000D03*
%TD*%
D17*
%TO.P,U8,1,+In*%
%TO.N,48V*%
X140880000Y-65110000D03*
%TO.P,U8,2,RC*%
%TO.N,48V_GND*%
X148500000Y-65110000D03*
%TO.P,U8,3,-In*%
X156120000Y-65110000D03*
D18*
%TO.P,U8,4,-Out*%
%TO.N,12V_5V_GND*%
X159930000Y-115910000D03*
%TO.P,U8,5,-Out*%
X156120000Y-115910000D03*
D19*
%TO.P,U8,6,PG_Sync*%
%TO.N,unconnected-(U8-PG_Sync-Pad6)*%
X148500000Y-116150000D03*
D18*
%TO.P,U8,7,+Out*%
%TO.N,12V*%
X140880000Y-115910000D03*
%TO.P,U8,8,+Out*%
X137070000Y-115910000D03*
D19*
%TO.P,U8,9,PG/CTRL*%
%TO.N,PG*%
X154500000Y-118690000D03*
%TO.P,U8,10,-SENSE*%
%TO.N,12V_5V_GND*%
X152500000Y-118690000D03*
%TO.P,U8,11,SDA*%
%TO.N,DATA*%
X150500000Y-118690000D03*
%TO.P,U8,12,SALERT*%
%TO.N,ALERT1*%
X148500000Y-118690000D03*
%TO.P,U8,13,SCL*%
%TO.N,SWCLK*%
X146500000Y-118690000D03*
%TO.P,U8,14,SA0/SA1*%
%TO.N,Net-(U8-SA0{slash}SA1)*%
X144500000Y-118690000D03*
%TO.P,U8,15,SA0/+SENSE*%
%TO.N,12V*%
X142500000Y-118690000D03*
%TD*%
D20*
%TO.N,NRST_PSB*%
X99870000Y-140600000D03*
D21*
%TO.N,5V*%
X119200000Y-97710000D03*
%TO.N,48V*%
X151087100Y-73579400D03*
D22*
X148781250Y-47000000D03*
D21*
X83000000Y-58000000D03*
X151087100Y-54098800D03*
X118000000Y-67000000D03*
X151237700Y-85730000D03*
D22*
%TO.N,12V_5V_GND*%
X157000000Y-129900000D03*
D21*
X85000000Y-121000000D03*
X79000000Y-92000000D03*
%TD*%
D23*
%TO.N,NRST_PSB*%
X118970000Y-116830000D02*
X118970000Y-116590000D01*
X112900000Y-118000000D02*
X117800000Y-118000000D01*
X108310000Y-138670000D02*
X108310000Y-122590000D01*
X108380000Y-140340000D02*
X108380000Y-138740000D01*
X108310000Y-122590000D02*
X112900000Y-118000000D01*
X99874700Y-140604700D02*
X108115300Y-140604700D01*
X117800000Y-118000000D02*
X118970000Y-116830000D01*
X108380000Y-138740000D02*
X108310000Y-138670000D01*
X99870000Y-140600000D02*
X99874700Y-140604700D01*
X108115300Y-140604700D02*
X108380000Y-140340000D01*
%TO.N,DATA*%
X122990000Y-80930000D02*
X124050000Y-79870000D01*
X122990000Y-82310000D02*
X122990000Y-80930000D01*
X126440000Y-85760000D02*
X122990000Y-82310000D01*
X124050000Y-79870000D02*
X124050000Y-79165000D01*
X150500000Y-115800000D02*
X126440000Y-91740000D01*
X126440000Y-91740000D02*
X126440000Y-85760000D01*
X150500000Y-118690000D02*
X150500000Y-115800000D01*
D24*
%TO.N,Net-(U8-SA0{slash}SA1)*%
X143100000Y-123200000D02*
X140612500Y-123200000D01*
X144500000Y-118690000D02*
X144500000Y-121800000D01*
X144500000Y-121800000D02*
X143100000Y-123200000D01*
D25*
%TO.N,5V*%
X119620000Y-98130000D02*
X119200000Y-97710000D01*
X119620000Y-100240000D02*
X119620000Y-98130000D01*
X126590000Y-107210000D02*
X126590000Y-116590000D01*
X119620000Y-100240000D02*
X126590000Y-107210000D01*
D26*
%TO.N,A-*%
X92503220Y-139514980D02*
X102817526Y-139514980D01*
X114465098Y-113865000D02*
X114934999Y-114334901D01*
X91153200Y-140865000D02*
X92503220Y-139514980D01*
X114934999Y-115545001D02*
X113890000Y-116590000D01*
X105475000Y-138583200D02*
X105475000Y-122193200D01*
X84410000Y-138000000D02*
X87275000Y-140865000D01*
X114934999Y-114334901D02*
X114934999Y-115545001D01*
X103207506Y-139125000D02*
X104933200Y-139125000D01*
X102817526Y-139514980D02*
X103207506Y-139125000D01*
X104933200Y-139125000D02*
X105475000Y-138583200D01*
X105475000Y-122193200D02*
X113803200Y-113865000D01*
X87275000Y-140865000D02*
X91153200Y-140865000D01*
X113803200Y-113865000D02*
X114465098Y-113865000D01*
%TO.N,A+*%
X113616800Y-113415000D02*
X114651498Y-113415000D01*
X103021138Y-138675000D02*
X104746800Y-138675000D01*
X87461397Y-140415000D02*
X90966800Y-140415000D01*
X90966800Y-140415000D02*
X92316800Y-139065000D01*
X105025000Y-122006800D02*
X113616800Y-113415000D01*
X105025000Y-138396800D02*
X105025000Y-122006800D01*
X114651498Y-113415000D02*
X115385001Y-114148503D01*
X86950000Y-138000000D02*
X86950000Y-139903603D01*
X115385001Y-114148503D02*
X115385001Y-115545001D01*
X102631138Y-139065000D02*
X103021138Y-138675000D01*
X115385001Y-115545001D02*
X116430000Y-116590000D01*
X92316800Y-139065000D02*
X102631138Y-139065000D01*
X86950000Y-139903603D02*
X87461397Y-140415000D01*
X104746800Y-138675000D02*
X105025000Y-138396800D01*
D23*
%TO.N,ALERT1*%
X148111780Y-118690000D02*
X116430000Y-87008220D01*
X116430000Y-87008220D02*
X116430000Y-79165000D01*
X148500000Y-118690000D02*
X148111780Y-118690000D01*
D25*
%TO.N,12V_5V_GND*%
X92500000Y-102500000D02*
X92000000Y-102500000D01*
D23*
%TO.N,PG*%
X131800000Y-80470000D02*
X128160000Y-76830000D01*
X128160000Y-76830000D02*
X116225000Y-76830000D01*
X116225000Y-76830000D02*
X113890000Y-79165000D01*
X154500000Y-118690000D02*
X131800000Y-95990000D01*
X131800000Y-95990000D02*
X131800000Y-80470000D01*
%TD*%
%TA.AperFunction,Conductor*%
%TO.N,12V_5V_GND*%
G36*
X95601019Y-88598344D02*
G01*
X95667972Y-88618306D01*
X95713507Y-88671299D01*
X95724500Y-88722342D01*
X95724500Y-119400500D01*
X95704815Y-119467539D01*
X95652011Y-119513294D01*
X95600500Y-119524500D01*
X93623978Y-119524500D01*
X93579776Y-119525266D01*
X93579766Y-119525266D01*
X93352867Y-119553650D01*
X93301350Y-119564858D01*
X93129184Y-119615220D01*
X92922759Y-119713594D01*
X92737211Y-119847249D01*
X92684380Y-119893027D01*
X92653412Y-119920759D01*
X92653404Y-119920767D01*
X92500166Y-120090488D01*
X92500161Y-120090494D01*
X92379686Y-120284854D01*
X92295856Y-120497595D01*
X92276168Y-120564644D01*
X92244997Y-120696253D01*
X92244997Y-120696256D01*
X92231249Y-120849010D01*
X92224500Y-120924000D01*
X92224500Y-131462900D01*
X92225164Y-131477646D01*
X92226980Y-131517981D01*
X92210330Y-131585838D01*
X92159636Y-131633921D01*
X92092298Y-131647085D01*
X92030002Y-131641635D01*
X92029998Y-131641635D01*
X91808019Y-131661055D01*
X91808009Y-131661057D01*
X91592780Y-131718727D01*
X91592771Y-131718731D01*
X91390817Y-131812903D01*
X91390811Y-131812907D01*
X91208282Y-131940716D01*
X91050716Y-132098282D01*
X90922907Y-132280811D01*
X90922903Y-132280817D01*
X90872382Y-132389161D01*
X90826210Y-132441600D01*
X90759016Y-132460752D01*
X90692135Y-132440536D01*
X90647618Y-132389161D01*
X90607906Y-132303999D01*
X90597097Y-132280818D01*
X90469284Y-132098283D01*
X90311717Y-131940716D01*
X90311715Y-131940714D01*
X90311710Y-131940710D01*
X90129189Y-131812907D01*
X90129186Y-131812905D01*
X90129183Y-131812903D01*
X90054374Y-131778019D01*
X89927233Y-131718732D01*
X89927219Y-131718727D01*
X89711990Y-131661057D01*
X89711988Y-131661056D01*
X89711986Y-131661056D01*
X89711984Y-131661055D01*
X89711980Y-131661055D01*
X89490002Y-131641635D01*
X89489998Y-131641635D01*
X89268019Y-131661055D01*
X89268009Y-131661057D01*
X89052780Y-131718727D01*
X89052771Y-131718731D01*
X88850817Y-131812903D01*
X88850811Y-131812907D01*
X88668282Y-131940716D01*
X88510716Y-132098282D01*
X88382907Y-132280811D01*
X88382903Y-132280817D01*
X88288731Y-132482771D01*
X88288727Y-132482780D01*
X88231057Y-132698009D01*
X88231055Y-132698019D01*
X88211635Y-132919998D01*
X88211635Y-132920001D01*
X88231055Y-133141980D01*
X88231057Y-133141990D01*
X88288727Y-133357219D01*
X88288732Y-133357233D01*
X88382901Y-133559179D01*
X88382907Y-133559189D01*
X88510710Y-133741710D01*
X88510719Y-133741720D01*
X88668279Y-133899280D01*
X88668289Y-133899289D01*
X88810952Y-133999183D01*
X88850817Y-134027097D01*
X88927182Y-134062706D01*
X88959160Y-134077618D01*
X89011600Y-134123790D01*
X89030752Y-134190983D01*
X89010536Y-134257865D01*
X88959161Y-134302382D01*
X88850817Y-134352903D01*
X88850811Y-134352907D01*
X88668282Y-134480716D01*
X88510716Y-134638282D01*
X88382907Y-134820811D01*
X88382903Y-134820817D01*
X88288731Y-135022771D01*
X88288727Y-135022780D01*
X88231057Y-135238009D01*
X88231055Y-135238019D01*
X88211635Y-135459998D01*
X88211635Y-135460001D01*
X88231055Y-135681980D01*
X88231057Y-135681990D01*
X88288727Y-135897219D01*
X88288732Y-135897233D01*
X88382901Y-136099179D01*
X88382907Y-136099189D01*
X88510710Y-136281710D01*
X88510719Y-136281720D01*
X88668279Y-136439280D01*
X88668289Y-136439289D01*
X88767114Y-136508487D01*
X88850817Y-136567097D01*
X88927182Y-136602706D01*
X88959160Y-136617618D01*
X89011600Y-136663790D01*
X89030752Y-136730983D01*
X89010536Y-136797865D01*
X88959161Y-136842382D01*
X88850817Y-136892903D01*
X88850811Y-136892907D01*
X88668282Y-137020716D01*
X88510716Y-137178282D01*
X88382907Y-137360811D01*
X88382903Y-137360817D01*
X88332382Y-137469161D01*
X88286210Y-137521600D01*
X88219016Y-137540752D01*
X88152135Y-137520536D01*
X88107618Y-137469161D01*
X88092730Y-137437233D01*
X88057097Y-137360818D01*
X87929284Y-137178283D01*
X87771717Y-137020716D01*
X87771715Y-137020714D01*
X87771710Y-137020710D01*
X87589189Y-136892907D01*
X87589186Y-136892905D01*
X87589183Y-136892903D01*
X87589179Y-136892901D01*
X87387233Y-136798732D01*
X87387219Y-136798727D01*
X87171990Y-136741057D01*
X87171988Y-136741056D01*
X87171986Y-136741056D01*
X87171984Y-136741055D01*
X87171980Y-136741055D01*
X86950002Y-136721635D01*
X86949998Y-136721635D01*
X86728019Y-136741055D01*
X86728009Y-136741057D01*
X86512780Y-136798727D01*
X86512771Y-136798731D01*
X86310817Y-136892903D01*
X86310811Y-136892907D01*
X86128282Y-137020716D01*
X85970716Y-137178282D01*
X85909074Y-137266316D01*
X85854497Y-137309941D01*
X85784999Y-137317133D01*
X85722644Y-137285610D01*
X85687231Y-137225380D01*
X85683500Y-137195192D01*
X85683500Y-137186362D01*
X85683499Y-137186345D01*
X85679097Y-137145405D01*
X85676989Y-137125799D01*
X85625889Y-136988796D01*
X85538261Y-136871739D01*
X85421204Y-136784111D01*
X85404871Y-136778019D01*
X85284203Y-136733011D01*
X85223654Y-136726500D01*
X85223638Y-136726500D01*
X83596362Y-136726500D01*
X83596345Y-136726500D01*
X83535797Y-136733011D01*
X83535795Y-136733011D01*
X83398795Y-136784111D01*
X83281739Y-136871739D01*
X83194111Y-136988795D01*
X83143011Y-137125795D01*
X83143011Y-137125797D01*
X83136500Y-137186345D01*
X83136500Y-138813654D01*
X83143011Y-138874202D01*
X83143011Y-138874204D01*
X83162432Y-138926271D01*
X83194111Y-139011204D01*
X83281739Y-139128261D01*
X83398796Y-139215889D01*
X83535799Y-139266989D01*
X83563050Y-139269918D01*
X83596345Y-139273499D01*
X83596362Y-139273500D01*
X84771589Y-139273500D01*
X84838628Y-139293185D01*
X84859270Y-139309819D01*
X86901373Y-141351922D01*
X87040128Y-141432032D01*
X87194889Y-141473500D01*
X87194890Y-141473500D01*
X87194891Y-141473500D01*
X91233309Y-141473500D01*
X91233310Y-141473500D01*
X91233311Y-141473500D01*
X91310691Y-141452766D01*
X91388073Y-141432032D01*
X91526827Y-141351922D01*
X92718950Y-140159799D01*
X92780273Y-140126314D01*
X92806631Y-140123480D01*
X99005411Y-140123480D01*
X99072450Y-140143165D01*
X99118205Y-140195969D01*
X99128149Y-140265127D01*
X99122453Y-140288434D01*
X99076783Y-140418950D01*
X99076781Y-140418958D01*
X99056384Y-140599996D01*
X99056384Y-140600003D01*
X99076781Y-140781041D01*
X99076782Y-140781046D01*
X99117949Y-140898693D01*
X99136957Y-140953015D01*
X99233889Y-141107281D01*
X99362719Y-141236111D01*
X99516985Y-141333043D01*
X99688953Y-141393217D01*
X99688958Y-141393218D01*
X99869996Y-141413616D01*
X99870000Y-141413616D01*
X99870004Y-141413616D01*
X100051041Y-141393218D01*
X100051044Y-141393217D01*
X100051047Y-141393217D01*
X100223015Y-141333043D01*
X100320314Y-141271905D01*
X100386286Y-141252900D01*
X108179145Y-141252900D01*
X108263551Y-141236110D01*
X108304373Y-141227990D01*
X108422338Y-141179127D01*
X108528504Y-141108190D01*
X108883489Y-140753204D01*
X108940059Y-140668542D01*
X108954427Y-140647038D01*
X108999495Y-140538233D01*
X109043336Y-140483831D01*
X109109630Y-140461766D01*
X109177330Y-140479045D01*
X109185173Y-140484108D01*
X109225153Y-140512103D01*
X109360810Y-140607093D01*
X109360814Y-140607095D01*
X109360817Y-140607097D01*
X109482318Y-140663753D01*
X109562766Y-140701267D01*
X109562768Y-140701267D01*
X109562773Y-140701270D01*
X109778014Y-140758944D01*
X109936575Y-140772816D01*
X109999998Y-140778365D01*
X110000000Y-140778365D01*
X110000002Y-140778365D01*
X110055496Y-140773509D01*
X110221986Y-140758944D01*
X110437227Y-140701270D01*
X110639183Y-140607097D01*
X110821717Y-140479284D01*
X110979284Y-140321717D01*
X111107097Y-140139183D01*
X111137618Y-140073729D01*
X111183790Y-140021290D01*
X111250983Y-140002138D01*
X111317864Y-140022353D01*
X111362382Y-140073730D01*
X111392901Y-140139179D01*
X111392907Y-140139189D01*
X111520710Y-140321710D01*
X111520719Y-140321720D01*
X111678279Y-140479280D01*
X111678289Y-140479289D01*
X111749388Y-140529073D01*
X111860817Y-140607097D01*
X111982318Y-140663753D01*
X112062766Y-140701267D01*
X112062768Y-140701267D01*
X112062773Y-140701270D01*
X112278014Y-140758944D01*
X112436575Y-140772816D01*
X112499998Y-140778365D01*
X112500000Y-140778365D01*
X112500002Y-140778365D01*
X112555496Y-140773509D01*
X112721986Y-140758944D01*
X112937227Y-140701270D01*
X113139183Y-140607097D01*
X113321717Y-140479284D01*
X113479284Y-140321717D01*
X113607097Y-140139183D01*
X113701270Y-139937227D01*
X113758944Y-139721986D01*
X113778365Y-139500000D01*
X113758944Y-139278014D01*
X113701270Y-139062773D01*
X113607097Y-138860818D01*
X113479284Y-138678283D01*
X113321717Y-138520716D01*
X113321715Y-138520714D01*
X113321710Y-138520710D01*
X113139189Y-138392907D01*
X113139186Y-138392905D01*
X113139183Y-138392903D01*
X113073729Y-138362381D01*
X113021290Y-138316210D01*
X113002138Y-138249017D01*
X113022353Y-138182136D01*
X113073730Y-138137618D01*
X113078017Y-138135619D01*
X113139183Y-138107097D01*
X113321717Y-137979284D01*
X113479284Y-137821717D01*
X113607097Y-137639183D01*
X113701270Y-137437227D01*
X113758944Y-137221986D01*
X113778365Y-137000000D01*
X113758944Y-136778014D01*
X113701270Y-136562773D01*
X113607097Y-136360818D01*
X113479284Y-136178283D01*
X113321717Y-136020716D01*
X113321715Y-136020714D01*
X113321710Y-136020710D01*
X113139189Y-135892907D01*
X113139186Y-135892905D01*
X113139183Y-135892903D01*
X113073729Y-135862381D01*
X113021290Y-135816210D01*
X113002138Y-135749017D01*
X113022353Y-135682136D01*
X113073730Y-135637618D01*
X113097195Y-135626676D01*
X113139183Y-135607097D01*
X113314996Y-135483990D01*
X113321710Y-135479289D01*
X113321710Y-135479288D01*
X113321717Y-135479284D01*
X113479284Y-135321717D01*
X113480337Y-135320214D01*
X113509376Y-135278741D01*
X113607097Y-135139183D01*
X113701270Y-134937227D01*
X113758944Y-134721986D01*
X113778365Y-134500000D01*
X113758944Y-134278014D01*
X113701270Y-134062773D01*
X113607097Y-133860818D01*
X113479284Y-133678283D01*
X113321717Y-133520716D01*
X113321715Y-133520714D01*
X113321710Y-133520710D01*
X113139189Y-133392907D01*
X113139186Y-133392905D01*
X113139183Y-133392903D01*
X113073729Y-133362381D01*
X113021290Y-133316210D01*
X113002138Y-133249017D01*
X113022353Y-133182136D01*
X113073730Y-133137618D01*
X113139183Y-133107097D01*
X113321717Y-132979284D01*
X113479284Y-132821717D01*
X113607097Y-132639183D01*
X113701270Y-132437227D01*
X113758944Y-132221986D01*
X113778365Y-132000000D01*
X113758944Y-131778014D01*
X113701270Y-131562773D01*
X113607097Y-131360818D01*
X113479284Y-131178283D01*
X113321717Y-131020716D01*
X113321715Y-131020714D01*
X113321710Y-131020710D01*
X113139189Y-130892907D01*
X113139186Y-130892905D01*
X113139183Y-130892903D01*
X113073729Y-130862381D01*
X113021290Y-130816210D01*
X113002138Y-130749017D01*
X113022353Y-130682136D01*
X113073730Y-130637618D01*
X113139183Y-130607097D01*
X113321717Y-130479284D01*
X113479284Y-130321717D01*
X113607097Y-130139183D01*
X113701270Y-129937227D01*
X113758944Y-129721986D01*
X113778365Y-129500000D01*
X113778365Y-129499998D01*
X114221635Y-129499998D01*
X114221635Y-129500001D01*
X114241055Y-129721980D01*
X114241057Y-129721990D01*
X114298727Y-129937219D01*
X114298732Y-129937233D01*
X114392901Y-130139179D01*
X114392907Y-130139189D01*
X114520710Y-130321710D01*
X114520719Y-130321720D01*
X114678279Y-130479280D01*
X114678289Y-130479289D01*
X114791504Y-130558563D01*
X114860817Y-130607097D01*
X114926270Y-130637618D01*
X114978709Y-130683790D01*
X114997861Y-130750984D01*
X114977645Y-130817865D01*
X114926270Y-130862382D01*
X114860818Y-130892903D01*
X114860811Y-130892907D01*
X114678282Y-131020716D01*
X114520716Y-131178282D01*
X114392907Y-131360811D01*
X114392903Y-131360817D01*
X114298731Y-131562771D01*
X114298727Y-131562780D01*
X114241057Y-131778009D01*
X114241055Y-131778019D01*
X114221635Y-131999998D01*
X114221635Y-132000001D01*
X114241055Y-132221980D01*
X114241057Y-132221990D01*
X114298727Y-132437219D01*
X114298732Y-132437233D01*
X114392901Y-132639179D01*
X114392907Y-132639189D01*
X114520710Y-132821710D01*
X114520719Y-132821720D01*
X114678279Y-132979280D01*
X114678289Y-132979289D01*
X114791504Y-133058563D01*
X114860817Y-133107097D01*
X114926270Y-133137618D01*
X114978709Y-133183790D01*
X114997861Y-133250984D01*
X114977645Y-133317865D01*
X114926270Y-133362382D01*
X114860818Y-133392903D01*
X114860811Y-133392907D01*
X114678282Y-133520716D01*
X114520716Y-133678282D01*
X114392907Y-133860811D01*
X114392903Y-133860817D01*
X114298731Y-134062771D01*
X114298727Y-134062780D01*
X114241057Y-134278009D01*
X114241055Y-134278019D01*
X114221635Y-134499998D01*
X114221635Y-134500001D01*
X114241055Y-134721980D01*
X114241057Y-134721990D01*
X114298727Y-134937219D01*
X114298732Y-134937233D01*
X114392901Y-135139179D01*
X114392907Y-135139189D01*
X114520710Y-135321710D01*
X114520719Y-135321720D01*
X114678279Y-135479280D01*
X114678289Y-135479289D01*
X114780673Y-135550979D01*
X114860817Y-135607097D01*
X114902796Y-135626672D01*
X114926270Y-135637618D01*
X114978709Y-135683790D01*
X114997861Y-135750984D01*
X114977645Y-135817865D01*
X114926270Y-135862382D01*
X114860818Y-135892903D01*
X114860811Y-135892907D01*
X114678282Y-136020716D01*
X114520716Y-136178282D01*
X114392907Y-136360811D01*
X114392903Y-136360817D01*
X114298731Y-136562771D01*
X114298727Y-136562780D01*
X114241057Y-136778009D01*
X114241055Y-136778019D01*
X114221635Y-136999998D01*
X114221635Y-137000000D01*
X114241055Y-137221980D01*
X114241057Y-137221990D01*
X114298727Y-137437219D01*
X114298732Y-137437233D01*
X114392901Y-137639179D01*
X114392907Y-137639189D01*
X114520710Y-137821710D01*
X114520719Y-137821720D01*
X114678279Y-137979280D01*
X114678289Y-137979289D01*
X114774726Y-138046815D01*
X114860817Y-138107097D01*
X114921983Y-138135619D01*
X114926270Y-138137618D01*
X114978709Y-138183790D01*
X114997861Y-138250984D01*
X114977645Y-138317865D01*
X114926270Y-138362382D01*
X114860818Y-138392903D01*
X114860811Y-138392907D01*
X114678282Y-138520716D01*
X114520716Y-138678282D01*
X114392907Y-138860811D01*
X114392903Y-138860817D01*
X114298731Y-139062771D01*
X114298727Y-139062780D01*
X114241057Y-139278009D01*
X114241055Y-139278019D01*
X114221635Y-139499998D01*
X114221635Y-139500001D01*
X114241055Y-139721980D01*
X114241057Y-139721990D01*
X114298727Y-139937219D01*
X114298732Y-139937233D01*
X114392901Y-140139179D01*
X114392907Y-140139189D01*
X114520710Y-140321710D01*
X114520719Y-140321720D01*
X114678279Y-140479280D01*
X114678289Y-140479289D01*
X114749388Y-140529073D01*
X114860817Y-140607097D01*
X114982318Y-140663753D01*
X115062766Y-140701267D01*
X115062768Y-140701267D01*
X115062773Y-140701270D01*
X115278014Y-140758944D01*
X115436575Y-140772816D01*
X115499998Y-140778365D01*
X115500000Y-140778365D01*
X115500002Y-140778365D01*
X115555496Y-140773509D01*
X115721986Y-140758944D01*
X115937227Y-140701270D01*
X116139183Y-140607097D01*
X116321717Y-140479284D01*
X116479284Y-140321717D01*
X116607097Y-140139183D01*
X116637618Y-140073729D01*
X116683790Y-140021290D01*
X116750983Y-140002138D01*
X116817864Y-140022353D01*
X116862382Y-140073730D01*
X116892901Y-140139179D01*
X116892907Y-140139189D01*
X117020710Y-140321710D01*
X117020719Y-140321720D01*
X117178279Y-140479280D01*
X117178289Y-140479289D01*
X117249388Y-140529073D01*
X117360817Y-140607097D01*
X117482318Y-140663753D01*
X117562766Y-140701267D01*
X117562768Y-140701267D01*
X117562773Y-140701270D01*
X117778014Y-140758944D01*
X117936575Y-140772816D01*
X117999998Y-140778365D01*
X118000000Y-140778365D01*
X118000002Y-140778365D01*
X118055496Y-140773509D01*
X118221986Y-140758944D01*
X118437227Y-140701270D01*
X118639183Y-140607097D01*
X118821717Y-140479284D01*
X118979284Y-140321717D01*
X119107097Y-140139183D01*
X119201270Y-139937227D01*
X119258944Y-139721986D01*
X119278365Y-139500000D01*
X119258944Y-139278014D01*
X119201270Y-139062773D01*
X119107097Y-138860818D01*
X118979284Y-138678283D01*
X118821717Y-138520716D01*
X118821715Y-138520714D01*
X118821710Y-138520710D01*
X118639189Y-138392907D01*
X118639186Y-138392905D01*
X118639183Y-138392903D01*
X118573729Y-138362381D01*
X118521290Y-138316210D01*
X118502138Y-138249017D01*
X118522353Y-138182136D01*
X118573730Y-138137618D01*
X118578017Y-138135619D01*
X118639183Y-138107097D01*
X118821717Y-137979284D01*
X118979284Y-137821717D01*
X119107097Y-137639183D01*
X119201270Y-137437227D01*
X119258944Y-137221986D01*
X119278365Y-137000000D01*
X119258944Y-136778014D01*
X119201270Y-136562773D01*
X119107097Y-136360818D01*
X118979284Y-136178283D01*
X118821717Y-136020716D01*
X118821715Y-136020714D01*
X118821710Y-136020710D01*
X118639189Y-135892907D01*
X118639186Y-135892905D01*
X118639183Y-135892903D01*
X118573729Y-135862381D01*
X118521290Y-135816210D01*
X118502138Y-135749017D01*
X118522353Y-135682136D01*
X118573730Y-135637618D01*
X118597195Y-135626676D01*
X118639183Y-135607097D01*
X118814996Y-135483990D01*
X118821710Y-135479289D01*
X118821710Y-135479288D01*
X118821717Y-135479284D01*
X118979284Y-135321717D01*
X118980337Y-135320214D01*
X119009376Y-135278741D01*
X119107097Y-135139183D01*
X119201270Y-134937227D01*
X119258944Y-134721986D01*
X119278365Y-134500000D01*
X119258944Y-134278014D01*
X119201270Y-134062773D01*
X119107097Y-133860818D01*
X118979284Y-133678283D01*
X118821717Y-133520716D01*
X118821715Y-133520714D01*
X118821710Y-133520710D01*
X118639189Y-133392907D01*
X118639186Y-133392905D01*
X118639183Y-133392903D01*
X118573729Y-133362381D01*
X118521290Y-133316210D01*
X118502138Y-133249017D01*
X118522353Y-133182136D01*
X118573730Y-133137618D01*
X118639183Y-133107097D01*
X118821717Y-132979284D01*
X118979284Y-132821717D01*
X119107097Y-132639183D01*
X119201270Y-132437227D01*
X119258944Y-132221986D01*
X119278365Y-132000000D01*
X119258944Y-131778014D01*
X119201270Y-131562773D01*
X119107097Y-131360818D01*
X118979284Y-131178283D01*
X118821717Y-131020716D01*
X118821715Y-131020714D01*
X118821710Y-131020710D01*
X118639189Y-130892907D01*
X118639186Y-130892905D01*
X118639183Y-130892903D01*
X118573729Y-130862381D01*
X118521290Y-130816210D01*
X118502138Y-130749017D01*
X118522353Y-130682136D01*
X118573730Y-130637618D01*
X118639183Y-130607097D01*
X118821717Y-130479284D01*
X118979284Y-130321717D01*
X119107097Y-130139183D01*
X119201270Y-129937227D01*
X119258944Y-129721986D01*
X119278365Y-129500000D01*
X119278365Y-129499998D01*
X119721635Y-129499998D01*
X119721635Y-129500001D01*
X119741055Y-129721980D01*
X119741057Y-129721990D01*
X119798727Y-129937219D01*
X119798732Y-129937233D01*
X119892901Y-130139179D01*
X119892907Y-130139189D01*
X120020710Y-130321710D01*
X120020719Y-130321720D01*
X120178279Y-130479280D01*
X120178289Y-130479289D01*
X120291504Y-130558563D01*
X120360817Y-130607097D01*
X120426270Y-130637618D01*
X120478709Y-130683790D01*
X120497861Y-130750984D01*
X120477645Y-130817865D01*
X120426270Y-130862382D01*
X120360818Y-130892903D01*
X120360811Y-130892907D01*
X120178282Y-131020716D01*
X120020716Y-131178282D01*
X119892907Y-131360811D01*
X119892903Y-131360817D01*
X119798731Y-131562771D01*
X119798727Y-131562780D01*
X119741057Y-131778009D01*
X119741055Y-131778019D01*
X119721635Y-131999998D01*
X119721635Y-132000001D01*
X119741055Y-132221980D01*
X119741057Y-132221990D01*
X119798727Y-132437219D01*
X119798732Y-132437233D01*
X119892901Y-132639179D01*
X119892907Y-132639189D01*
X120020710Y-132821710D01*
X120020719Y-132821720D01*
X120178279Y-132979280D01*
X120178289Y-132979289D01*
X120291504Y-133058563D01*
X120360817Y-133107097D01*
X120426270Y-133137618D01*
X120478709Y-133183790D01*
X120497861Y-133250984D01*
X120477645Y-133317865D01*
X120426270Y-133362382D01*
X120360818Y-133392903D01*
X120360811Y-133392907D01*
X120178282Y-133520716D01*
X120020716Y-133678282D01*
X119892907Y-133860811D01*
X119892903Y-133860817D01*
X119798731Y-134062771D01*
X119798727Y-134062780D01*
X119741057Y-134278009D01*
X119741055Y-134278019D01*
X119721635Y-134499998D01*
X119721635Y-134500001D01*
X119741055Y-134721980D01*
X119741057Y-134721990D01*
X119798727Y-134937219D01*
X119798732Y-134937233D01*
X119892901Y-135139179D01*
X119892907Y-135139189D01*
X120020710Y-135321710D01*
X120020719Y-135321720D01*
X120178279Y-135479280D01*
X120178289Y-135479289D01*
X120280673Y-135550979D01*
X120360817Y-135607097D01*
X120402796Y-135626672D01*
X120426270Y-135637618D01*
X120478709Y-135683790D01*
X120497861Y-135750984D01*
X120477645Y-135817865D01*
X120426270Y-135862382D01*
X120360818Y-135892903D01*
X120360811Y-135892907D01*
X120178282Y-136020716D01*
X120020716Y-136178282D01*
X119892907Y-136360811D01*
X119892903Y-136360817D01*
X119798731Y-136562771D01*
X119798727Y-136562780D01*
X119741057Y-136778009D01*
X119741055Y-136778019D01*
X119721635Y-136999998D01*
X119721635Y-137000000D01*
X119741055Y-137221980D01*
X119741057Y-137221990D01*
X119798727Y-137437219D01*
X119798732Y-137437233D01*
X119892901Y-137639179D01*
X119892907Y-137639189D01*
X120020710Y-137821710D01*
X120020719Y-137821720D01*
X120178279Y-137979280D01*
X120178289Y-137979289D01*
X120274726Y-138046815D01*
X120360817Y-138107097D01*
X120421983Y-138135619D01*
X120426270Y-138137618D01*
X120478709Y-138183790D01*
X120497861Y-138250984D01*
X120477645Y-138317865D01*
X120426270Y-138362382D01*
X120360818Y-138392903D01*
X120360811Y-138392907D01*
X120178282Y-138520716D01*
X120020716Y-138678282D01*
X119892907Y-138860811D01*
X119892903Y-138860817D01*
X119798731Y-139062771D01*
X119798727Y-139062780D01*
X119741057Y-139278009D01*
X119741055Y-139278019D01*
X119721635Y-139499998D01*
X119721635Y-139500001D01*
X119741055Y-139721980D01*
X119741057Y-139721990D01*
X119798727Y-139937219D01*
X119798732Y-139937233D01*
X119892901Y-140139179D01*
X119892907Y-140139189D01*
X120020710Y-140321710D01*
X120020719Y-140321720D01*
X120178279Y-140479280D01*
X120178289Y-140479289D01*
X120249388Y-140529073D01*
X120360817Y-140607097D01*
X120482318Y-140663753D01*
X120562766Y-140701267D01*
X120562768Y-140701267D01*
X120562773Y-140701270D01*
X120778014Y-140758944D01*
X120936575Y-140772816D01*
X120999998Y-140778365D01*
X121000000Y-140778365D01*
X121000002Y-140778365D01*
X121055496Y-140773509D01*
X121221986Y-140758944D01*
X121437227Y-140701270D01*
X121639183Y-140607097D01*
X121821717Y-140479284D01*
X121979284Y-140321717D01*
X122107097Y-140139183D01*
X122137618Y-140073729D01*
X122183790Y-140021290D01*
X122250983Y-140002138D01*
X122317864Y-140022353D01*
X122362382Y-140073730D01*
X122392901Y-140139179D01*
X122392907Y-140139189D01*
X122520710Y-140321710D01*
X122520719Y-140321720D01*
X122678279Y-140479280D01*
X122678289Y-140479289D01*
X122749388Y-140529073D01*
X122860817Y-140607097D01*
X122982318Y-140663753D01*
X123062766Y-140701267D01*
X123062768Y-140701267D01*
X123062773Y-140701270D01*
X123278014Y-140758944D01*
X123436575Y-140772816D01*
X123499998Y-140778365D01*
X123500000Y-140778365D01*
X123500002Y-140778365D01*
X123555496Y-140773509D01*
X123721986Y-140758944D01*
X123937227Y-140701270D01*
X124139183Y-140607097D01*
X124321717Y-140479284D01*
X124479284Y-140321717D01*
X124607097Y-140139183D01*
X124701270Y-139937227D01*
X124758944Y-139721986D01*
X124778365Y-139500000D01*
X124758944Y-139278014D01*
X124701270Y-139062773D01*
X124607097Y-138860818D01*
X124479284Y-138678283D01*
X124321717Y-138520716D01*
X124321715Y-138520714D01*
X124321710Y-138520710D01*
X124139189Y-138392907D01*
X124139186Y-138392905D01*
X124139183Y-138392903D01*
X124073729Y-138362381D01*
X124021290Y-138316210D01*
X124002138Y-138249017D01*
X124022353Y-138182136D01*
X124073730Y-138137618D01*
X124078017Y-138135619D01*
X124139183Y-138107097D01*
X124321717Y-137979284D01*
X124479284Y-137821717D01*
X124607097Y-137639183D01*
X124701270Y-137437227D01*
X124758944Y-137221986D01*
X124778365Y-137000000D01*
X124758944Y-136778014D01*
X124701270Y-136562773D01*
X124607097Y-136360818D01*
X124479284Y-136178283D01*
X124321717Y-136020716D01*
X124321715Y-136020714D01*
X124321710Y-136020710D01*
X124139189Y-135892907D01*
X124139186Y-135892905D01*
X124139183Y-135892903D01*
X124073729Y-135862381D01*
X124021290Y-135816210D01*
X124002138Y-135749017D01*
X124022353Y-135682136D01*
X124073730Y-135637618D01*
X124097195Y-135626676D01*
X124139183Y-135607097D01*
X124314996Y-135483990D01*
X124321710Y-135479289D01*
X124321710Y-135479288D01*
X124321717Y-135479284D01*
X124479284Y-135321717D01*
X124480337Y-135320214D01*
X124509376Y-135278741D01*
X124607097Y-135139183D01*
X124701270Y-134937227D01*
X124758944Y-134721986D01*
X124778365Y-134500000D01*
X124758944Y-134278014D01*
X124701270Y-134062773D01*
X124607097Y-133860818D01*
X124479284Y-133678283D01*
X124321717Y-133520716D01*
X124321715Y-133520714D01*
X124321710Y-133520710D01*
X124139189Y-133392907D01*
X124139186Y-133392905D01*
X124139183Y-133392903D01*
X124073729Y-133362381D01*
X124021290Y-133316210D01*
X124002138Y-133249017D01*
X124022353Y-133182136D01*
X124073730Y-133137618D01*
X124139183Y-133107097D01*
X124321717Y-132979284D01*
X124479284Y-132821717D01*
X124607097Y-132639183D01*
X124701270Y-132437227D01*
X124758944Y-132221986D01*
X124778365Y-132000000D01*
X124758944Y-131778014D01*
X124701270Y-131562773D01*
X124607097Y-131360818D01*
X124479284Y-131178283D01*
X124321717Y-131020716D01*
X124321715Y-131020714D01*
X124321710Y-131020710D01*
X124139189Y-130892907D01*
X124139186Y-130892905D01*
X124139183Y-130892903D01*
X124073729Y-130862381D01*
X124021290Y-130816210D01*
X124002138Y-130749017D01*
X124022353Y-130682136D01*
X124073730Y-130637618D01*
X124139183Y-130607097D01*
X124321717Y-130479284D01*
X124479284Y-130321717D01*
X124607097Y-130139183D01*
X124701270Y-129937227D01*
X124758944Y-129721986D01*
X124778365Y-129500000D01*
X124778365Y-129499998D01*
X125221635Y-129499998D01*
X125221635Y-129500001D01*
X125241055Y-129721980D01*
X125241057Y-129721990D01*
X125298727Y-129937219D01*
X125298732Y-129937233D01*
X125392901Y-130139179D01*
X125392907Y-130139189D01*
X125520710Y-130321710D01*
X125520719Y-130321720D01*
X125678279Y-130479280D01*
X125678289Y-130479289D01*
X125791504Y-130558563D01*
X125860817Y-130607097D01*
X125926270Y-130637618D01*
X125978709Y-130683790D01*
X125997861Y-130750984D01*
X125977645Y-130817865D01*
X125926270Y-130862382D01*
X125860818Y-130892903D01*
X125860811Y-130892907D01*
X125678282Y-131020716D01*
X125520716Y-131178282D01*
X125392907Y-131360811D01*
X125392903Y-131360817D01*
X125298731Y-131562771D01*
X125298727Y-131562780D01*
X125241057Y-131778009D01*
X125241055Y-131778019D01*
X125221635Y-131999998D01*
X125221635Y-132000001D01*
X125241055Y-132221980D01*
X125241057Y-132221990D01*
X125298727Y-132437219D01*
X125298732Y-132437233D01*
X125392901Y-132639179D01*
X125392907Y-132639189D01*
X125520710Y-132821710D01*
X125520719Y-132821720D01*
X125678279Y-132979280D01*
X125678289Y-132979289D01*
X125791504Y-133058563D01*
X125860817Y-133107097D01*
X125926270Y-133137618D01*
X125978709Y-133183790D01*
X125997861Y-133250984D01*
X125977645Y-133317865D01*
X125926270Y-133362382D01*
X125860818Y-133392903D01*
X125860811Y-133392907D01*
X125678282Y-133520716D01*
X125520716Y-133678282D01*
X125392907Y-133860811D01*
X125392903Y-133860817D01*
X125298731Y-134062771D01*
X125298727Y-134062780D01*
X125241057Y-134278009D01*
X125241055Y-134278019D01*
X125221635Y-134499998D01*
X125221635Y-134500001D01*
X125241055Y-134721980D01*
X125241057Y-134721990D01*
X125298727Y-134937219D01*
X125298732Y-134937233D01*
X125392901Y-135139179D01*
X125392907Y-135139189D01*
X125520710Y-135321710D01*
X125520719Y-135321720D01*
X125678279Y-135479280D01*
X125678289Y-135479289D01*
X125780673Y-135550979D01*
X125860817Y-135607097D01*
X125902796Y-135626672D01*
X125926270Y-135637618D01*
X125978709Y-135683790D01*
X125997861Y-135750984D01*
X125977645Y-135817865D01*
X125926270Y-135862382D01*
X125860818Y-135892903D01*
X125860811Y-135892907D01*
X125678282Y-136020716D01*
X125520716Y-136178282D01*
X125392907Y-136360811D01*
X125392903Y-136360817D01*
X125298731Y-136562771D01*
X125298727Y-136562780D01*
X125241057Y-136778009D01*
X125241055Y-136778019D01*
X125221635Y-136999998D01*
X125221635Y-137000000D01*
X125241055Y-137221980D01*
X125241057Y-137221990D01*
X125298727Y-137437219D01*
X125298732Y-137437233D01*
X125392901Y-137639179D01*
X125392907Y-137639189D01*
X125520710Y-137821710D01*
X125520719Y-137821720D01*
X125678279Y-137979280D01*
X125678289Y-137979289D01*
X125774726Y-138046815D01*
X125860817Y-138107097D01*
X125921983Y-138135619D01*
X125926270Y-138137618D01*
X125978709Y-138183790D01*
X125997861Y-138250984D01*
X125977645Y-138317865D01*
X125926270Y-138362382D01*
X125860818Y-138392903D01*
X125860811Y-138392907D01*
X125678282Y-138520716D01*
X125520716Y-138678282D01*
X125392907Y-138860811D01*
X125392903Y-138860817D01*
X125298731Y-139062771D01*
X125298727Y-139062780D01*
X125241057Y-139278009D01*
X125241055Y-139278019D01*
X125221635Y-139499998D01*
X125221635Y-139500001D01*
X125241055Y-139721980D01*
X125241057Y-139721990D01*
X125298727Y-139937219D01*
X125298732Y-139937233D01*
X125392901Y-140139179D01*
X125392907Y-140139189D01*
X125520710Y-140321710D01*
X125520719Y-140321720D01*
X125678279Y-140479280D01*
X125678289Y-140479289D01*
X125749388Y-140529073D01*
X125860817Y-140607097D01*
X125982318Y-140663753D01*
X126062766Y-140701267D01*
X126062768Y-140701267D01*
X126062773Y-140701270D01*
X126278014Y-140758944D01*
X126436575Y-140772816D01*
X126499998Y-140778365D01*
X126500000Y-140778365D01*
X126500002Y-140778365D01*
X126555496Y-140773509D01*
X126721986Y-140758944D01*
X126937227Y-140701270D01*
X127139183Y-140607097D01*
X127321717Y-140479284D01*
X127479284Y-140321717D01*
X127607097Y-140139183D01*
X127701270Y-139937227D01*
X127758944Y-139721986D01*
X127778365Y-139500000D01*
X127758944Y-139278014D01*
X127701270Y-139062773D01*
X127607097Y-138860818D01*
X127479284Y-138678283D01*
X127321717Y-138520716D01*
X127321715Y-138520714D01*
X127321710Y-138520710D01*
X127139189Y-138392907D01*
X127139186Y-138392905D01*
X127139183Y-138392903D01*
X127073729Y-138362381D01*
X127021290Y-138316210D01*
X127002138Y-138249017D01*
X127022353Y-138182136D01*
X127073730Y-138137618D01*
X127078017Y-138135619D01*
X127139183Y-138107097D01*
X127321717Y-137979284D01*
X127479284Y-137821717D01*
X127607097Y-137639183D01*
X127672000Y-137499998D01*
X161277500Y-137499998D01*
X161277500Y-137500001D01*
X161297329Y-137796226D01*
X161297331Y-137796236D01*
X161356467Y-138087176D01*
X161413348Y-138250984D01*
X161453856Y-138367640D01*
X161587757Y-138632623D01*
X161755783Y-138877394D01*
X161755785Y-138877396D01*
X161755789Y-138877402D01*
X161755792Y-138877404D01*
X161954935Y-139097586D01*
X162181658Y-139289268D01*
X162431907Y-139449021D01*
X162701216Y-139573994D01*
X162984780Y-139661956D01*
X163277537Y-139711338D01*
X163574265Y-139721259D01*
X163869667Y-139691541D01*
X164158472Y-139622715D01*
X164158475Y-139622713D01*
X164158479Y-139622713D01*
X164297000Y-139569362D01*
X164435528Y-139516010D01*
X164695888Y-139373328D01*
X164934908Y-139197217D01*
X165148322Y-138990819D01*
X165332321Y-138757817D01*
X165483623Y-138502370D01*
X165599527Y-138229035D01*
X165677965Y-137942691D01*
X165717537Y-137648447D01*
X165717537Y-137351553D01*
X165677965Y-137057309D01*
X165599527Y-136770965D01*
X165483623Y-136497630D01*
X165402585Y-136360811D01*
X165332321Y-136242182D01*
X165148321Y-136009180D01*
X165140811Y-136001917D01*
X164934908Y-135802783D01*
X164809974Y-135710731D01*
X164695894Y-135626676D01*
X164695891Y-135626674D01*
X164695888Y-135626672D01*
X164435528Y-135483990D01*
X164435523Y-135483988D01*
X164435521Y-135483987D01*
X164158479Y-135377286D01*
X164158474Y-135377285D01*
X163869667Y-135308459D01*
X163869664Y-135308458D01*
X163574269Y-135278741D01*
X163574265Y-135278741D01*
X163277537Y-135288662D01*
X162984779Y-135338044D01*
X162899861Y-135364386D01*
X162701216Y-135426006D01*
X162701209Y-135426009D01*
X162701207Y-135426010D01*
X162431911Y-135550976D01*
X162181658Y-135710731D01*
X162181656Y-135710733D01*
X161954933Y-135902415D01*
X161755792Y-136122595D01*
X161755789Y-136122597D01*
X161587755Y-136367380D01*
X161538170Y-136465507D01*
X161453856Y-136632360D01*
X161453854Y-136632363D01*
X161453854Y-136632365D01*
X161356467Y-136912823D01*
X161297331Y-137203763D01*
X161297329Y-137203773D01*
X161277500Y-137499998D01*
X127672000Y-137499998D01*
X127701270Y-137437227D01*
X127758944Y-137221986D01*
X127778365Y-137000000D01*
X127758944Y-136778014D01*
X127701270Y-136562773D01*
X127607097Y-136360818D01*
X127479284Y-136178283D01*
X127321717Y-136020716D01*
X127321715Y-136020714D01*
X127321710Y-136020710D01*
X127139189Y-135892907D01*
X127139186Y-135892905D01*
X127139183Y-135892903D01*
X127073729Y-135862381D01*
X127021290Y-135816210D01*
X127002138Y-135749017D01*
X127022353Y-135682136D01*
X127073730Y-135637618D01*
X127097195Y-135626676D01*
X127139183Y-135607097D01*
X127314996Y-135483990D01*
X127321710Y-135479289D01*
X127321710Y-135479288D01*
X127321717Y-135479284D01*
X127479284Y-135321717D01*
X127480337Y-135320214D01*
X127509376Y-135278741D01*
X127607097Y-135139183D01*
X127701270Y-134937227D01*
X127758944Y-134721986D01*
X127778365Y-134500000D01*
X127767754Y-134378711D01*
X130149500Y-134378711D01*
X130149500Y-134621288D01*
X130181161Y-134861785D01*
X130243947Y-135096104D01*
X130336773Y-135320205D01*
X130336777Y-135320214D01*
X130347071Y-135338044D01*
X130458064Y-135530289D01*
X130458066Y-135530292D01*
X130458067Y-135530293D01*
X130605733Y-135722736D01*
X130605739Y-135722743D01*
X130777256Y-135894260D01*
X130777263Y-135894266D01*
X130838738Y-135941437D01*
X130969711Y-136041936D01*
X131179788Y-136163224D01*
X131403900Y-136256054D01*
X131638211Y-136318838D01*
X131818586Y-136342584D01*
X131878711Y-136350500D01*
X131878712Y-136350500D01*
X132121289Y-136350500D01*
X132169388Y-136344167D01*
X132361789Y-136318838D01*
X132596100Y-136256054D01*
X132820212Y-136163224D01*
X133030289Y-136041936D01*
X133222738Y-135894265D01*
X133394265Y-135722738D01*
X133541936Y-135530289D01*
X133663224Y-135320212D01*
X133756054Y-135096100D01*
X133818838Y-134861789D01*
X133850500Y-134621288D01*
X133850500Y-134378712D01*
X133818838Y-134138211D01*
X133756054Y-133903900D01*
X133663224Y-133679788D01*
X133541936Y-133469711D01*
X133394265Y-133277262D01*
X133394260Y-133277256D01*
X133222743Y-133105739D01*
X133222736Y-133105733D01*
X133030293Y-132958067D01*
X133030292Y-132958066D01*
X133030289Y-132958064D01*
X132820212Y-132836776D01*
X132783864Y-132821720D01*
X132596104Y-132743947D01*
X132478944Y-132712554D01*
X132361789Y-132681162D01*
X132361788Y-132681161D01*
X132361785Y-132681161D01*
X132121289Y-132649500D01*
X132121288Y-132649500D01*
X131878712Y-132649500D01*
X131878711Y-132649500D01*
X131638214Y-132681161D01*
X131403895Y-132743947D01*
X131179794Y-132836773D01*
X131179785Y-132836777D01*
X130969706Y-132958067D01*
X130777263Y-133105733D01*
X130777256Y-133105739D01*
X130605739Y-133277256D01*
X130605733Y-133277263D01*
X130458067Y-133469706D01*
X130336777Y-133679785D01*
X130336773Y-133679794D01*
X130243947Y-133903895D01*
X130181161Y-134138214D01*
X130149500Y-134378711D01*
X127767754Y-134378711D01*
X127758944Y-134278014D01*
X127701270Y-134062773D01*
X127607097Y-133860818D01*
X127479284Y-133678283D01*
X127321717Y-133520716D01*
X127321715Y-133520714D01*
X127321710Y-133520710D01*
X127139189Y-133392907D01*
X127139186Y-133392905D01*
X127139183Y-133392903D01*
X127073729Y-133362381D01*
X127021290Y-133316210D01*
X127002138Y-133249017D01*
X127022353Y-133182136D01*
X127073730Y-133137618D01*
X127139183Y-133107097D01*
X127321717Y-132979284D01*
X127479284Y-132821717D01*
X127607097Y-132639183D01*
X127701270Y-132437227D01*
X127758944Y-132221986D01*
X127778365Y-132000000D01*
X127758944Y-131778014D01*
X127701270Y-131562773D01*
X127607097Y-131360818D01*
X127479284Y-131178283D01*
X127321717Y-131020716D01*
X127321715Y-131020714D01*
X127321710Y-131020710D01*
X127139189Y-130892907D01*
X127139186Y-130892905D01*
X127139183Y-130892903D01*
X127073729Y-130862381D01*
X127021290Y-130816210D01*
X127002138Y-130749017D01*
X127022353Y-130682136D01*
X127073730Y-130637618D01*
X127139183Y-130607097D01*
X127321717Y-130479284D01*
X127479284Y-130321717D01*
X127607097Y-130139183D01*
X127701270Y-129937227D01*
X127758944Y-129721986D01*
X127778365Y-129500000D01*
X127758944Y-129278014D01*
X127701270Y-129062773D01*
X127607097Y-128860818D01*
X127479284Y-128678283D01*
X127321717Y-128520716D01*
X127321715Y-128520714D01*
X127321710Y-128520710D01*
X127139189Y-128392907D01*
X127139186Y-128392905D01*
X127139183Y-128392903D01*
X127139179Y-128392901D01*
X126937233Y-128298732D01*
X126937219Y-128298727D01*
X126721990Y-128241057D01*
X126721988Y-128241056D01*
X126721986Y-128241056D01*
X126721984Y-128241055D01*
X126721980Y-128241055D01*
X126500002Y-128221635D01*
X126499998Y-128221635D01*
X126278019Y-128241055D01*
X126278009Y-128241057D01*
X126062780Y-128298727D01*
X126062771Y-128298731D01*
X125860817Y-128392903D01*
X125860811Y-128392907D01*
X125678282Y-128520716D01*
X125520716Y-128678282D01*
X125392907Y-128860811D01*
X125392903Y-128860817D01*
X125298731Y-129062771D01*
X125298727Y-129062780D01*
X125241057Y-129278009D01*
X125241055Y-129278019D01*
X125221635Y-129499998D01*
X124778365Y-129499998D01*
X124758944Y-129278014D01*
X124701270Y-129062773D01*
X124607097Y-128860818D01*
X124479284Y-128678283D01*
X124321717Y-128520716D01*
X124321715Y-128520714D01*
X124321710Y-128520710D01*
X124139189Y-128392907D01*
X124139186Y-128392905D01*
X124139183Y-128392903D01*
X124139179Y-128392901D01*
X123937233Y-128298732D01*
X123937219Y-128298727D01*
X123721990Y-128241057D01*
X123721988Y-128241056D01*
X123721986Y-128241056D01*
X123721984Y-128241055D01*
X123721980Y-128241055D01*
X123500002Y-128221635D01*
X123499998Y-128221635D01*
X123278019Y-128241055D01*
X123278009Y-128241057D01*
X123062780Y-128298727D01*
X123062771Y-128298731D01*
X122860817Y-128392903D01*
X122860811Y-128392907D01*
X122678282Y-128520716D01*
X122520716Y-128678282D01*
X122392907Y-128860811D01*
X122392903Y-128860817D01*
X122362382Y-128926271D01*
X122316210Y-128978710D01*
X122249016Y-128997862D01*
X122182135Y-128977646D01*
X122137618Y-128926271D01*
X122107097Y-128860818D01*
X121979284Y-128678283D01*
X121821717Y-128520716D01*
X121821715Y-128520714D01*
X121821710Y-128520710D01*
X121639189Y-128392907D01*
X121639186Y-128392905D01*
X121639183Y-128392903D01*
X121639179Y-128392901D01*
X121437233Y-128298732D01*
X121437219Y-128298727D01*
X121221990Y-128241057D01*
X121221988Y-128241056D01*
X121221986Y-128241056D01*
X121221984Y-128241055D01*
X121221980Y-128241055D01*
X121000002Y-128221635D01*
X120999998Y-128221635D01*
X120778019Y-128241055D01*
X120778009Y-128241057D01*
X120562780Y-128298727D01*
X120562771Y-128298731D01*
X120360817Y-128392903D01*
X120360811Y-128392907D01*
X120178282Y-128520716D01*
X120020716Y-128678282D01*
X119892907Y-128860811D01*
X119892903Y-128860817D01*
X119798731Y-129062771D01*
X119798727Y-129062780D01*
X119741057Y-129278009D01*
X119741055Y-129278019D01*
X119721635Y-129499998D01*
X119278365Y-129499998D01*
X119258944Y-129278014D01*
X119201270Y-129062773D01*
X119107097Y-128860818D01*
X118979284Y-128678283D01*
X118821717Y-128520716D01*
X118821715Y-128520714D01*
X118821710Y-128520710D01*
X118639189Y-128392907D01*
X118639186Y-128392905D01*
X118639183Y-128392903D01*
X118639179Y-128392901D01*
X118437233Y-128298732D01*
X118437219Y-128298727D01*
X118221990Y-128241057D01*
X118221988Y-128241056D01*
X118221986Y-128241056D01*
X118221984Y-128241055D01*
X118221980Y-128241055D01*
X118000002Y-128221635D01*
X117999998Y-128221635D01*
X117778019Y-128241055D01*
X117778009Y-128241057D01*
X117562780Y-128298727D01*
X117562771Y-128298731D01*
X117360817Y-128392903D01*
X117360811Y-128392907D01*
X117178282Y-128520716D01*
X117020716Y-128678282D01*
X116892907Y-128860811D01*
X116892903Y-128860817D01*
X116862382Y-128926271D01*
X116816210Y-128978710D01*
X116749016Y-128997862D01*
X116682135Y-128977646D01*
X116637618Y-128926271D01*
X116607097Y-128860818D01*
X116479284Y-128678283D01*
X116321717Y-128520716D01*
X116321715Y-128520714D01*
X116321710Y-128520710D01*
X116139189Y-128392907D01*
X116139186Y-128392905D01*
X116139183Y-128392903D01*
X116139179Y-128392901D01*
X115937233Y-128298732D01*
X115937219Y-128298727D01*
X115721990Y-128241057D01*
X115721988Y-128241056D01*
X115721986Y-128241056D01*
X115721984Y-128241055D01*
X115721980Y-128241055D01*
X115500002Y-128221635D01*
X115499998Y-128221635D01*
X115278019Y-128241055D01*
X115278009Y-128241057D01*
X115062780Y-128298727D01*
X115062771Y-128298731D01*
X114860817Y-128392903D01*
X114860811Y-128392907D01*
X114678282Y-128520716D01*
X114520716Y-128678282D01*
X114392907Y-128860811D01*
X114392903Y-128860817D01*
X114298731Y-129062771D01*
X114298727Y-129062780D01*
X114241057Y-129278009D01*
X114241055Y-129278019D01*
X114221635Y-129499998D01*
X113778365Y-129499998D01*
X113758944Y-129278014D01*
X113701270Y-129062773D01*
X113607097Y-128860818D01*
X113479284Y-128678283D01*
X113321717Y-128520716D01*
X113321715Y-128520714D01*
X113321710Y-128520710D01*
X113139189Y-128392907D01*
X113139186Y-128392905D01*
X113139183Y-128392903D01*
X113139179Y-128392901D01*
X112937233Y-128298732D01*
X112937219Y-128298727D01*
X112721990Y-128241057D01*
X112721988Y-128241056D01*
X112721986Y-128241056D01*
X112721984Y-128241055D01*
X112721980Y-128241055D01*
X112500002Y-128221635D01*
X112499998Y-128221635D01*
X112278019Y-128241055D01*
X112278009Y-128241057D01*
X112062780Y-128298727D01*
X112062771Y-128298731D01*
X111860817Y-128392903D01*
X111860811Y-128392907D01*
X111678282Y-128520716D01*
X111520716Y-128678282D01*
X111392907Y-128860811D01*
X111392903Y-128860817D01*
X111362382Y-128926271D01*
X111316210Y-128978710D01*
X111249016Y-128997862D01*
X111182135Y-128977646D01*
X111137618Y-128926271D01*
X111107097Y-128860818D01*
X110979284Y-128678283D01*
X110821717Y-128520716D01*
X110821715Y-128520714D01*
X110821710Y-128520710D01*
X110639189Y-128392907D01*
X110639186Y-128392905D01*
X110639183Y-128392903D01*
X110639179Y-128392901D01*
X110437233Y-128298732D01*
X110437219Y-128298727D01*
X110221990Y-128241057D01*
X110221988Y-128241056D01*
X110221986Y-128241056D01*
X110221984Y-128241055D01*
X110221980Y-128241055D01*
X110000002Y-128221635D01*
X109999998Y-128221635D01*
X109778019Y-128241055D01*
X109778009Y-128241057D01*
X109562780Y-128298727D01*
X109562771Y-128298731D01*
X109360817Y-128392903D01*
X109360811Y-128392907D01*
X109178282Y-128520716D01*
X109169881Y-128529118D01*
X109108558Y-128562603D01*
X109038866Y-128557619D01*
X108982933Y-128515747D01*
X108958516Y-128450283D01*
X108958200Y-128441437D01*
X108958200Y-122909856D01*
X108977885Y-122842817D01*
X108994519Y-122822175D01*
X113132175Y-118684519D01*
X113193498Y-118651034D01*
X113219856Y-118648200D01*
X117863845Y-118648200D01*
X117948092Y-118631441D01*
X117989073Y-118623290D01*
X118107038Y-118574427D01*
X118213204Y-118503490D01*
X118735823Y-117980869D01*
X118797144Y-117947386D01*
X118843912Y-117946244D01*
X118857431Y-117948500D01*
X118857433Y-117948500D01*
X119082569Y-117948500D01*
X119304635Y-117911444D01*
X119517574Y-117838342D01*
X119715576Y-117731189D01*
X119893240Y-117592906D01*
X120019534Y-117455716D01*
X120045715Y-117427276D01*
X120045715Y-117427275D01*
X120045722Y-117427268D01*
X120136193Y-117288790D01*
X120189338Y-117243437D01*
X120258569Y-117234013D01*
X120321905Y-117263515D01*
X120343804Y-117288787D01*
X120434278Y-117427268D01*
X120434283Y-117427273D01*
X120434284Y-117427276D01*
X120586756Y-117592902D01*
X120586760Y-117592906D01*
X120764424Y-117731189D01*
X120764425Y-117731189D01*
X120764427Y-117731191D01*
X120855214Y-117780322D01*
X120962426Y-117838342D01*
X121175365Y-117911444D01*
X121397431Y-117948500D01*
X121622569Y-117948500D01*
X121844635Y-117911444D01*
X122057574Y-117838342D01*
X122255576Y-117731189D01*
X122433240Y-117592906D01*
X122559534Y-117455716D01*
X122585715Y-117427276D01*
X122585717Y-117427273D01*
X122585722Y-117427268D01*
X122708860Y-117238791D01*
X122799296Y-117032616D01*
X122854564Y-116814368D01*
X122854565Y-116814359D01*
X122873156Y-116590005D01*
X122873156Y-116589994D01*
X122854565Y-116365640D01*
X122854563Y-116365628D01*
X122805556Y-116172104D01*
X122799296Y-116147384D01*
X122708860Y-115941209D01*
X122696253Y-115921913D01*
X122585723Y-115752734D01*
X122585715Y-115752723D01*
X122433243Y-115587097D01*
X122433238Y-115587092D01*
X122255577Y-115448812D01*
X122255572Y-115448808D01*
X122057580Y-115341661D01*
X122057577Y-115341659D01*
X122057574Y-115341658D01*
X122057571Y-115341657D01*
X122057569Y-115341656D01*
X121844637Y-115268556D01*
X121622569Y-115231500D01*
X121397431Y-115231500D01*
X121175362Y-115268556D01*
X120962430Y-115341656D01*
X120962419Y-115341661D01*
X120764427Y-115448808D01*
X120764422Y-115448812D01*
X120586761Y-115587092D01*
X120586756Y-115587097D01*
X120434284Y-115752723D01*
X120434276Y-115752734D01*
X120343808Y-115891206D01*
X120290662Y-115936562D01*
X120221431Y-115945986D01*
X120158095Y-115916484D01*
X120136192Y-115891206D01*
X120045723Y-115752734D01*
X120045715Y-115752723D01*
X119893243Y-115587097D01*
X119893238Y-115587092D01*
X119715577Y-115448812D01*
X119715572Y-115448808D01*
X119517580Y-115341661D01*
X119517577Y-115341659D01*
X119517574Y-115341658D01*
X119517571Y-115341657D01*
X119517569Y-115341656D01*
X119304637Y-115268556D01*
X119082569Y-115231500D01*
X118857431Y-115231500D01*
X118635362Y-115268556D01*
X118422430Y-115341656D01*
X118422419Y-115341661D01*
X118224427Y-115448808D01*
X118224422Y-115448812D01*
X118046761Y-115587092D01*
X118046756Y-115587097D01*
X117894284Y-115752723D01*
X117894276Y-115752734D01*
X117803808Y-115891206D01*
X117750662Y-115936562D01*
X117681431Y-115945986D01*
X117618095Y-115916484D01*
X117596192Y-115891206D01*
X117505723Y-115752734D01*
X117505715Y-115752723D01*
X117353243Y-115587097D01*
X117353238Y-115587092D01*
X117175577Y-115448812D01*
X117175572Y-115448808D01*
X116977580Y-115341661D01*
X116977577Y-115341659D01*
X116977574Y-115341658D01*
X116977571Y-115341657D01*
X116977569Y-115341656D01*
X116764637Y-115268556D01*
X116542569Y-115231500D01*
X116317431Y-115231500D01*
X116137910Y-115261456D01*
X116068545Y-115253074D01*
X116014723Y-115208521D01*
X115993533Y-115141942D01*
X115993501Y-115139147D01*
X115993501Y-114359509D01*
X116013186Y-114292470D01*
X116065990Y-114246715D01*
X116128264Y-114235977D01*
X116132914Y-114236382D01*
X116196467Y-114241919D01*
X124564502Y-114217993D01*
X124606904Y-114217166D01*
X124833765Y-114188460D01*
X124884921Y-114177255D01*
X125055315Y-114127279D01*
X125261742Y-114028904D01*
X125261743Y-114028902D01*
X125266769Y-114026508D01*
X125267590Y-114028232D01*
X125327045Y-114013118D01*
X125393318Y-114035247D01*
X125437106Y-114089692D01*
X125446500Y-114137035D01*
X125446500Y-115262446D01*
X125426815Y-115329485D01*
X125396813Y-115361711D01*
X125376740Y-115376737D01*
X125289111Y-115493795D01*
X125238011Y-115630795D01*
X125238011Y-115630797D01*
X125231500Y-115691345D01*
X125231500Y-117488654D01*
X125238011Y-117549202D01*
X125238011Y-117549204D01*
X125288215Y-117683802D01*
X125289111Y-117686204D01*
X125376739Y-117803261D01*
X125493796Y-117890889D01*
X125630799Y-117941989D01*
X125657625Y-117944873D01*
X125691345Y-117948499D01*
X125691362Y-117948500D01*
X127488638Y-117948500D01*
X127488654Y-117948499D01*
X127515692Y-117945591D01*
X127549201Y-117941989D01*
X127686204Y-117890889D01*
X127803261Y-117803261D01*
X127890889Y-117686204D01*
X127940767Y-117552477D01*
X127941988Y-117549204D01*
X127941988Y-117549203D01*
X127941989Y-117549201D01*
X127945591Y-117515692D01*
X127948499Y-117488654D01*
X127948500Y-117488637D01*
X127948500Y-115691362D01*
X127948499Y-115691345D01*
X127945157Y-115660270D01*
X127941989Y-115630799D01*
X127941337Y-115629051D01*
X127919522Y-115570564D01*
X127890889Y-115493796D01*
X127803261Y-115376739D01*
X127803259Y-115376738D01*
X127803259Y-115376737D01*
X127783187Y-115361711D01*
X127741317Y-115305777D01*
X127733500Y-115262446D01*
X127733500Y-114120801D01*
X127753185Y-114053762D01*
X127805989Y-114008007D01*
X127875147Y-113998063D01*
X127922521Y-114015217D01*
X127983937Y-114053041D01*
X128173938Y-114127279D01*
X128196929Y-114136262D01*
X128216433Y-114141928D01*
X128264022Y-114155753D01*
X128395695Y-114186541D01*
X128623502Y-114206388D01*
X135577690Y-114186503D01*
X135644784Y-114205995D01*
X135690690Y-114258668D01*
X135700831Y-114327798D01*
X135671988Y-114391436D01*
X135662697Y-114401109D01*
X135661690Y-114402049D01*
X135469471Y-114607864D01*
X135469471Y-114607865D01*
X135469468Y-114607867D01*
X135469467Y-114607870D01*
X135447979Y-114638312D01*
X135307068Y-114837936D01*
X135177507Y-115087978D01*
X135083204Y-115353320D01*
X135083203Y-115353323D01*
X135025907Y-115629051D01*
X135006690Y-115910000D01*
X135025907Y-116190948D01*
X135083203Y-116466676D01*
X135083204Y-116466679D01*
X135177507Y-116732021D01*
X135177506Y-116732021D01*
X135307068Y-116982063D01*
X135469467Y-117212130D01*
X135469471Y-117212134D01*
X135469471Y-117212135D01*
X135599910Y-117351800D01*
X135652118Y-117407702D01*
X135661684Y-117417944D01*
X135880123Y-117595657D01*
X135880126Y-117595659D01*
X135880130Y-117595662D01*
X136006359Y-117672423D01*
X136120744Y-117741983D01*
X136330382Y-117833041D01*
X136379040Y-117854176D01*
X136650207Y-117930154D01*
X136895481Y-117963866D01*
X136929194Y-117968500D01*
X136929195Y-117968500D01*
X137210806Y-117968500D01*
X137240883Y-117964365D01*
X137489793Y-117930154D01*
X137760960Y-117854176D01*
X138019257Y-117741982D01*
X138259870Y-117595662D01*
X138478319Y-117417941D01*
X138670533Y-117212130D01*
X138832932Y-116982063D01*
X138864902Y-116920362D01*
X138913222Y-116869896D01*
X138981156Y-116853564D01*
X139047136Y-116876553D01*
X139085097Y-116920362D01*
X139117068Y-116982063D01*
X139279467Y-117212130D01*
X139279471Y-117212134D01*
X139279471Y-117212135D01*
X139409910Y-117351800D01*
X139462118Y-117407702D01*
X139471684Y-117417944D01*
X139690123Y-117595657D01*
X139690126Y-117595659D01*
X139690130Y-117595662D01*
X139816359Y-117672423D01*
X139930744Y-117741983D01*
X140140382Y-117833041D01*
X140189040Y-117854176D01*
X140460207Y-117930154D01*
X140705481Y-117963866D01*
X140739194Y-117968500D01*
X140739195Y-117968500D01*
X141020806Y-117968500D01*
X141061045Y-117962969D01*
X141192702Y-117944873D01*
X141261796Y-117955245D01*
X141314315Y-118001327D01*
X141333584Y-118068487D01*
X141321968Y-118120122D01*
X141265718Y-118240750D01*
X141265714Y-118240761D01*
X141206457Y-118461910D01*
X141206456Y-118461918D01*
X141186502Y-118689998D01*
X141186502Y-118690001D01*
X141206456Y-118918081D01*
X141206457Y-118918089D01*
X141265714Y-119139238D01*
X141265718Y-119139249D01*
X141362475Y-119346745D01*
X141362477Y-119346749D01*
X141493802Y-119534300D01*
X141655700Y-119696198D01*
X141843251Y-119827523D01*
X141885552Y-119847248D01*
X142050750Y-119924281D01*
X142050752Y-119924281D01*
X142050757Y-119924284D01*
X142271913Y-119983543D01*
X142434832Y-119997796D01*
X142499998Y-120003498D01*
X142500000Y-120003498D01*
X142500002Y-120003498D01*
X142557021Y-119998509D01*
X142728087Y-119983543D01*
X142949243Y-119924284D01*
X143156749Y-119827523D01*
X143344300Y-119696198D01*
X143398819Y-119641679D01*
X143460142Y-119608194D01*
X143529834Y-119613178D01*
X143585767Y-119655050D01*
X143610184Y-119720514D01*
X143610500Y-119729360D01*
X143610500Y-121380195D01*
X143590815Y-121447234D01*
X143574181Y-121467876D01*
X142767876Y-122274181D01*
X142706553Y-122307666D01*
X142680195Y-122310500D01*
X141261630Y-122310500D01*
X141196534Y-122292038D01*
X141179920Y-122281791D01*
X141156954Y-122274181D01*
X141014382Y-122226938D01*
X140912214Y-122216500D01*
X140312794Y-122216500D01*
X140312778Y-122216501D01*
X140210617Y-122226938D01*
X140045082Y-122281790D01*
X140045071Y-122281795D01*
X139896657Y-122373339D01*
X139896653Y-122373342D01*
X139773342Y-122496653D01*
X139773339Y-122496657D01*
X139681795Y-122645071D01*
X139681790Y-122645082D01*
X139626938Y-122810617D01*
X139616500Y-122912779D01*
X139616500Y-123487205D01*
X139616501Y-123487221D01*
X139626938Y-123589382D01*
X139681790Y-123754917D01*
X139681795Y-123754928D01*
X139773339Y-123903342D01*
X139773342Y-123903346D01*
X139896653Y-124026657D01*
X139896657Y-124026660D01*
X140045071Y-124118204D01*
X140045074Y-124118205D01*
X140045080Y-124118209D01*
X140210619Y-124173062D01*
X140312787Y-124183500D01*
X140912212Y-124183499D01*
X141014381Y-124173062D01*
X141179920Y-124118209D01*
X141196534Y-124107961D01*
X141261630Y-124089500D01*
X143187609Y-124089500D01*
X143187610Y-124089499D01*
X143359458Y-124055317D01*
X143521336Y-123988265D01*
X143667023Y-123890920D01*
X145190920Y-122367023D01*
X145288265Y-122221336D01*
X145355317Y-122059458D01*
X145389500Y-121887608D01*
X145389500Y-121712392D01*
X145389500Y-119729360D01*
X145409185Y-119662321D01*
X145461989Y-119616566D01*
X145531147Y-119606622D01*
X145594703Y-119635647D01*
X145601181Y-119641679D01*
X145655700Y-119696198D01*
X145843251Y-119827523D01*
X145885552Y-119847248D01*
X146050750Y-119924281D01*
X146050752Y-119924281D01*
X146050757Y-119924284D01*
X146271913Y-119983543D01*
X146434832Y-119997796D01*
X146499998Y-120003498D01*
X146500000Y-120003498D01*
X146500002Y-120003498D01*
X146557021Y-119998509D01*
X146728087Y-119983543D01*
X146949243Y-119924284D01*
X147156749Y-119827523D01*
X147344300Y-119696198D01*
X147412319Y-119628179D01*
X147473642Y-119594694D01*
X147543334Y-119599678D01*
X147587681Y-119628179D01*
X147655700Y-119696198D01*
X147843251Y-119827523D01*
X147885552Y-119847248D01*
X148050750Y-119924281D01*
X148050752Y-119924281D01*
X148050757Y-119924284D01*
X148271913Y-119983543D01*
X148434832Y-119997796D01*
X148499998Y-120003498D01*
X148500000Y-120003498D01*
X148500002Y-120003498D01*
X148557021Y-119998509D01*
X148728087Y-119983543D01*
X148949243Y-119924284D01*
X149156749Y-119827523D01*
X149344300Y-119696198D01*
X149412319Y-119628179D01*
X149473642Y-119594694D01*
X149543334Y-119599678D01*
X149587681Y-119628179D01*
X149655700Y-119696198D01*
X149843251Y-119827523D01*
X149885552Y-119847248D01*
X150050750Y-119924281D01*
X150050752Y-119924281D01*
X150050757Y-119924284D01*
X150271913Y-119983543D01*
X150434832Y-119997796D01*
X150499998Y-120003498D01*
X150500000Y-120003498D01*
X150500002Y-120003498D01*
X150557021Y-119998509D01*
X150728087Y-119983543D01*
X150949243Y-119924284D01*
X151156749Y-119827523D01*
X151344300Y-119696198D01*
X151506198Y-119534300D01*
X151637523Y-119346749D01*
X151734284Y-119139243D01*
X151793543Y-118918087D01*
X151813498Y-118690000D01*
X151813018Y-118684519D01*
X151803387Y-118574427D01*
X151793543Y-118461913D01*
X151734284Y-118240757D01*
X151637523Y-118033251D01*
X151506198Y-117845700D01*
X151344300Y-117683802D01*
X151201074Y-117583514D01*
X151157451Y-117528939D01*
X151148200Y-117481941D01*
X151148200Y-116554255D01*
X151167885Y-116487216D01*
X151220689Y-116441461D01*
X151289847Y-116431517D01*
X151353403Y-116460542D01*
X151359881Y-116466574D01*
X153187271Y-118293964D01*
X153220756Y-118355287D01*
X153219365Y-118413737D01*
X153206459Y-118461904D01*
X153206456Y-118461918D01*
X153186502Y-118689998D01*
X153186502Y-118690001D01*
X153206456Y-118918081D01*
X153206457Y-118918089D01*
X153265714Y-119139238D01*
X153265718Y-119139249D01*
X153362475Y-119346745D01*
X153362477Y-119346749D01*
X153493802Y-119534300D01*
X153655700Y-119696198D01*
X153843251Y-119827523D01*
X153885552Y-119847248D01*
X154050750Y-119924281D01*
X154050752Y-119924281D01*
X154050757Y-119924284D01*
X154271913Y-119983543D01*
X154434832Y-119997796D01*
X154499998Y-120003498D01*
X154500000Y-120003498D01*
X154500002Y-120003498D01*
X154557021Y-119998509D01*
X154728087Y-119983543D01*
X154949243Y-119924284D01*
X155156749Y-119827523D01*
X155344300Y-119696198D01*
X155506198Y-119534300D01*
X155637523Y-119346749D01*
X155734284Y-119139243D01*
X155793543Y-118918087D01*
X155813498Y-118690000D01*
X155813018Y-118684519D01*
X155803387Y-118574427D01*
X155793543Y-118461913D01*
X155734284Y-118240757D01*
X155637523Y-118033251D01*
X155506198Y-117845700D01*
X155344300Y-117683802D01*
X155156749Y-117552477D01*
X155156745Y-117552475D01*
X154949249Y-117455718D01*
X154949238Y-117455714D01*
X154728089Y-117396457D01*
X154728081Y-117396456D01*
X154500002Y-117376502D01*
X154499998Y-117376502D01*
X154271918Y-117396456D01*
X154271904Y-117396459D01*
X154223737Y-117409365D01*
X154153888Y-117407702D01*
X154103964Y-117377271D01*
X151080301Y-114353608D01*
X151046816Y-114292285D01*
X151051800Y-114222593D01*
X151093672Y-114166660D01*
X151159136Y-114142243D01*
X151167610Y-114141928D01*
X159822835Y-114117182D01*
X168375145Y-114092731D01*
X168442241Y-114112223D01*
X168488147Y-114164896D01*
X168499500Y-114216730D01*
X168499500Y-141875500D01*
X168479815Y-141942539D01*
X168427011Y-141988294D01*
X168375500Y-141999500D01*
X78318704Y-141999500D01*
X78316782Y-141999485D01*
X72022078Y-141901892D01*
X71955351Y-141881171D01*
X71910421Y-141827664D01*
X71900000Y-141777907D01*
X71900000Y-140053220D01*
X71911617Y-140000817D01*
X71941270Y-139937227D01*
X71998944Y-139721986D01*
X72018365Y-139500000D01*
X71998944Y-139278014D01*
X71941270Y-139062773D01*
X71911618Y-138999183D01*
X71900000Y-138946779D01*
X71900000Y-137553220D01*
X71911617Y-137500817D01*
X71941270Y-137437227D01*
X71998944Y-137221986D01*
X72018365Y-137000000D01*
X71998944Y-136778014D01*
X71941270Y-136562773D01*
X71941267Y-136562766D01*
X71911618Y-136499183D01*
X71900000Y-136446779D01*
X71900000Y-135053220D01*
X71911617Y-135000817D01*
X71941270Y-134937227D01*
X71998944Y-134721986D01*
X72018365Y-134500000D01*
X71998944Y-134278014D01*
X71941270Y-134062773D01*
X71911618Y-133999183D01*
X71900000Y-133946779D01*
X71900000Y-132553220D01*
X71911617Y-132500817D01*
X71941270Y-132437227D01*
X71998944Y-132221986D01*
X72018365Y-132000000D01*
X71998944Y-131778014D01*
X71941270Y-131562773D01*
X71941267Y-131562766D01*
X71911618Y-131499183D01*
X71900000Y-131446779D01*
X71900000Y-130053220D01*
X71911617Y-130000817D01*
X71941270Y-129937227D01*
X71998944Y-129721986D01*
X72018365Y-129500000D01*
X72018365Y-129499998D01*
X72461635Y-129499998D01*
X72461635Y-129500001D01*
X72481055Y-129721980D01*
X72481057Y-129721990D01*
X72538727Y-129937219D01*
X72538732Y-129937233D01*
X72632901Y-130139179D01*
X72632907Y-130139189D01*
X72760710Y-130321710D01*
X72760719Y-130321720D01*
X72918279Y-130479280D01*
X72918289Y-130479289D01*
X73031504Y-130558563D01*
X73100817Y-130607097D01*
X73166270Y-130637618D01*
X73218709Y-130683790D01*
X73237861Y-130750984D01*
X73217645Y-130817865D01*
X73166270Y-130862382D01*
X73100818Y-130892903D01*
X73100811Y-130892907D01*
X72918282Y-131020716D01*
X72760716Y-131178282D01*
X72632907Y-131360811D01*
X72632903Y-131360817D01*
X72538731Y-131562771D01*
X72538727Y-131562780D01*
X72481057Y-131778009D01*
X72481055Y-131778019D01*
X72461635Y-131999998D01*
X72461635Y-132000001D01*
X72481055Y-132221980D01*
X72481057Y-132221990D01*
X72538727Y-132437219D01*
X72538732Y-132437233D01*
X72632901Y-132639179D01*
X72632907Y-132639189D01*
X72760710Y-132821710D01*
X72760719Y-132821720D01*
X72918279Y-132979280D01*
X72918289Y-132979289D01*
X73031504Y-133058563D01*
X73100817Y-133107097D01*
X73166270Y-133137618D01*
X73218709Y-133183790D01*
X73237861Y-133250984D01*
X73217645Y-133317865D01*
X73166270Y-133362382D01*
X73100818Y-133392903D01*
X73100811Y-133392907D01*
X72918282Y-133520716D01*
X72760716Y-133678282D01*
X72632907Y-133860811D01*
X72632903Y-133860817D01*
X72538731Y-134062771D01*
X72538727Y-134062780D01*
X72481057Y-134278009D01*
X72481055Y-134278019D01*
X72461635Y-134499998D01*
X72461635Y-134500001D01*
X72481055Y-134721980D01*
X72481057Y-134721990D01*
X72538727Y-134937219D01*
X72538732Y-134937233D01*
X72632901Y-135139179D01*
X72632907Y-135139189D01*
X72760710Y-135321710D01*
X72760719Y-135321720D01*
X72918279Y-135479280D01*
X72918289Y-135479289D01*
X73020673Y-135550979D01*
X73100817Y-135607097D01*
X73142796Y-135626672D01*
X73166270Y-135637618D01*
X73218709Y-135683790D01*
X73237861Y-135750984D01*
X73217645Y-135817865D01*
X73166270Y-135862382D01*
X73100818Y-135892903D01*
X73100811Y-135892907D01*
X72918282Y-136020716D01*
X72760716Y-136178282D01*
X72632907Y-136360811D01*
X72632903Y-136360817D01*
X72538731Y-136562771D01*
X72538727Y-136562780D01*
X72481057Y-136778009D01*
X72481055Y-136778019D01*
X72461635Y-136999998D01*
X72461635Y-137000000D01*
X72481055Y-137221980D01*
X72481057Y-137221990D01*
X72538727Y-137437219D01*
X72538732Y-137437233D01*
X72632901Y-137639179D01*
X72632907Y-137639189D01*
X72760710Y-137821710D01*
X72760719Y-137821720D01*
X72918279Y-137979280D01*
X72918289Y-137979289D01*
X73014726Y-138046815D01*
X73100817Y-138107097D01*
X73161983Y-138135619D01*
X73166270Y-138137618D01*
X73218709Y-138183790D01*
X73237861Y-138250984D01*
X73217645Y-138317865D01*
X73166270Y-138362382D01*
X73100818Y-138392903D01*
X73100811Y-138392907D01*
X72918282Y-138520716D01*
X72760716Y-138678282D01*
X72632907Y-138860811D01*
X72632903Y-138860817D01*
X72538731Y-139062771D01*
X72538727Y-139062780D01*
X72481057Y-139278009D01*
X72481055Y-139278019D01*
X72461635Y-139499998D01*
X72461635Y-139500001D01*
X72481055Y-139721980D01*
X72481057Y-139721990D01*
X72538727Y-139937219D01*
X72538732Y-139937233D01*
X72632901Y-140139179D01*
X72632907Y-140139189D01*
X72760710Y-140321710D01*
X72760719Y-140321720D01*
X72918279Y-140479280D01*
X72918289Y-140479289D01*
X72989388Y-140529073D01*
X73100817Y-140607097D01*
X73222318Y-140663753D01*
X73302766Y-140701267D01*
X73302768Y-140701267D01*
X73302773Y-140701270D01*
X73518014Y-140758944D01*
X73676575Y-140772816D01*
X73739998Y-140778365D01*
X73740000Y-140778365D01*
X73740002Y-140778365D01*
X73795496Y-140773509D01*
X73961986Y-140758944D01*
X74177227Y-140701270D01*
X74379183Y-140607097D01*
X74561717Y-140479284D01*
X74719284Y-140321717D01*
X74847097Y-140139183D01*
X74877618Y-140073729D01*
X74923790Y-140021290D01*
X74990983Y-140002138D01*
X75057864Y-140022353D01*
X75102382Y-140073730D01*
X75132901Y-140139179D01*
X75132907Y-140139189D01*
X75260710Y-140321710D01*
X75260719Y-140321720D01*
X75418279Y-140479280D01*
X75418289Y-140479289D01*
X75489388Y-140529073D01*
X75600817Y-140607097D01*
X75722318Y-140663753D01*
X75802766Y-140701267D01*
X75802768Y-140701267D01*
X75802773Y-140701270D01*
X76018014Y-140758944D01*
X76176575Y-140772816D01*
X76239998Y-140778365D01*
X76240000Y-140778365D01*
X76240002Y-140778365D01*
X76295496Y-140773509D01*
X76461986Y-140758944D01*
X76677227Y-140701270D01*
X76879183Y-140607097D01*
X77061717Y-140479284D01*
X77219284Y-140321717D01*
X77347097Y-140139183D01*
X77441270Y-139937227D01*
X77498944Y-139721986D01*
X77518365Y-139500000D01*
X77498944Y-139278014D01*
X77441270Y-139062773D01*
X77347097Y-138860818D01*
X77219284Y-138678283D01*
X77061717Y-138520716D01*
X77061715Y-138520714D01*
X77061710Y-138520710D01*
X76879189Y-138392907D01*
X76879186Y-138392905D01*
X76879183Y-138392903D01*
X76813729Y-138362381D01*
X76761290Y-138316210D01*
X76742138Y-138249017D01*
X76762353Y-138182136D01*
X76813730Y-138137618D01*
X76818017Y-138135619D01*
X76879183Y-138107097D01*
X77061717Y-137979284D01*
X77219284Y-137821717D01*
X77347097Y-137639183D01*
X77441270Y-137437227D01*
X77498944Y-137221986D01*
X77518365Y-137000000D01*
X77498944Y-136778014D01*
X77441270Y-136562773D01*
X77347097Y-136360818D01*
X77219284Y-136178283D01*
X77061717Y-136020716D01*
X77061715Y-136020714D01*
X77061710Y-136020710D01*
X76879189Y-135892907D01*
X76879186Y-135892905D01*
X76879183Y-135892903D01*
X76813729Y-135862381D01*
X76761290Y-135816210D01*
X76742138Y-135749017D01*
X76762353Y-135682136D01*
X76813730Y-135637618D01*
X76837195Y-135626676D01*
X76879183Y-135607097D01*
X77054996Y-135483990D01*
X77061710Y-135479289D01*
X77061710Y-135479288D01*
X77061717Y-135479284D01*
X77219284Y-135321717D01*
X77220337Y-135320214D01*
X77249376Y-135278741D01*
X77347097Y-135139183D01*
X77441270Y-134937227D01*
X77498944Y-134721986D01*
X77518365Y-134500000D01*
X77498944Y-134278014D01*
X77441270Y-134062773D01*
X77347097Y-133860818D01*
X77219284Y-133678283D01*
X77061717Y-133520716D01*
X77061715Y-133520714D01*
X77061710Y-133520710D01*
X76879189Y-133392907D01*
X76879186Y-133392905D01*
X76879183Y-133392903D01*
X76813729Y-133362381D01*
X76761290Y-133316210D01*
X76742138Y-133249017D01*
X76762353Y-133182136D01*
X76813730Y-133137618D01*
X76879183Y-133107097D01*
X77061717Y-132979284D01*
X77219284Y-132821717D01*
X77347097Y-132639183D01*
X77441270Y-132437227D01*
X77498944Y-132221986D01*
X77518365Y-132000000D01*
X77498944Y-131778014D01*
X77441270Y-131562773D01*
X77347097Y-131360818D01*
X77219284Y-131178283D01*
X77061717Y-131020716D01*
X77061715Y-131020714D01*
X77061710Y-131020710D01*
X76879189Y-130892907D01*
X76879186Y-130892905D01*
X76879183Y-130892903D01*
X76813729Y-130862381D01*
X76761290Y-130816210D01*
X76742138Y-130749017D01*
X76762353Y-130682136D01*
X76813730Y-130637618D01*
X76879183Y-130607097D01*
X77061717Y-130479284D01*
X77219284Y-130321717D01*
X77347097Y-130139183D01*
X77441270Y-129937227D01*
X77498944Y-129721986D01*
X77518365Y-129500000D01*
X77518365Y-129499998D01*
X77961635Y-129499998D01*
X77961635Y-129500001D01*
X77981055Y-129721980D01*
X77981057Y-129721990D01*
X78038727Y-129937219D01*
X78038732Y-129937233D01*
X78132901Y-130139179D01*
X78132907Y-130139189D01*
X78260710Y-130321710D01*
X78260719Y-130321720D01*
X78418279Y-130479280D01*
X78418289Y-130479289D01*
X78531504Y-130558563D01*
X78600817Y-130607097D01*
X78666270Y-130637618D01*
X78718709Y-130683790D01*
X78737861Y-130750984D01*
X78717645Y-130817865D01*
X78666270Y-130862382D01*
X78600818Y-130892903D01*
X78600811Y-130892907D01*
X78418282Y-131020716D01*
X78260716Y-131178282D01*
X78132907Y-131360811D01*
X78132903Y-131360817D01*
X78038731Y-131562771D01*
X78038727Y-131562780D01*
X77981057Y-131778009D01*
X77981055Y-131778019D01*
X77961635Y-131999998D01*
X77961635Y-132000001D01*
X77981055Y-132221980D01*
X77981057Y-132221990D01*
X78038727Y-132437219D01*
X78038732Y-132437233D01*
X78132901Y-132639179D01*
X78132907Y-132639189D01*
X78260710Y-132821710D01*
X78260719Y-132821720D01*
X78418279Y-132979280D01*
X78418289Y-132979289D01*
X78531504Y-133058563D01*
X78600817Y-133107097D01*
X78666270Y-133137618D01*
X78718709Y-133183790D01*
X78737861Y-133250984D01*
X78717645Y-133317865D01*
X78666270Y-133362382D01*
X78600818Y-133392903D01*
X78600811Y-133392907D01*
X78418282Y-133520716D01*
X78260716Y-133678282D01*
X78132907Y-133860811D01*
X78132903Y-133860817D01*
X78038731Y-134062771D01*
X78038727Y-134062780D01*
X77981057Y-134278009D01*
X77981055Y-134278019D01*
X77961635Y-134499998D01*
X77961635Y-134500001D01*
X77981055Y-134721980D01*
X77981057Y-134721990D01*
X78038727Y-134937219D01*
X78038732Y-134937233D01*
X78132901Y-135139179D01*
X78132907Y-135139189D01*
X78260710Y-135321710D01*
X78260719Y-135321720D01*
X78418279Y-135479280D01*
X78418289Y-135479289D01*
X78520673Y-135550979D01*
X78600817Y-135607097D01*
X78642796Y-135626672D01*
X78666270Y-135637618D01*
X78718709Y-135683790D01*
X78737861Y-135750984D01*
X78717645Y-135817865D01*
X78666270Y-135862382D01*
X78600818Y-135892903D01*
X78600811Y-135892907D01*
X78418282Y-136020716D01*
X78260716Y-136178282D01*
X78132907Y-136360811D01*
X78132903Y-136360817D01*
X78038731Y-136562771D01*
X78038727Y-136562780D01*
X77981057Y-136778009D01*
X77981055Y-136778019D01*
X77961635Y-136999998D01*
X77961635Y-137000000D01*
X77981055Y-137221980D01*
X77981057Y-137221990D01*
X78038727Y-137437219D01*
X78038732Y-137437233D01*
X78132901Y-137639179D01*
X78132907Y-137639189D01*
X78260710Y-137821710D01*
X78260719Y-137821720D01*
X78418279Y-137979280D01*
X78418289Y-137979289D01*
X78514726Y-138046815D01*
X78600817Y-138107097D01*
X78661983Y-138135619D01*
X78666270Y-138137618D01*
X78718709Y-138183790D01*
X78737861Y-138250984D01*
X78717645Y-138317865D01*
X78666270Y-138362382D01*
X78600818Y-138392903D01*
X78600811Y-138392907D01*
X78418282Y-138520716D01*
X78260716Y-138678282D01*
X78132907Y-138860811D01*
X78132903Y-138860817D01*
X78038731Y-139062771D01*
X78038727Y-139062780D01*
X77981057Y-139278009D01*
X77981055Y-139278019D01*
X77961635Y-139499998D01*
X77961635Y-139500001D01*
X77981055Y-139721980D01*
X77981057Y-139721990D01*
X78038727Y-139937219D01*
X78038732Y-139937233D01*
X78132901Y-140139179D01*
X78132907Y-140139189D01*
X78260710Y-140321710D01*
X78260719Y-140321720D01*
X78418279Y-140479280D01*
X78418289Y-140479289D01*
X78489388Y-140529073D01*
X78600817Y-140607097D01*
X78722318Y-140663753D01*
X78802766Y-140701267D01*
X78802768Y-140701267D01*
X78802773Y-140701270D01*
X79018014Y-140758944D01*
X79176575Y-140772816D01*
X79239998Y-140778365D01*
X79240000Y-140778365D01*
X79240002Y-140778365D01*
X79295496Y-140773509D01*
X79461986Y-140758944D01*
X79677227Y-140701270D01*
X79879183Y-140607097D01*
X80061717Y-140479284D01*
X80219284Y-140321717D01*
X80347097Y-140139183D01*
X80441270Y-139937227D01*
X80498944Y-139721986D01*
X80518365Y-139500000D01*
X80498944Y-139278014D01*
X80441270Y-139062773D01*
X80347097Y-138860818D01*
X80219284Y-138678283D01*
X80061717Y-138520716D01*
X80061715Y-138520714D01*
X80061710Y-138520710D01*
X79879189Y-138392907D01*
X79879186Y-138392905D01*
X79879183Y-138392903D01*
X79813729Y-138362381D01*
X79761290Y-138316210D01*
X79742138Y-138249017D01*
X79762353Y-138182136D01*
X79813730Y-138137618D01*
X79818017Y-138135619D01*
X79879183Y-138107097D01*
X80061717Y-137979284D01*
X80219284Y-137821717D01*
X80347097Y-137639183D01*
X80441270Y-137437227D01*
X80498944Y-137221986D01*
X80518365Y-137000000D01*
X80498944Y-136778014D01*
X80441270Y-136562773D01*
X80347097Y-136360818D01*
X80219284Y-136178283D01*
X80061717Y-136020716D01*
X80061715Y-136020714D01*
X80061710Y-136020710D01*
X79879189Y-135892907D01*
X79879186Y-135892905D01*
X79879183Y-135892903D01*
X79813729Y-135862381D01*
X79761290Y-135816210D01*
X79742138Y-135749017D01*
X79762353Y-135682136D01*
X79813730Y-135637618D01*
X79837195Y-135626676D01*
X79879183Y-135607097D01*
X80054996Y-135483990D01*
X80061710Y-135479289D01*
X80061710Y-135479288D01*
X80061717Y-135479284D01*
X80219284Y-135321717D01*
X80220337Y-135320214D01*
X80249376Y-135278741D01*
X80347097Y-135139183D01*
X80441270Y-134937227D01*
X80498944Y-134721986D01*
X80518365Y-134500000D01*
X80498944Y-134278014D01*
X80441270Y-134062773D01*
X80347097Y-133860818D01*
X80219284Y-133678283D01*
X80061717Y-133520716D01*
X80061715Y-133520714D01*
X80061710Y-133520710D01*
X79879189Y-133392907D01*
X79879186Y-133392905D01*
X79879183Y-133392903D01*
X79813729Y-133362381D01*
X79761290Y-133316210D01*
X79742138Y-133249017D01*
X79762353Y-133182136D01*
X79813730Y-133137618D01*
X79879183Y-133107097D01*
X80061717Y-132979284D01*
X80219284Y-132821717D01*
X80347097Y-132639183D01*
X80441270Y-132437227D01*
X80498944Y-132221986D01*
X80518365Y-132000000D01*
X80498944Y-131778014D01*
X80441270Y-131562773D01*
X80347097Y-131360818D01*
X80219284Y-131178283D01*
X80061717Y-131020716D01*
X80061715Y-131020714D01*
X80061710Y-131020710D01*
X79879189Y-130892907D01*
X79879186Y-130892905D01*
X79879183Y-130892903D01*
X79813729Y-130862381D01*
X79761290Y-130816210D01*
X79742138Y-130749017D01*
X79762353Y-130682136D01*
X79813730Y-130637618D01*
X79879183Y-130607097D01*
X80061717Y-130479284D01*
X80219284Y-130321717D01*
X80347097Y-130139183D01*
X80441270Y-129937227D01*
X80498944Y-129721986D01*
X80518365Y-129500000D01*
X80498944Y-129278014D01*
X80441270Y-129062773D01*
X80347097Y-128860818D01*
X80219284Y-128678283D01*
X80061717Y-128520716D01*
X80061715Y-128520714D01*
X80061710Y-128520710D01*
X79879189Y-128392907D01*
X79879186Y-128392905D01*
X79879183Y-128392903D01*
X79879179Y-128392901D01*
X79677233Y-128298732D01*
X79677219Y-128298727D01*
X79461990Y-128241057D01*
X79461988Y-128241056D01*
X79461986Y-128241056D01*
X79461984Y-128241055D01*
X79461980Y-128241055D01*
X79240002Y-128221635D01*
X79239998Y-128221635D01*
X79018019Y-128241055D01*
X79018009Y-128241057D01*
X78802780Y-128298727D01*
X78802771Y-128298731D01*
X78600817Y-128392903D01*
X78600811Y-128392907D01*
X78418282Y-128520716D01*
X78260716Y-128678282D01*
X78132907Y-128860811D01*
X78132903Y-128860817D01*
X78038731Y-129062771D01*
X78038727Y-129062780D01*
X77981057Y-129278009D01*
X77981055Y-129278019D01*
X77961635Y-129499998D01*
X77518365Y-129499998D01*
X77498944Y-129278014D01*
X77441270Y-129062773D01*
X77347097Y-128860818D01*
X77219284Y-128678283D01*
X77061717Y-128520716D01*
X77061715Y-128520714D01*
X77061710Y-128520710D01*
X76879189Y-128392907D01*
X76879186Y-128392905D01*
X76879183Y-128392903D01*
X76879179Y-128392901D01*
X76677233Y-128298732D01*
X76677219Y-128298727D01*
X76461990Y-128241057D01*
X76461988Y-128241056D01*
X76461986Y-128241056D01*
X76461984Y-128241055D01*
X76461980Y-128241055D01*
X76240002Y-128221635D01*
X76239998Y-128221635D01*
X76018019Y-128241055D01*
X76018009Y-128241057D01*
X75802780Y-128298727D01*
X75802771Y-128298731D01*
X75600817Y-128392903D01*
X75600811Y-128392907D01*
X75418282Y-128520716D01*
X75260716Y-128678282D01*
X75132907Y-128860811D01*
X75132903Y-128860817D01*
X75102382Y-128926271D01*
X75056210Y-128978710D01*
X74989016Y-128997862D01*
X74922135Y-128977646D01*
X74877618Y-128926271D01*
X74847097Y-128860818D01*
X74719284Y-128678283D01*
X74561717Y-128520716D01*
X74561715Y-128520714D01*
X74561710Y-128520710D01*
X74379189Y-128392907D01*
X74379186Y-128392905D01*
X74379183Y-128392903D01*
X74379179Y-128392901D01*
X74177233Y-128298732D01*
X74177219Y-128298727D01*
X73961990Y-128241057D01*
X73961988Y-128241056D01*
X73961986Y-128241056D01*
X73961984Y-128241055D01*
X73961980Y-128241055D01*
X73740002Y-128221635D01*
X73739998Y-128221635D01*
X73518019Y-128241055D01*
X73518009Y-128241057D01*
X73302780Y-128298727D01*
X73302771Y-128298731D01*
X73100817Y-128392903D01*
X73100811Y-128392907D01*
X72918282Y-128520716D01*
X72760716Y-128678282D01*
X72632907Y-128860811D01*
X72632903Y-128860817D01*
X72538731Y-129062771D01*
X72538727Y-129062780D01*
X72481057Y-129278009D01*
X72481055Y-129278019D01*
X72461635Y-129499998D01*
X72018365Y-129499998D01*
X71998944Y-129278014D01*
X71941270Y-129062773D01*
X71911618Y-128999183D01*
X71900000Y-128946779D01*
X71900000Y-127841405D01*
X71916612Y-127779406D01*
X71966392Y-127693186D01*
X72000500Y-127565892D01*
X72000500Y-123499998D01*
X74277500Y-123499998D01*
X74277500Y-123500001D01*
X74297329Y-123796226D01*
X74297331Y-123796236D01*
X74356467Y-124087176D01*
X74389915Y-124183500D01*
X74453856Y-124367640D01*
X74587757Y-124632623D01*
X74755783Y-124877394D01*
X74755785Y-124877396D01*
X74755789Y-124877402D01*
X74755792Y-124877404D01*
X74954935Y-125097586D01*
X75181658Y-125289268D01*
X75431907Y-125449021D01*
X75701216Y-125573994D01*
X75984780Y-125661956D01*
X76277537Y-125711338D01*
X76574265Y-125721259D01*
X76869667Y-125691541D01*
X77158472Y-125622715D01*
X77158475Y-125622713D01*
X77158479Y-125622713D01*
X77297000Y-125569362D01*
X77435528Y-125516010D01*
X77695888Y-125373328D01*
X77934908Y-125197217D01*
X78148322Y-124990819D01*
X78332321Y-124757817D01*
X78483623Y-124502370D01*
X78599527Y-124229035D01*
X78677965Y-123942691D01*
X78717537Y-123648447D01*
X78717537Y-123351553D01*
X78677965Y-123057309D01*
X78599527Y-122770965D01*
X78483623Y-122497630D01*
X78406264Y-122367022D01*
X78332321Y-122242182D01*
X78148321Y-122009180D01*
X78140811Y-122001917D01*
X77934908Y-121802783D01*
X77809974Y-121710731D01*
X77695894Y-121626676D01*
X77695891Y-121626674D01*
X77695888Y-121626672D01*
X77435528Y-121483990D01*
X77435523Y-121483988D01*
X77435521Y-121483987D01*
X77158479Y-121377286D01*
X77158474Y-121377285D01*
X76869667Y-121308459D01*
X76869664Y-121308458D01*
X76574269Y-121278741D01*
X76574265Y-121278741D01*
X76277537Y-121288662D01*
X75984779Y-121338044D01*
X75858278Y-121377285D01*
X75701216Y-121426006D01*
X75701209Y-121426009D01*
X75701207Y-121426010D01*
X75431911Y-121550976D01*
X75181658Y-121710731D01*
X75181656Y-121710733D01*
X74954933Y-121902415D01*
X74755792Y-122122595D01*
X74755789Y-122122597D01*
X74587755Y-122367380D01*
X74548407Y-122445249D01*
X74453856Y-122632360D01*
X74453854Y-122632363D01*
X74453854Y-122632365D01*
X74356467Y-122912823D01*
X74297331Y-123203763D01*
X74297329Y-123203773D01*
X74277500Y-123499998D01*
X72000500Y-123499998D01*
X72000500Y-102500000D01*
X74996654Y-102500000D01*
X75016017Y-102795424D01*
X75016018Y-102795436D01*
X75073774Y-103085789D01*
X75073779Y-103085809D01*
X75168937Y-103366137D01*
X75168941Y-103366147D01*
X75299879Y-103631663D01*
X75299888Y-103631678D01*
X75464368Y-103877839D01*
X75659572Y-104100427D01*
X75833393Y-104252864D01*
X75882162Y-104295633D01*
X76128327Y-104460115D01*
X76128330Y-104460116D01*
X76128336Y-104460120D01*
X76393852Y-104591058D01*
X76393862Y-104591062D01*
X76674190Y-104686220D01*
X76674194Y-104686221D01*
X76674203Y-104686224D01*
X76870493Y-104725269D01*
X76964563Y-104743981D01*
X76964564Y-104743981D01*
X76964574Y-104743983D01*
X77260000Y-104763346D01*
X77555426Y-104743983D01*
X77845797Y-104686224D01*
X77845809Y-104686220D01*
X78126137Y-104591062D01*
X78126147Y-104591058D01*
X78391663Y-104460120D01*
X78391663Y-104460119D01*
X78391673Y-104460115D01*
X78637838Y-104295633D01*
X78860427Y-104100427D01*
X79055633Y-103877838D01*
X79220115Y-103631673D01*
X79351059Y-103366145D01*
X79446224Y-103085797D01*
X79503983Y-102795426D01*
X79523346Y-102500000D01*
X82616654Y-102500000D01*
X82636017Y-102795424D01*
X82636018Y-102795436D01*
X82693774Y-103085789D01*
X82693779Y-103085809D01*
X82788937Y-103366137D01*
X82788941Y-103366147D01*
X82919879Y-103631663D01*
X82919888Y-103631678D01*
X83084368Y-103877839D01*
X83279572Y-104100427D01*
X83453393Y-104252864D01*
X83502162Y-104295633D01*
X83748327Y-104460115D01*
X83748330Y-104460116D01*
X83748336Y-104460120D01*
X84013852Y-104591058D01*
X84013862Y-104591062D01*
X84294190Y-104686220D01*
X84294194Y-104686221D01*
X84294203Y-104686224D01*
X84490493Y-104725269D01*
X84584563Y-104743981D01*
X84584564Y-104743981D01*
X84584574Y-104743983D01*
X84880000Y-104763346D01*
X85175426Y-104743983D01*
X85465797Y-104686224D01*
X85465809Y-104686220D01*
X85746137Y-104591062D01*
X85746147Y-104591058D01*
X86011663Y-104460120D01*
X86011663Y-104460119D01*
X86011673Y-104460115D01*
X86257838Y-104295633D01*
X86480427Y-104100427D01*
X86675633Y-103877838D01*
X86840115Y-103631673D01*
X86971059Y-103366145D01*
X87066224Y-103085797D01*
X87123983Y-102795426D01*
X87143346Y-102500000D01*
X87123983Y-102204574D01*
X87066224Y-101914203D01*
X87066220Y-101914190D01*
X86971062Y-101633862D01*
X86971058Y-101633852D01*
X86840120Y-101368336D01*
X86840111Y-101368321D01*
X86837894Y-101365003D01*
X86675633Y-101122162D01*
X86632864Y-101073393D01*
X86480427Y-100899572D01*
X86257839Y-100704368D01*
X86011678Y-100539888D01*
X86011663Y-100539879D01*
X85746147Y-100408941D01*
X85746137Y-100408937D01*
X85465809Y-100313779D01*
X85465789Y-100313774D01*
X85175436Y-100256018D01*
X85175427Y-100256017D01*
X85175426Y-100256017D01*
X84880000Y-100236654D01*
X84584574Y-100256017D01*
X84584573Y-100256017D01*
X84584563Y-100256018D01*
X84294210Y-100313774D01*
X84294190Y-100313779D01*
X84013862Y-100408937D01*
X84013852Y-100408941D01*
X83748336Y-100539879D01*
X83748321Y-100539888D01*
X83502160Y-100704368D01*
X83279572Y-100899572D01*
X83084368Y-101122160D01*
X82919888Y-101368321D01*
X82919879Y-101368336D01*
X82788941Y-101633852D01*
X82788937Y-101633862D01*
X82693779Y-101914190D01*
X82693774Y-101914210D01*
X82636018Y-102204563D01*
X82636017Y-102204575D01*
X82616654Y-102500000D01*
X79523346Y-102500000D01*
X79503983Y-102204574D01*
X79446224Y-101914203D01*
X79446220Y-101914190D01*
X79351062Y-101633862D01*
X79351058Y-101633852D01*
X79220120Y-101368336D01*
X79220111Y-101368321D01*
X79217894Y-101365003D01*
X79055633Y-101122162D01*
X79012864Y-101073393D01*
X78860427Y-100899572D01*
X78637839Y-100704368D01*
X78391678Y-100539888D01*
X78391663Y-100539879D01*
X78126147Y-100408941D01*
X78126137Y-100408937D01*
X77845809Y-100313779D01*
X77845789Y-100313774D01*
X77555436Y-100256018D01*
X77555427Y-100256017D01*
X77555426Y-100256017D01*
X77260000Y-100236654D01*
X76964574Y-100256017D01*
X76964573Y-100256017D01*
X76964563Y-100256018D01*
X76674210Y-100313774D01*
X76674190Y-100313779D01*
X76393862Y-100408937D01*
X76393852Y-100408941D01*
X76128336Y-100539879D01*
X76128321Y-100539888D01*
X75882160Y-100704368D01*
X75659572Y-100899572D01*
X75464368Y-101122160D01*
X75299888Y-101368321D01*
X75299879Y-101368336D01*
X75168941Y-101633852D01*
X75168937Y-101633862D01*
X75073779Y-101914190D01*
X75073774Y-101914210D01*
X75016018Y-102204563D01*
X75016017Y-102204575D01*
X74996654Y-102500000D01*
X72000500Y-102500000D01*
X72000500Y-88624932D01*
X72020185Y-88557893D01*
X72072989Y-88512138D01*
X72125011Y-88500933D01*
X95601019Y-88598344D01*
G37*
%TD.AperFunction*%
%TD*%
%TA.AperFunction,Conductor*%
%TO.N,48V*%
G36*
X168442539Y-44020185D02*
G01*
X168488294Y-44072989D01*
X168499500Y-44124500D01*
X168499500Y-112693224D01*
X168479815Y-112760263D01*
X168427011Y-112806018D01*
X168375855Y-112817223D01*
X150723735Y-112867693D01*
X150656639Y-112848201D01*
X150635699Y-112831375D01*
X133246519Y-95442195D01*
X133213034Y-95380872D01*
X133210200Y-95354514D01*
X133210200Y-80359010D01*
X133194481Y-80259770D01*
X133185050Y-80200223D01*
X133175477Y-80139777D01*
X133106884Y-79928671D01*
X133106882Y-79928668D01*
X133106882Y-79928666D01*
X133052729Y-79822385D01*
X133006112Y-79730894D01*
X133006110Y-79730891D01*
X133006109Y-79730889D01*
X132988264Y-79706328D01*
X132988263Y-79706327D01*
X132875647Y-79551323D01*
X132875643Y-79551319D01*
X132875641Y-79551316D01*
X132718684Y-79394359D01*
X132718683Y-79394358D01*
X132715572Y-79391247D01*
X132715557Y-79391233D01*
X129239981Y-75915657D01*
X129239972Y-75915647D01*
X129196929Y-75872604D01*
X129078684Y-75754359D01*
X128899106Y-75623888D01*
X128701329Y-75523116D01*
X128490223Y-75454523D01*
X128490221Y-75454522D01*
X128490220Y-75454522D01*
X128321806Y-75427848D01*
X128270985Y-75419799D01*
X128049015Y-75419799D01*
X128043904Y-75419799D01*
X128043880Y-75419800D01*
X116341121Y-75419800D01*
X116341097Y-75419799D01*
X116335986Y-75419799D01*
X116114015Y-75419799D01*
X116063193Y-75427848D01*
X115894780Y-75454522D01*
X115683668Y-75523117D01*
X115485893Y-75623888D01*
X115306313Y-75754361D01*
X115149356Y-75911319D01*
X114052495Y-77008181D01*
X113991172Y-77041666D01*
X113964814Y-77044500D01*
X113744953Y-77044500D01*
X113457563Y-77084001D01*
X113457557Y-77084002D01*
X113178226Y-77162267D01*
X112912153Y-77277838D01*
X112664295Y-77428564D01*
X112439271Y-77611634D01*
X112241262Y-77823650D01*
X112073970Y-78060647D01*
X111940508Y-78318217D01*
X111843364Y-78591553D01*
X111843359Y-78591569D01*
X111784342Y-78875581D01*
X111784341Y-78875583D01*
X111764545Y-79165000D01*
X111784341Y-79454416D01*
X111784342Y-79454418D01*
X111843359Y-79738430D01*
X111843364Y-79738446D01*
X111940508Y-80011782D01*
X111940509Y-80011784D01*
X112073970Y-80269352D01*
X112241261Y-80506349D01*
X112439264Y-80718359D01*
X112664292Y-80901433D01*
X112664294Y-80901434D01*
X112664295Y-80901435D01*
X112912153Y-81052161D01*
X113078631Y-81124472D01*
X113178228Y-81167733D01*
X113457563Y-81245999D01*
X113710225Y-81280726D01*
X113744953Y-81285500D01*
X113744954Y-81285500D01*
X114035047Y-81285500D01*
X114066030Y-81281241D01*
X114322437Y-81245999D01*
X114601772Y-81167733D01*
X114846398Y-81061476D01*
X114915730Y-81052823D01*
X114978734Y-81083027D01*
X115015407Y-81142498D01*
X115019800Y-81175211D01*
X115019800Y-86892819D01*
X115019799Y-86892834D01*
X115019799Y-86897235D01*
X115019799Y-87119205D01*
X115054523Y-87338443D01*
X115123116Y-87549549D01*
X115223888Y-87747326D01*
X115354359Y-87926904D01*
X115511316Y-88083861D01*
X115515646Y-88088191D01*
X115515657Y-88088201D01*
X140114054Y-112686598D01*
X140147539Y-112747921D01*
X140142555Y-112817613D01*
X140100683Y-112873546D01*
X140035219Y-112897963D01*
X140026728Y-112898278D01*
X128619855Y-112930893D01*
X128552759Y-112911401D01*
X128506853Y-112858728D01*
X128495500Y-112806894D01*
X128495500Y-107339308D01*
X128495501Y-107339279D01*
X128495501Y-107085114D01*
X128495500Y-107085100D01*
X128493852Y-107072584D01*
X128462897Y-106837458D01*
X128398248Y-106596184D01*
X128305766Y-106372915D01*
X128304019Y-106367766D01*
X128252689Y-106278861D01*
X128177765Y-106149089D01*
X128025705Y-105950920D01*
X128025700Y-105950914D01*
X127846673Y-105771887D01*
X127846634Y-105771850D01*
X121561819Y-99487035D01*
X121528334Y-99425712D01*
X121525500Y-99399354D01*
X121525500Y-99304342D01*
X121542113Y-99242342D01*
X121701489Y-98966295D01*
X121830421Y-98667395D01*
X121923782Y-98355548D01*
X121980309Y-98034971D01*
X121999236Y-97710000D01*
X121980309Y-97385029D01*
X121955587Y-97244828D01*
X121923785Y-97064466D01*
X121923783Y-97064460D01*
X121923782Y-97064452D01*
X121830421Y-96752605D01*
X121701489Y-96453705D01*
X121538728Y-96171795D01*
X121538727Y-96171793D01*
X121344342Y-95910689D01*
X121344337Y-95910683D01*
X121236322Y-95796195D01*
X121120952Y-95673910D01*
X121120945Y-95673904D01*
X121120943Y-95673902D01*
X120871592Y-95464670D01*
X120599612Y-95285787D01*
X120599610Y-95285786D01*
X120308728Y-95139698D01*
X120308722Y-95139696D01*
X120002831Y-95028361D01*
X120002829Y-95028360D01*
X119761151Y-94971082D01*
X119686082Y-94953291D01*
X119362761Y-94915500D01*
X119037239Y-94915500D01*
X118713918Y-94953291D01*
X118397170Y-95028360D01*
X118397168Y-95028361D01*
X118091277Y-95139696D01*
X118091271Y-95139698D01*
X117800389Y-95285786D01*
X117800387Y-95285787D01*
X117528407Y-95464670D01*
X117279056Y-95673902D01*
X117279046Y-95673912D01*
X117055662Y-95910683D01*
X117055657Y-95910689D01*
X116861272Y-96171793D01*
X116698513Y-96453700D01*
X116698507Y-96453713D01*
X116569578Y-96752605D01*
X116476217Y-97064455D01*
X116476214Y-97064466D01*
X116419692Y-97385020D01*
X116419691Y-97385028D01*
X116400764Y-97709996D01*
X116400764Y-97710003D01*
X116419691Y-98034971D01*
X116419692Y-98034979D01*
X116476214Y-98355533D01*
X116476217Y-98355544D01*
X116569578Y-98667394D01*
X116698507Y-98966286D01*
X116698513Y-98966299D01*
X116861272Y-99248206D01*
X117055657Y-99509310D01*
X117055662Y-99509316D01*
X117171031Y-99631599D01*
X117279048Y-99746090D01*
X117279054Y-99746095D01*
X117279056Y-99746097D01*
X117528404Y-99955326D01*
X117528407Y-99955328D01*
X117528412Y-99955332D01*
X117658638Y-100040982D01*
X117703832Y-100094267D01*
X117714499Y-100144583D01*
X117714499Y-100364900D01*
X117732879Y-100504500D01*
X117732879Y-100504501D01*
X117747102Y-100612538D01*
X117811754Y-100853821D01*
X117907339Y-101084583D01*
X117907342Y-101084590D01*
X118032235Y-101300911D01*
X118032237Y-101300914D01*
X118032238Y-101300915D01*
X118184293Y-101499078D01*
X118184299Y-101499085D01*
X118364016Y-101678802D01*
X118364046Y-101678830D01*
X124648181Y-107962965D01*
X124681666Y-108024288D01*
X124684500Y-108050646D01*
X124684500Y-112818499D01*
X124664815Y-112885538D01*
X124612011Y-112931293D01*
X124560855Y-112942498D01*
X116192820Y-112966424D01*
X116125724Y-112946932D01*
X116104784Y-112930106D01*
X115544321Y-112369643D01*
X115544319Y-112369641D01*
X115369797Y-112242843D01*
X115177592Y-112144909D01*
X114972424Y-112078245D01*
X114759364Y-112044500D01*
X114759359Y-112044500D01*
X113724661Y-112044500D01*
X113508939Y-112044500D01*
X113508934Y-112044500D01*
X113295873Y-112078245D01*
X113090705Y-112144909D01*
X112898500Y-112242843D01*
X112798929Y-112315186D01*
X112723979Y-112369641D01*
X112723977Y-112369643D01*
X112723975Y-112369643D01*
X112151708Y-112941910D01*
X112090385Y-112975395D01*
X112064382Y-112978228D01*
X104450000Y-112999999D01*
X104450000Y-120592258D01*
X104430315Y-120659297D01*
X104413681Y-120679939D01*
X103979643Y-121113976D01*
X103979643Y-121113977D01*
X103979641Y-121113979D01*
X103925186Y-121188929D01*
X103852843Y-121288500D01*
X103754909Y-121480707D01*
X103693568Y-121669490D01*
X103693569Y-121669491D01*
X103688245Y-121685875D01*
X103688245Y-121685877D01*
X103654500Y-121898933D01*
X103654500Y-131226681D01*
X103634815Y-131293720D01*
X103582011Y-131339475D01*
X103512853Y-131349419D01*
X103452246Y-131322870D01*
X103400125Y-131280467D01*
X103366575Y-131253172D01*
X103258023Y-131187160D01*
X103128648Y-131108485D01*
X102873241Y-130997547D01*
X102605107Y-130922419D01*
X102605103Y-130922418D01*
X102605102Y-130922418D01*
X102467167Y-130903459D01*
X102329233Y-130884500D01*
X102329232Y-130884500D01*
X102050768Y-130884500D01*
X102050767Y-130884500D01*
X101774898Y-130922418D01*
X101774892Y-130922419D01*
X101506758Y-130997547D01*
X101251351Y-131108485D01*
X101013428Y-131253169D01*
X100998255Y-131265514D01*
X100933829Y-131292552D01*
X100865012Y-131280467D01*
X100841745Y-131265514D01*
X100826571Y-131253169D01*
X100588648Y-131108485D01*
X100333241Y-130997547D01*
X100065107Y-130922419D01*
X100065103Y-130922418D01*
X100065102Y-130922418D01*
X99927167Y-130903459D01*
X99789233Y-130884500D01*
X99789232Y-130884500D01*
X99510768Y-130884500D01*
X99510767Y-130884500D01*
X99234898Y-130922418D01*
X99234892Y-130922419D01*
X98966758Y-130997547D01*
X98711351Y-131108485D01*
X98473428Y-131253169D01*
X98257423Y-131428902D01*
X98257409Y-131428915D01*
X98067351Y-131632416D01*
X97906765Y-131859916D01*
X97778652Y-132107163D01*
X97685403Y-132369540D01*
X97685398Y-132369556D01*
X97628747Y-132642182D01*
X97628746Y-132642184D01*
X97609744Y-132920000D01*
X97628746Y-133197815D01*
X97628747Y-133197817D01*
X97685398Y-133470443D01*
X97685403Y-133470459D01*
X97778652Y-133732836D01*
X97778651Y-133732836D01*
X97906766Y-133980085D01*
X97906770Y-133980091D01*
X98004464Y-134118492D01*
X98027043Y-134184613D01*
X98010289Y-134252444D01*
X98004464Y-134261508D01*
X97906770Y-134399908D01*
X97906766Y-134399914D01*
X97778652Y-134647163D01*
X97685403Y-134909540D01*
X97685398Y-134909556D01*
X97628747Y-135182182D01*
X97628746Y-135182184D01*
X97609744Y-135460000D01*
X97628746Y-135737815D01*
X97628747Y-135737817D01*
X97652655Y-135852869D01*
X97647022Y-135922511D01*
X97604632Y-135978052D01*
X97538943Y-136001858D01*
X97514364Y-136000942D01*
X97249233Y-135964500D01*
X97249232Y-135964500D01*
X96970768Y-135964500D01*
X96970767Y-135964500D01*
X96694898Y-136002418D01*
X96694892Y-136002419D01*
X96426758Y-136077547D01*
X96171351Y-136188485D01*
X95933428Y-136333169D01*
X95918255Y-136345514D01*
X95853829Y-136372552D01*
X95785012Y-136360467D01*
X95761745Y-136345514D01*
X95746571Y-136333169D01*
X95508648Y-136188485D01*
X95253241Y-136077547D01*
X94985107Y-136002419D01*
X94985103Y-136002418D01*
X94985102Y-136002418D01*
X94807829Y-135978052D01*
X94709233Y-135964500D01*
X94709232Y-135964500D01*
X94430768Y-135964500D01*
X94430767Y-135964500D01*
X94165636Y-136000942D01*
X94096540Y-135990569D01*
X94044021Y-135944488D01*
X94024753Y-135877327D01*
X94027345Y-135852869D01*
X94038139Y-135800921D01*
X94051253Y-135737815D01*
X94070256Y-135460000D01*
X94051253Y-135182185D01*
X94023879Y-135050454D01*
X93994601Y-134909556D01*
X93994596Y-134909540D01*
X93901347Y-134647163D01*
X93901348Y-134647163D01*
X93839799Y-134528380D01*
X93773234Y-134399916D01*
X93675534Y-134261507D01*
X93652956Y-134195388D01*
X93669709Y-134127556D01*
X93675528Y-134118500D01*
X93773234Y-133980084D01*
X93901346Y-133732840D01*
X93994598Y-133470454D01*
X93994598Y-133470449D01*
X93994601Y-133470443D01*
X94040409Y-133250000D01*
X94051253Y-133197815D01*
X94070256Y-132920000D01*
X94051253Y-132642185D01*
X94032191Y-132550454D01*
X93994601Y-132369556D01*
X93994596Y-132369540D01*
X93901347Y-132107163D01*
X93901348Y-132107163D01*
X93773234Y-131859916D01*
X93612648Y-131632416D01*
X93533376Y-131547536D01*
X93502004Y-131485105D01*
X93500000Y-131462900D01*
X93500000Y-120924000D01*
X93519685Y-120856961D01*
X93572489Y-120811206D01*
X93624000Y-120800000D01*
X97000000Y-120800000D01*
X97000000Y-72000000D01*
X96999999Y-71999999D01*
X93958984Y-71899746D01*
X93903089Y-71884341D01*
X93812609Y-71834335D01*
X93729799Y-71800034D01*
X93499180Y-71704508D01*
X93499176Y-71704506D01*
X93499174Y-71704506D01*
X93173188Y-71610592D01*
X93173179Y-71610590D01*
X92838729Y-71553764D01*
X92838717Y-71553762D01*
X92500000Y-71534741D01*
X92161282Y-71553762D01*
X92161270Y-71553764D01*
X91826820Y-71610590D01*
X91826811Y-71610592D01*
X91500822Y-71704507D01*
X91270198Y-71800034D01*
X91218660Y-71809406D01*
X87900000Y-71699999D01*
X87900000Y-73334588D01*
X87880315Y-73401627D01*
X87827511Y-73447382D01*
X87758353Y-73457326D01*
X87694797Y-73428301D01*
X87661439Y-73382041D01*
X87605664Y-73247390D01*
X87605664Y-73247389D01*
X87441560Y-72950465D01*
X87441558Y-72950463D01*
X87441557Y-72950460D01*
X87441554Y-72950455D01*
X87245245Y-72673785D01*
X87245239Y-72673777D01*
X87019182Y-72420820D01*
X87019179Y-72420817D01*
X86766222Y-72194760D01*
X86766214Y-72194754D01*
X86489544Y-71998445D01*
X86489539Y-71998442D01*
X86192609Y-71834335D01*
X86109799Y-71800034D01*
X85879180Y-71704508D01*
X85879176Y-71704506D01*
X85879174Y-71704506D01*
X85553188Y-71610592D01*
X85553179Y-71610590D01*
X85218729Y-71553764D01*
X85218717Y-71553762D01*
X84880000Y-71534741D01*
X84541282Y-71553762D01*
X84541270Y-71553764D01*
X84206820Y-71610590D01*
X84206811Y-71610592D01*
X83880825Y-71704506D01*
X83567390Y-71834335D01*
X83270460Y-71998442D01*
X83270455Y-71998445D01*
X82993785Y-72194754D01*
X82993777Y-72194760D01*
X82740820Y-72420817D01*
X82740817Y-72420820D01*
X82514760Y-72673777D01*
X82514754Y-72673785D01*
X82318445Y-72950455D01*
X82318442Y-72950460D01*
X82154335Y-73247390D01*
X82024506Y-73560825D01*
X81930592Y-73886811D01*
X81930590Y-73886820D01*
X81873764Y-74221270D01*
X81873762Y-74221282D01*
X81854741Y-74560000D01*
X81873762Y-74898717D01*
X81873764Y-74898729D01*
X81930590Y-75233179D01*
X81930592Y-75233188D01*
X82024506Y-75559174D01*
X82024508Y-75559180D01*
X82154336Y-75872611D01*
X82175729Y-75911319D01*
X82318442Y-76169539D01*
X82318445Y-76169544D01*
X82514754Y-76446214D01*
X82514760Y-76446222D01*
X82740817Y-76699179D01*
X82740820Y-76699182D01*
X82993777Y-76925239D01*
X82993785Y-76925245D01*
X83270455Y-77121554D01*
X83270460Y-77121557D01*
X83270463Y-77121558D01*
X83270465Y-77121560D01*
X83548185Y-77275050D01*
X83597338Y-77324707D01*
X83611841Y-77393055D01*
X83587091Y-77458394D01*
X83530945Y-77499979D01*
X83485608Y-77507551D01*
X72121904Y-77269567D01*
X72055291Y-77248483D01*
X72010652Y-77194732D01*
X72000500Y-77145594D01*
X72000500Y-65109994D01*
X145924418Y-65109994D01*
X145924418Y-65110005D01*
X145944725Y-65432798D01*
X145944727Y-65432806D01*
X146005335Y-65750521D01*
X146005337Y-65750527D01*
X146105284Y-66058137D01*
X146105286Y-66058141D01*
X146242998Y-66350792D01*
X146243001Y-66350798D01*
X146416303Y-66623879D01*
X146416305Y-66623882D01*
X146416310Y-66623889D01*
X146622482Y-66873107D01*
X146622483Y-66873108D01*
X146858260Y-67094518D01*
X146858270Y-67094526D01*
X147119922Y-67284628D01*
X147119928Y-67284631D01*
X147119934Y-67284636D01*
X147403371Y-67440456D01*
X147704101Y-67559524D01*
X147704100Y-67559524D01*
X147808528Y-67586336D01*
X148017384Y-67639961D01*
X148174514Y-67659811D01*
X148338268Y-67680499D01*
X148338274Y-67680499D01*
X148338278Y-67680500D01*
X148338280Y-67680500D01*
X148661720Y-67680500D01*
X148661722Y-67680500D01*
X148661727Y-67680499D01*
X148661731Y-67680499D01*
X148746919Y-67669736D01*
X148982616Y-67639961D01*
X149295899Y-67559524D01*
X149596629Y-67440456D01*
X149880066Y-67284636D01*
X150141738Y-67094520D01*
X150377518Y-66873107D01*
X150583690Y-66623889D01*
X150757000Y-66350796D01*
X150894716Y-66058135D01*
X150994665Y-65750521D01*
X151055273Y-65432806D01*
X151075582Y-65110000D01*
X151075582Y-65109994D01*
X153544418Y-65109994D01*
X153544418Y-65110005D01*
X153564725Y-65432798D01*
X153564727Y-65432806D01*
X153625335Y-65750521D01*
X153625337Y-65750527D01*
X153725284Y-66058137D01*
X153725286Y-66058141D01*
X153862998Y-66350792D01*
X153863001Y-66350798D01*
X154036303Y-66623879D01*
X154036305Y-66623882D01*
X154036310Y-66623889D01*
X154242482Y-66873107D01*
X154242483Y-66873108D01*
X154478260Y-67094518D01*
X154478270Y-67094526D01*
X154739922Y-67284628D01*
X154739928Y-67284631D01*
X154739934Y-67284636D01*
X155023371Y-67440456D01*
X155324101Y-67559524D01*
X155324100Y-67559524D01*
X155428528Y-67586336D01*
X155637384Y-67639961D01*
X155794514Y-67659811D01*
X155958268Y-67680499D01*
X155958274Y-67680499D01*
X155958278Y-67680500D01*
X155958280Y-67680500D01*
X156281720Y-67680500D01*
X156281722Y-67680500D01*
X156281727Y-67680499D01*
X156281731Y-67680499D01*
X156366919Y-67669736D01*
X156602616Y-67639961D01*
X156915899Y-67559524D01*
X157216629Y-67440456D01*
X157500066Y-67284636D01*
X157761738Y-67094520D01*
X157997518Y-66873107D01*
X158203690Y-66623889D01*
X158377000Y-66350796D01*
X158514716Y-66058135D01*
X158614665Y-65750521D01*
X158675273Y-65432806D01*
X158695582Y-65110000D01*
X158695582Y-65109994D01*
X158675274Y-64787201D01*
X158675273Y-64787194D01*
X158614665Y-64469479D01*
X158514716Y-64161865D01*
X158377000Y-63869204D01*
X158203690Y-63596111D01*
X157997518Y-63346893D01*
X157761738Y-63125480D01*
X157761735Y-63125478D01*
X157761729Y-63125473D01*
X157500077Y-62935371D01*
X157500059Y-62935360D01*
X157404538Y-62882847D01*
X157216629Y-62779544D01*
X157216627Y-62779543D01*
X157216623Y-62779541D01*
X156915896Y-62660475D01*
X156915899Y-62660475D01*
X156602613Y-62580038D01*
X156281731Y-62539500D01*
X156281722Y-62539500D01*
X155958278Y-62539500D01*
X155958268Y-62539500D01*
X155637386Y-62580038D01*
X155324101Y-62660475D01*
X155023376Y-62779541D01*
X154739940Y-62935360D01*
X154739922Y-62935371D01*
X154478270Y-63125473D01*
X154478260Y-63125481D01*
X154242483Y-63346891D01*
X154036303Y-63596120D01*
X153863001Y-63869201D01*
X153862998Y-63869207D01*
X153725286Y-64161858D01*
X153725284Y-64161862D01*
X153625337Y-64469472D01*
X153625335Y-64469479D01*
X153595031Y-64628336D01*
X153564725Y-64787201D01*
X153544418Y-65109994D01*
X151075582Y-65109994D01*
X151055274Y-64787201D01*
X151055273Y-64787194D01*
X150994665Y-64469479D01*
X150894716Y-64161865D01*
X150757000Y-63869204D01*
X150583690Y-63596111D01*
X150377518Y-63346893D01*
X150141738Y-63125480D01*
X150141735Y-63125478D01*
X150141729Y-63125473D01*
X149880077Y-62935371D01*
X149880059Y-62935360D01*
X149784538Y-62882847D01*
X149596629Y-62779544D01*
X149596627Y-62779543D01*
X149596623Y-62779541D01*
X149295896Y-62660475D01*
X149295899Y-62660475D01*
X148982613Y-62580038D01*
X148661731Y-62539500D01*
X148661722Y-62539500D01*
X148338278Y-62539500D01*
X148338268Y-62539500D01*
X148017386Y-62580038D01*
X147704101Y-62660475D01*
X147403376Y-62779541D01*
X147119940Y-62935360D01*
X147119922Y-62935371D01*
X146858270Y-63125473D01*
X146858260Y-63125481D01*
X146622483Y-63346891D01*
X146416303Y-63596120D01*
X146243001Y-63869201D01*
X146242998Y-63869207D01*
X146105286Y-64161858D01*
X146105284Y-64161862D01*
X146005337Y-64469472D01*
X146005335Y-64469479D01*
X145975031Y-64628336D01*
X145944725Y-64787201D01*
X145924418Y-65109994D01*
X72000500Y-65109994D01*
X72000500Y-52124000D01*
X72020185Y-52056961D01*
X72072989Y-52011206D01*
X72124500Y-52000000D01*
X81000000Y-52000000D01*
X81008166Y-51620269D01*
X81043011Y-50000000D01*
X98368594Y-50000000D01*
X98388197Y-50299087D01*
X98388198Y-50299099D01*
X98446670Y-50593052D01*
X98446675Y-50593072D01*
X98543013Y-50876875D01*
X98543017Y-50876885D01*
X98675584Y-51145704D01*
X98842106Y-51394921D01*
X99039730Y-51620269D01*
X99215706Y-51774595D01*
X99265080Y-51817895D01*
X99430470Y-51928404D01*
X99514295Y-51984415D01*
X99783114Y-52116982D01*
X99783124Y-52116986D01*
X100066927Y-52213324D01*
X100066931Y-52213325D01*
X100066940Y-52213328D01*
X100265665Y-52252857D01*
X100360900Y-52271801D01*
X100360901Y-52271801D01*
X100360911Y-52271803D01*
X100660000Y-52291406D01*
X100959089Y-52271803D01*
X101253060Y-52213328D01*
X101516212Y-52124000D01*
X101536875Y-52116986D01*
X101536885Y-52116982D01*
X101805703Y-51984416D01*
X102054920Y-51817895D01*
X102280269Y-51620269D01*
X102477895Y-51394920D01*
X102644416Y-51145703D01*
X102776983Y-50876883D01*
X102863262Y-50622715D01*
X102873324Y-50593072D01*
X102873324Y-50593071D01*
X102873328Y-50593060D01*
X102931803Y-50299089D01*
X102951406Y-50000000D01*
X103448594Y-50000000D01*
X103468197Y-50299087D01*
X103468198Y-50299099D01*
X103526670Y-50593052D01*
X103526675Y-50593072D01*
X103623013Y-50876875D01*
X103623017Y-50876885D01*
X103755584Y-51145704D01*
X103922106Y-51394921D01*
X104119730Y-51620269D01*
X104295706Y-51774595D01*
X104345080Y-51817895D01*
X104510470Y-51928404D01*
X104594295Y-51984415D01*
X104863114Y-52116982D01*
X104863124Y-52116986D01*
X105146927Y-52213324D01*
X105146931Y-52213325D01*
X105146940Y-52213328D01*
X105345665Y-52252857D01*
X105440900Y-52271801D01*
X105440901Y-52271801D01*
X105440911Y-52271803D01*
X105740000Y-52291406D01*
X106039089Y-52271803D01*
X106333060Y-52213328D01*
X106596212Y-52124000D01*
X106616875Y-52116986D01*
X106616885Y-52116982D01*
X106885703Y-51984416D01*
X107134920Y-51817895D01*
X107360269Y-51620269D01*
X107557895Y-51394920D01*
X107724416Y-51145703D01*
X107856983Y-50876883D01*
X107943262Y-50622715D01*
X107953324Y-50593072D01*
X107953324Y-50593071D01*
X107953328Y-50593060D01*
X108011803Y-50299089D01*
X108031406Y-50000000D01*
X108528594Y-50000000D01*
X108548197Y-50299087D01*
X108548198Y-50299099D01*
X108606670Y-50593052D01*
X108606675Y-50593072D01*
X108703013Y-50876875D01*
X108703017Y-50876885D01*
X108835584Y-51145704D01*
X109002106Y-51394921D01*
X109199730Y-51620269D01*
X109375706Y-51774595D01*
X109425080Y-51817895D01*
X109590470Y-51928404D01*
X109674295Y-51984415D01*
X109943114Y-52116982D01*
X109943124Y-52116986D01*
X110226927Y-52213324D01*
X110226931Y-52213325D01*
X110226940Y-52213328D01*
X110425665Y-52252857D01*
X110520900Y-52271801D01*
X110520901Y-52271801D01*
X110520911Y-52271803D01*
X110820000Y-52291406D01*
X111119089Y-52271803D01*
X111413060Y-52213328D01*
X111676212Y-52124000D01*
X111696875Y-52116986D01*
X111696885Y-52116982D01*
X111965703Y-51984416D01*
X112214920Y-51817895D01*
X112440269Y-51620269D01*
X112637895Y-51394920D01*
X112804416Y-51145703D01*
X112936983Y-50876883D01*
X113023262Y-50622715D01*
X113033324Y-50593072D01*
X113033324Y-50593071D01*
X113033328Y-50593060D01*
X113091803Y-50299089D01*
X113111406Y-50000000D01*
X113091803Y-49700911D01*
X113033328Y-49406940D01*
X113033324Y-49406927D01*
X112936986Y-49123124D01*
X112936982Y-49123114D01*
X112804415Y-48854295D01*
X112748404Y-48770470D01*
X112637895Y-48605080D01*
X112545742Y-48500000D01*
X112545740Y-48499998D01*
X161777500Y-48499998D01*
X161777500Y-48500001D01*
X161797329Y-48796226D01*
X161797331Y-48796236D01*
X161856467Y-49087176D01*
X161868950Y-49123124D01*
X161953856Y-49367640D01*
X162087757Y-49632623D01*
X162255783Y-49877394D01*
X162255785Y-49877396D01*
X162255789Y-49877402D01*
X162255792Y-49877404D01*
X162454935Y-50097586D01*
X162681658Y-50289268D01*
X162931907Y-50449021D01*
X163201216Y-50573994D01*
X163484780Y-50661956D01*
X163777537Y-50711338D01*
X164074265Y-50721259D01*
X164369667Y-50691541D01*
X164658472Y-50622715D01*
X164658475Y-50622713D01*
X164658479Y-50622713D01*
X164797000Y-50569362D01*
X164935528Y-50516010D01*
X165195888Y-50373328D01*
X165434908Y-50197217D01*
X165648322Y-49990819D01*
X165832321Y-49757817D01*
X165983623Y-49502370D01*
X166099527Y-49229035D01*
X166177965Y-48942691D01*
X166217537Y-48648447D01*
X166217537Y-48351553D01*
X166177965Y-48057309D01*
X166099527Y-47770965D01*
X165983623Y-47497630D01*
X165906474Y-47367377D01*
X165832321Y-47242182D01*
X165648321Y-47009180D01*
X165640811Y-47001917D01*
X165434908Y-46802783D01*
X165309974Y-46710731D01*
X165195894Y-46626676D01*
X165195891Y-46626674D01*
X165195888Y-46626672D01*
X164935528Y-46483990D01*
X164935523Y-46483988D01*
X164935521Y-46483987D01*
X164658479Y-46377286D01*
X164658474Y-46377285D01*
X164369667Y-46308459D01*
X164369664Y-46308458D01*
X164074269Y-46278741D01*
X164074265Y-46278741D01*
X163777537Y-46288662D01*
X163484779Y-46338044D01*
X163358278Y-46377285D01*
X163201216Y-46426006D01*
X163201209Y-46426009D01*
X163201207Y-46426010D01*
X162931911Y-46550976D01*
X162681658Y-46710731D01*
X162681656Y-46710733D01*
X162454933Y-46902415D01*
X162255792Y-47122595D01*
X162255789Y-47122597D01*
X162255783Y-47122606D01*
X162087757Y-47367377D01*
X161953856Y-47632360D01*
X161953854Y-47632363D01*
X161953854Y-47632365D01*
X161856467Y-47912823D01*
X161797331Y-48203763D01*
X161797329Y-48203773D01*
X161777500Y-48499998D01*
X112545740Y-48499998D01*
X112440269Y-48379730D01*
X112214921Y-48182106D01*
X111965704Y-48015584D01*
X111696885Y-47883017D01*
X111696875Y-47883013D01*
X111413072Y-47786675D01*
X111413052Y-47786670D01*
X111119099Y-47728198D01*
X111119090Y-47728197D01*
X111119089Y-47728197D01*
X110820000Y-47708594D01*
X110520911Y-47728197D01*
X110520910Y-47728197D01*
X110520900Y-47728198D01*
X110226947Y-47786670D01*
X110226927Y-47786675D01*
X109943124Y-47883013D01*
X109943114Y-47883017D01*
X109674295Y-48015584D01*
X109425078Y-48182106D01*
X109199730Y-48379730D01*
X109002106Y-48605078D01*
X108835584Y-48854295D01*
X108703017Y-49123114D01*
X108703013Y-49123124D01*
X108606675Y-49406927D01*
X108606670Y-49406947D01*
X108548198Y-49700900D01*
X108548197Y-49700912D01*
X108528594Y-50000000D01*
X108031406Y-50000000D01*
X108011803Y-49700911D01*
X107953328Y-49406940D01*
X107953324Y-49406927D01*
X107856986Y-49123124D01*
X107856982Y-49123114D01*
X107724415Y-48854295D01*
X107668404Y-48770470D01*
X107557895Y-48605080D01*
X107465742Y-48500000D01*
X107360269Y-48379730D01*
X107134921Y-48182106D01*
X106885704Y-48015584D01*
X106616885Y-47883017D01*
X106616875Y-47883013D01*
X106333072Y-47786675D01*
X106333052Y-47786670D01*
X106039099Y-47728198D01*
X106039090Y-47728197D01*
X106039089Y-47728197D01*
X105740000Y-47708594D01*
X105440911Y-47728197D01*
X105440910Y-47728197D01*
X105440900Y-47728198D01*
X105146947Y-47786670D01*
X105146927Y-47786675D01*
X104863124Y-47883013D01*
X104863114Y-47883017D01*
X104594295Y-48015584D01*
X104345078Y-48182106D01*
X104119730Y-48379730D01*
X103922106Y-48605078D01*
X103755584Y-48854295D01*
X103623017Y-49123114D01*
X103623013Y-49123124D01*
X103526675Y-49406927D01*
X103526670Y-49406947D01*
X103468198Y-49700900D01*
X103468197Y-49700912D01*
X103448594Y-50000000D01*
X102951406Y-50000000D01*
X102931803Y-49700911D01*
X102873328Y-49406940D01*
X102873324Y-49406927D01*
X102776986Y-49123124D01*
X102776982Y-49123114D01*
X102644415Y-48854295D01*
X102588404Y-48770470D01*
X102477895Y-48605080D01*
X102385742Y-48500000D01*
X102280269Y-48379730D01*
X102054921Y-48182106D01*
X101805704Y-48015584D01*
X101536885Y-47883017D01*
X101536875Y-47883013D01*
X101253072Y-47786675D01*
X101253052Y-47786670D01*
X100959099Y-47728198D01*
X100959090Y-47728197D01*
X100959089Y-47728197D01*
X100660000Y-47708594D01*
X100360911Y-47728197D01*
X100360910Y-47728197D01*
X100360900Y-47728198D01*
X100066947Y-47786670D01*
X100066927Y-47786675D01*
X99783124Y-47883013D01*
X99783114Y-47883017D01*
X99514295Y-48015584D01*
X99265078Y-48182106D01*
X99039730Y-48379730D01*
X98842106Y-48605078D01*
X98675584Y-48854295D01*
X98543017Y-49123114D01*
X98543013Y-49123124D01*
X98446675Y-49406927D01*
X98446670Y-49406947D01*
X98388198Y-49700900D01*
X98388197Y-49700912D01*
X98368594Y-50000000D01*
X81043011Y-50000000D01*
X81169424Y-44121834D01*
X81190545Y-44055233D01*
X81244321Y-44010624D01*
X81293395Y-44000500D01*
X168375500Y-44000500D01*
X168442539Y-44020185D01*
G37*
%TD.AperFunction*%
%TD*%
M02*
