%TF.GenerationSoftware,KiCad,Pcbnew,8.0.4*%
%TF.CreationDate,2025-01-10T12:27:39-08:00*%
%TF.ProjectId,X17-Power-Slab-Master,5831372d-506f-4776-9572-2d536c61622d,rev?*%
%TF.SameCoordinates,Original*%
%TF.FileFunction,Copper,L1,Top*%
%TF.FilePolarity,Positive*%
%FSLAX46Y46*%
G04 Gerber Fmt 4.6, Leading zero omitted, Abs format (unit mm)*
G04 Created by KiCad (PCBNEW 8.0.4) date 2025-01-10 12:27:39*
%MOMM*%
%LPD*%
G01*
G04 APERTURE LIST*
G04 Aperture macros list*
%AMRoundRect*
0 Rectangle with rounded corners*
0 $1 Rounding radius*
0 $2 $3 $4 $5 $6 $7 $8 $9 X,Y pos of 4 corners*
0 Add a 4 corners polygon primitive as box body*
4,1,4,$2,$3,$4,$5,$6,$7,$8,$9,$2,$3,0*
0 Add four circle primitives for the rounded corners*
1,1,$1+$1,$2,$3*
1,1,$1+$1,$4,$5*
1,1,$1+$1,$6,$7*
1,1,$1+$1,$8,$9*
0 Add four rect primitives between the rounded corners*
20,1,$1+$1,$2,$3,$4,$5,0*
20,1,$1+$1,$4,$5,$6,$7,0*
20,1,$1+$1,$6,$7,$8,$9,0*
20,1,$1+$1,$8,$9,$2,$3,0*%
G04 Aperture macros list end*
%TA.AperFunction,SMDPad,CuDef*%
%ADD10RoundRect,0.250000X-1.500000X-0.900000X1.500000X-0.900000X1.500000X0.900000X-1.500000X0.900000X0*%
%TD*%
%TA.AperFunction,SMDPad,CuDef*%
%ADD11C,4.000000*%
%TD*%
%TA.AperFunction,SMDPad,CuDef*%
%ADD12RoundRect,0.237500X-0.250000X-0.237500X0.250000X-0.237500X0.250000X0.237500X-0.250000X0.237500X0*%
%TD*%
%TA.AperFunction,ComponentPad*%
%ADD13C,1.530000*%
%TD*%
%TA.AperFunction,ComponentPad*%
%ADD14R,1.530000X1.530000*%
%TD*%
%TA.AperFunction,ComponentPad*%
%ADD15R,1.700000X1.700000*%
%TD*%
%TA.AperFunction,ComponentPad*%
%ADD16O,1.700000X1.700000*%
%TD*%
%TA.AperFunction,SMDPad,CuDef*%
%ADD17R,1.100000X1.200000*%
%TD*%
%TA.AperFunction,SMDPad,CuDef*%
%ADD18RoundRect,0.237500X0.237500X-0.250000X0.237500X0.250000X-0.237500X0.250000X-0.237500X-0.250000X0*%
%TD*%
%TA.AperFunction,SMDPad,CuDef*%
%ADD19R,3.606800X1.498600*%
%TD*%
%TA.AperFunction,ComponentPad*%
%ADD20C,2.032000*%
%TD*%
%TA.AperFunction,SMDPad,CuDef*%
%ADD21RoundRect,0.250000X-0.600000X0.400000X-0.600000X-0.400000X0.600000X-0.400000X0.600000X0.400000X0*%
%TD*%
%TA.AperFunction,SMDPad,CuDef*%
%ADD22R,1.400000X2.290000*%
%TD*%
%TA.AperFunction,SMDPad,CuDef*%
%ADD23R,5.690000X6.180000*%
%TD*%
%TA.AperFunction,ComponentPad*%
%ADD24C,3.500000*%
%TD*%
%TA.AperFunction,ComponentPad*%
%ADD25C,2.600000*%
%TD*%
%TA.AperFunction,ComponentPad*%
%ADD26C,3.100000*%
%TD*%
%TA.AperFunction,ComponentPad*%
%ADD27C,1.600000*%
%TD*%
%TA.AperFunction,ViaPad*%
%ADD28C,0.600000*%
%TD*%
%TA.AperFunction,ViaPad*%
%ADD29C,3.048000*%
%TD*%
%TA.AperFunction,ViaPad*%
%ADD30C,1.270000*%
%TD*%
%TA.AperFunction,Conductor*%
%ADD31C,1.270000*%
%TD*%
%TA.AperFunction,Conductor*%
%ADD32C,0.279400*%
%TD*%
%TA.AperFunction,Conductor*%
%ADD33C,0.762000*%
%TD*%
%TA.AperFunction,Conductor*%
%ADD34C,1.524000*%
%TD*%
G04 APERTURE END LIST*
D10*
%TO.P,D5,1,A1*%
%TO.N,12V*%
X147600000Y-129900000D03*
%TO.P,D5,2,A2*%
%TO.N,12V_5V_GND*%
X153000000Y-129900000D03*
%TD*%
D11*
%TO.P,TP5,1,1*%
%TO.N,48V*%
X77000000Y-58000000D03*
%TD*%
D12*
%TO.P,R5,1*%
%TO.N,5V*%
X81087500Y-98000000D03*
%TO.P,R5,2*%
%TO.N,Net-(U5-Vadj)*%
X82912500Y-98000000D03*
%TD*%
D13*
%TO.P,J2,P08_10*%
%TO.N,N/C*%
X126500000Y-129500000D03*
%TO.P,J2,P08_9*%
X126500000Y-132000000D03*
%TO.P,J2,P08_8*%
X126500000Y-134500000D03*
%TO.P,J2,P08_7*%
X126500000Y-137000000D03*
%TO.P,J2,P08_6*%
X126500000Y-139500000D03*
%TO.P,J2,P08_5*%
X123500000Y-139500000D03*
%TO.P,J2,P08_4*%
X123500000Y-137000000D03*
%TO.P,J2,P08_3*%
X123500000Y-134500000D03*
%TO.P,J2,P08_2*%
X123500000Y-132000000D03*
%TO.P,J2,P08_1,P08*%
%TO.N,unconnected-(J2-P08-PadP08_1)*%
X123500000Y-129500000D03*
%TO.P,J2,P07_10*%
%TO.N,N/C*%
X121000000Y-129500000D03*
%TO.P,J2,P07_9*%
X121000000Y-132000000D03*
%TO.P,J2,P07_8*%
X121000000Y-134500000D03*
%TO.P,J2,P07_7*%
X121000000Y-137000000D03*
%TO.P,J2,P07_6*%
X121000000Y-139500000D03*
%TO.P,J2,P07_5*%
X118000000Y-139500000D03*
%TO.P,J2,P07_4*%
X118000000Y-137000000D03*
%TO.P,J2,P07_3*%
X118000000Y-134500000D03*
%TO.P,J2,P07_2*%
X118000000Y-132000000D03*
%TO.P,J2,P07_1,P07*%
%TO.N,unconnected-(J2-P07-PadP07_1)*%
X118000000Y-129500000D03*
%TO.P,J2,P06_10*%
%TO.N,N/C*%
X115500000Y-129500000D03*
%TO.P,J2,P06_9*%
X115500000Y-132000000D03*
%TO.P,J2,P06_8*%
X115500000Y-134500000D03*
%TO.P,J2,P06_7*%
X115500000Y-137000000D03*
%TO.P,J2,P06_6*%
X115500000Y-139500000D03*
%TO.P,J2,P06_5*%
X112500000Y-139500000D03*
%TO.P,J2,P06_4*%
X112500000Y-137000000D03*
%TO.P,J2,P06_3*%
X112500000Y-134500000D03*
%TO.P,J2,P06_2*%
X112500000Y-132000000D03*
%TO.P,J2,P06_1,P06*%
%TO.N,unconnected-(J2-P06-PadP06_1)*%
X112500000Y-129500000D03*
%TO.P,J2,P05_10*%
%TO.N,N/C*%
X110000000Y-129500000D03*
%TO.P,J2,P05_9*%
X110000000Y-132000000D03*
%TO.P,J2,P05_8*%
X110000000Y-134500000D03*
%TO.P,J2,P05_7*%
X110000000Y-137000000D03*
%TO.P,J2,P05_6*%
X110000000Y-139500000D03*
%TO.P,J2,P05_5*%
X107000000Y-139500000D03*
%TO.P,J2,P05_4*%
X107000000Y-137000000D03*
%TO.P,J2,P05_3*%
X107000000Y-134500000D03*
%TO.P,J2,P05_2*%
X107000000Y-132000000D03*
%TO.P,J2,P05_1,P05*%
%TO.N,12V*%
X107000000Y-129500000D03*
%TO.P,J2,P04_10*%
%TO.N,N/C*%
X79240000Y-129500000D03*
%TO.P,J2,P04_9*%
X79240000Y-132000000D03*
%TO.P,J2,P04_8*%
X79240000Y-134500000D03*
%TO.P,J2,P04_7*%
X79240000Y-137000000D03*
%TO.P,J2,P04_6*%
X79240000Y-139500000D03*
%TO.P,J2,P04_5*%
X76240000Y-139500000D03*
%TO.P,J2,P04_4*%
X76240000Y-137000000D03*
%TO.P,J2,P04_3*%
X76240000Y-134500000D03*
%TO.P,J2,P04_2*%
X76240000Y-132000000D03*
%TO.P,J2,P04_1,P04*%
%TO.N,unconnected-(J2-P04-PadP04_1)*%
X76240000Y-129500000D03*
%TO.P,J2,P03_10*%
%TO.N,N/C*%
X73740000Y-129500000D03*
%TO.P,J2,P03_9*%
X73740000Y-132000000D03*
%TO.P,J2,P03_8*%
X73740000Y-134500000D03*
%TO.P,J2,P03_7*%
X73740000Y-137000000D03*
%TO.P,J2,P03_6*%
X73740000Y-139500000D03*
%TO.P,J2,P03_5*%
X70740000Y-139500000D03*
%TO.P,J2,P03_4*%
X70740000Y-137000000D03*
%TO.P,J2,P03_3*%
X70740000Y-134500000D03*
%TO.P,J2,P03_2*%
X70740000Y-132000000D03*
%TO.P,J2,P03_1,P03*%
%TO.N,unconnected-(J2-P03-PadP03_1)*%
X70740000Y-129500000D03*
%TO.P,J2,P02_10*%
%TO.N,N/C*%
X68240000Y-129500000D03*
%TO.P,J2,P02_9*%
X68240000Y-132000000D03*
%TO.P,J2,P02_8*%
X68240000Y-134500000D03*
%TO.P,J2,P02_7*%
X68240000Y-137000000D03*
%TO.P,J2,P02_6*%
X68240000Y-139500000D03*
%TO.P,J2,P02_5*%
X65240000Y-139500000D03*
%TO.P,J2,P02_4*%
X65240000Y-137000000D03*
%TO.P,J2,P02_3*%
X65240000Y-134500000D03*
%TO.P,J2,P02_2*%
X65240000Y-132000000D03*
%TO.P,J2,P02_1,P02*%
%TO.N,unconnected-(J2-P02-PadP02_1)*%
X65240000Y-129500000D03*
%TO.P,J2,P01_10*%
%TO.N,N/C*%
X62740000Y-129500000D03*
%TO.P,J2,P01_9*%
X62740000Y-132000000D03*
%TO.P,J2,P01_8*%
X62740000Y-134500000D03*
%TO.P,J2,P01_7*%
X62740000Y-137000000D03*
%TO.P,J2,P01_6*%
X62740000Y-139500000D03*
%TO.P,J2,P01_5*%
X59740000Y-139500000D03*
%TO.P,J2,P01_4*%
X59740000Y-137000000D03*
%TO.P,J2,P01_3*%
X59740000Y-134500000D03*
%TO.P,J2,P01_2*%
X59740000Y-132000000D03*
%TO.P,J2,P01_1,P01*%
%TO.N,unconnected-(J2-P01-PadP01_1)*%
X59740000Y-129500000D03*
%TO.P,J2,24,24*%
%TO.N,48V_GND*%
X102190000Y-132920000D03*
%TO.P,J2,23,23*%
X99650000Y-132920000D03*
%TO.P,J2,22,22*%
%TO.N,48V*%
X97110000Y-132920000D03*
%TO.P,J2,21,21*%
X94570000Y-132920000D03*
%TO.P,J2,20,20*%
%TO.N,5V*%
X92030000Y-132920000D03*
%TO.P,J2,19,19*%
X89490000Y-132920000D03*
%TO.P,J2,18,18*%
%TO.N,12V_5V_GND*%
X86950000Y-132920000D03*
%TO.P,J2,17,17*%
X84410000Y-132920000D03*
%TO.P,J2,16,16*%
%TO.N,48V_GND*%
X102190000Y-135460000D03*
%TO.P,J2,15,15*%
X99650000Y-135460000D03*
%TO.P,J2,14,14*%
%TO.N,48V*%
X97110000Y-135460000D03*
%TO.P,J2,13,13*%
X94570000Y-135460000D03*
%TO.P,J2,12,12*%
%TO.N,5V*%
X92030000Y-135460000D03*
%TO.P,J2,11,11*%
X89490000Y-135460000D03*
%TO.P,J2,10,10*%
%TO.N,12V_5V_GND*%
X86950000Y-135460000D03*
%TO.P,J2,09,09*%
X84410000Y-135460000D03*
%TO.P,J2,08,08*%
%TO.N,unconnected-(J2-Pad08)*%
X102190000Y-138000000D03*
%TO.P,J2,07,07*%
%TO.N,unconnected-(J2-Pad07)*%
X99650000Y-138000000D03*
%TO.P,J2,06,06*%
%TO.N,unconnected-(J2-Pad06)*%
X97110000Y-138000000D03*
%TO.P,J2,05,05*%
%TO.N,unconnected-(J2-Pad05)*%
X94570000Y-138000000D03*
%TO.P,J2,04,04*%
%TO.N,unconnected-(J2-Pad04)*%
X92030000Y-138000000D03*
%TO.P,J2,03,03*%
%TO.N,NRST_PSB*%
X89490000Y-138000000D03*
%TO.P,J2,02,02*%
%TO.N,A+*%
X86950000Y-138000000D03*
D14*
%TO.P,J2,01,01*%
%TO.N,A-*%
X84410000Y-138000000D03*
%TD*%
D11*
%TO.P,TP6,1,1*%
%TO.N,RAW_48V_GND*%
X127400000Y-46800000D03*
%TD*%
%TO.P,TP15,1,1*%
%TO.N,12V_5V_GND*%
X75000000Y-92000000D03*
%TD*%
D15*
%TO.P,J1,1,Pin_1*%
%TO.N,12V_5V_GND*%
X126590000Y-79165000D03*
D16*
%TO.P,J1,2,Pin_2*%
%TO.N,DATA*%
X124050000Y-79165000D03*
%TO.P,J1,3,Pin_3*%
%TO.N,unconnected-(J1-Pin_3-Pad3)*%
X121510000Y-79165000D03*
%TO.P,J1,4,Pin_4*%
%TO.N,unconnected-(J1-Pin_4-Pad4)*%
X118970000Y-79165000D03*
%TO.P,J1,5,Pin_5*%
%TO.N,ALERT1*%
X116430000Y-79165000D03*
%TO.P,J1,6,Pin_6*%
%TO.N,PG*%
X113890000Y-79165000D03*
D15*
%TO.P,J1,7,Pin_7*%
%TO.N,5V*%
X126590000Y-116590000D03*
D16*
%TO.P,J1,8,Pin_8*%
%TO.N,12V_5V_GND*%
X124050000Y-116590000D03*
%TO.P,J1,9,Pin_9*%
%TO.N,SWCLK*%
X121510000Y-116590000D03*
%TO.P,J1,10,Pin_10*%
%TO.N,NRST_PSB*%
X118970000Y-116590000D03*
%TO.P,J1,11,Pin_11*%
%TO.N,A+*%
X116430000Y-116590000D03*
%TO.P,J1,12,Pin_12*%
%TO.N,A-*%
X113890000Y-116590000D03*
%TD*%
D17*
%TO.P,D2,1*%
%TO.N,48V_GND*%
X158000000Y-47000000D03*
%TO.P,D2,2*%
%TO.N,Net-(D2-Pad2)*%
X155900000Y-47000000D03*
%TD*%
D12*
%TO.P,R4,1*%
%TO.N,5V*%
X72950000Y-116000000D03*
%TO.P,R4,2*%
%TO.N,Net-(D4-Pad2)*%
X74775000Y-116000000D03*
%TD*%
D18*
%TO.P,R1,1*%
%TO.N,48V*%
X118000000Y-64000000D03*
%TO.P,R1,2*%
%TO.N,Net-(D1-K)*%
X118000000Y-62175000D03*
%TD*%
D12*
%TO.P,R2,1*%
%TO.N,48V*%
X151037500Y-47000000D03*
%TO.P,R2,2*%
%TO.N,Net-(D2-Pad2)*%
X152862500Y-47000000D03*
%TD*%
%TO.P,R3,1*%
%TO.N,12V*%
X144950000Y-125000000D03*
%TO.P,R3,2*%
%TO.N,Net-(D3-Pad2)*%
X146775000Y-125000000D03*
%TD*%
D11*
%TO.P,TP2,1,1*%
%TO.N,48V_GND*%
X100600000Y-124200000D03*
%TD*%
D19*
%TO.P,C5,1*%
%TO.N,48V*%
X145440000Y-54000000D03*
%TO.P,C5,2*%
%TO.N,48V_GND*%
X137134200Y-54000000D03*
%TD*%
%TO.P,C6,1*%
%TO.N,48V*%
X145440000Y-85730000D03*
%TO.P,C6,2*%
%TO.N,48V_GND*%
X137134200Y-85730000D03*
%TD*%
D20*
%TO.P,J3,1,1*%
%TO.N,48V*%
X85420000Y-50000000D03*
%TO.P,J3,2,2*%
X90500000Y-50000000D03*
%TO.P,J3,3,3*%
X95580000Y-50000000D03*
%TO.P,J3,4,4*%
%TO.N,RAW_48V_GND*%
X100660000Y-50000000D03*
%TO.P,J3,5,5*%
X105740000Y-50000000D03*
%TO.P,J3,6,6*%
X110820000Y-50000000D03*
%TD*%
D11*
%TO.P,TP3,1,1*%
%TO.N,12V*%
X152000000Y-138000000D03*
%TD*%
D21*
%TO.P,D1,1,K*%
%TO.N,Net-(D1-K)*%
X111000000Y-62250000D03*
%TO.P,D1,2,A*%
%TO.N,48V_GND*%
X111000000Y-65750000D03*
%TD*%
D17*
%TO.P,D4,1*%
%TO.N,12V_5V_GND*%
X80000000Y-116000000D03*
%TO.P,D4,2*%
%TO.N,Net-(D4-Pad2)*%
X77900000Y-116000000D03*
%TD*%
D11*
%TO.P,TP14,1,1*%
%TO.N,5V*%
X77000000Y-110000000D03*
%TD*%
D17*
%TO.P,D3,1*%
%TO.N,12V_5V_GND*%
X153050000Y-125000000D03*
%TO.P,D3,2*%
%TO.N,Net-(D3-Pad2)*%
X150950000Y-125000000D03*
%TD*%
D19*
%TO.P,C7,1*%
%TO.N,48V*%
X145440000Y-73579400D03*
%TO.P,C7,2*%
%TO.N,48V_GND*%
X137134200Y-73579400D03*
%TD*%
D22*
%TO.P,Q2,1*%
%TO.N,Net-(D1-K)*%
X117430000Y-59000000D03*
D23*
%TO.P,Q2,2*%
%TO.N,RAW_48V_GND*%
X119715000Y-52565000D03*
D22*
%TO.P,Q2,3*%
%TO.N,48V_GND*%
X122000000Y-59000000D03*
%TD*%
D24*
%TO.P,U5,1,+In*%
%TO.N,48V*%
X77260000Y-74560000D03*
%TO.P,U5,2,RC*%
%TO.N,unconnected-(U5-RC-Pad2)*%
X84880000Y-74560000D03*
%TO.P,U5,3,In-*%
%TO.N,48V_GND*%
X92500000Y-74560000D03*
%TO.P,U5,4,Out-*%
%TO.N,12V_5V_GND*%
X92500000Y-102500000D03*
%TO.P,U5,5,Vadj*%
%TO.N,Net-(U5-Vadj)*%
X84880000Y-102500000D03*
%TO.P,U5,6,Out+*%
%TO.N,5V*%
X77260000Y-102500000D03*
%TD*%
D25*
%TO.P,U8,1,+In*%
%TO.N,48V*%
X140880000Y-65110000D03*
%TO.P,U8,2,RC*%
%TO.N,48V_GND*%
X148500000Y-65110000D03*
%TO.P,U8,3,-In*%
X156120000Y-65110000D03*
D26*
%TO.P,U8,4,-Out*%
%TO.N,12V_5V_GND*%
X159930000Y-115910000D03*
%TO.P,U8,5,-Out*%
X156120000Y-115910000D03*
D27*
%TO.P,U8,6,PG_Sync*%
%TO.N,unconnected-(U8-PG_Sync-Pad6)*%
X148500000Y-116150000D03*
D26*
%TO.P,U8,7,+Out*%
%TO.N,12V*%
X140880000Y-115910000D03*
%TO.P,U8,8,+Out*%
X137070000Y-115910000D03*
D27*
%TO.P,U8,9,PG/CTRL*%
%TO.N,PG*%
X154500000Y-118690000D03*
%TO.P,U8,10,-SENSE*%
%TO.N,12V_5V_GND*%
X152500000Y-118690000D03*
%TO.P,U8,11,SDA*%
%TO.N,DATA*%
X150500000Y-118690000D03*
%TO.P,U8,12,SALERT*%
%TO.N,ALERT1*%
X148500000Y-118690000D03*
%TO.P,U8,13,SCL*%
%TO.N,SWCLK*%
X146500000Y-118690000D03*
%TO.P,U8,14,SA0/SA1*%
%TO.N,Net-(U8-SA0{slash}SA1)*%
X144500000Y-118690000D03*
%TO.P,U8,15,SA0/+SENSE*%
%TO.N,12V*%
X142500000Y-118690000D03*
%TD*%
D28*
%TO.N,NRST_PSB*%
X99870000Y-140600000D03*
D29*
%TO.N,5V*%
X119200000Y-97710000D03*
%TO.N,48V*%
X151087100Y-73579400D03*
D30*
X148781250Y-47000000D03*
D29*
X83000000Y-58000000D03*
X151087100Y-54098800D03*
X118000000Y-67000000D03*
X151237700Y-85730000D03*
D30*
%TO.N,12V_5V_GND*%
X157000000Y-129900000D03*
D29*
X85000000Y-121000000D03*
X79000000Y-92000000D03*
%TD*%
D31*
%TO.N,5V*%
X89490000Y-135460000D02*
X89490000Y-132920000D01*
D32*
%TO.N,SWCLK*%
X123000000Y-112700000D02*
X121510000Y-114190000D01*
X143300000Y-112700000D02*
X123000000Y-112700000D01*
X146500000Y-115900000D02*
X143300000Y-112700000D01*
X146500000Y-118690000D02*
X146500000Y-115900000D01*
X121510000Y-114190000D02*
X121510000Y-116590000D01*
%TO.N,NRST_PSB*%
X92094700Y-140604700D02*
X99840000Y-140604700D01*
X99840000Y-140604700D02*
X99870000Y-140600000D01*
X99870000Y-140600000D02*
X99849400Y-140604700D01*
X99849400Y-140604700D02*
X99844700Y-140604700D01*
X89490000Y-138000000D02*
X92094700Y-140604700D01*
D31*
%TO.N,5V*%
X77200000Y-109800000D02*
X77200000Y-102560000D01*
X89490000Y-132920000D02*
X89500000Y-132910000D01*
X77200000Y-102560000D02*
X77260000Y-102500000D01*
X72950000Y-116000000D02*
X72950000Y-114050000D01*
X77000000Y-110000000D02*
X77200000Y-109800000D01*
X92030000Y-135460000D02*
X89490000Y-135460000D01*
X93480000Y-114680000D02*
X93480000Y-112130000D01*
X89500000Y-132910000D02*
X89500000Y-117100000D01*
X93480000Y-112130000D02*
X107920000Y-97690000D01*
X77260000Y-102500000D02*
X81087500Y-98672500D01*
X82400000Y-110000000D02*
X89500000Y-117100000D01*
X92000000Y-132890000D02*
X92030000Y-132920000D01*
X89490000Y-132920000D02*
X92030000Y-132920000D01*
X78100000Y-102500000D02*
X77260000Y-102500000D01*
X107920000Y-97690000D02*
X119230000Y-97690000D01*
X89500000Y-117100000D02*
X91060000Y-117100000D01*
X92030000Y-132920000D02*
X92030000Y-135460000D01*
X81087500Y-98672500D02*
X81087500Y-98000000D01*
X72950000Y-114050000D02*
X77000000Y-110000000D01*
X91060000Y-117100000D02*
X93480000Y-114680000D01*
X77000000Y-110000000D02*
X82400000Y-110000000D01*
D33*
%TO.N,Net-(D1-K)*%
X111000000Y-62250000D02*
X117925000Y-62250000D01*
X118000000Y-59570000D02*
X117430000Y-59000000D01*
X118000000Y-62175000D02*
X118000000Y-59570000D01*
X117925000Y-62250000D02*
X118000000Y-62175000D01*
D34*
%TO.N,48V*%
X151087100Y-73579400D02*
X145440000Y-73579400D01*
X83000000Y-58000000D02*
X77000000Y-58000000D01*
X151237700Y-85730000D02*
X145440000Y-85730000D01*
D33*
X118000000Y-67000000D02*
X118000000Y-64000000D01*
D34*
X148781250Y-47000000D02*
X151037500Y-47000000D01*
X151087100Y-54098800D02*
X150988300Y-54000000D01*
X150988300Y-54000000D02*
X145425850Y-54000000D01*
D31*
%TO.N,12V_5V_GND*%
X126590000Y-81150000D02*
X126590000Y-79165000D01*
X115740000Y-92000000D02*
X126590000Y-81150000D01*
X75000000Y-92000000D02*
X79000000Y-92000000D01*
D34*
X157000000Y-129900000D02*
X153000000Y-129900000D01*
X153050000Y-129850000D02*
X153050000Y-125000000D01*
D31*
X79000000Y-92000000D02*
X115740000Y-92000000D01*
X83000000Y-116000000D02*
X80000000Y-116000000D01*
D34*
X153000000Y-129900000D02*
X153050000Y-129850000D01*
D31*
X85000000Y-118000000D02*
X83000000Y-116000000D01*
X85000000Y-121000000D02*
X85000000Y-118000000D01*
D34*
%TO.N,RAW_48V_GND*%
X111000000Y-50180000D02*
X110820000Y-50000000D01*
%TO.N,Net-(D2-Pad2)*%
X152862500Y-47000000D02*
X155900000Y-47000000D01*
%TO.N,Net-(D3-Pad2)*%
X146775000Y-125000000D02*
X150950000Y-125000000D01*
%TO.N,Net-(D4-Pad2)*%
X74775000Y-116000000D02*
X77900000Y-116000000D01*
D31*
%TO.N,Net-(U5-Vadj)*%
X84880000Y-102500000D02*
X84880000Y-99967500D01*
X84880000Y-99967500D02*
X82912500Y-98000000D01*
%TD*%
%TA.AperFunction,Conductor*%
%TO.N,12V*%
G36*
X143229737Y-113550606D02*
G01*
X143250844Y-113567538D01*
X145815481Y-116132174D01*
X145848966Y-116193497D01*
X145851800Y-116219855D01*
X145851800Y-117481941D01*
X145832115Y-117548980D01*
X145798926Y-117583513D01*
X145655700Y-117683802D01*
X145655698Y-117683803D01*
X145655695Y-117683806D01*
X145587681Y-117751821D01*
X145526358Y-117785306D01*
X145456666Y-117780322D01*
X145412319Y-117751821D01*
X145344304Y-117683806D01*
X145344300Y-117683802D01*
X145156749Y-117552477D01*
X145113655Y-117532382D01*
X144949249Y-117455718D01*
X144949238Y-117455714D01*
X144728089Y-117396457D01*
X144728081Y-117396456D01*
X144500002Y-117376502D01*
X144499998Y-117376502D01*
X144271918Y-117396456D01*
X144271910Y-117396457D01*
X144050761Y-117455714D01*
X144050750Y-117455718D01*
X143843254Y-117552475D01*
X143843252Y-117552476D01*
X143785511Y-117592907D01*
X143655700Y-117683802D01*
X143655698Y-117683803D01*
X143655695Y-117683806D01*
X143493806Y-117845695D01*
X143493803Y-117845698D01*
X143493802Y-117845700D01*
X143421455Y-117949022D01*
X143362476Y-118033252D01*
X143362475Y-118033254D01*
X143265718Y-118240750D01*
X143265714Y-118240761D01*
X143206457Y-118461910D01*
X143206456Y-118461918D01*
X143186502Y-118689998D01*
X143186502Y-118690001D01*
X143206456Y-118918081D01*
X143206457Y-118918089D01*
X143265714Y-119139238D01*
X143265718Y-119139249D01*
X143362475Y-119346745D01*
X143362477Y-119346749D01*
X143493802Y-119534300D01*
X143655700Y-119696198D01*
X143843251Y-119827523D01*
X143968091Y-119885736D01*
X144050750Y-119924281D01*
X144050752Y-119924281D01*
X144050757Y-119924284D01*
X144271913Y-119983543D01*
X144434832Y-119997796D01*
X144499998Y-120003498D01*
X144500000Y-120003498D01*
X144500002Y-120003498D01*
X144557021Y-119998509D01*
X144728087Y-119983543D01*
X144949243Y-119924284D01*
X145156749Y-119827523D01*
X145344300Y-119696198D01*
X145412319Y-119628179D01*
X145473642Y-119594694D01*
X145543334Y-119599678D01*
X145587681Y-119628179D01*
X145655700Y-119696198D01*
X145843251Y-119827523D01*
X145968091Y-119885736D01*
X146050750Y-119924281D01*
X146050752Y-119924281D01*
X146050757Y-119924284D01*
X146271913Y-119983543D01*
X146434832Y-119997796D01*
X146499998Y-120003498D01*
X146500000Y-120003498D01*
X146500002Y-120003498D01*
X146557021Y-119998509D01*
X146728087Y-119983543D01*
X146949243Y-119924284D01*
X147156749Y-119827523D01*
X147344300Y-119696198D01*
X147412319Y-119628179D01*
X147473642Y-119594694D01*
X147543334Y-119599678D01*
X147587681Y-119628179D01*
X147655700Y-119696198D01*
X147843251Y-119827523D01*
X147968091Y-119885736D01*
X148050750Y-119924281D01*
X148050752Y-119924281D01*
X148050757Y-119924284D01*
X148271913Y-119983543D01*
X148434832Y-119997796D01*
X148499998Y-120003498D01*
X148500000Y-120003498D01*
X148500002Y-120003498D01*
X148557021Y-119998509D01*
X148728087Y-119983543D01*
X148949243Y-119924284D01*
X149156749Y-119827523D01*
X149344300Y-119696198D01*
X149412319Y-119628179D01*
X149473642Y-119594694D01*
X149543334Y-119599678D01*
X149587681Y-119628179D01*
X149655700Y-119696198D01*
X149843251Y-119827523D01*
X149968091Y-119885736D01*
X150050750Y-119924281D01*
X150050752Y-119924281D01*
X150050757Y-119924284D01*
X150271913Y-119983543D01*
X150434832Y-119997796D01*
X150499998Y-120003498D01*
X150500000Y-120003498D01*
X150500002Y-120003498D01*
X150557021Y-119998509D01*
X150728087Y-119983543D01*
X150949243Y-119924284D01*
X151156749Y-119827523D01*
X151344300Y-119696198D01*
X151412319Y-119628179D01*
X151473642Y-119594694D01*
X151543334Y-119599678D01*
X151587681Y-119628179D01*
X151655700Y-119696198D01*
X151843251Y-119827523D01*
X151968091Y-119885736D01*
X152050750Y-119924281D01*
X152050752Y-119924281D01*
X152050757Y-119924284D01*
X152271913Y-119983543D01*
X152434832Y-119997796D01*
X152499998Y-120003498D01*
X152500000Y-120003498D01*
X152500002Y-120003498D01*
X152557021Y-119998509D01*
X152728087Y-119983543D01*
X152949243Y-119924284D01*
X153156749Y-119827523D01*
X153344300Y-119696198D01*
X153412319Y-119628179D01*
X153473642Y-119594694D01*
X153543334Y-119599678D01*
X153587681Y-119628179D01*
X153655700Y-119696198D01*
X153843251Y-119827523D01*
X153968091Y-119885736D01*
X154050750Y-119924281D01*
X154050752Y-119924281D01*
X154050757Y-119924284D01*
X154271913Y-119983543D01*
X154434832Y-119997796D01*
X154499998Y-120003498D01*
X154500000Y-120003498D01*
X154500002Y-120003498D01*
X154557021Y-119998509D01*
X154728087Y-119983543D01*
X154949243Y-119924284D01*
X155156749Y-119827523D01*
X155344300Y-119696198D01*
X155506198Y-119534300D01*
X155637523Y-119346749D01*
X155734284Y-119139243D01*
X155793543Y-118918087D01*
X155813498Y-118690000D01*
X155793543Y-118461913D01*
X155734284Y-118240757D01*
X155678030Y-118120120D01*
X155667539Y-118051045D01*
X155696059Y-117987261D01*
X155754535Y-117949022D01*
X155807296Y-117944873D01*
X155926655Y-117961278D01*
X155979194Y-117968500D01*
X155979195Y-117968500D01*
X156260806Y-117968500D01*
X156290883Y-117964365D01*
X156539793Y-117930154D01*
X156810960Y-117854176D01*
X157069257Y-117741982D01*
X157309870Y-117595662D01*
X157528319Y-117417941D01*
X157720533Y-117212130D01*
X157882932Y-116982063D01*
X157914902Y-116920362D01*
X157963222Y-116869896D01*
X158031156Y-116853564D01*
X158097136Y-116876553D01*
X158135097Y-116920362D01*
X158167068Y-116982063D01*
X158329467Y-117212130D01*
X158329471Y-117212134D01*
X158329471Y-117212135D01*
X158433063Y-117323054D01*
X158501615Y-117396456D01*
X158521684Y-117417944D01*
X158740123Y-117595657D01*
X158740126Y-117595659D01*
X158740130Y-117595662D01*
X158866359Y-117672423D01*
X158980744Y-117741983D01*
X159190382Y-117833041D01*
X159239040Y-117854176D01*
X159510207Y-117930154D01*
X159755481Y-117963866D01*
X159789194Y-117968500D01*
X159789195Y-117968500D01*
X160070806Y-117968500D01*
X160100883Y-117964365D01*
X160349793Y-117930154D01*
X160620960Y-117854176D01*
X160879257Y-117741982D01*
X161119870Y-117595662D01*
X161338319Y-117417941D01*
X161530533Y-117212130D01*
X161692932Y-116982063D01*
X161822491Y-116732025D01*
X161916797Y-116466674D01*
X161974092Y-116190954D01*
X161993310Y-115910000D01*
X161974092Y-115629046D01*
X161916797Y-115353326D01*
X161912649Y-115341656D01*
X161835000Y-115123171D01*
X161822492Y-115087978D01*
X161822493Y-115087978D01*
X161747603Y-114943447D01*
X161692932Y-114837937D01*
X161530533Y-114607870D01*
X161530528Y-114607864D01*
X161338315Y-114402055D01*
X161246426Y-114327298D01*
X161206845Y-114269721D01*
X161204677Y-114199885D01*
X161240609Y-114139963D01*
X161303233Y-114108979D01*
X161324306Y-114107111D01*
X168375134Y-114086236D01*
X168442230Y-114105722D01*
X168488141Y-114158390D01*
X168499500Y-114210235D01*
X168499500Y-141875500D01*
X168479815Y-141942539D01*
X168427011Y-141988294D01*
X168375500Y-141999500D01*
X113493711Y-141999500D01*
X113491449Y-141999479D01*
X105421738Y-141852221D01*
X105355068Y-141831317D01*
X105310285Y-141777687D01*
X105300000Y-141728242D01*
X105300000Y-137573157D01*
X105319685Y-137506118D01*
X105331955Y-137490069D01*
X105449838Y-137359507D01*
X105527898Y-137233573D01*
X105579946Y-137186965D01*
X105648933Y-137175895D01*
X105712954Y-137203879D01*
X105751682Y-137262033D01*
X105753066Y-137266810D01*
X105798728Y-137437221D01*
X105798732Y-137437233D01*
X105892901Y-137639179D01*
X105892907Y-137639189D01*
X106020710Y-137821710D01*
X106020719Y-137821720D01*
X106178279Y-137979280D01*
X106178289Y-137979289D01*
X106332364Y-138087174D01*
X106360817Y-138107097D01*
X106426270Y-138137618D01*
X106478709Y-138183790D01*
X106497861Y-138250984D01*
X106477645Y-138317865D01*
X106426270Y-138362382D01*
X106360818Y-138392903D01*
X106360811Y-138392907D01*
X106178282Y-138520716D01*
X106020716Y-138678282D01*
X105892907Y-138860811D01*
X105892903Y-138860817D01*
X105798731Y-139062771D01*
X105798727Y-139062780D01*
X105741057Y-139278009D01*
X105741055Y-139278019D01*
X105721635Y-139499998D01*
X105721635Y-139500001D01*
X105741055Y-139721980D01*
X105741057Y-139721990D01*
X105798727Y-139937219D01*
X105798732Y-139937233D01*
X105892901Y-140139179D01*
X105892907Y-140139189D01*
X106020710Y-140321710D01*
X106020719Y-140321720D01*
X106178279Y-140479280D01*
X106178289Y-140479289D01*
X106340772Y-140593061D01*
X106360817Y-140607097D01*
X106482318Y-140663753D01*
X106562766Y-140701267D01*
X106562768Y-140701267D01*
X106562773Y-140701270D01*
X106778014Y-140758944D01*
X106936575Y-140772816D01*
X106999998Y-140778365D01*
X107000000Y-140778365D01*
X107000002Y-140778365D01*
X107055496Y-140773509D01*
X107221986Y-140758944D01*
X107437227Y-140701270D01*
X107639183Y-140607097D01*
X107821717Y-140479284D01*
X107979284Y-140321717D01*
X108107097Y-140139183D01*
X108201270Y-139937227D01*
X108258944Y-139721986D01*
X108278365Y-139500000D01*
X108258944Y-139278014D01*
X108201270Y-139062773D01*
X108107097Y-138860818D01*
X107979284Y-138678283D01*
X107821717Y-138520716D01*
X107821715Y-138520714D01*
X107821710Y-138520710D01*
X107639189Y-138392907D01*
X107639186Y-138392905D01*
X107639183Y-138392903D01*
X107573729Y-138362381D01*
X107521290Y-138316210D01*
X107502138Y-138249017D01*
X107522353Y-138182136D01*
X107573730Y-138137618D01*
X107639183Y-138107097D01*
X107821717Y-137979284D01*
X107979284Y-137821717D01*
X108107097Y-137639183D01*
X108201270Y-137437227D01*
X108258944Y-137221986D01*
X108278365Y-137000000D01*
X108258944Y-136778014D01*
X108201270Y-136562773D01*
X108107097Y-136360818D01*
X107979284Y-136178283D01*
X107821717Y-136020716D01*
X107821715Y-136020714D01*
X107821710Y-136020710D01*
X107639189Y-135892907D01*
X107639186Y-135892905D01*
X107639183Y-135892903D01*
X107573729Y-135862381D01*
X107521290Y-135816210D01*
X107502138Y-135749017D01*
X107522353Y-135682136D01*
X107573730Y-135637618D01*
X107597195Y-135626676D01*
X107639183Y-135607097D01*
X107814996Y-135483990D01*
X107821710Y-135479289D01*
X107821710Y-135479288D01*
X107821717Y-135479284D01*
X107979284Y-135321717D01*
X107980337Y-135320214D01*
X108009376Y-135278741D01*
X108107097Y-135139183D01*
X108201270Y-134937227D01*
X108258944Y-134721986D01*
X108278365Y-134500000D01*
X108258944Y-134278014D01*
X108201270Y-134062773D01*
X108107097Y-133860818D01*
X107979284Y-133678283D01*
X107821717Y-133520716D01*
X107821715Y-133520714D01*
X107821710Y-133520710D01*
X107639189Y-133392907D01*
X107639186Y-133392905D01*
X107639183Y-133392903D01*
X107573729Y-133362381D01*
X107521290Y-133316210D01*
X107502138Y-133249017D01*
X107522353Y-133182136D01*
X107573730Y-133137618D01*
X107639183Y-133107097D01*
X107821717Y-132979284D01*
X107979284Y-132821717D01*
X108107097Y-132639183D01*
X108201270Y-132437227D01*
X108258944Y-132221986D01*
X108278365Y-132000000D01*
X108258944Y-131778014D01*
X108201270Y-131562773D01*
X108107097Y-131360818D01*
X107979284Y-131178283D01*
X107821717Y-131020716D01*
X107821715Y-131020714D01*
X107821710Y-131020710D01*
X107639189Y-130892907D01*
X107639186Y-130892905D01*
X107639183Y-130892903D01*
X107588101Y-130869083D01*
X107437233Y-130798732D01*
X107437219Y-130798727D01*
X107221990Y-130741057D01*
X107221988Y-130741056D01*
X107221986Y-130741056D01*
X107221984Y-130741055D01*
X107221980Y-130741055D01*
X107000002Y-130721635D01*
X106999998Y-130721635D01*
X106778019Y-130741055D01*
X106778009Y-130741057D01*
X106562780Y-130798727D01*
X106562771Y-130798731D01*
X106360817Y-130892903D01*
X106360811Y-130892907D01*
X106178282Y-131020716D01*
X106020716Y-131178282D01*
X105951074Y-131277741D01*
X105896497Y-131321366D01*
X105826999Y-131328558D01*
X105764644Y-131297035D01*
X105729231Y-131236805D01*
X105725500Y-131206617D01*
X105725500Y-129499998D01*
X108721635Y-129499998D01*
X108721635Y-129500001D01*
X108741055Y-129721980D01*
X108741057Y-129721990D01*
X108798727Y-129937219D01*
X108798732Y-129937233D01*
X108892901Y-130139179D01*
X108892907Y-130139189D01*
X109020710Y-130321710D01*
X109020719Y-130321720D01*
X109178279Y-130479280D01*
X109178289Y-130479289D01*
X109340772Y-130593061D01*
X109360817Y-130607097D01*
X109426270Y-130637618D01*
X109478709Y-130683790D01*
X109497861Y-130750984D01*
X109477645Y-130817865D01*
X109426270Y-130862382D01*
X109360818Y-130892903D01*
X109360811Y-130892907D01*
X109178282Y-131020716D01*
X109020716Y-131178282D01*
X108892907Y-131360811D01*
X108892903Y-131360817D01*
X108892903Y-131360818D01*
X108800724Y-131558498D01*
X108798731Y-131562771D01*
X108798727Y-131562780D01*
X108741057Y-131778009D01*
X108741055Y-131778019D01*
X108721635Y-131999998D01*
X108721635Y-132000001D01*
X108741055Y-132221980D01*
X108741057Y-132221990D01*
X108798727Y-132437219D01*
X108798732Y-132437233D01*
X108892901Y-132639179D01*
X108892907Y-132639189D01*
X109020710Y-132821710D01*
X109020719Y-132821720D01*
X109178279Y-132979280D01*
X109178289Y-132979289D01*
X109241766Y-133023736D01*
X109360817Y-133107097D01*
X109400317Y-133125516D01*
X109426270Y-133137618D01*
X109478709Y-133183790D01*
X109497861Y-133250984D01*
X109477645Y-133317865D01*
X109426270Y-133362382D01*
X109360818Y-133392903D01*
X109360811Y-133392907D01*
X109178282Y-133520716D01*
X109020716Y-133678282D01*
X108892907Y-133860811D01*
X108892903Y-133860817D01*
X108798731Y-134062771D01*
X108798727Y-134062780D01*
X108741057Y-134278009D01*
X108741055Y-134278019D01*
X108721635Y-134499998D01*
X108721635Y-134500001D01*
X108741055Y-134721980D01*
X108741057Y-134721990D01*
X108798727Y-134937219D01*
X108798732Y-134937233D01*
X108892901Y-135139179D01*
X108892907Y-135139189D01*
X109020710Y-135321710D01*
X109020719Y-135321720D01*
X109178279Y-135479280D01*
X109178289Y-135479289D01*
X109280673Y-135550979D01*
X109360817Y-135607097D01*
X109402796Y-135626672D01*
X109426270Y-135637618D01*
X109478709Y-135683790D01*
X109497861Y-135750984D01*
X109477645Y-135817865D01*
X109426270Y-135862382D01*
X109360818Y-135892903D01*
X109360811Y-135892907D01*
X109178282Y-136020716D01*
X109020716Y-136178282D01*
X108892907Y-136360811D01*
X108892903Y-136360817D01*
X108798731Y-136562771D01*
X108798727Y-136562780D01*
X108741057Y-136778009D01*
X108741055Y-136778019D01*
X108721635Y-136999998D01*
X108721635Y-137000001D01*
X108741055Y-137221980D01*
X108741057Y-137221990D01*
X108798727Y-137437219D01*
X108798732Y-137437233D01*
X108892901Y-137639179D01*
X108892907Y-137639189D01*
X109020710Y-137821710D01*
X109020719Y-137821720D01*
X109178279Y-137979280D01*
X109178289Y-137979289D01*
X109332364Y-138087174D01*
X109360817Y-138107097D01*
X109426270Y-138137618D01*
X109478709Y-138183790D01*
X109497861Y-138250984D01*
X109477645Y-138317865D01*
X109426270Y-138362382D01*
X109360818Y-138392903D01*
X109360811Y-138392907D01*
X109178282Y-138520716D01*
X109020716Y-138678282D01*
X108892907Y-138860811D01*
X108892903Y-138860817D01*
X108798731Y-139062771D01*
X108798727Y-139062780D01*
X108741057Y-139278009D01*
X108741055Y-139278019D01*
X108721635Y-139499998D01*
X108721635Y-139500001D01*
X108741055Y-139721980D01*
X108741057Y-139721990D01*
X108798727Y-139937219D01*
X108798732Y-139937233D01*
X108892901Y-140139179D01*
X108892907Y-140139189D01*
X109020710Y-140321710D01*
X109020719Y-140321720D01*
X109178279Y-140479280D01*
X109178289Y-140479289D01*
X109340772Y-140593061D01*
X109360817Y-140607097D01*
X109482318Y-140663753D01*
X109562766Y-140701267D01*
X109562768Y-140701267D01*
X109562773Y-140701270D01*
X109778014Y-140758944D01*
X109936575Y-140772816D01*
X109999998Y-140778365D01*
X110000000Y-140778365D01*
X110000002Y-140778365D01*
X110055496Y-140773509D01*
X110221986Y-140758944D01*
X110437227Y-140701270D01*
X110639183Y-140607097D01*
X110821717Y-140479284D01*
X110979284Y-140321717D01*
X111107097Y-140139183D01*
X111137618Y-140073729D01*
X111183790Y-140021290D01*
X111250983Y-140002138D01*
X111317864Y-140022353D01*
X111362382Y-140073730D01*
X111392901Y-140139179D01*
X111392907Y-140139189D01*
X111520710Y-140321710D01*
X111520719Y-140321720D01*
X111678279Y-140479280D01*
X111678289Y-140479289D01*
X111840772Y-140593061D01*
X111860817Y-140607097D01*
X111982318Y-140663753D01*
X112062766Y-140701267D01*
X112062768Y-140701267D01*
X112062773Y-140701270D01*
X112278014Y-140758944D01*
X112436575Y-140772816D01*
X112499998Y-140778365D01*
X112500000Y-140778365D01*
X112500002Y-140778365D01*
X112555496Y-140773509D01*
X112721986Y-140758944D01*
X112937227Y-140701270D01*
X113139183Y-140607097D01*
X113321717Y-140479284D01*
X113479284Y-140321717D01*
X113607097Y-140139183D01*
X113701270Y-139937227D01*
X113758944Y-139721986D01*
X113778365Y-139500000D01*
X113758944Y-139278014D01*
X113701270Y-139062773D01*
X113607097Y-138860818D01*
X113479284Y-138678283D01*
X113321717Y-138520716D01*
X113321715Y-138520714D01*
X113321710Y-138520710D01*
X113139189Y-138392907D01*
X113139186Y-138392905D01*
X113139183Y-138392903D01*
X113073729Y-138362381D01*
X113021290Y-138316210D01*
X113002138Y-138249017D01*
X113022353Y-138182136D01*
X113073730Y-138137618D01*
X113139183Y-138107097D01*
X113321717Y-137979284D01*
X113479284Y-137821717D01*
X113607097Y-137639183D01*
X113701270Y-137437227D01*
X113758944Y-137221986D01*
X113778365Y-137000000D01*
X113758944Y-136778014D01*
X113701270Y-136562773D01*
X113607097Y-136360818D01*
X113479284Y-136178283D01*
X113321717Y-136020716D01*
X113321715Y-136020714D01*
X113321710Y-136020710D01*
X113139189Y-135892907D01*
X113139186Y-135892905D01*
X113139183Y-135892903D01*
X113073729Y-135862381D01*
X113021290Y-135816210D01*
X113002138Y-135749017D01*
X113022353Y-135682136D01*
X113073730Y-135637618D01*
X113097195Y-135626676D01*
X113139183Y-135607097D01*
X113314996Y-135483990D01*
X113321710Y-135479289D01*
X113321710Y-135479288D01*
X113321717Y-135479284D01*
X113479284Y-135321717D01*
X113480337Y-135320214D01*
X113509376Y-135278741D01*
X113607097Y-135139183D01*
X113701270Y-134937227D01*
X113758944Y-134721986D01*
X113778365Y-134500000D01*
X113758944Y-134278014D01*
X113701270Y-134062773D01*
X113607097Y-133860818D01*
X113479284Y-133678283D01*
X113321717Y-133520716D01*
X113321715Y-133520714D01*
X113321710Y-133520710D01*
X113139189Y-133392907D01*
X113139186Y-133392905D01*
X113139183Y-133392903D01*
X113073729Y-133362381D01*
X113021290Y-133316210D01*
X113002138Y-133249017D01*
X113022353Y-133182136D01*
X113073730Y-133137618D01*
X113139183Y-133107097D01*
X113321717Y-132979284D01*
X113479284Y-132821717D01*
X113607097Y-132639183D01*
X113701270Y-132437227D01*
X113758944Y-132221986D01*
X113778365Y-132000000D01*
X113758944Y-131778014D01*
X113701270Y-131562773D01*
X113607097Y-131360818D01*
X113479284Y-131178283D01*
X113321717Y-131020716D01*
X113321715Y-131020714D01*
X113321710Y-131020710D01*
X113139189Y-130892907D01*
X113139186Y-130892905D01*
X113139183Y-130892903D01*
X113073729Y-130862381D01*
X113021290Y-130816210D01*
X113002138Y-130749017D01*
X113022353Y-130682136D01*
X113073730Y-130637618D01*
X113139183Y-130607097D01*
X113321717Y-130479284D01*
X113479284Y-130321717D01*
X113607097Y-130139183D01*
X113701270Y-129937227D01*
X113758944Y-129721986D01*
X113778365Y-129500000D01*
X113778365Y-129499998D01*
X114221635Y-129499998D01*
X114221635Y-129500001D01*
X114241055Y-129721980D01*
X114241057Y-129721990D01*
X114298727Y-129937219D01*
X114298732Y-129937233D01*
X114392901Y-130139179D01*
X114392907Y-130139189D01*
X114520710Y-130321710D01*
X114520719Y-130321720D01*
X114678279Y-130479280D01*
X114678289Y-130479289D01*
X114840772Y-130593061D01*
X114860817Y-130607097D01*
X114926270Y-130637618D01*
X114978709Y-130683790D01*
X114997861Y-130750984D01*
X114977645Y-130817865D01*
X114926270Y-130862382D01*
X114860818Y-130892903D01*
X114860811Y-130892907D01*
X114678282Y-131020716D01*
X114520716Y-131178282D01*
X114392907Y-131360811D01*
X114392903Y-131360817D01*
X114392903Y-131360818D01*
X114300724Y-131558498D01*
X114298731Y-131562771D01*
X114298727Y-131562780D01*
X114241057Y-131778009D01*
X114241055Y-131778019D01*
X114221635Y-131999998D01*
X114221635Y-132000001D01*
X114241055Y-132221980D01*
X114241057Y-132221990D01*
X114298727Y-132437219D01*
X114298732Y-132437233D01*
X114392901Y-132639179D01*
X114392907Y-132639189D01*
X114520710Y-132821710D01*
X114520719Y-132821720D01*
X114678279Y-132979280D01*
X114678289Y-132979289D01*
X114741766Y-133023736D01*
X114860817Y-133107097D01*
X114900317Y-133125516D01*
X114926270Y-133137618D01*
X114978709Y-133183790D01*
X114997861Y-133250984D01*
X114977645Y-133317865D01*
X114926270Y-133362382D01*
X114860818Y-133392903D01*
X114860811Y-133392907D01*
X114678282Y-133520716D01*
X114520716Y-133678282D01*
X114392907Y-133860811D01*
X114392903Y-133860817D01*
X114298731Y-134062771D01*
X114298727Y-134062780D01*
X114241057Y-134278009D01*
X114241055Y-134278019D01*
X114221635Y-134499998D01*
X114221635Y-134500001D01*
X114241055Y-134721980D01*
X114241057Y-134721990D01*
X114298727Y-134937219D01*
X114298732Y-134937233D01*
X114392901Y-135139179D01*
X114392907Y-135139189D01*
X114520710Y-135321710D01*
X114520719Y-135321720D01*
X114678279Y-135479280D01*
X114678289Y-135479289D01*
X114780673Y-135550979D01*
X114860817Y-135607097D01*
X114902796Y-135626672D01*
X114926270Y-135637618D01*
X114978709Y-135683790D01*
X114997861Y-135750984D01*
X114977645Y-135817865D01*
X114926270Y-135862382D01*
X114860818Y-135892903D01*
X114860811Y-135892907D01*
X114678282Y-136020716D01*
X114520716Y-136178282D01*
X114392907Y-136360811D01*
X114392903Y-136360817D01*
X114298731Y-136562771D01*
X114298727Y-136562780D01*
X114241057Y-136778009D01*
X114241055Y-136778019D01*
X114221635Y-136999998D01*
X114221635Y-137000001D01*
X114241055Y-137221980D01*
X114241057Y-137221990D01*
X114298727Y-137437219D01*
X114298732Y-137437233D01*
X114392901Y-137639179D01*
X114392907Y-137639189D01*
X114520710Y-137821710D01*
X114520719Y-137821720D01*
X114678279Y-137979280D01*
X114678289Y-137979289D01*
X114832364Y-138087174D01*
X114860817Y-138107097D01*
X114926270Y-138137618D01*
X114978709Y-138183790D01*
X114997861Y-138250984D01*
X114977645Y-138317865D01*
X114926270Y-138362382D01*
X114860818Y-138392903D01*
X114860811Y-138392907D01*
X114678282Y-138520716D01*
X114520716Y-138678282D01*
X114392907Y-138860811D01*
X114392903Y-138860817D01*
X114298731Y-139062771D01*
X114298727Y-139062780D01*
X114241057Y-139278009D01*
X114241055Y-139278019D01*
X114221635Y-139499998D01*
X114221635Y-139500001D01*
X114241055Y-139721980D01*
X114241057Y-139721990D01*
X114298727Y-139937219D01*
X114298732Y-139937233D01*
X114392901Y-140139179D01*
X114392907Y-140139189D01*
X114520710Y-140321710D01*
X114520719Y-140321720D01*
X114678279Y-140479280D01*
X114678289Y-140479289D01*
X114840772Y-140593061D01*
X114860817Y-140607097D01*
X114982318Y-140663753D01*
X115062766Y-140701267D01*
X115062768Y-140701267D01*
X115062773Y-140701270D01*
X115278014Y-140758944D01*
X115436575Y-140772816D01*
X115499998Y-140778365D01*
X115500000Y-140778365D01*
X115500002Y-140778365D01*
X115555496Y-140773509D01*
X115721986Y-140758944D01*
X115937227Y-140701270D01*
X116139183Y-140607097D01*
X116321717Y-140479284D01*
X116479284Y-140321717D01*
X116607097Y-140139183D01*
X116637618Y-140073729D01*
X116683790Y-140021290D01*
X116750983Y-140002138D01*
X116817864Y-140022353D01*
X116862382Y-140073730D01*
X116892901Y-140139179D01*
X116892907Y-140139189D01*
X117020710Y-140321710D01*
X117020719Y-140321720D01*
X117178279Y-140479280D01*
X117178289Y-140479289D01*
X117340772Y-140593061D01*
X117360817Y-140607097D01*
X117482318Y-140663753D01*
X117562766Y-140701267D01*
X117562768Y-140701267D01*
X117562773Y-140701270D01*
X117778014Y-140758944D01*
X117936575Y-140772816D01*
X117999998Y-140778365D01*
X118000000Y-140778365D01*
X118000002Y-140778365D01*
X118055496Y-140773509D01*
X118221986Y-140758944D01*
X118437227Y-140701270D01*
X118639183Y-140607097D01*
X118821717Y-140479284D01*
X118979284Y-140321717D01*
X119107097Y-140139183D01*
X119201270Y-139937227D01*
X119258944Y-139721986D01*
X119278365Y-139500000D01*
X119258944Y-139278014D01*
X119201270Y-139062773D01*
X119107097Y-138860818D01*
X118979284Y-138678283D01*
X118821717Y-138520716D01*
X118821715Y-138520714D01*
X118821710Y-138520710D01*
X118639189Y-138392907D01*
X118639186Y-138392905D01*
X118639183Y-138392903D01*
X118573729Y-138362381D01*
X118521290Y-138316210D01*
X118502138Y-138249017D01*
X118522353Y-138182136D01*
X118573730Y-138137618D01*
X118639183Y-138107097D01*
X118821717Y-137979284D01*
X118979284Y-137821717D01*
X119107097Y-137639183D01*
X119201270Y-137437227D01*
X119258944Y-137221986D01*
X119278365Y-137000000D01*
X119258944Y-136778014D01*
X119201270Y-136562773D01*
X119107097Y-136360818D01*
X118979284Y-136178283D01*
X118821717Y-136020716D01*
X118821715Y-136020714D01*
X118821710Y-136020710D01*
X118639189Y-135892907D01*
X118639186Y-135892905D01*
X118639183Y-135892903D01*
X118573729Y-135862381D01*
X118521290Y-135816210D01*
X118502138Y-135749017D01*
X118522353Y-135682136D01*
X118573730Y-135637618D01*
X118597195Y-135626676D01*
X118639183Y-135607097D01*
X118814996Y-135483990D01*
X118821710Y-135479289D01*
X118821710Y-135479288D01*
X118821717Y-135479284D01*
X118979284Y-135321717D01*
X118980337Y-135320214D01*
X119009376Y-135278741D01*
X119107097Y-135139183D01*
X119201270Y-134937227D01*
X119258944Y-134721986D01*
X119278365Y-134500000D01*
X119258944Y-134278014D01*
X119201270Y-134062773D01*
X119107097Y-133860818D01*
X118979284Y-133678283D01*
X118821717Y-133520716D01*
X118821715Y-133520714D01*
X118821710Y-133520710D01*
X118639189Y-133392907D01*
X118639186Y-133392905D01*
X118639183Y-133392903D01*
X118573729Y-133362381D01*
X118521290Y-133316210D01*
X118502138Y-133249017D01*
X118522353Y-133182136D01*
X118573730Y-133137618D01*
X118639183Y-133107097D01*
X118821717Y-132979284D01*
X118979284Y-132821717D01*
X119107097Y-132639183D01*
X119201270Y-132437227D01*
X119258944Y-132221986D01*
X119278365Y-132000000D01*
X119258944Y-131778014D01*
X119201270Y-131562773D01*
X119107097Y-131360818D01*
X118979284Y-131178283D01*
X118821717Y-131020716D01*
X118821715Y-131020714D01*
X118821710Y-131020710D01*
X118639189Y-130892907D01*
X118639186Y-130892905D01*
X118639183Y-130892903D01*
X118573729Y-130862381D01*
X118521290Y-130816210D01*
X118502138Y-130749017D01*
X118522353Y-130682136D01*
X118573730Y-130637618D01*
X118639183Y-130607097D01*
X118821717Y-130479284D01*
X118979284Y-130321717D01*
X119107097Y-130139183D01*
X119201270Y-129937227D01*
X119258944Y-129721986D01*
X119278365Y-129500000D01*
X119278365Y-129499998D01*
X119721635Y-129499998D01*
X119721635Y-129500001D01*
X119741055Y-129721980D01*
X119741057Y-129721990D01*
X119798727Y-129937219D01*
X119798732Y-129937233D01*
X119892901Y-130139179D01*
X119892907Y-130139189D01*
X120020710Y-130321710D01*
X120020719Y-130321720D01*
X120178279Y-130479280D01*
X120178289Y-130479289D01*
X120340772Y-130593061D01*
X120360817Y-130607097D01*
X120426270Y-130637618D01*
X120478709Y-130683790D01*
X120497861Y-130750984D01*
X120477645Y-130817865D01*
X120426270Y-130862382D01*
X120360818Y-130892903D01*
X120360811Y-130892907D01*
X120178282Y-131020716D01*
X120020716Y-131178282D01*
X119892907Y-131360811D01*
X119892903Y-131360817D01*
X119892903Y-131360818D01*
X119800724Y-131558498D01*
X119798731Y-131562771D01*
X119798727Y-131562780D01*
X119741057Y-131778009D01*
X119741055Y-131778019D01*
X119721635Y-131999998D01*
X119721635Y-132000001D01*
X119741055Y-132221980D01*
X119741057Y-132221990D01*
X119798727Y-132437219D01*
X119798732Y-132437233D01*
X119892901Y-132639179D01*
X119892907Y-132639189D01*
X120020710Y-132821710D01*
X120020719Y-132821720D01*
X120178279Y-132979280D01*
X120178289Y-132979289D01*
X120241766Y-133023736D01*
X120360817Y-133107097D01*
X120400317Y-133125516D01*
X120426270Y-133137618D01*
X120478709Y-133183790D01*
X120497861Y-133250984D01*
X120477645Y-133317865D01*
X120426270Y-133362382D01*
X120360818Y-133392903D01*
X120360811Y-133392907D01*
X120178282Y-133520716D01*
X120020716Y-133678282D01*
X119892907Y-133860811D01*
X119892903Y-133860817D01*
X119798731Y-134062771D01*
X119798727Y-134062780D01*
X119741057Y-134278009D01*
X119741055Y-134278019D01*
X119721635Y-134499998D01*
X119721635Y-134500001D01*
X119741055Y-134721980D01*
X119741057Y-134721990D01*
X119798727Y-134937219D01*
X119798732Y-134937233D01*
X119892901Y-135139179D01*
X119892907Y-135139189D01*
X120020710Y-135321710D01*
X120020719Y-135321720D01*
X120178279Y-135479280D01*
X120178289Y-135479289D01*
X120280673Y-135550979D01*
X120360817Y-135607097D01*
X120402796Y-135626672D01*
X120426270Y-135637618D01*
X120478709Y-135683790D01*
X120497861Y-135750984D01*
X120477645Y-135817865D01*
X120426270Y-135862382D01*
X120360818Y-135892903D01*
X120360811Y-135892907D01*
X120178282Y-136020716D01*
X120020716Y-136178282D01*
X119892907Y-136360811D01*
X119892903Y-136360817D01*
X119798731Y-136562771D01*
X119798727Y-136562780D01*
X119741057Y-136778009D01*
X119741055Y-136778019D01*
X119721635Y-136999998D01*
X119721635Y-137000001D01*
X119741055Y-137221980D01*
X119741057Y-137221990D01*
X119798727Y-137437219D01*
X119798732Y-137437233D01*
X119892901Y-137639179D01*
X119892907Y-137639189D01*
X120020710Y-137821710D01*
X120020719Y-137821720D01*
X120178279Y-137979280D01*
X120178289Y-137979289D01*
X120332364Y-138087174D01*
X120360817Y-138107097D01*
X120426270Y-138137618D01*
X120478709Y-138183790D01*
X120497861Y-138250984D01*
X120477645Y-138317865D01*
X120426270Y-138362382D01*
X120360818Y-138392903D01*
X120360811Y-138392907D01*
X120178282Y-138520716D01*
X120020716Y-138678282D01*
X119892907Y-138860811D01*
X119892903Y-138860817D01*
X119798731Y-139062771D01*
X119798727Y-139062780D01*
X119741057Y-139278009D01*
X119741055Y-139278019D01*
X119721635Y-139499998D01*
X119721635Y-139500001D01*
X119741055Y-139721980D01*
X119741057Y-139721990D01*
X119798727Y-139937219D01*
X119798732Y-139937233D01*
X119892901Y-140139179D01*
X119892907Y-140139189D01*
X120020710Y-140321710D01*
X120020719Y-140321720D01*
X120178279Y-140479280D01*
X120178289Y-140479289D01*
X120340772Y-140593061D01*
X120360817Y-140607097D01*
X120482318Y-140663753D01*
X120562766Y-140701267D01*
X120562768Y-140701267D01*
X120562773Y-140701270D01*
X120778014Y-140758944D01*
X120936575Y-140772816D01*
X120999998Y-140778365D01*
X121000000Y-140778365D01*
X121000002Y-140778365D01*
X121055496Y-140773509D01*
X121221986Y-140758944D01*
X121437227Y-140701270D01*
X121639183Y-140607097D01*
X121821717Y-140479284D01*
X121979284Y-140321717D01*
X122107097Y-140139183D01*
X122137618Y-140073729D01*
X122183790Y-140021290D01*
X122250983Y-140002138D01*
X122317864Y-140022353D01*
X122362382Y-140073730D01*
X122392901Y-140139179D01*
X122392907Y-140139189D01*
X122520710Y-140321710D01*
X122520719Y-140321720D01*
X122678279Y-140479280D01*
X122678289Y-140479289D01*
X122840772Y-140593061D01*
X122860817Y-140607097D01*
X122982318Y-140663753D01*
X123062766Y-140701267D01*
X123062768Y-140701267D01*
X123062773Y-140701270D01*
X123278014Y-140758944D01*
X123436575Y-140772816D01*
X123499998Y-140778365D01*
X123500000Y-140778365D01*
X123500002Y-140778365D01*
X123555496Y-140773509D01*
X123721986Y-140758944D01*
X123937227Y-140701270D01*
X124139183Y-140607097D01*
X124321717Y-140479284D01*
X124479284Y-140321717D01*
X124607097Y-140139183D01*
X124701270Y-139937227D01*
X124758944Y-139721986D01*
X124778365Y-139500000D01*
X124758944Y-139278014D01*
X124701270Y-139062773D01*
X124607097Y-138860818D01*
X124479284Y-138678283D01*
X124321717Y-138520716D01*
X124321715Y-138520714D01*
X124321710Y-138520710D01*
X124139189Y-138392907D01*
X124139186Y-138392905D01*
X124139183Y-138392903D01*
X124073729Y-138362381D01*
X124021290Y-138316210D01*
X124002138Y-138249017D01*
X124022353Y-138182136D01*
X124073730Y-138137618D01*
X124139183Y-138107097D01*
X124321717Y-137979284D01*
X124479284Y-137821717D01*
X124607097Y-137639183D01*
X124701270Y-137437227D01*
X124758944Y-137221986D01*
X124778365Y-137000000D01*
X124758944Y-136778014D01*
X124701270Y-136562773D01*
X124607097Y-136360818D01*
X124479284Y-136178283D01*
X124321717Y-136020716D01*
X124321715Y-136020714D01*
X124321710Y-136020710D01*
X124139189Y-135892907D01*
X124139186Y-135892905D01*
X124139183Y-135892903D01*
X124073729Y-135862381D01*
X124021290Y-135816210D01*
X124002138Y-135749017D01*
X124022353Y-135682136D01*
X124073730Y-135637618D01*
X124097195Y-135626676D01*
X124139183Y-135607097D01*
X124314996Y-135483990D01*
X124321710Y-135479289D01*
X124321710Y-135479288D01*
X124321717Y-135479284D01*
X124479284Y-135321717D01*
X124480337Y-135320214D01*
X124509376Y-135278741D01*
X124607097Y-135139183D01*
X124701270Y-134937227D01*
X124758944Y-134721986D01*
X124778365Y-134500000D01*
X124758944Y-134278014D01*
X124701270Y-134062773D01*
X124607097Y-133860818D01*
X124479284Y-133678283D01*
X124321717Y-133520716D01*
X124321715Y-133520714D01*
X124321710Y-133520710D01*
X124139189Y-133392907D01*
X124139186Y-133392905D01*
X124139183Y-133392903D01*
X124073729Y-133362381D01*
X124021290Y-133316210D01*
X124002138Y-133249017D01*
X124022353Y-133182136D01*
X124073730Y-133137618D01*
X124139183Y-133107097D01*
X124321717Y-132979284D01*
X124479284Y-132821717D01*
X124607097Y-132639183D01*
X124701270Y-132437227D01*
X124758944Y-132221986D01*
X124778365Y-132000000D01*
X124758944Y-131778014D01*
X124701270Y-131562773D01*
X124607097Y-131360818D01*
X124479284Y-131178283D01*
X124321717Y-131020716D01*
X124321715Y-131020714D01*
X124321710Y-131020710D01*
X124139189Y-130892907D01*
X124139186Y-130892905D01*
X124139183Y-130892903D01*
X124073729Y-130862381D01*
X124021290Y-130816210D01*
X124002138Y-130749017D01*
X124022353Y-130682136D01*
X124073730Y-130637618D01*
X124139183Y-130607097D01*
X124321717Y-130479284D01*
X124479284Y-130321717D01*
X124607097Y-130139183D01*
X124701270Y-129937227D01*
X124758944Y-129721986D01*
X124778365Y-129500000D01*
X124778365Y-129499998D01*
X125221635Y-129499998D01*
X125221635Y-129500001D01*
X125241055Y-129721980D01*
X125241057Y-129721990D01*
X125298727Y-129937219D01*
X125298732Y-129937233D01*
X125392901Y-130139179D01*
X125392907Y-130139189D01*
X125520710Y-130321710D01*
X125520719Y-130321720D01*
X125678279Y-130479280D01*
X125678289Y-130479289D01*
X125840772Y-130593061D01*
X125860817Y-130607097D01*
X125926270Y-130637618D01*
X125978709Y-130683790D01*
X125997861Y-130750984D01*
X125977645Y-130817865D01*
X125926270Y-130862382D01*
X125860818Y-130892903D01*
X125860811Y-130892907D01*
X125678282Y-131020716D01*
X125520716Y-131178282D01*
X125392907Y-131360811D01*
X125392903Y-131360817D01*
X125392903Y-131360818D01*
X125300724Y-131558498D01*
X125298731Y-131562771D01*
X125298727Y-131562780D01*
X125241057Y-131778009D01*
X125241055Y-131778019D01*
X125221635Y-131999998D01*
X125221635Y-132000001D01*
X125241055Y-132221980D01*
X125241057Y-132221990D01*
X125298727Y-132437219D01*
X125298732Y-132437233D01*
X125392901Y-132639179D01*
X125392907Y-132639189D01*
X125520710Y-132821710D01*
X125520719Y-132821720D01*
X125678279Y-132979280D01*
X125678289Y-132979289D01*
X125741766Y-133023736D01*
X125860817Y-133107097D01*
X125900317Y-133125516D01*
X125926270Y-133137618D01*
X125978709Y-133183790D01*
X125997861Y-133250984D01*
X125977645Y-133317865D01*
X125926270Y-133362382D01*
X125860818Y-133392903D01*
X125860811Y-133392907D01*
X125678282Y-133520716D01*
X125520716Y-133678282D01*
X125392907Y-133860811D01*
X125392903Y-133860817D01*
X125298731Y-134062771D01*
X125298727Y-134062780D01*
X125241057Y-134278009D01*
X125241055Y-134278019D01*
X125221635Y-134499998D01*
X125221635Y-134500001D01*
X125241055Y-134721980D01*
X125241057Y-134721990D01*
X125298727Y-134937219D01*
X125298732Y-134937233D01*
X125392901Y-135139179D01*
X125392907Y-135139189D01*
X125520710Y-135321710D01*
X125520719Y-135321720D01*
X125678279Y-135479280D01*
X125678289Y-135479289D01*
X125780673Y-135550979D01*
X125860817Y-135607097D01*
X125902796Y-135626672D01*
X125926270Y-135637618D01*
X125978709Y-135683790D01*
X125997861Y-135750984D01*
X125977645Y-135817865D01*
X125926270Y-135862382D01*
X125860818Y-135892903D01*
X125860811Y-135892907D01*
X125678282Y-136020716D01*
X125520716Y-136178282D01*
X125392907Y-136360811D01*
X125392903Y-136360817D01*
X125298731Y-136562771D01*
X125298727Y-136562780D01*
X125241057Y-136778009D01*
X125241055Y-136778019D01*
X125221635Y-136999998D01*
X125221635Y-137000001D01*
X125241055Y-137221980D01*
X125241057Y-137221990D01*
X125298727Y-137437219D01*
X125298732Y-137437233D01*
X125392901Y-137639179D01*
X125392907Y-137639189D01*
X125520710Y-137821710D01*
X125520719Y-137821720D01*
X125678279Y-137979280D01*
X125678289Y-137979289D01*
X125832364Y-138087174D01*
X125860817Y-138107097D01*
X125926270Y-138137618D01*
X125978709Y-138183790D01*
X125997861Y-138250984D01*
X125977645Y-138317865D01*
X125926270Y-138362382D01*
X125860818Y-138392903D01*
X125860811Y-138392907D01*
X125678282Y-138520716D01*
X125520716Y-138678282D01*
X125392907Y-138860811D01*
X125392903Y-138860817D01*
X125298731Y-139062771D01*
X125298727Y-139062780D01*
X125241057Y-139278009D01*
X125241055Y-139278019D01*
X125221635Y-139499998D01*
X125221635Y-139500001D01*
X125241055Y-139721980D01*
X125241057Y-139721990D01*
X125298727Y-139937219D01*
X125298732Y-139937233D01*
X125392901Y-140139179D01*
X125392907Y-140139189D01*
X125520710Y-140321710D01*
X125520719Y-140321720D01*
X125678279Y-140479280D01*
X125678289Y-140479289D01*
X125840772Y-140593061D01*
X125860817Y-140607097D01*
X125982318Y-140663753D01*
X126062766Y-140701267D01*
X126062768Y-140701267D01*
X126062773Y-140701270D01*
X126278014Y-140758944D01*
X126436575Y-140772816D01*
X126499998Y-140778365D01*
X126500000Y-140778365D01*
X126500002Y-140778365D01*
X126555496Y-140773509D01*
X126721986Y-140758944D01*
X126937227Y-140701270D01*
X127139183Y-140607097D01*
X127321717Y-140479284D01*
X127479284Y-140321717D01*
X127607097Y-140139183D01*
X127701270Y-139937227D01*
X127758944Y-139721986D01*
X127778365Y-139500000D01*
X127758944Y-139278014D01*
X127701270Y-139062773D01*
X127607097Y-138860818D01*
X127479284Y-138678283D01*
X127321717Y-138520716D01*
X127321715Y-138520714D01*
X127321710Y-138520710D01*
X127139189Y-138392907D01*
X127139186Y-138392905D01*
X127139183Y-138392903D01*
X127073729Y-138362381D01*
X127021290Y-138316210D01*
X127002138Y-138249017D01*
X127022353Y-138182136D01*
X127073730Y-138137618D01*
X127139183Y-138107097D01*
X127321717Y-137979284D01*
X127479284Y-137821717D01*
X127607097Y-137639183D01*
X127672000Y-137499998D01*
X161277500Y-137499998D01*
X161277500Y-137500001D01*
X161297329Y-137796226D01*
X161297331Y-137796236D01*
X161356467Y-138087176D01*
X161413348Y-138250984D01*
X161453856Y-138367640D01*
X161587757Y-138632623D01*
X161755783Y-138877394D01*
X161755785Y-138877396D01*
X161755789Y-138877402D01*
X161755792Y-138877404D01*
X161954935Y-139097586D01*
X162181658Y-139289268D01*
X162431907Y-139449021D01*
X162701216Y-139573994D01*
X162984780Y-139661956D01*
X163277537Y-139711338D01*
X163574265Y-139721259D01*
X163869667Y-139691541D01*
X164158472Y-139622715D01*
X164158475Y-139622713D01*
X164158479Y-139622713D01*
X164297000Y-139569362D01*
X164435528Y-139516010D01*
X164695888Y-139373328D01*
X164934908Y-139197217D01*
X165148322Y-138990819D01*
X165332321Y-138757817D01*
X165483623Y-138502370D01*
X165599527Y-138229035D01*
X165677965Y-137942691D01*
X165717537Y-137648447D01*
X165717537Y-137351553D01*
X165677965Y-137057309D01*
X165599527Y-136770965D01*
X165483623Y-136497630D01*
X165402585Y-136360811D01*
X165332321Y-136242182D01*
X165148321Y-136009180D01*
X165140811Y-136001917D01*
X164934908Y-135802783D01*
X164809974Y-135710731D01*
X164695894Y-135626676D01*
X164695891Y-135626674D01*
X164695888Y-135626672D01*
X164435528Y-135483990D01*
X164435523Y-135483988D01*
X164435521Y-135483987D01*
X164158479Y-135377286D01*
X164158474Y-135377285D01*
X163869667Y-135308459D01*
X163869664Y-135308458D01*
X163574269Y-135278741D01*
X163574265Y-135278741D01*
X163277537Y-135288662D01*
X162984779Y-135338044D01*
X162858278Y-135377285D01*
X162701216Y-135426006D01*
X162701209Y-135426009D01*
X162701207Y-135426010D01*
X162431911Y-135550976D01*
X162181658Y-135710731D01*
X162181656Y-135710733D01*
X161954933Y-135902415D01*
X161755792Y-136122595D01*
X161755789Y-136122597D01*
X161587755Y-136367380D01*
X161532036Y-136477646D01*
X161453856Y-136632360D01*
X161453854Y-136632363D01*
X161453854Y-136632365D01*
X161356467Y-136912823D01*
X161297331Y-137203763D01*
X161297329Y-137203773D01*
X161277500Y-137499998D01*
X127672000Y-137499998D01*
X127701270Y-137437227D01*
X127758944Y-137221986D01*
X127778365Y-137000000D01*
X127758944Y-136778014D01*
X127701270Y-136562773D01*
X127607097Y-136360818D01*
X127479284Y-136178283D01*
X127321717Y-136020716D01*
X127321715Y-136020714D01*
X127321710Y-136020710D01*
X127139189Y-135892907D01*
X127139186Y-135892905D01*
X127139183Y-135892903D01*
X127073729Y-135862381D01*
X127021290Y-135816210D01*
X127002138Y-135749017D01*
X127022353Y-135682136D01*
X127073730Y-135637618D01*
X127097195Y-135626676D01*
X127139183Y-135607097D01*
X127314996Y-135483990D01*
X127321710Y-135479289D01*
X127321710Y-135479288D01*
X127321717Y-135479284D01*
X127479284Y-135321717D01*
X127480337Y-135320214D01*
X127509376Y-135278741D01*
X127607097Y-135139183D01*
X127701270Y-134937227D01*
X127758944Y-134721986D01*
X127778365Y-134500000D01*
X127767754Y-134378711D01*
X130149500Y-134378711D01*
X130149500Y-134621288D01*
X130181161Y-134861785D01*
X130243947Y-135096104D01*
X130336773Y-135320205D01*
X130336777Y-135320214D01*
X130347071Y-135338044D01*
X130458064Y-135530289D01*
X130458066Y-135530292D01*
X130458067Y-135530293D01*
X130605733Y-135722736D01*
X130605739Y-135722743D01*
X130777256Y-135894260D01*
X130777262Y-135894265D01*
X130969711Y-136041936D01*
X131179788Y-136163224D01*
X131403900Y-136256054D01*
X131638211Y-136318838D01*
X131818586Y-136342584D01*
X131878711Y-136350500D01*
X131878712Y-136350500D01*
X132121289Y-136350500D01*
X132169388Y-136344167D01*
X132361789Y-136318838D01*
X132596100Y-136256054D01*
X132820212Y-136163224D01*
X133030289Y-136041936D01*
X133222738Y-135894265D01*
X133394265Y-135722738D01*
X133541936Y-135530289D01*
X133663224Y-135320212D01*
X133756054Y-135096100D01*
X133818838Y-134861789D01*
X133850500Y-134621288D01*
X133850500Y-134378712D01*
X133818838Y-134138211D01*
X133756054Y-133903900D01*
X133663224Y-133679788D01*
X133541936Y-133469711D01*
X133394265Y-133277262D01*
X133394260Y-133277256D01*
X133222743Y-133105739D01*
X133222736Y-133105733D01*
X133030293Y-132958067D01*
X133030292Y-132958066D01*
X133030289Y-132958064D01*
X132820212Y-132836776D01*
X132783864Y-132821720D01*
X132596104Y-132743947D01*
X132361785Y-132681161D01*
X132121289Y-132649500D01*
X132121288Y-132649500D01*
X131878712Y-132649500D01*
X131878711Y-132649500D01*
X131638214Y-132681161D01*
X131403895Y-132743947D01*
X131179794Y-132836773D01*
X131179785Y-132836777D01*
X130969706Y-132958067D01*
X130777263Y-133105733D01*
X130777256Y-133105739D01*
X130605739Y-133277256D01*
X130605733Y-133277263D01*
X130458067Y-133469706D01*
X130336777Y-133679785D01*
X130336773Y-133679794D01*
X130243947Y-133903895D01*
X130181161Y-134138214D01*
X130149500Y-134378711D01*
X127767754Y-134378711D01*
X127758944Y-134278014D01*
X127701270Y-134062773D01*
X127607097Y-133860818D01*
X127479284Y-133678283D01*
X127321717Y-133520716D01*
X127321715Y-133520714D01*
X127321710Y-133520710D01*
X127139189Y-133392907D01*
X127139186Y-133392905D01*
X127139183Y-133392903D01*
X127073729Y-133362381D01*
X127021290Y-133316210D01*
X127002138Y-133249017D01*
X127022353Y-133182136D01*
X127073730Y-133137618D01*
X127139183Y-133107097D01*
X127321717Y-132979284D01*
X127479284Y-132821717D01*
X127607097Y-132639183D01*
X127701270Y-132437227D01*
X127758944Y-132221986D01*
X127778365Y-132000000D01*
X127758944Y-131778014D01*
X127701270Y-131562773D01*
X127607097Y-131360818D01*
X127479284Y-131178283D01*
X127321717Y-131020716D01*
X127321715Y-131020714D01*
X127321710Y-131020710D01*
X127139189Y-130892907D01*
X127139186Y-130892905D01*
X127139183Y-130892903D01*
X127073729Y-130862381D01*
X127021290Y-130816210D01*
X127002138Y-130749017D01*
X127022353Y-130682136D01*
X127073730Y-130637618D01*
X127139183Y-130607097D01*
X127321717Y-130479284D01*
X127479284Y-130321717D01*
X127607097Y-130139183D01*
X127701270Y-129937227D01*
X127758944Y-129721986D01*
X127778365Y-129500000D01*
X127758944Y-129278014D01*
X127710411Y-129096890D01*
X127701272Y-129062780D01*
X127701271Y-129062779D01*
X127701270Y-129062773D01*
X127607097Y-128860818D01*
X127479284Y-128678283D01*
X127321717Y-128520716D01*
X127321715Y-128520714D01*
X127321710Y-128520710D01*
X127139189Y-128392907D01*
X127139186Y-128392905D01*
X127139183Y-128392903D01*
X127139179Y-128392901D01*
X126937233Y-128298732D01*
X126937219Y-128298727D01*
X126721990Y-128241057D01*
X126721988Y-128241056D01*
X126721986Y-128241056D01*
X126721984Y-128241055D01*
X126721980Y-128241055D01*
X126500002Y-128221635D01*
X126499998Y-128221635D01*
X126278019Y-128241055D01*
X126278009Y-128241057D01*
X126062780Y-128298727D01*
X126062771Y-128298731D01*
X125860817Y-128392903D01*
X125860811Y-128392907D01*
X125678282Y-128520716D01*
X125520716Y-128678282D01*
X125392907Y-128860811D01*
X125392903Y-128860817D01*
X125298731Y-129062771D01*
X125298727Y-129062780D01*
X125241057Y-129278009D01*
X125241055Y-129278019D01*
X125221635Y-129499998D01*
X124778365Y-129499998D01*
X124758944Y-129278014D01*
X124710411Y-129096890D01*
X124701272Y-129062780D01*
X124701271Y-129062779D01*
X124701270Y-129062773D01*
X124607097Y-128860818D01*
X124479284Y-128678283D01*
X124321717Y-128520716D01*
X124321715Y-128520714D01*
X124321710Y-128520710D01*
X124139189Y-128392907D01*
X124139186Y-128392905D01*
X124139183Y-128392903D01*
X124139179Y-128392901D01*
X123937233Y-128298732D01*
X123937219Y-128298727D01*
X123721990Y-128241057D01*
X123721988Y-128241056D01*
X123721986Y-128241056D01*
X123721984Y-128241055D01*
X123721980Y-128241055D01*
X123500002Y-128221635D01*
X123499998Y-128221635D01*
X123278019Y-128241055D01*
X123278009Y-128241057D01*
X123062780Y-128298727D01*
X123062771Y-128298731D01*
X122860817Y-128392903D01*
X122860811Y-128392907D01*
X122678282Y-128520716D01*
X122520716Y-128678282D01*
X122392907Y-128860811D01*
X122392903Y-128860817D01*
X122362382Y-128926271D01*
X122316210Y-128978710D01*
X122249016Y-128997862D01*
X122182135Y-128977646D01*
X122137618Y-128926271D01*
X122107097Y-128860818D01*
X121979284Y-128678283D01*
X121821717Y-128520716D01*
X121821715Y-128520714D01*
X121821710Y-128520710D01*
X121639189Y-128392907D01*
X121639186Y-128392905D01*
X121639183Y-128392903D01*
X121639179Y-128392901D01*
X121437233Y-128298732D01*
X121437219Y-128298727D01*
X121221990Y-128241057D01*
X121221988Y-128241056D01*
X121221986Y-128241056D01*
X121221984Y-128241055D01*
X121221980Y-128241055D01*
X121000002Y-128221635D01*
X120999998Y-128221635D01*
X120778019Y-128241055D01*
X120778009Y-128241057D01*
X120562780Y-128298727D01*
X120562771Y-128298731D01*
X120360817Y-128392903D01*
X120360811Y-128392907D01*
X120178282Y-128520716D01*
X120020716Y-128678282D01*
X119892907Y-128860811D01*
X119892903Y-128860817D01*
X119798731Y-129062771D01*
X119798727Y-129062780D01*
X119741057Y-129278009D01*
X119741055Y-129278019D01*
X119721635Y-129499998D01*
X119278365Y-129499998D01*
X119258944Y-129278014D01*
X119210411Y-129096890D01*
X119201272Y-129062780D01*
X119201271Y-129062779D01*
X119201270Y-129062773D01*
X119107097Y-128860818D01*
X118979284Y-128678283D01*
X118821717Y-128520716D01*
X118821715Y-128520714D01*
X118821710Y-128520710D01*
X118639189Y-128392907D01*
X118639186Y-128392905D01*
X118639183Y-128392903D01*
X118639179Y-128392901D01*
X118437233Y-128298732D01*
X118437219Y-128298727D01*
X118221990Y-128241057D01*
X118221988Y-128241056D01*
X118221986Y-128241056D01*
X118221984Y-128241055D01*
X118221980Y-128241055D01*
X118000002Y-128221635D01*
X117999998Y-128221635D01*
X117778019Y-128241055D01*
X117778009Y-128241057D01*
X117562780Y-128298727D01*
X117562771Y-128298731D01*
X117360817Y-128392903D01*
X117360811Y-128392907D01*
X117178282Y-128520716D01*
X117020716Y-128678282D01*
X116892907Y-128860811D01*
X116892903Y-128860817D01*
X116862382Y-128926271D01*
X116816210Y-128978710D01*
X116749016Y-128997862D01*
X116682135Y-128977646D01*
X116637618Y-128926271D01*
X116607097Y-128860818D01*
X116479284Y-128678283D01*
X116321717Y-128520716D01*
X116321715Y-128520714D01*
X116321710Y-128520710D01*
X116139189Y-128392907D01*
X116139186Y-128392905D01*
X116139183Y-128392903D01*
X116139179Y-128392901D01*
X115937233Y-128298732D01*
X115937219Y-128298727D01*
X115721990Y-128241057D01*
X115721988Y-128241056D01*
X115721986Y-128241056D01*
X115721984Y-128241055D01*
X115721980Y-128241055D01*
X115500002Y-128221635D01*
X115499998Y-128221635D01*
X115278019Y-128241055D01*
X115278009Y-128241057D01*
X115062780Y-128298727D01*
X115062771Y-128298731D01*
X114860817Y-128392903D01*
X114860811Y-128392907D01*
X114678282Y-128520716D01*
X114520716Y-128678282D01*
X114392907Y-128860811D01*
X114392903Y-128860817D01*
X114298731Y-129062771D01*
X114298727Y-129062780D01*
X114241057Y-129278009D01*
X114241055Y-129278019D01*
X114221635Y-129499998D01*
X113778365Y-129499998D01*
X113758944Y-129278014D01*
X113710411Y-129096890D01*
X113701272Y-129062780D01*
X113701271Y-129062779D01*
X113701270Y-129062773D01*
X113607097Y-128860818D01*
X113479284Y-128678283D01*
X113321717Y-128520716D01*
X113321715Y-128520714D01*
X113321710Y-128520710D01*
X113139189Y-128392907D01*
X113139186Y-128392905D01*
X113139183Y-128392903D01*
X113139179Y-128392901D01*
X112937233Y-128298732D01*
X112937219Y-128298727D01*
X112721990Y-128241057D01*
X112721988Y-128241056D01*
X112721986Y-128241056D01*
X112721984Y-128241055D01*
X112721980Y-128241055D01*
X112500002Y-128221635D01*
X112499998Y-128221635D01*
X112278019Y-128241055D01*
X112278009Y-128241057D01*
X112062780Y-128298727D01*
X112062771Y-128298731D01*
X111860817Y-128392903D01*
X111860811Y-128392907D01*
X111678282Y-128520716D01*
X111520716Y-128678282D01*
X111392907Y-128860811D01*
X111392903Y-128860817D01*
X111362382Y-128926271D01*
X111316210Y-128978710D01*
X111249016Y-128997862D01*
X111182135Y-128977646D01*
X111137618Y-128926271D01*
X111107097Y-128860818D01*
X110979284Y-128678283D01*
X110821717Y-128520716D01*
X110821715Y-128520714D01*
X110821710Y-128520710D01*
X110639189Y-128392907D01*
X110639186Y-128392905D01*
X110639183Y-128392903D01*
X110639179Y-128392901D01*
X110437233Y-128298732D01*
X110437219Y-128298727D01*
X110221990Y-128241057D01*
X110221988Y-128241056D01*
X110221986Y-128241056D01*
X110221984Y-128241055D01*
X110221980Y-128241055D01*
X110000002Y-128221635D01*
X109999998Y-128221635D01*
X109778019Y-128241055D01*
X109778009Y-128241057D01*
X109562780Y-128298727D01*
X109562771Y-128298731D01*
X109360817Y-128392903D01*
X109360811Y-128392907D01*
X109178282Y-128520716D01*
X109020716Y-128678282D01*
X108892907Y-128860811D01*
X108892903Y-128860817D01*
X108798731Y-129062771D01*
X108798727Y-129062780D01*
X108741057Y-129278009D01*
X108741055Y-129278019D01*
X108721635Y-129499998D01*
X105725500Y-129499998D01*
X105725500Y-124900009D01*
X145504500Y-124900009D01*
X145504500Y-125099990D01*
X145535784Y-125297511D01*
X145597579Y-125487700D01*
X145597581Y-125487703D01*
X145688371Y-125665887D01*
X145805917Y-125827675D01*
X145947325Y-125969083D01*
X146109113Y-126086629D01*
X146287295Y-126177418D01*
X146287299Y-126177420D01*
X146382393Y-126208317D01*
X146477490Y-126239216D01*
X146675009Y-126270500D01*
X146675010Y-126270500D01*
X151049990Y-126270500D01*
X151049991Y-126270500D01*
X151247510Y-126239216D01*
X151437703Y-126177419D01*
X151559125Y-126115550D01*
X151602169Y-126102745D01*
X151604822Y-126102459D01*
X151609201Y-126101989D01*
X151612158Y-126100885D01*
X151614616Y-126100709D01*
X151616749Y-126100206D01*
X151616830Y-126100551D01*
X151681849Y-126095896D01*
X151743174Y-126129376D01*
X151776664Y-126190696D01*
X151779500Y-126217064D01*
X151779500Y-128117500D01*
X151759815Y-128184539D01*
X151707011Y-128230294D01*
X151655501Y-128241500D01*
X151449463Y-128241500D01*
X151449446Y-128241501D01*
X151345572Y-128252113D01*
X151177264Y-128307884D01*
X151177259Y-128307886D01*
X151026346Y-128400971D01*
X150900971Y-128526346D01*
X150807886Y-128677259D01*
X150807884Y-128677264D01*
X150752113Y-128845572D01*
X150741500Y-128949447D01*
X150741500Y-130850537D01*
X150741501Y-130850553D01*
X150752113Y-130954426D01*
X150807885Y-131122738D01*
X150900970Y-131273652D01*
X151026348Y-131399030D01*
X151177262Y-131492115D01*
X151345574Y-131547887D01*
X151449455Y-131558500D01*
X154550544Y-131558499D01*
X154654426Y-131547887D01*
X154822738Y-131492115D01*
X154973652Y-131399030D01*
X155099030Y-131273652D01*
X155126324Y-131229402D01*
X155178272Y-131182678D01*
X155231862Y-131170500D01*
X157099990Y-131170500D01*
X157099991Y-131170500D01*
X157297510Y-131139216D01*
X157487703Y-131077419D01*
X157665887Y-130986629D01*
X157827675Y-130869083D01*
X157969083Y-130727675D01*
X158086629Y-130565887D01*
X158177419Y-130387703D01*
X158239216Y-130197510D01*
X158270500Y-129999991D01*
X158270500Y-129800009D01*
X158239216Y-129602490D01*
X158177419Y-129412297D01*
X158086629Y-129234113D01*
X157969083Y-129072325D01*
X157827675Y-128930917D01*
X157665887Y-128813371D01*
X157487700Y-128722579D01*
X157297511Y-128660784D01*
X157198750Y-128645142D01*
X157099991Y-128629500D01*
X157099990Y-128629500D01*
X155231862Y-128629500D01*
X155164823Y-128609815D01*
X155126324Y-128570598D01*
X155099030Y-128526348D01*
X154973653Y-128400971D01*
X154973652Y-128400970D01*
X154822738Y-128307885D01*
X154795110Y-128298730D01*
X154654427Y-128252113D01*
X154550552Y-128241500D01*
X154550545Y-128241500D01*
X154444500Y-128241500D01*
X154377461Y-128221815D01*
X154331706Y-128169011D01*
X154320500Y-128117500D01*
X154320500Y-124900009D01*
X154289216Y-124702490D01*
X154227419Y-124512297D01*
X154136629Y-124334113D01*
X154136628Y-124334111D01*
X154125624Y-124318965D01*
X154108592Y-124295523D01*
X154092730Y-124265977D01*
X154050889Y-124153796D01*
X153963261Y-124036739D01*
X153892921Y-123984083D01*
X153846206Y-123949112D01*
X153846204Y-123949111D01*
X153709201Y-123898011D01*
X153709196Y-123898010D01*
X153709194Y-123898010D01*
X153702164Y-123897254D01*
X153659128Y-123884450D01*
X153537703Y-123822581D01*
X153537700Y-123822579D01*
X153347511Y-123760784D01*
X153248750Y-123745142D01*
X153149991Y-123729500D01*
X152950009Y-123729500D01*
X152884169Y-123739928D01*
X152752488Y-123760784D01*
X152562299Y-123822579D01*
X152562290Y-123822583D01*
X152440869Y-123884450D01*
X152397836Y-123897254D01*
X152390804Y-123898010D01*
X152390800Y-123898010D01*
X152390799Y-123898011D01*
X152349618Y-123913371D01*
X152253793Y-123949112D01*
X152136739Y-124036739D01*
X152099267Y-124086796D01*
X152043333Y-124128667D01*
X151973641Y-124133651D01*
X151912318Y-124100166D01*
X151900733Y-124086796D01*
X151863261Y-124036739D01*
X151792921Y-123984083D01*
X151746206Y-123949112D01*
X151746204Y-123949111D01*
X151609201Y-123898011D01*
X151609196Y-123898010D01*
X151609194Y-123898010D01*
X151602164Y-123897254D01*
X151559128Y-123884450D01*
X151437703Y-123822581D01*
X151437700Y-123822579D01*
X151247511Y-123760784D01*
X151148750Y-123745142D01*
X151049991Y-123729500D01*
X146675009Y-123729500D01*
X146609169Y-123739928D01*
X146477488Y-123760784D01*
X146287299Y-123822579D01*
X146109112Y-123913371D01*
X146016806Y-123980435D01*
X145947325Y-124030917D01*
X145947323Y-124030919D01*
X145947322Y-124030919D01*
X145805919Y-124172322D01*
X145805919Y-124172323D01*
X145805917Y-124172325D01*
X145755435Y-124241806D01*
X145688371Y-124334112D01*
X145597579Y-124512299D01*
X145535784Y-124702488D01*
X145504500Y-124900009D01*
X105725500Y-124900009D01*
X105725500Y-114395359D01*
X105745185Y-114328320D01*
X105797989Y-114282565D01*
X105849128Y-114271360D01*
X120706575Y-114227372D01*
X120706593Y-114227371D01*
X120730887Y-114226015D01*
X120798919Y-114241931D01*
X120847547Y-114292102D01*
X120861800Y-114349822D01*
X120861800Y-115322225D01*
X120842115Y-115389264D01*
X120796820Y-115431278D01*
X120764429Y-115448807D01*
X120764420Y-115448813D01*
X120586761Y-115587092D01*
X120586756Y-115587097D01*
X120434284Y-115752723D01*
X120434276Y-115752734D01*
X120343808Y-115891206D01*
X120290662Y-115936562D01*
X120221431Y-115945986D01*
X120158095Y-115916484D01*
X120136192Y-115891206D01*
X120045723Y-115752734D01*
X120045715Y-115752723D01*
X119893243Y-115587097D01*
X119893238Y-115587092D01*
X119764380Y-115486797D01*
X119715576Y-115448811D01*
X119715575Y-115448810D01*
X119715572Y-115448808D01*
X119517580Y-115341661D01*
X119517577Y-115341659D01*
X119517574Y-115341658D01*
X119517571Y-115341657D01*
X119517569Y-115341656D01*
X119304637Y-115268556D01*
X119082569Y-115231500D01*
X118857431Y-115231500D01*
X118635362Y-115268556D01*
X118422430Y-115341656D01*
X118422419Y-115341661D01*
X118224427Y-115448808D01*
X118224422Y-115448812D01*
X118046761Y-115587092D01*
X118046756Y-115587097D01*
X117894284Y-115752723D01*
X117894276Y-115752734D01*
X117803808Y-115891206D01*
X117750662Y-115936562D01*
X117681431Y-115945986D01*
X117618095Y-115916484D01*
X117596192Y-115891206D01*
X117505723Y-115752734D01*
X117505715Y-115752723D01*
X117353243Y-115587097D01*
X117353238Y-115587092D01*
X117224380Y-115486797D01*
X117175576Y-115448811D01*
X117175575Y-115448810D01*
X117175572Y-115448808D01*
X116977580Y-115341661D01*
X116977577Y-115341659D01*
X116977574Y-115341658D01*
X116977571Y-115341657D01*
X116977569Y-115341656D01*
X116764637Y-115268556D01*
X116542569Y-115231500D01*
X116317431Y-115231500D01*
X116095362Y-115268556D01*
X115882430Y-115341656D01*
X115882419Y-115341661D01*
X115684427Y-115448808D01*
X115684422Y-115448812D01*
X115506761Y-115587092D01*
X115506756Y-115587097D01*
X115354284Y-115752723D01*
X115354276Y-115752734D01*
X115263808Y-115891206D01*
X115210662Y-115936562D01*
X115141431Y-115945986D01*
X115078095Y-115916484D01*
X115056192Y-115891206D01*
X114965723Y-115752734D01*
X114965715Y-115752723D01*
X114813243Y-115587097D01*
X114813238Y-115587092D01*
X114684380Y-115486797D01*
X114635576Y-115448811D01*
X114635575Y-115448810D01*
X114635572Y-115448808D01*
X114437580Y-115341661D01*
X114437577Y-115341659D01*
X114437574Y-115341658D01*
X114437571Y-115341657D01*
X114437569Y-115341656D01*
X114224637Y-115268556D01*
X114002569Y-115231500D01*
X113777431Y-115231500D01*
X113555362Y-115268556D01*
X113342430Y-115341656D01*
X113342419Y-115341661D01*
X113144427Y-115448808D01*
X113144422Y-115448812D01*
X112966761Y-115587092D01*
X112966756Y-115587097D01*
X112814284Y-115752723D01*
X112814276Y-115752734D01*
X112691140Y-115941207D01*
X112600703Y-116147385D01*
X112545436Y-116365628D01*
X112545434Y-116365640D01*
X112526844Y-116589994D01*
X112526844Y-116590005D01*
X112545434Y-116814359D01*
X112545436Y-116814371D01*
X112600703Y-117032614D01*
X112691140Y-117238792D01*
X112814276Y-117427265D01*
X112814284Y-117427276D01*
X112966756Y-117592902D01*
X112966760Y-117592906D01*
X113144424Y-117731189D01*
X113144425Y-117731189D01*
X113144427Y-117731191D01*
X113235214Y-117780322D01*
X113342426Y-117838342D01*
X113555365Y-117911444D01*
X113777431Y-117948500D01*
X114002569Y-117948500D01*
X114224635Y-117911444D01*
X114437574Y-117838342D01*
X114635576Y-117731189D01*
X114813240Y-117592906D01*
X114939534Y-117455716D01*
X114965715Y-117427276D01*
X114965715Y-117427275D01*
X114965722Y-117427268D01*
X115056193Y-117288790D01*
X115109338Y-117243437D01*
X115178569Y-117234013D01*
X115241905Y-117263515D01*
X115263804Y-117288787D01*
X115354278Y-117427268D01*
X115354283Y-117427273D01*
X115354284Y-117427276D01*
X115506756Y-117592902D01*
X115506760Y-117592906D01*
X115684424Y-117731189D01*
X115684425Y-117731189D01*
X115684427Y-117731191D01*
X115775214Y-117780322D01*
X115882426Y-117838342D01*
X116095365Y-117911444D01*
X116317431Y-117948500D01*
X116542569Y-117948500D01*
X116764635Y-117911444D01*
X116977574Y-117838342D01*
X117175576Y-117731189D01*
X117353240Y-117592906D01*
X117479534Y-117455716D01*
X117505715Y-117427276D01*
X117505715Y-117427275D01*
X117505722Y-117427268D01*
X117596193Y-117288790D01*
X117649338Y-117243437D01*
X117718569Y-117234013D01*
X117781905Y-117263515D01*
X117803804Y-117288787D01*
X117894278Y-117427268D01*
X117894283Y-117427273D01*
X117894284Y-117427276D01*
X118046756Y-117592902D01*
X118046760Y-117592906D01*
X118224424Y-117731189D01*
X118224425Y-117731189D01*
X118224427Y-117731191D01*
X118315214Y-117780322D01*
X118422426Y-117838342D01*
X118635365Y-117911444D01*
X118857431Y-117948500D01*
X119082569Y-117948500D01*
X119304635Y-117911444D01*
X119517574Y-117838342D01*
X119715576Y-117731189D01*
X119893240Y-117592906D01*
X120019534Y-117455716D01*
X120045715Y-117427276D01*
X120045715Y-117427275D01*
X120045722Y-117427268D01*
X120136193Y-117288790D01*
X120189338Y-117243437D01*
X120258569Y-117234013D01*
X120321905Y-117263515D01*
X120343804Y-117288787D01*
X120434278Y-117427268D01*
X120434283Y-117427273D01*
X120434284Y-117427276D01*
X120586756Y-117592902D01*
X120586760Y-117592906D01*
X120764424Y-117731189D01*
X120764425Y-117731189D01*
X120764427Y-117731191D01*
X120855214Y-117780322D01*
X120962426Y-117838342D01*
X121175365Y-117911444D01*
X121397431Y-117948500D01*
X121622569Y-117948500D01*
X121844635Y-117911444D01*
X122057574Y-117838342D01*
X122255576Y-117731189D01*
X122433240Y-117592906D01*
X122559534Y-117455716D01*
X122585715Y-117427276D01*
X122585715Y-117427275D01*
X122585722Y-117427268D01*
X122676193Y-117288790D01*
X122729338Y-117243437D01*
X122798569Y-117234013D01*
X122861905Y-117263515D01*
X122883804Y-117288787D01*
X122974278Y-117427268D01*
X122974283Y-117427273D01*
X122974284Y-117427276D01*
X123126756Y-117592902D01*
X123126760Y-117592906D01*
X123304424Y-117731189D01*
X123304425Y-117731189D01*
X123304427Y-117731191D01*
X123395214Y-117780322D01*
X123502426Y-117838342D01*
X123715365Y-117911444D01*
X123937431Y-117948500D01*
X124162569Y-117948500D01*
X124384635Y-117911444D01*
X124597574Y-117838342D01*
X124795576Y-117731189D01*
X124973240Y-117592906D01*
X125036452Y-117524239D01*
X125096337Y-117488250D01*
X125166175Y-117490349D01*
X125223791Y-117529873D01*
X125243861Y-117564888D01*
X125288215Y-117683802D01*
X125289111Y-117686204D01*
X125376739Y-117803261D01*
X125493796Y-117890889D01*
X125630799Y-117941989D01*
X125657625Y-117944873D01*
X125691345Y-117948499D01*
X125691362Y-117948500D01*
X127488638Y-117948500D01*
X127488654Y-117948499D01*
X127515692Y-117945591D01*
X127549201Y-117941989D01*
X127686204Y-117890889D01*
X127803261Y-117803261D01*
X127890889Y-117686204D01*
X127940767Y-117552477D01*
X127941988Y-117549204D01*
X127941988Y-117549203D01*
X127941989Y-117549201D01*
X127945591Y-117515692D01*
X127948499Y-117488654D01*
X127948500Y-117488637D01*
X127948500Y-115691362D01*
X127948499Y-115691345D01*
X127944672Y-115655759D01*
X127941989Y-115630799D01*
X127941337Y-115629051D01*
X127919522Y-115570564D01*
X127890889Y-115493796D01*
X127803261Y-115376739D01*
X127686204Y-115289111D01*
X127549203Y-115238011D01*
X127488654Y-115231500D01*
X127488638Y-115231500D01*
X125691362Y-115231500D01*
X125691345Y-115231500D01*
X125630797Y-115238011D01*
X125630795Y-115238011D01*
X125493795Y-115289111D01*
X125376739Y-115376739D01*
X125289111Y-115493795D01*
X125243861Y-115615111D01*
X125201989Y-115671044D01*
X125136524Y-115695460D01*
X125068252Y-115680607D01*
X125036454Y-115655762D01*
X124973240Y-115587094D01*
X124795576Y-115448811D01*
X124795575Y-115448810D01*
X124795572Y-115448808D01*
X124597580Y-115341661D01*
X124597577Y-115341659D01*
X124597574Y-115341658D01*
X124597571Y-115341657D01*
X124597569Y-115341656D01*
X124384637Y-115268556D01*
X124162569Y-115231500D01*
X123937431Y-115231500D01*
X123715362Y-115268556D01*
X123502430Y-115341656D01*
X123502419Y-115341661D01*
X123304427Y-115448808D01*
X123304422Y-115448812D01*
X123126761Y-115587092D01*
X123126756Y-115587097D01*
X122974284Y-115752723D01*
X122974276Y-115752734D01*
X122883808Y-115891206D01*
X122830662Y-115936562D01*
X122761431Y-115945986D01*
X122698095Y-115916484D01*
X122676192Y-115891206D01*
X122585723Y-115752734D01*
X122585715Y-115752723D01*
X122433243Y-115587097D01*
X122433238Y-115587092D01*
X122255579Y-115448813D01*
X122255570Y-115448807D01*
X122223180Y-115431278D01*
X122173591Y-115382058D01*
X122158200Y-115322225D01*
X122158200Y-114509855D01*
X122177885Y-114442816D01*
X122194514Y-114422179D01*
X122959487Y-113657206D01*
X123020806Y-113623724D01*
X123046605Y-113620891D01*
X143162614Y-113531221D01*
X143229737Y-113550606D01*
G37*
%TD.AperFunction*%
%TD*%
%TA.AperFunction,Conductor*%
%TO.N,48V_GND*%
G36*
X168442539Y-44020185D02*
G01*
X168488294Y-44072989D01*
X168499500Y-44124500D01*
X168499500Y-112686730D01*
X168479815Y-112753769D01*
X168427011Y-112799524D01*
X168375867Y-112810729D01*
X145524441Y-112878387D01*
X145457344Y-112858901D01*
X145436393Y-112842069D01*
X144379981Y-111785657D01*
X144379972Y-111785647D01*
X144306983Y-111712658D01*
X144218684Y-111624359D01*
X144039106Y-111493888D01*
X143841329Y-111393116D01*
X143630223Y-111324523D01*
X143630221Y-111324522D01*
X143630220Y-111324522D01*
X143461806Y-111297848D01*
X143410985Y-111289799D01*
X143189015Y-111289799D01*
X143183904Y-111289799D01*
X143183880Y-111289800D01*
X123116120Y-111289800D01*
X123116096Y-111289799D01*
X123110985Y-111289799D01*
X122889014Y-111289799D01*
X122838192Y-111297848D01*
X122669780Y-111324522D01*
X122458668Y-111393117D01*
X122260893Y-111493888D01*
X122081313Y-111624361D01*
X121924356Y-111781319D01*
X120790113Y-112915560D01*
X120728790Y-112949045D01*
X120702799Y-112951878D01*
X104450000Y-112999999D01*
X104450000Y-136526000D01*
X104430315Y-136593039D01*
X104377511Y-136638794D01*
X104326000Y-136650000D01*
X103768215Y-136650000D01*
X103701176Y-136630315D01*
X103677592Y-136610637D01*
X103661156Y-136593039D01*
X103582583Y-136508908D01*
X103366575Y-136333172D01*
X103366573Y-136333171D01*
X103366571Y-136333169D01*
X103128648Y-136188485D01*
X102873241Y-136077547D01*
X102605107Y-136002419D01*
X102605103Y-136002418D01*
X102605102Y-136002418D01*
X102467167Y-135983459D01*
X102329233Y-135964500D01*
X102329232Y-135964500D01*
X102050768Y-135964500D01*
X102050767Y-135964500D01*
X101774898Y-136002418D01*
X101774892Y-136002419D01*
X101506758Y-136077547D01*
X101251351Y-136188485D01*
X101013428Y-136333169D01*
X100998255Y-136345514D01*
X100933829Y-136372552D01*
X100865012Y-136360467D01*
X100841745Y-136345514D01*
X100826571Y-136333169D01*
X100588648Y-136188485D01*
X100333241Y-136077547D01*
X100065107Y-136002419D01*
X100065103Y-136002418D01*
X100065102Y-136002418D01*
X99927167Y-135983459D01*
X99789233Y-135964500D01*
X99789232Y-135964500D01*
X99510768Y-135964500D01*
X99510767Y-135964500D01*
X99245636Y-136000942D01*
X99176540Y-135990569D01*
X99124021Y-135944488D01*
X99104753Y-135877327D01*
X99107345Y-135852869D01*
X99118139Y-135800921D01*
X99131253Y-135737815D01*
X99150256Y-135460000D01*
X99131253Y-135182185D01*
X99103879Y-135050454D01*
X99074601Y-134909556D01*
X99074596Y-134909540D01*
X98981347Y-134647163D01*
X98981348Y-134647163D01*
X98919799Y-134528380D01*
X98853234Y-134399916D01*
X98755534Y-134261507D01*
X98732956Y-134195388D01*
X98749709Y-134127556D01*
X98755528Y-134118500D01*
X98853234Y-133980084D01*
X98981346Y-133732840D01*
X99074598Y-133470454D01*
X99074598Y-133470449D01*
X99074601Y-133470443D01*
X99120409Y-133250000D01*
X99131253Y-133197815D01*
X99150256Y-132920000D01*
X99131253Y-132642185D01*
X99112191Y-132550454D01*
X99074601Y-132369556D01*
X99074596Y-132369540D01*
X98981347Y-132107163D01*
X98981348Y-132107163D01*
X98853234Y-131859916D01*
X98692648Y-131632416D01*
X98502590Y-131428915D01*
X98502586Y-131428911D01*
X98502583Y-131428908D01*
X98286575Y-131253172D01*
X98286573Y-131253171D01*
X98286571Y-131253169D01*
X98048648Y-131108485D01*
X97793241Y-130997547D01*
X97525107Y-130922419D01*
X97525103Y-130922418D01*
X97525102Y-130922418D01*
X97387167Y-130903459D01*
X97249233Y-130884500D01*
X97249232Y-130884500D01*
X96970768Y-130884500D01*
X96970767Y-130884500D01*
X96694898Y-130922418D01*
X96694892Y-130922419D01*
X96426758Y-130997547D01*
X96171351Y-131108485D01*
X95933428Y-131253169D01*
X95918255Y-131265514D01*
X95853829Y-131292552D01*
X95785012Y-131280467D01*
X95761745Y-131265514D01*
X95747377Y-131253825D01*
X95746575Y-131253172D01*
X95746573Y-131253171D01*
X95746571Y-131253169D01*
X95508648Y-131108485D01*
X95253241Y-130997547D01*
X94985107Y-130922419D01*
X94985103Y-130922418D01*
X94985102Y-130922418D01*
X94847167Y-130903459D01*
X94709233Y-130884500D01*
X94709232Y-130884500D01*
X94430768Y-130884500D01*
X94430767Y-130884500D01*
X94154898Y-130922418D01*
X94154892Y-130922419D01*
X93886755Y-130997548D01*
X93654733Y-131098329D01*
X93585402Y-131106983D01*
X93522398Y-131076779D01*
X93485725Y-131017307D01*
X93481334Y-130985014D01*
X93436803Y-117469750D01*
X93456266Y-117402647D01*
X93473116Y-117381666D01*
X94733698Y-116121084D01*
X94733716Y-116121069D01*
X94915700Y-115939085D01*
X94915705Y-115939080D01*
X95067765Y-115740911D01*
X95192658Y-115524590D01*
X95240300Y-115409572D01*
X95288248Y-115293817D01*
X95352897Y-115052542D01*
X95385501Y-114804893D01*
X95385501Y-114555107D01*
X95385501Y-114551268D01*
X95385500Y-114551234D01*
X95385500Y-112970646D01*
X95405185Y-112903607D01*
X95421819Y-112882965D01*
X108672965Y-99631819D01*
X108734288Y-99598334D01*
X108760646Y-99595500D01*
X117083485Y-99595500D01*
X117150524Y-99615185D01*
X117173679Y-99634406D01*
X117279048Y-99746090D01*
X117279054Y-99746095D01*
X117279056Y-99746097D01*
X117528407Y-99955329D01*
X117528412Y-99955332D01*
X117776549Y-100118534D01*
X117800387Y-100134212D01*
X117800389Y-100134213D01*
X118091271Y-100280301D01*
X118091277Y-100280303D01*
X118091279Y-100280304D01*
X118397170Y-100391639D01*
X118713918Y-100466709D01*
X119037239Y-100504500D01*
X119037246Y-100504500D01*
X119362754Y-100504500D01*
X119362761Y-100504500D01*
X119686082Y-100466709D01*
X120002830Y-100391639D01*
X120308721Y-100280304D01*
X120308724Y-100280302D01*
X120308728Y-100280301D01*
X120599610Y-100134213D01*
X120599612Y-100134212D01*
X120599611Y-100134212D01*
X120599618Y-100134209D01*
X120871588Y-99955332D01*
X121120952Y-99746090D01*
X121344339Y-99509314D01*
X121538728Y-99248205D01*
X121701489Y-98966295D01*
X121830421Y-98667395D01*
X121923782Y-98355548D01*
X121980309Y-98034971D01*
X121999236Y-97710000D01*
X121980309Y-97385029D01*
X121939821Y-97155410D01*
X121923785Y-97064466D01*
X121923783Y-97064460D01*
X121923782Y-97064452D01*
X121830421Y-96752605D01*
X121701489Y-96453705D01*
X121586361Y-96254298D01*
X121538727Y-96171793D01*
X121344342Y-95910689D01*
X121344337Y-95910683D01*
X121225288Y-95784500D01*
X121120952Y-95673910D01*
X121120945Y-95673904D01*
X121120943Y-95673902D01*
X120871592Y-95464670D01*
X120599612Y-95285787D01*
X120599610Y-95285786D01*
X120308728Y-95139698D01*
X120308722Y-95139696D01*
X120002831Y-95028361D01*
X120002829Y-95028360D01*
X119761151Y-94971082D01*
X119686082Y-94953291D01*
X119362761Y-94915500D01*
X119037239Y-94915500D01*
X118713918Y-94953291D01*
X118397170Y-95028360D01*
X118397168Y-95028361D01*
X118091277Y-95139696D01*
X118091271Y-95139698D01*
X117800389Y-95285786D01*
X117800387Y-95285787D01*
X117528407Y-95464670D01*
X117279056Y-95673902D01*
X117279046Y-95673912D01*
X117211418Y-95745594D01*
X117151095Y-95780848D01*
X117121224Y-95784500D01*
X108048765Y-95784500D01*
X108048733Y-95784499D01*
X108044893Y-95784499D01*
X107795107Y-95784499D01*
X107795099Y-95784499D01*
X107559379Y-95815533D01*
X107547458Y-95817103D01*
X107445478Y-95844428D01*
X107306182Y-95881752D01*
X107143002Y-95949343D01*
X107143002Y-95949344D01*
X107085308Y-95973241D01*
X107075405Y-95977344D01*
X107075399Y-95977347D01*
X106859084Y-96102238D01*
X106660921Y-96254293D01*
X106660915Y-96254298D01*
X106484295Y-96430920D01*
X106484291Y-96430924D01*
X97113752Y-105801461D01*
X97052429Y-105834946D01*
X96982737Y-105829962D01*
X96926804Y-105788090D01*
X96902387Y-105722626D01*
X96902072Y-105713368D01*
X96943360Y-94029061D01*
X96963281Y-93962092D01*
X97016246Y-93916524D01*
X97067359Y-93905500D01*
X115611235Y-93905500D01*
X115611267Y-93905501D01*
X115615107Y-93905501D01*
X115864886Y-93905501D01*
X115864893Y-93905501D01*
X116112542Y-93872897D01*
X116353817Y-93808247D01*
X116584590Y-93712658D01*
X116800911Y-93587765D01*
X116999080Y-93435705D01*
X117175705Y-93259080D01*
X117181069Y-93253716D01*
X117181084Y-93253698D01*
X125504882Y-84929900D01*
X136092800Y-84929900D01*
X138864400Y-84929900D01*
X138931439Y-84949585D01*
X138977194Y-85002389D01*
X138988400Y-85053900D01*
X138988400Y-86406100D01*
X138968715Y-86473139D01*
X138915911Y-86518894D01*
X138864400Y-86530100D01*
X136092800Y-86530100D01*
X136092800Y-90924300D01*
X146481400Y-90924300D01*
X146481400Y-87886500D01*
X146501085Y-87819461D01*
X146553889Y-87773706D01*
X146605400Y-87762500D01*
X149267337Y-87762500D01*
X149334376Y-87782185D01*
X149347043Y-87791511D01*
X149566107Y-87975329D01*
X149838087Y-88154212D01*
X149838089Y-88154213D01*
X150128971Y-88300301D01*
X150128977Y-88300303D01*
X150128979Y-88300304D01*
X150434870Y-88411639D01*
X150751618Y-88486709D01*
X151074939Y-88524500D01*
X151074946Y-88524500D01*
X151400454Y-88524500D01*
X151400461Y-88524500D01*
X151723782Y-88486709D01*
X152040530Y-88411639D01*
X152346421Y-88300304D01*
X152346424Y-88300302D01*
X152346428Y-88300301D01*
X152637310Y-88154213D01*
X152637312Y-88154212D01*
X152637311Y-88154212D01*
X152637318Y-88154209D01*
X152909288Y-87975332D01*
X153158652Y-87766090D01*
X153382039Y-87529314D01*
X153576428Y-87268205D01*
X153739189Y-86986295D01*
X153868121Y-86687395D01*
X153961482Y-86375548D01*
X154018009Y-86054971D01*
X154036936Y-85730000D01*
X154018009Y-85405029D01*
X153993287Y-85264828D01*
X153961485Y-85084466D01*
X153961483Y-85084460D01*
X153961482Y-85084452D01*
X153868121Y-84772605D01*
X153739189Y-84473705D01*
X153576428Y-84191795D01*
X153576427Y-84191793D01*
X153382042Y-83930689D01*
X153382037Y-83930683D01*
X153274022Y-83816195D01*
X153158652Y-83693910D01*
X153158645Y-83693904D01*
X153158643Y-83693902D01*
X152909292Y-83484670D01*
X152637312Y-83305787D01*
X152637310Y-83305786D01*
X152346428Y-83159698D01*
X152346422Y-83159696D01*
X152040531Y-83048361D01*
X152040529Y-83048360D01*
X151798851Y-82991082D01*
X151723782Y-82973291D01*
X151400461Y-82935500D01*
X151074939Y-82935500D01*
X150751618Y-82973291D01*
X150434870Y-83048360D01*
X150434868Y-83048361D01*
X150128977Y-83159696D01*
X150128971Y-83159698D01*
X149838089Y-83305786D01*
X149838087Y-83305787D01*
X149566107Y-83484670D01*
X149347043Y-83668489D01*
X149283035Y-83696502D01*
X149267337Y-83697500D01*
X146605400Y-83697500D01*
X146538361Y-83677815D01*
X146492606Y-83625011D01*
X146481400Y-83573500D01*
X146481400Y-80535700D01*
X136092800Y-80535700D01*
X136092800Y-84929900D01*
X125504882Y-84929900D01*
X127843698Y-82591084D01*
X127843716Y-82591069D01*
X128025700Y-82409085D01*
X128025705Y-82409080D01*
X128177765Y-82210911D01*
X128302658Y-81994590D01*
X128398247Y-81763817D01*
X128462897Y-81522542D01*
X128495501Y-81274893D01*
X128495501Y-81025107D01*
X128495501Y-81021268D01*
X128495500Y-81021234D01*
X128495500Y-80761196D01*
X128515185Y-80694157D01*
X128517547Y-80690615D01*
X128549472Y-80644536D01*
X128644051Y-80436316D01*
X128699930Y-80214553D01*
X128710500Y-80080247D01*
X128710499Y-78249754D01*
X128699930Y-78115447D01*
X128644051Y-77893684D01*
X128549472Y-77685464D01*
X128549471Y-77685462D01*
X128549468Y-77685456D01*
X128419240Y-77497485D01*
X128419237Y-77497481D01*
X128419234Y-77497477D01*
X128257523Y-77335766D01*
X128257519Y-77335763D01*
X128257514Y-77335759D01*
X128069543Y-77205531D01*
X128069537Y-77205528D01*
X127965426Y-77158238D01*
X127861316Y-77110949D01*
X127639553Y-77055070D01*
X127505247Y-77044500D01*
X127505245Y-77044500D01*
X125674761Y-77044500D01*
X125674746Y-77044501D01*
X125540447Y-77055070D01*
X125318684Y-77110949D01*
X125110464Y-77205528D01*
X125071194Y-77232733D01*
X125004876Y-77254729D01*
X124951179Y-77244537D01*
X124761776Y-77162268D01*
X124482442Y-77084002D01*
X124482438Y-77084001D01*
X124482437Y-77084001D01*
X124338741Y-77064250D01*
X124195047Y-77044500D01*
X124195046Y-77044500D01*
X123904954Y-77044500D01*
X123904953Y-77044500D01*
X123617563Y-77084001D01*
X123617557Y-77084002D01*
X123338226Y-77162267D01*
X123072153Y-77277838D01*
X122844428Y-77416321D01*
X122776920Y-77434335D01*
X122715572Y-77416321D01*
X122487846Y-77277838D01*
X122221773Y-77162267D01*
X121942442Y-77084002D01*
X121942438Y-77084001D01*
X121942437Y-77084001D01*
X121798741Y-77064250D01*
X121655047Y-77044500D01*
X121655046Y-77044500D01*
X121364954Y-77044500D01*
X121364953Y-77044500D01*
X121077563Y-77084001D01*
X121077557Y-77084002D01*
X120798226Y-77162267D01*
X120532153Y-77277838D01*
X120304428Y-77416321D01*
X120236920Y-77434335D01*
X120175572Y-77416321D01*
X119947846Y-77277838D01*
X119681773Y-77162267D01*
X119402442Y-77084002D01*
X119402438Y-77084001D01*
X119402437Y-77084001D01*
X119258741Y-77064250D01*
X119115047Y-77044500D01*
X119115046Y-77044500D01*
X118824954Y-77044500D01*
X118824953Y-77044500D01*
X118537563Y-77084001D01*
X118537557Y-77084002D01*
X118258226Y-77162267D01*
X117992153Y-77277838D01*
X117764428Y-77416321D01*
X117696920Y-77434335D01*
X117635572Y-77416321D01*
X117407846Y-77277838D01*
X117141773Y-77162267D01*
X116862442Y-77084002D01*
X116862438Y-77084001D01*
X116862437Y-77084001D01*
X116718741Y-77064250D01*
X116575047Y-77044500D01*
X116575046Y-77044500D01*
X116284954Y-77044500D01*
X116284953Y-77044500D01*
X115997563Y-77084001D01*
X115997557Y-77084002D01*
X115718226Y-77162267D01*
X115452153Y-77277838D01*
X115224428Y-77416321D01*
X115156920Y-77434335D01*
X115095572Y-77416321D01*
X114867846Y-77277838D01*
X114601773Y-77162267D01*
X114322442Y-77084002D01*
X114322438Y-77084001D01*
X114322437Y-77084001D01*
X114178741Y-77064250D01*
X114035047Y-77044500D01*
X114035046Y-77044500D01*
X113744954Y-77044500D01*
X113744953Y-77044500D01*
X113457563Y-77084001D01*
X113457557Y-77084002D01*
X113178226Y-77162267D01*
X112912153Y-77277838D01*
X112664295Y-77428564D01*
X112439271Y-77611634D01*
X112439265Y-77611639D01*
X112439264Y-77611641D01*
X112241262Y-77823650D01*
X112073970Y-78060647D01*
X111940508Y-78318217D01*
X111843364Y-78591553D01*
X111843359Y-78591569D01*
X111784342Y-78875581D01*
X111784341Y-78875583D01*
X111764545Y-79165000D01*
X111784341Y-79454416D01*
X111784342Y-79454418D01*
X111843359Y-79738430D01*
X111843364Y-79738446D01*
X111940508Y-80011782D01*
X111940509Y-80011784D01*
X112073970Y-80269352D01*
X112241261Y-80506349D01*
X112439264Y-80718359D01*
X112664292Y-80901433D01*
X112664294Y-80901434D01*
X112664295Y-80901435D01*
X112912153Y-81052161D01*
X113128105Y-81145961D01*
X113178228Y-81167733D01*
X113457563Y-81245999D01*
X113710225Y-81280726D01*
X113744953Y-81285500D01*
X113744954Y-81285500D01*
X114035047Y-81285500D01*
X114066030Y-81281241D01*
X114322437Y-81245999D01*
X114601772Y-81167733D01*
X114867848Y-81052160D01*
X115095572Y-80913678D01*
X115163079Y-80895664D01*
X115224428Y-80913678D01*
X115452153Y-81052161D01*
X115668105Y-81145961D01*
X115718228Y-81167733D01*
X115997563Y-81245999D01*
X116250225Y-81280726D01*
X116284953Y-81285500D01*
X116284954Y-81285500D01*
X116575047Y-81285500D01*
X116606030Y-81281241D01*
X116862437Y-81245999D01*
X117141772Y-81167733D01*
X117407848Y-81052160D01*
X117635572Y-80913678D01*
X117703079Y-80895664D01*
X117764428Y-80913678D01*
X117992153Y-81052161D01*
X118208105Y-81145961D01*
X118258228Y-81167733D01*
X118537563Y-81245999D01*
X118790225Y-81280726D01*
X118824953Y-81285500D01*
X118824954Y-81285500D01*
X119115047Y-81285500D01*
X119146030Y-81281241D01*
X119402437Y-81245999D01*
X119681772Y-81167733D01*
X119947848Y-81052160D01*
X120175572Y-80913678D01*
X120243079Y-80895664D01*
X120304428Y-80913678D01*
X120532153Y-81052161D01*
X120748105Y-81145961D01*
X120798228Y-81167733D01*
X121077563Y-81245999D01*
X121330225Y-81280726D01*
X121364953Y-81285500D01*
X121364954Y-81285500D01*
X121655047Y-81285500D01*
X121686030Y-81281241D01*
X121942437Y-81245999D01*
X122221772Y-81167733D01*
X122487848Y-81052160D01*
X122715572Y-80913678D01*
X122783079Y-80895664D01*
X122844428Y-80913678D01*
X123072153Y-81052161D01*
X123288105Y-81145961D01*
X123338228Y-81167733D01*
X123526344Y-81220440D01*
X123555340Y-81228565D01*
X123614582Y-81265607D01*
X123644394Y-81328797D01*
X123635310Y-81398074D01*
X123609566Y-81435648D01*
X114987035Y-90058181D01*
X114925712Y-90091666D01*
X114899354Y-90094500D01*
X97081702Y-90094500D01*
X97014663Y-90074815D01*
X96968908Y-90022011D01*
X96957703Y-89970062D01*
X97000000Y-78000000D01*
X82124000Y-78000000D01*
X82056961Y-77980315D01*
X82011206Y-77927511D01*
X82000000Y-77876000D01*
X82000000Y-76074069D01*
X82019685Y-76007030D01*
X82072489Y-75961275D01*
X82141647Y-75951331D01*
X82205203Y-75980356D01*
X82232528Y-76014088D01*
X82318442Y-76169539D01*
X82318445Y-76169544D01*
X82514754Y-76446214D01*
X82514760Y-76446222D01*
X82740817Y-76699179D01*
X82740820Y-76699182D01*
X82993777Y-76925239D01*
X82993785Y-76925245D01*
X83270455Y-77121554D01*
X83270460Y-77121557D01*
X83270463Y-77121558D01*
X83270465Y-77121560D01*
X83567389Y-77285664D01*
X83880820Y-77415492D01*
X84206817Y-77509409D01*
X84541278Y-77566237D01*
X84880000Y-77585259D01*
X85218722Y-77566237D01*
X85553183Y-77509409D01*
X85879180Y-77415492D01*
X86192611Y-77285664D01*
X86489535Y-77121560D01*
X86489540Y-77121556D01*
X86489544Y-77121554D01*
X86583244Y-77055070D01*
X86766218Y-76925243D01*
X87019181Y-76699181D01*
X87245243Y-76446218D01*
X87441560Y-76169535D01*
X87605664Y-75872611D01*
X87735492Y-75559180D01*
X87829409Y-75233183D01*
X87886237Y-74898722D01*
X87905259Y-74560000D01*
X87886237Y-74221278D01*
X87829409Y-73886817D01*
X87735492Y-73560820D01*
X87605664Y-73247389D01*
X87441560Y-72950465D01*
X87441558Y-72950463D01*
X87441557Y-72950460D01*
X87441554Y-72950455D01*
X87320112Y-72779300D01*
X136092800Y-72779300D01*
X138864400Y-72779300D01*
X138931439Y-72798985D01*
X138977194Y-72851789D01*
X138988400Y-72903300D01*
X138988400Y-74255500D01*
X138968715Y-74322539D01*
X138915911Y-74368294D01*
X138864400Y-74379500D01*
X136092800Y-74379500D01*
X136092800Y-78773700D01*
X146481400Y-78773700D01*
X146481400Y-75735900D01*
X146501085Y-75668861D01*
X146553889Y-75623106D01*
X146605400Y-75611900D01*
X149116737Y-75611900D01*
X149183776Y-75631585D01*
X149196443Y-75640911D01*
X149415507Y-75824729D01*
X149551497Y-75914170D01*
X149652127Y-75980356D01*
X149687487Y-76003612D01*
X149687489Y-76003613D01*
X149978371Y-76149701D01*
X149978377Y-76149703D01*
X149978379Y-76149704D01*
X150284270Y-76261039D01*
X150601018Y-76336109D01*
X150924339Y-76373900D01*
X150924346Y-76373900D01*
X151249854Y-76373900D01*
X151249861Y-76373900D01*
X151573182Y-76336109D01*
X151889930Y-76261039D01*
X152195821Y-76149704D01*
X152195824Y-76149702D01*
X152195828Y-76149701D01*
X152486710Y-76003613D01*
X152486712Y-76003612D01*
X152486711Y-76003612D01*
X152486718Y-76003609D01*
X152758688Y-75824732D01*
X153008052Y-75615490D01*
X153231439Y-75378714D01*
X153425828Y-75117605D01*
X153588589Y-74835695D01*
X153717521Y-74536795D01*
X153810882Y-74224948D01*
X153811529Y-74221282D01*
X153832134Y-74104418D01*
X153867409Y-73904371D01*
X153886336Y-73579400D01*
X153867409Y-73254429D01*
X153830645Y-73045930D01*
X153810885Y-72933866D01*
X153810883Y-72933860D01*
X153810882Y-72933852D01*
X153717521Y-72622005D01*
X153588589Y-72323105D01*
X153425828Y-72041195D01*
X153394002Y-71998445D01*
X153231442Y-71780089D01*
X153231437Y-71780083D01*
X153071528Y-71610591D01*
X153008052Y-71543310D01*
X153008045Y-71543304D01*
X153008043Y-71543302D01*
X152758692Y-71334070D01*
X152486712Y-71155187D01*
X152486710Y-71155186D01*
X152195828Y-71009098D01*
X152195822Y-71009096D01*
X151889931Y-70897761D01*
X151889929Y-70897760D01*
X151648251Y-70840482D01*
X151573182Y-70822691D01*
X151249861Y-70784900D01*
X150924339Y-70784900D01*
X150601018Y-70822691D01*
X150284270Y-70897760D01*
X150284268Y-70897761D01*
X149978377Y-71009096D01*
X149978371Y-71009098D01*
X149687489Y-71155186D01*
X149687487Y-71155187D01*
X149415507Y-71334070D01*
X149196443Y-71517889D01*
X149132435Y-71545902D01*
X149116737Y-71546900D01*
X146605400Y-71546900D01*
X146538361Y-71527215D01*
X146492606Y-71474411D01*
X146481400Y-71422900D01*
X146481400Y-68385100D01*
X136092800Y-68385100D01*
X136092800Y-72779300D01*
X87320112Y-72779300D01*
X87245245Y-72673785D01*
X87245239Y-72673777D01*
X87019182Y-72420820D01*
X87019179Y-72420817D01*
X86766222Y-72194760D01*
X86766214Y-72194754D01*
X86489544Y-71998445D01*
X86489539Y-71998442D01*
X86192609Y-71834335D01*
X86061648Y-71780089D01*
X85879180Y-71704508D01*
X85879176Y-71704506D01*
X85879174Y-71704506D01*
X85553188Y-71610592D01*
X85553179Y-71610590D01*
X85218729Y-71553764D01*
X85218717Y-71553762D01*
X84880000Y-71534741D01*
X84541282Y-71553762D01*
X84541270Y-71553764D01*
X84206820Y-71610590D01*
X84206811Y-71610592D01*
X83880825Y-71704506D01*
X83567390Y-71834335D01*
X83270460Y-71998442D01*
X83270455Y-71998445D01*
X82993785Y-72194754D01*
X82993777Y-72194760D01*
X82740820Y-72420817D01*
X82740817Y-72420820D01*
X82514760Y-72673777D01*
X82514754Y-72673785D01*
X82318445Y-72950455D01*
X82318442Y-72950460D01*
X82232528Y-73105911D01*
X82182871Y-73155064D01*
X82114523Y-73169567D01*
X82049184Y-73144817D01*
X82007599Y-73088670D01*
X82000000Y-73045930D01*
X82000000Y-66124000D01*
X82019685Y-66056961D01*
X82072489Y-66011206D01*
X82124000Y-66000000D01*
X98999999Y-66000000D01*
X99000000Y-66000000D01*
X99068547Y-57397308D01*
X99088764Y-57330433D01*
X99141931Y-57285100D01*
X99191751Y-57274304D01*
X115452082Y-57170734D01*
X115519246Y-57189991D01*
X115565336Y-57242502D01*
X115575720Y-57311596D01*
X115565771Y-57346012D01*
X115525949Y-57433681D01*
X115470070Y-57655447D01*
X115459500Y-57789747D01*
X115459500Y-60210238D01*
X115459501Y-60210253D01*
X115470070Y-60344558D01*
X115495179Y-60444202D01*
X115492472Y-60514019D01*
X115452448Y-60571289D01*
X115387816Y-60597829D01*
X115374938Y-60598500D01*
X112503420Y-60598500D01*
X112439270Y-60580617D01*
X112281572Y-60485285D01*
X112281567Y-60485282D01*
X112053826Y-60393624D01*
X111814331Y-60339685D01*
X111814324Y-60339684D01*
X111670070Y-60329500D01*
X110329933Y-60329500D01*
X110329927Y-60329501D01*
X110209714Y-60337987D01*
X110185671Y-60339685D01*
X109946174Y-60393624D01*
X109946172Y-60393624D01*
X109718432Y-60485282D01*
X109718427Y-60485285D01*
X109508349Y-60612282D01*
X109508339Y-60612289D01*
X109321345Y-60771345D01*
X109162289Y-60958339D01*
X109162282Y-60958349D01*
X109035285Y-61168427D01*
X109035282Y-61168432D01*
X108943624Y-61396172D01*
X108943624Y-61396174D01*
X108889685Y-61635668D01*
X108889684Y-61635675D01*
X108879500Y-61779928D01*
X108879500Y-62720066D01*
X108879501Y-62720072D01*
X108889685Y-62864329D01*
X108905685Y-62935371D01*
X108943624Y-63103825D01*
X108943624Y-63103827D01*
X109022540Y-63299908D01*
X109035282Y-63331567D01*
X109162286Y-63541657D01*
X109162289Y-63541660D01*
X109321345Y-63728654D01*
X109431176Y-63822076D01*
X109508343Y-63887714D01*
X109718433Y-64014718D01*
X109946175Y-64106376D01*
X110185671Y-64160315D01*
X110329931Y-64170500D01*
X111670068Y-64170499D01*
X111814329Y-64160315D01*
X112053825Y-64106376D01*
X112281567Y-64014718D01*
X112439270Y-63919383D01*
X112503420Y-63901500D01*
X116130500Y-63901500D01*
X116197539Y-63921185D01*
X116243294Y-63973989D01*
X116254500Y-64025500D01*
X116254500Y-64319485D01*
X116254501Y-64319490D01*
X116264601Y-64462560D01*
X116264601Y-64462564D01*
X116264602Y-64462567D01*
X116264603Y-64462571D01*
X116313479Y-64679589D01*
X116309005Y-64749315D01*
X116272215Y-64801822D01*
X116079056Y-64963902D01*
X116079046Y-64963912D01*
X115855662Y-65200683D01*
X115855657Y-65200689D01*
X115661272Y-65461793D01*
X115498513Y-65743700D01*
X115498507Y-65743713D01*
X115369578Y-66042605D01*
X115276217Y-66354455D01*
X115276214Y-66354466D01*
X115219692Y-66675020D01*
X115219691Y-66675028D01*
X115200764Y-66999996D01*
X115200764Y-67000003D01*
X115219691Y-67324971D01*
X115219692Y-67324979D01*
X115276214Y-67645533D01*
X115276217Y-67645544D01*
X115369578Y-67957394D01*
X115498507Y-68256286D01*
X115498513Y-68256299D01*
X115661272Y-68538206D01*
X115855657Y-68799310D01*
X115855662Y-68799316D01*
X115971031Y-68921599D01*
X116079048Y-69036090D01*
X116079054Y-69036095D01*
X116079056Y-69036097D01*
X116328407Y-69245329D01*
X116600387Y-69424212D01*
X116600389Y-69424213D01*
X116891271Y-69570301D01*
X116891277Y-69570303D01*
X116891279Y-69570304D01*
X117197170Y-69681639D01*
X117513918Y-69756709D01*
X117837239Y-69794500D01*
X117837246Y-69794500D01*
X118162754Y-69794500D01*
X118162761Y-69794500D01*
X118486082Y-69756709D01*
X118802830Y-69681639D01*
X119108721Y-69570304D01*
X119108724Y-69570302D01*
X119108728Y-69570301D01*
X119399610Y-69424213D01*
X119399612Y-69424212D01*
X119399611Y-69424212D01*
X119399618Y-69424209D01*
X119671588Y-69245332D01*
X119920952Y-69036090D01*
X120144339Y-68799314D01*
X120338728Y-68538205D01*
X120501489Y-68256295D01*
X120630421Y-67957395D01*
X120723782Y-67645548D01*
X120780309Y-67324971D01*
X120799236Y-67000000D01*
X120780309Y-66675029D01*
X120755587Y-66534828D01*
X120723785Y-66354466D01*
X120723783Y-66354460D01*
X120723782Y-66354452D01*
X120630421Y-66042605D01*
X120501489Y-65743705D01*
X120338728Y-65461795D01*
X120338727Y-65461793D01*
X120144342Y-65200689D01*
X120144337Y-65200683D01*
X120058775Y-65109994D01*
X138304418Y-65109994D01*
X138304418Y-65110005D01*
X138324725Y-65432798D01*
X138330257Y-65461795D01*
X138385335Y-65750521D01*
X138385337Y-65750527D01*
X138485284Y-66058137D01*
X138485286Y-66058141D01*
X138622998Y-66350792D01*
X138623001Y-66350798D01*
X138796303Y-66623879D01*
X138796305Y-66623882D01*
X138796310Y-66623889D01*
X139002482Y-66873107D01*
X139002483Y-66873108D01*
X139238260Y-67094518D01*
X139238270Y-67094526D01*
X139499922Y-67284628D01*
X139499928Y-67284631D01*
X139499934Y-67284636D01*
X139783371Y-67440456D01*
X140084101Y-67559524D01*
X140084100Y-67559524D01*
X140188528Y-67586336D01*
X140397384Y-67639961D01*
X140554514Y-67659811D01*
X140718268Y-67680499D01*
X140718274Y-67680499D01*
X140718278Y-67680500D01*
X140718280Y-67680500D01*
X141041720Y-67680500D01*
X141041722Y-67680500D01*
X141041727Y-67680499D01*
X141041731Y-67680499D01*
X141126919Y-67669736D01*
X141362616Y-67639961D01*
X141675899Y-67559524D01*
X141976629Y-67440456D01*
X142260066Y-67284636D01*
X142521738Y-67094520D01*
X142757518Y-66873107D01*
X142963690Y-66623889D01*
X143137000Y-66350796D01*
X143274716Y-66058135D01*
X143374665Y-65750521D01*
X143435273Y-65432806D01*
X143449877Y-65200689D01*
X143455582Y-65110005D01*
X143455582Y-65109994D01*
X143435274Y-64787201D01*
X143427912Y-64748609D01*
X143374665Y-64469479D01*
X143274716Y-64161865D01*
X143248604Y-64106375D01*
X143152197Y-63901500D01*
X143137000Y-63869204D01*
X142963690Y-63596111D01*
X142757518Y-63346893D01*
X142521738Y-63125480D01*
X142521735Y-63125478D01*
X142521729Y-63125473D01*
X142260077Y-62935371D01*
X142260059Y-62935360D01*
X142164538Y-62882847D01*
X141976629Y-62779544D01*
X141976627Y-62779543D01*
X141976623Y-62779541D01*
X141675896Y-62660475D01*
X141675899Y-62660475D01*
X141362613Y-62580038D01*
X141041731Y-62539500D01*
X141041722Y-62539500D01*
X140718278Y-62539500D01*
X140718268Y-62539500D01*
X140397386Y-62580038D01*
X140084101Y-62660475D01*
X139783376Y-62779541D01*
X139499940Y-62935360D01*
X139499922Y-62935371D01*
X139238270Y-63125473D01*
X139238260Y-63125481D01*
X139002483Y-63346891D01*
X138879799Y-63495189D01*
X138841359Y-63541657D01*
X138796303Y-63596120D01*
X138623001Y-63869201D01*
X138622998Y-63869207D01*
X138485286Y-64161858D01*
X138485284Y-64161862D01*
X138385337Y-64469472D01*
X138385335Y-64469479D01*
X138355031Y-64628336D01*
X138324725Y-64787201D01*
X138304418Y-65109994D01*
X120058775Y-65109994D01*
X120036322Y-65086195D01*
X119920952Y-64963910D01*
X119727781Y-64801819D01*
X119689082Y-64743652D01*
X119686520Y-64679593D01*
X119735398Y-64462567D01*
X119745500Y-64319487D01*
X119745499Y-63680514D01*
X119735398Y-63537433D01*
X119681903Y-63299906D01*
X119615048Y-63133796D01*
X119608280Y-63064256D01*
X119615049Y-63041203D01*
X119657646Y-62935364D01*
X119681903Y-62875094D01*
X119735398Y-62637567D01*
X119745500Y-62494487D01*
X119745499Y-61855514D01*
X119735398Y-61712433D01*
X119681903Y-61474906D01*
X119660467Y-61421644D01*
X119651500Y-61375347D01*
X119651500Y-59440018D01*
X119610835Y-59183272D01*
X119595483Y-59136027D01*
X119530505Y-58936044D01*
X119414014Y-58707416D01*
X119400499Y-58651121D01*
X119400499Y-57789761D01*
X119400498Y-57789753D01*
X119389930Y-57655447D01*
X119334051Y-57433684D01*
X119282821Y-57320898D01*
X119273018Y-57251720D01*
X119302173Y-57188223D01*
X119361028Y-57150569D01*
X119394927Y-57145620D01*
X130283153Y-57076269D01*
X130332352Y-57075006D01*
X130558950Y-57044294D01*
X130611266Y-57032349D01*
X130787560Y-56978431D01*
X130992572Y-56877139D01*
X131176203Y-56740869D01*
X131228353Y-56694370D01*
X131258971Y-56666160D01*
X131409790Y-56494277D01*
X131527494Y-56298227D01*
X131608301Y-56084311D01*
X131627033Y-56016999D01*
X131656333Y-55884966D01*
X131673599Y-55656949D01*
X131638747Y-53199900D01*
X136092800Y-53199900D01*
X138864400Y-53199900D01*
X138931439Y-53219585D01*
X138977194Y-53272389D01*
X138988400Y-53323900D01*
X138988400Y-54676100D01*
X138968715Y-54743139D01*
X138915911Y-54788894D01*
X138864400Y-54800100D01*
X136092800Y-54800100D01*
X136092800Y-59194300D01*
X146481400Y-59194300D01*
X146481400Y-56156500D01*
X146501085Y-56089461D01*
X146553889Y-56043706D01*
X146605400Y-56032500D01*
X149016060Y-56032500D01*
X149083099Y-56052185D01*
X149106253Y-56071405D01*
X149166148Y-56134890D01*
X149166154Y-56134895D01*
X149166156Y-56134897D01*
X149415507Y-56344129D01*
X149415512Y-56344132D01*
X149643786Y-56494270D01*
X149687487Y-56523012D01*
X149687489Y-56523013D01*
X149978371Y-56669101D01*
X149978377Y-56669103D01*
X149978379Y-56669104D01*
X150284270Y-56780439D01*
X150601018Y-56855509D01*
X150924339Y-56893300D01*
X150924346Y-56893300D01*
X151249854Y-56893300D01*
X151249861Y-56893300D01*
X151573182Y-56855509D01*
X151889930Y-56780439D01*
X152195821Y-56669104D01*
X152195824Y-56669102D01*
X152195828Y-56669101D01*
X152486710Y-56523013D01*
X152486712Y-56523012D01*
X152486711Y-56523012D01*
X152486718Y-56523009D01*
X152758688Y-56344132D01*
X152813391Y-56298231D01*
X152856531Y-56262030D01*
X153008052Y-56134890D01*
X153231439Y-55898114D01*
X153425828Y-55637005D01*
X153588589Y-55355095D01*
X153717521Y-55056195D01*
X153810882Y-54744348D01*
X153811096Y-54743139D01*
X153832134Y-54623818D01*
X153867409Y-54423771D01*
X153886336Y-54098800D01*
X153867409Y-53773829D01*
X153842687Y-53633628D01*
X153810885Y-53453266D01*
X153810883Y-53453260D01*
X153810882Y-53453252D01*
X153717521Y-53141405D01*
X153588589Y-52842505D01*
X153425828Y-52560595D01*
X153425827Y-52560593D01*
X153231442Y-52299489D01*
X153231437Y-52299483D01*
X153059256Y-52116983D01*
X153008052Y-52062710D01*
X153008045Y-52062704D01*
X153008043Y-52062702D01*
X152758692Y-51853470D01*
X152486712Y-51674587D01*
X152486710Y-51674586D01*
X152195828Y-51528498D01*
X152195822Y-51528496D01*
X151889931Y-51417161D01*
X151889929Y-51417160D01*
X151648251Y-51359882D01*
X151573182Y-51342091D01*
X151249861Y-51304300D01*
X150924339Y-51304300D01*
X150601018Y-51342091D01*
X150284270Y-51417160D01*
X150284268Y-51417161D01*
X149978377Y-51528496D01*
X149978371Y-51528498D01*
X149687489Y-51674586D01*
X149687487Y-51674587D01*
X149415504Y-51853473D01*
X149314188Y-51938489D01*
X149250180Y-51966502D01*
X149234482Y-51967500D01*
X146605400Y-51967500D01*
X146538361Y-51947815D01*
X146492606Y-51895011D01*
X146481400Y-51843500D01*
X146481400Y-48805700D01*
X136092800Y-48805700D01*
X136092800Y-53199900D01*
X131638747Y-53199900D01*
X131548916Y-46866775D01*
X146748750Y-46866775D01*
X146748750Y-47133224D01*
X146777715Y-47353226D01*
X146783527Y-47397372D01*
X146852485Y-47654727D01*
X146852488Y-47654737D01*
X146954443Y-47900877D01*
X146954448Y-47900888D01*
X147087657Y-48131611D01*
X147087668Y-48131627D01*
X147249855Y-48342994D01*
X147249861Y-48343001D01*
X147438248Y-48531388D01*
X147438255Y-48531394D01*
X147534285Y-48605080D01*
X147649631Y-48693588D01*
X147649638Y-48693592D01*
X147880361Y-48826801D01*
X147880366Y-48826803D01*
X147880369Y-48826805D01*
X148126522Y-48928765D01*
X148383878Y-48997723D01*
X148648033Y-49032500D01*
X148648040Y-49032500D01*
X151170710Y-49032500D01*
X151170717Y-49032500D01*
X151434872Y-48997723D01*
X151692228Y-48928765D01*
X151865459Y-48857010D01*
X151902547Y-48841648D01*
X151972016Y-48834179D01*
X151997453Y-48841648D01*
X152027990Y-48854297D01*
X152207772Y-48928765D01*
X152465128Y-48997723D01*
X152729283Y-49032500D01*
X152729290Y-49032500D01*
X156033210Y-49032500D01*
X156033217Y-49032500D01*
X156297372Y-48997723D01*
X156554728Y-48928765D01*
X156800881Y-48826805D01*
X156801300Y-48826562D01*
X156801698Y-48826401D01*
X156804524Y-48825008D01*
X156804625Y-48825214D01*
X156833011Y-48813702D01*
X156871316Y-48804051D01*
X157079536Y-48709472D01*
X157079538Y-48709470D01*
X157079543Y-48709468D01*
X157267514Y-48579240D01*
X157267523Y-48579234D01*
X157346759Y-48499998D01*
X161777500Y-48499998D01*
X161777500Y-48500001D01*
X161797329Y-48796226D01*
X161797331Y-48796236D01*
X161856467Y-49087176D01*
X161905724Y-49229027D01*
X161953856Y-49367640D01*
X162087757Y-49632623D01*
X162255783Y-49877394D01*
X162255785Y-49877396D01*
X162255789Y-49877402D01*
X162255792Y-49877404D01*
X162454935Y-50097586D01*
X162681658Y-50289268D01*
X162931907Y-50449021D01*
X163201216Y-50573994D01*
X163484780Y-50661956D01*
X163777537Y-50711338D01*
X164074265Y-50721259D01*
X164369667Y-50691541D01*
X164658472Y-50622715D01*
X164658475Y-50622713D01*
X164658479Y-50622713D01*
X164797000Y-50569362D01*
X164935528Y-50516010D01*
X165195888Y-50373328D01*
X165434908Y-50197217D01*
X165648322Y-49990819D01*
X165832321Y-49757817D01*
X165983623Y-49502370D01*
X166099527Y-49229035D01*
X166177965Y-48942691D01*
X166217537Y-48648447D01*
X166217537Y-48351553D01*
X166177965Y-48057309D01*
X166099527Y-47770965D01*
X165983623Y-47497630D01*
X165906474Y-47367377D01*
X165832321Y-47242182D01*
X165648321Y-47009180D01*
X165640811Y-47001917D01*
X165434908Y-46802783D01*
X165309974Y-46710731D01*
X165195894Y-46626676D01*
X165195891Y-46626674D01*
X165195888Y-46626672D01*
X164935528Y-46483990D01*
X164935523Y-46483988D01*
X164935521Y-46483987D01*
X164658479Y-46377286D01*
X164658474Y-46377285D01*
X164369667Y-46308459D01*
X164369664Y-46308458D01*
X164074269Y-46278741D01*
X164074265Y-46278741D01*
X163777537Y-46288662D01*
X163484779Y-46338044D01*
X163439290Y-46352155D01*
X163201216Y-46426006D01*
X163201209Y-46426009D01*
X163201207Y-46426010D01*
X162931911Y-46550976D01*
X162681658Y-46710731D01*
X162681656Y-46710733D01*
X162454933Y-46902415D01*
X162255792Y-47122595D01*
X162255789Y-47122597D01*
X162255783Y-47122606D01*
X162087757Y-47367377D01*
X161953856Y-47632360D01*
X161953854Y-47632363D01*
X161953854Y-47632365D01*
X161856467Y-47912823D01*
X161797331Y-48203763D01*
X161797329Y-48203773D01*
X161777500Y-48499998D01*
X157346759Y-48499998D01*
X157429234Y-48417523D01*
X157457477Y-48376756D01*
X157559468Y-48229543D01*
X157559473Y-48229534D01*
X157603948Y-48131619D01*
X157618310Y-48100000D01*
X158444500Y-48100000D01*
X158597828Y-48100000D01*
X158597844Y-48099999D01*
X158657372Y-48093598D01*
X158657379Y-48093596D01*
X158792086Y-48043354D01*
X158792093Y-48043350D01*
X158907187Y-47957190D01*
X158907190Y-47957187D01*
X158993350Y-47842093D01*
X158993354Y-47842086D01*
X159043596Y-47707379D01*
X159043598Y-47707372D01*
X159049999Y-47647844D01*
X159050000Y-47647827D01*
X159050000Y-47444500D01*
X158444500Y-47444500D01*
X158444500Y-48100000D01*
X157618310Y-48100000D01*
X157639676Y-48052959D01*
X157645175Y-48042265D01*
X157726805Y-47900881D01*
X157828765Y-47654728D01*
X157897723Y-47397372D01*
X157932500Y-47133217D01*
X157932500Y-46866783D01*
X157897723Y-46602628D01*
X157885095Y-46555500D01*
X158444500Y-46555500D01*
X159050000Y-46555500D01*
X159050000Y-46352172D01*
X159049999Y-46352155D01*
X159043598Y-46292627D01*
X159043596Y-46292620D01*
X158993354Y-46157913D01*
X158993350Y-46157906D01*
X158907190Y-46042812D01*
X158907187Y-46042809D01*
X158792093Y-45956649D01*
X158792086Y-45956645D01*
X158657379Y-45906403D01*
X158657372Y-45906401D01*
X158597844Y-45900000D01*
X158444500Y-45900000D01*
X158444500Y-46555500D01*
X157885095Y-46555500D01*
X157828765Y-46345272D01*
X157726805Y-46099119D01*
X157645174Y-45957731D01*
X157639674Y-45947034D01*
X157559473Y-45770466D01*
X157559468Y-45770456D01*
X157429240Y-45582485D01*
X157429237Y-45582481D01*
X157429234Y-45582477D01*
X157267523Y-45420766D01*
X157267519Y-45420763D01*
X157267514Y-45420759D01*
X157079543Y-45290531D01*
X157079537Y-45290528D01*
X156871320Y-45195951D01*
X156871316Y-45195949D01*
X156833006Y-45186295D01*
X156804619Y-45174787D01*
X156804520Y-45174990D01*
X156801748Y-45173623D01*
X156801326Y-45173452D01*
X156800884Y-45173197D01*
X156800881Y-45173195D01*
X156778982Y-45164124D01*
X156554737Y-45071238D01*
X156554730Y-45071236D01*
X156554728Y-45071235D01*
X156297372Y-45002277D01*
X156253226Y-44996465D01*
X156033224Y-44967500D01*
X156033217Y-44967500D01*
X152729283Y-44967500D01*
X152729275Y-44967500D01*
X152477843Y-45000602D01*
X152465128Y-45002277D01*
X152207772Y-45071235D01*
X152207756Y-45071240D01*
X151997452Y-45158351D01*
X151927983Y-45165820D01*
X151902548Y-45158351D01*
X151692243Y-45071240D01*
X151692231Y-45071236D01*
X151692228Y-45071235D01*
X151434872Y-45002277D01*
X151390726Y-44996465D01*
X151170724Y-44967500D01*
X151170717Y-44967500D01*
X148648033Y-44967500D01*
X148648025Y-44967500D01*
X148396593Y-45000602D01*
X148383878Y-45002277D01*
X148126522Y-45071235D01*
X148126512Y-45071238D01*
X147880372Y-45173193D01*
X147880361Y-45173198D01*
X147649638Y-45306407D01*
X147649622Y-45306418D01*
X147438255Y-45468605D01*
X147438248Y-45468611D01*
X147249861Y-45656998D01*
X147249855Y-45657005D01*
X147087668Y-45868372D01*
X147087657Y-45868388D01*
X146954448Y-46099111D01*
X146954443Y-46099122D01*
X146852488Y-46345262D01*
X146852485Y-46345272D01*
X146830853Y-46426006D01*
X146783528Y-46602625D01*
X146783526Y-46602636D01*
X146748750Y-46866775D01*
X131548916Y-46866775D01*
X131510043Y-44126257D01*
X131528775Y-44058947D01*
X131580925Y-44012448D01*
X131634031Y-44000500D01*
X168375500Y-44000500D01*
X168442539Y-44020185D01*
G37*
%TD.AperFunction*%
%TD*%
%TA.AperFunction,Conductor*%
%TO.N,RAW_48V_GND*%
G36*
X130177416Y-44020185D02*
G01*
X130223171Y-44072989D01*
X130234365Y-44122741D01*
X130398227Y-55675039D01*
X130379495Y-55742351D01*
X130327345Y-55788850D01*
X130275029Y-55800795D01*
X99125697Y-55999199D01*
X99058533Y-55979942D01*
X99012443Y-55927431D01*
X99000910Y-55874306D01*
X99086061Y-44123600D01*
X99106231Y-44056706D01*
X99159365Y-44011335D01*
X99210058Y-44000500D01*
X130110377Y-44000500D01*
X130177416Y-44020185D01*
G37*
%TD.AperFunction*%
%TD*%
M02*
