%TF.GenerationSoftware,KiCad,Pcbnew,8.0.4*%
%TF.CreationDate,2025-01-10T12:27:39-08:00*%
%TF.ProjectId,X17-Power-Slab-Master,5831372d-506f-4776-9572-2d536c61622d,rev?*%
%TF.SameCoordinates,Original*%
%TF.FileFunction,Soldermask,Bot*%
%TF.FilePolarity,Negative*%
%FSLAX46Y46*%
G04 Gerber Fmt 4.6, Leading zero omitted, Abs format (unit mm)*
G04 Created by KiCad (PCBNEW 8.0.4) date 2025-01-10 12:27:39*
%MOMM*%
%LPD*%
G01*
G04 APERTURE LIST*
G04 Aperture macros list*
%AMRoundRect*
0 Rectangle with rounded corners*
0 $1 Rounding radius*
0 $2 $3 $4 $5 $6 $7 $8 $9 X,Y pos of 4 corners*
0 Add a 4 corners polygon primitive as box body*
4,1,4,$2,$3,$4,$5,$6,$7,$8,$9,$2,$3,0*
0 Add four circle primitives for the rounded corners*
1,1,$1+$1,$2,$3*
1,1,$1+$1,$4,$5*
1,1,$1+$1,$6,$7*
1,1,$1+$1,$8,$9*
0 Add four rect primitives between the rounded corners*
20,1,$1+$1,$2,$3,$4,$5,0*
20,1,$1+$1,$4,$5,$6,$7,0*
20,1,$1+$1,$6,$7,$8,$9,0*
20,1,$1+$1,$8,$9,$2,$3,0*%
G04 Aperture macros list end*
%ADD10C,1.734000*%
%ADD11RoundRect,0.102000X-0.765000X-0.765000X0.765000X-0.765000X0.765000X0.765000X-0.765000X0.765000X0*%
%ADD12C,3.200000*%
%ADD13R,1.700000X1.700000*%
%ADD14O,1.700000X1.700000*%
%ADD15C,2.032000*%
%ADD16C,3.500000*%
%ADD17RoundRect,0.237500X-0.250000X-0.237500X0.250000X-0.237500X0.250000X0.237500X-0.250000X0.237500X0*%
%ADD18C,2.600000*%
%ADD19C,3.100000*%
%ADD20C,1.600000*%
%ADD21C,3.810000*%
G04 APERTURE END LIST*
D10*
%TO.C,J2*%
X126500000Y-129500000D03*
X126500000Y-132000000D03*
X126500000Y-134500000D03*
X126500000Y-137000000D03*
X126500000Y-139500000D03*
X123500000Y-139500000D03*
X123500000Y-137000000D03*
X123500000Y-134500000D03*
X123500000Y-132000000D03*
X123500000Y-129500000D03*
X121000000Y-129500000D03*
X121000000Y-132000000D03*
X121000000Y-134500000D03*
X121000000Y-137000000D03*
X121000000Y-139500000D03*
X118000000Y-139500000D03*
X118000000Y-137000000D03*
X118000000Y-134500000D03*
X118000000Y-132000000D03*
X118000000Y-129500000D03*
X115500000Y-129500000D03*
X115500000Y-132000000D03*
X115500000Y-134500000D03*
X115500000Y-137000000D03*
X115500000Y-139500000D03*
X112500000Y-139500000D03*
X112500000Y-137000000D03*
X112500000Y-134500000D03*
X112500000Y-132000000D03*
X112500000Y-129500000D03*
X110000000Y-129500000D03*
X110000000Y-132000000D03*
X110000000Y-134500000D03*
X110000000Y-137000000D03*
X110000000Y-139500000D03*
X107000000Y-139500000D03*
X107000000Y-137000000D03*
X107000000Y-134500000D03*
X107000000Y-132000000D03*
X107000000Y-129500000D03*
X79240000Y-129500000D03*
X79240000Y-132000000D03*
X79240000Y-134500000D03*
X79240000Y-137000000D03*
X79240000Y-139500000D03*
X76240000Y-139500000D03*
X76240000Y-137000000D03*
X76240000Y-134500000D03*
X76240000Y-132000000D03*
X76240000Y-129500000D03*
X73740000Y-129500000D03*
X73740000Y-132000000D03*
X73740000Y-134500000D03*
X73740000Y-137000000D03*
X73740000Y-139500000D03*
X70740000Y-139500000D03*
X70740000Y-137000000D03*
X70740000Y-134500000D03*
X70740000Y-132000000D03*
X70740000Y-129500000D03*
X68240000Y-129500000D03*
X68240000Y-132000000D03*
X68240000Y-134500000D03*
X68240000Y-137000000D03*
X68240000Y-139500000D03*
X65240000Y-139500000D03*
X65240000Y-137000000D03*
X65240000Y-134500000D03*
X65240000Y-132000000D03*
X65240000Y-129500000D03*
X62740000Y-129500000D03*
X62740000Y-132000000D03*
X62740000Y-134500000D03*
X62740000Y-137000000D03*
X62740000Y-139500000D03*
X59740000Y-139500000D03*
X59740000Y-137000000D03*
X59740000Y-134500000D03*
X59740000Y-132000000D03*
X59740000Y-129500000D03*
X102190000Y-132920000D03*
X99650000Y-132920000D03*
X97110000Y-132920000D03*
X94570000Y-132920000D03*
X92030000Y-132920000D03*
X89490000Y-132920000D03*
X86950000Y-132920000D03*
X84410000Y-132920000D03*
X102190000Y-135460000D03*
X99650000Y-135460000D03*
X97110000Y-135460000D03*
X94570000Y-135460000D03*
X92030000Y-135460000D03*
X89490000Y-135460000D03*
X86950000Y-135460000D03*
X84410000Y-135460000D03*
X102190000Y-138000000D03*
X99650000Y-138000000D03*
X97110000Y-138000000D03*
X94570000Y-138000000D03*
X92030000Y-138000000D03*
X89490000Y-138000000D03*
X86950000Y-138000000D03*
D11*
X84410000Y-138000000D03*
D12*
X132000000Y-134500000D03*
X54240000Y-134500000D03*
%TD*%
D13*
%TO.C,J1*%
X126590000Y-79165000D03*
D14*
X124050000Y-79165000D03*
X121510000Y-79165000D03*
X118970000Y-79165000D03*
X116430000Y-79165000D03*
X113890000Y-79165000D03*
D13*
X126590000Y-116590000D03*
D14*
X124050000Y-116590000D03*
X121510000Y-116590000D03*
X118970000Y-116590000D03*
X116430000Y-116590000D03*
X113890000Y-116590000D03*
%TD*%
D15*
%TO.C,J3*%
X85420000Y-50000000D03*
X90500000Y-50000000D03*
X95580000Y-50000000D03*
X100660000Y-50000000D03*
X105740000Y-50000000D03*
X110820000Y-50000000D03*
%TD*%
D16*
%TO.C,U5*%
X77260000Y-74560000D03*
X84880000Y-74560000D03*
X92500000Y-74560000D03*
X92500000Y-102500000D03*
X84880000Y-102500000D03*
X77260000Y-102500000D03*
%TD*%
D17*
%TO.C,R10*%
X138787500Y-123200000D03*
X140612500Y-123200000D03*
%TD*%
D18*
%TO.C,U8*%
X140880000Y-65110000D03*
X148500000Y-65110000D03*
X156120000Y-65110000D03*
D19*
X159930000Y-115910000D03*
X156120000Y-115910000D03*
D20*
X148500000Y-116150000D03*
D19*
X140880000Y-115910000D03*
X137070000Y-115910000D03*
D20*
X154500000Y-118690000D03*
X152500000Y-118690000D03*
X150500000Y-118690000D03*
X148500000Y-118690000D03*
X146500000Y-118690000D03*
X144500000Y-118690000D03*
X142500000Y-118690000D03*
%TD*%
D21*
%TO.C,H1*%
X44500000Y-137500000D03*
%TD*%
%TO.C,H3*%
X163500000Y-137500000D03*
%TD*%
%TO.C,H1*%
X76500000Y-48500000D03*
%TD*%
%TO.C,H1*%
X76500000Y-123500000D03*
%TD*%
%TO.C,H4*%
X164000000Y-48500000D03*
%TD*%
M02*
