%TF.GenerationSoftware,KiCad,Pcbnew,8.0.4*%
%TF.CreationDate,2025-01-10T12:28:05-08:00*%
%TF.ProjectId,X17-Power-Slab-Master,5831372d-506f-4776-9572-2d536c61622d,rev?*%
%TF.SameCoordinates,Original*%
%TF.FileFunction,Drillmap*%
%TF.FilePolarity,Positive*%
%FSLAX45Y45*%
G04 Gerber Fmt 4.5, Leading zero omitted, Abs format (unit mm)*
G04 Created by KiCad (PCBNEW 8.0.4) date 2025-01-10 12:28:05*
%MOMM*%
%LPD*%
G01*
G04 APERTURE LIST*
%ADD10C,0.050000*%
%ADD11C,0.200000*%
%ADD12C,0.320000*%
%ADD13C,0.381000*%
G04 APERTURE END LIST*
D10*
X16900000Y-14250000D02*
X16900000Y-4350000D01*
X7150000Y-4350000D02*
X16900000Y-4350000D01*
X3950000Y-12750000D02*
X3950000Y-14250000D01*
X3950000Y-14250000D02*
X16900000Y-14250000D01*
X3950000Y-12750000D02*
X7150000Y-12750000D01*
X7150000Y-12750000D02*
X7150000Y-4350000D01*
D11*
D12*
X5264000Y-13290000D02*
X5584000Y-13610000D01*
X5584000Y-13290000D02*
X5264000Y-13610000D01*
X13040000Y-13290000D02*
X13360000Y-13610000D01*
X13360000Y-13290000D02*
X13040000Y-13610000D01*
D13*
X4640500Y-13750000D02*
G75*
G02*
X4259500Y-13750000I-190500J0D01*
G01*
X4259500Y-13750000D02*
G75*
G02*
X4640500Y-13750000I190500J0D01*
G01*
X7840500Y-4850000D02*
G75*
G02*
X7459500Y-4850000I-190500J0D01*
G01*
X7459500Y-4850000D02*
G75*
G02*
X7840500Y-4850000I190500J0D01*
G01*
X7840500Y-12350000D02*
G75*
G02*
X7459500Y-12350000I-190500J0D01*
G01*
X7459500Y-12350000D02*
G75*
G02*
X7840500Y-12350000I190500J0D01*
G01*
X16540500Y-13750000D02*
G75*
G02*
X16159500Y-13750000I-190500J0D01*
G01*
X16159500Y-13750000D02*
G75*
G02*
X16540500Y-13750000I190500J0D01*
G01*
X16590500Y-4850000D02*
G75*
G02*
X16209500Y-4850000I-190500J0D01*
G01*
X16209500Y-4850000D02*
G75*
G02*
X16590500Y-4850000I190500J0D01*
G01*
D11*
X4208277Y-14563984D02*
X4208277Y-14363984D01*
X4208277Y-14363984D02*
X4255896Y-14363984D01*
X4255896Y-14363984D02*
X4284467Y-14373508D01*
X4284467Y-14373508D02*
X4303515Y-14392555D01*
X4303515Y-14392555D02*
X4313039Y-14411603D01*
X4313039Y-14411603D02*
X4322563Y-14449698D01*
X4322563Y-14449698D02*
X4322563Y-14478269D01*
X4322563Y-14478269D02*
X4313039Y-14516365D01*
X4313039Y-14516365D02*
X4303515Y-14535412D01*
X4303515Y-14535412D02*
X4284467Y-14554460D01*
X4284467Y-14554460D02*
X4255896Y-14563984D01*
X4255896Y-14563984D02*
X4208277Y-14563984D01*
X4408277Y-14563984D02*
X4408277Y-14430650D01*
X4408277Y-14468746D02*
X4417801Y-14449698D01*
X4417801Y-14449698D02*
X4427324Y-14440174D01*
X4427324Y-14440174D02*
X4446372Y-14430650D01*
X4446372Y-14430650D02*
X4465420Y-14430650D01*
X4532086Y-14563984D02*
X4532086Y-14430650D01*
X4532086Y-14363984D02*
X4522563Y-14373508D01*
X4522563Y-14373508D02*
X4532086Y-14383031D01*
X4532086Y-14383031D02*
X4541610Y-14373508D01*
X4541610Y-14373508D02*
X4532086Y-14363984D01*
X4532086Y-14363984D02*
X4532086Y-14383031D01*
X4655896Y-14563984D02*
X4636848Y-14554460D01*
X4636848Y-14554460D02*
X4627324Y-14535412D01*
X4627324Y-14535412D02*
X4627324Y-14363984D01*
X4760658Y-14563984D02*
X4741610Y-14554460D01*
X4741610Y-14554460D02*
X4732086Y-14535412D01*
X4732086Y-14535412D02*
X4732086Y-14363984D01*
X4989229Y-14563984D02*
X4989229Y-14363984D01*
X4989229Y-14363984D02*
X5055896Y-14506841D01*
X5055896Y-14506841D02*
X5122563Y-14363984D01*
X5122563Y-14363984D02*
X5122563Y-14563984D01*
X5303515Y-14563984D02*
X5303515Y-14459222D01*
X5303515Y-14459222D02*
X5293991Y-14440174D01*
X5293991Y-14440174D02*
X5274944Y-14430650D01*
X5274944Y-14430650D02*
X5236848Y-14430650D01*
X5236848Y-14430650D02*
X5217801Y-14440174D01*
X5303515Y-14554460D02*
X5284467Y-14563984D01*
X5284467Y-14563984D02*
X5236848Y-14563984D01*
X5236848Y-14563984D02*
X5217801Y-14554460D01*
X5217801Y-14554460D02*
X5208277Y-14535412D01*
X5208277Y-14535412D02*
X5208277Y-14516365D01*
X5208277Y-14516365D02*
X5217801Y-14497317D01*
X5217801Y-14497317D02*
X5236848Y-14487793D01*
X5236848Y-14487793D02*
X5284467Y-14487793D01*
X5284467Y-14487793D02*
X5303515Y-14478269D01*
X5398753Y-14430650D02*
X5398753Y-14630650D01*
X5398753Y-14440174D02*
X5417801Y-14430650D01*
X5417801Y-14430650D02*
X5455896Y-14430650D01*
X5455896Y-14430650D02*
X5474944Y-14440174D01*
X5474944Y-14440174D02*
X5484467Y-14449698D01*
X5484467Y-14449698D02*
X5493991Y-14468746D01*
X5493991Y-14468746D02*
X5493991Y-14525888D01*
X5493991Y-14525888D02*
X5484467Y-14544936D01*
X5484467Y-14544936D02*
X5474944Y-14554460D01*
X5474944Y-14554460D02*
X5455896Y-14563984D01*
X5455896Y-14563984D02*
X5417801Y-14563984D01*
X5417801Y-14563984D02*
X5398753Y-14554460D01*
X5579705Y-14544936D02*
X5589229Y-14554460D01*
X5589229Y-14554460D02*
X5579705Y-14563984D01*
X5579705Y-14563984D02*
X5570182Y-14554460D01*
X5570182Y-14554460D02*
X5579705Y-14544936D01*
X5579705Y-14544936D02*
X5579705Y-14563984D01*
X5579705Y-14440174D02*
X5589229Y-14449698D01*
X5589229Y-14449698D02*
X5579705Y-14459222D01*
X5579705Y-14459222D02*
X5570182Y-14449698D01*
X5570182Y-14449698D02*
X5579705Y-14440174D01*
X5579705Y-14440174D02*
X5579705Y-14459222D01*
X3747500Y-14792500D02*
X3947500Y-14992500D01*
X3947500Y-14792500D02*
X3747500Y-14992500D01*
X4189229Y-14783984D02*
X4313039Y-14783984D01*
X4313039Y-14783984D02*
X4246372Y-14860174D01*
X4246372Y-14860174D02*
X4274944Y-14860174D01*
X4274944Y-14860174D02*
X4293991Y-14869698D01*
X4293991Y-14869698D02*
X4303515Y-14879222D01*
X4303515Y-14879222D02*
X4313039Y-14898269D01*
X4313039Y-14898269D02*
X4313039Y-14945888D01*
X4313039Y-14945888D02*
X4303515Y-14964936D01*
X4303515Y-14964936D02*
X4293991Y-14974460D01*
X4293991Y-14974460D02*
X4274944Y-14983984D01*
X4274944Y-14983984D02*
X4217801Y-14983984D01*
X4217801Y-14983984D02*
X4198753Y-14974460D01*
X4198753Y-14974460D02*
X4189229Y-14964936D01*
X4398753Y-14964936D02*
X4408277Y-14974460D01*
X4408277Y-14974460D02*
X4398753Y-14983984D01*
X4398753Y-14983984D02*
X4389229Y-14974460D01*
X4389229Y-14974460D02*
X4398753Y-14964936D01*
X4398753Y-14964936D02*
X4398753Y-14983984D01*
X4484467Y-14803031D02*
X4493991Y-14793508D01*
X4493991Y-14793508D02*
X4513039Y-14783984D01*
X4513039Y-14783984D02*
X4560658Y-14783984D01*
X4560658Y-14783984D02*
X4579705Y-14793508D01*
X4579705Y-14793508D02*
X4589229Y-14803031D01*
X4589229Y-14803031D02*
X4598753Y-14822079D01*
X4598753Y-14822079D02*
X4598753Y-14841127D01*
X4598753Y-14841127D02*
X4589229Y-14869698D01*
X4589229Y-14869698D02*
X4474944Y-14983984D01*
X4474944Y-14983984D02*
X4598753Y-14983984D01*
X4722563Y-14783984D02*
X4741610Y-14783984D01*
X4741610Y-14783984D02*
X4760658Y-14793508D01*
X4760658Y-14793508D02*
X4770182Y-14803031D01*
X4770182Y-14803031D02*
X4779705Y-14822079D01*
X4779705Y-14822079D02*
X4789229Y-14860174D01*
X4789229Y-14860174D02*
X4789229Y-14907793D01*
X4789229Y-14907793D02*
X4779705Y-14945888D01*
X4779705Y-14945888D02*
X4770182Y-14964936D01*
X4770182Y-14964936D02*
X4760658Y-14974460D01*
X4760658Y-14974460D02*
X4741610Y-14983984D01*
X4741610Y-14983984D02*
X4722563Y-14983984D01*
X4722563Y-14983984D02*
X4703515Y-14974460D01*
X4703515Y-14974460D02*
X4693991Y-14964936D01*
X4693991Y-14964936D02*
X4684467Y-14945888D01*
X4684467Y-14945888D02*
X4674944Y-14907793D01*
X4674944Y-14907793D02*
X4674944Y-14860174D01*
X4674944Y-14860174D02*
X4684467Y-14822079D01*
X4684467Y-14822079D02*
X4693991Y-14803031D01*
X4693991Y-14803031D02*
X4703515Y-14793508D01*
X4703515Y-14793508D02*
X4722563Y-14783984D01*
X4913039Y-14783984D02*
X4932086Y-14783984D01*
X4932086Y-14783984D02*
X4951134Y-14793508D01*
X4951134Y-14793508D02*
X4960658Y-14803031D01*
X4960658Y-14803031D02*
X4970182Y-14822079D01*
X4970182Y-14822079D02*
X4979705Y-14860174D01*
X4979705Y-14860174D02*
X4979705Y-14907793D01*
X4979705Y-14907793D02*
X4970182Y-14945888D01*
X4970182Y-14945888D02*
X4960658Y-14964936D01*
X4960658Y-14964936D02*
X4951134Y-14974460D01*
X4951134Y-14974460D02*
X4932086Y-14983984D01*
X4932086Y-14983984D02*
X4913039Y-14983984D01*
X4913039Y-14983984D02*
X4893991Y-14974460D01*
X4893991Y-14974460D02*
X4884467Y-14964936D01*
X4884467Y-14964936D02*
X4874944Y-14945888D01*
X4874944Y-14945888D02*
X4865420Y-14907793D01*
X4865420Y-14907793D02*
X4865420Y-14860174D01*
X4865420Y-14860174D02*
X4874944Y-14822079D01*
X4874944Y-14822079D02*
X4884467Y-14803031D01*
X4884467Y-14803031D02*
X4893991Y-14793508D01*
X4893991Y-14793508D02*
X4913039Y-14783984D01*
X5065420Y-14983984D02*
X5065420Y-14850650D01*
X5065420Y-14869698D02*
X5074944Y-14860174D01*
X5074944Y-14860174D02*
X5093991Y-14850650D01*
X5093991Y-14850650D02*
X5122563Y-14850650D01*
X5122563Y-14850650D02*
X5141610Y-14860174D01*
X5141610Y-14860174D02*
X5151134Y-14879222D01*
X5151134Y-14879222D02*
X5151134Y-14983984D01*
X5151134Y-14879222D02*
X5160658Y-14860174D01*
X5160658Y-14860174D02*
X5179705Y-14850650D01*
X5179705Y-14850650D02*
X5208277Y-14850650D01*
X5208277Y-14850650D02*
X5227325Y-14860174D01*
X5227325Y-14860174D02*
X5236848Y-14879222D01*
X5236848Y-14879222D02*
X5236848Y-14983984D01*
X5332086Y-14983984D02*
X5332086Y-14850650D01*
X5332086Y-14869698D02*
X5341610Y-14860174D01*
X5341610Y-14860174D02*
X5360658Y-14850650D01*
X5360658Y-14850650D02*
X5389229Y-14850650D01*
X5389229Y-14850650D02*
X5408277Y-14860174D01*
X5408277Y-14860174D02*
X5417801Y-14879222D01*
X5417801Y-14879222D02*
X5417801Y-14983984D01*
X5417801Y-14879222D02*
X5427325Y-14860174D01*
X5427325Y-14860174D02*
X5446372Y-14850650D01*
X5446372Y-14850650D02*
X5474944Y-14850650D01*
X5474944Y-14850650D02*
X5493991Y-14860174D01*
X5493991Y-14860174D02*
X5503515Y-14879222D01*
X5503515Y-14879222D02*
X5503515Y-14983984D01*
X5893991Y-14774460D02*
X5722563Y-15031603D01*
X6151134Y-14783984D02*
X6170182Y-14783984D01*
X6170182Y-14783984D02*
X6189229Y-14793508D01*
X6189229Y-14793508D02*
X6198753Y-14803031D01*
X6198753Y-14803031D02*
X6208277Y-14822079D01*
X6208277Y-14822079D02*
X6217801Y-14860174D01*
X6217801Y-14860174D02*
X6217801Y-14907793D01*
X6217801Y-14907793D02*
X6208277Y-14945888D01*
X6208277Y-14945888D02*
X6198753Y-14964936D01*
X6198753Y-14964936D02*
X6189229Y-14974460D01*
X6189229Y-14974460D02*
X6170182Y-14983984D01*
X6170182Y-14983984D02*
X6151134Y-14983984D01*
X6151134Y-14983984D02*
X6132086Y-14974460D01*
X6132086Y-14974460D02*
X6122563Y-14964936D01*
X6122563Y-14964936D02*
X6113039Y-14945888D01*
X6113039Y-14945888D02*
X6103515Y-14907793D01*
X6103515Y-14907793D02*
X6103515Y-14860174D01*
X6103515Y-14860174D02*
X6113039Y-14822079D01*
X6113039Y-14822079D02*
X6122563Y-14803031D01*
X6122563Y-14803031D02*
X6132086Y-14793508D01*
X6132086Y-14793508D02*
X6151134Y-14783984D01*
X6303515Y-14964936D02*
X6313039Y-14974460D01*
X6313039Y-14974460D02*
X6303515Y-14983984D01*
X6303515Y-14983984D02*
X6293991Y-14974460D01*
X6293991Y-14974460D02*
X6303515Y-14964936D01*
X6303515Y-14964936D02*
X6303515Y-14983984D01*
X6503515Y-14983984D02*
X6389229Y-14983984D01*
X6446372Y-14983984D02*
X6446372Y-14783984D01*
X6446372Y-14783984D02*
X6427325Y-14812555D01*
X6427325Y-14812555D02*
X6408277Y-14831603D01*
X6408277Y-14831603D02*
X6389229Y-14841127D01*
X6579706Y-14803031D02*
X6589229Y-14793508D01*
X6589229Y-14793508D02*
X6608277Y-14783984D01*
X6608277Y-14783984D02*
X6655896Y-14783984D01*
X6655896Y-14783984D02*
X6674944Y-14793508D01*
X6674944Y-14793508D02*
X6684467Y-14803031D01*
X6684467Y-14803031D02*
X6693991Y-14822079D01*
X6693991Y-14822079D02*
X6693991Y-14841127D01*
X6693991Y-14841127D02*
X6684467Y-14869698D01*
X6684467Y-14869698D02*
X6570182Y-14983984D01*
X6570182Y-14983984D02*
X6693991Y-14983984D01*
X6865420Y-14783984D02*
X6827325Y-14783984D01*
X6827325Y-14783984D02*
X6808277Y-14793508D01*
X6808277Y-14793508D02*
X6798753Y-14803031D01*
X6798753Y-14803031D02*
X6779706Y-14831603D01*
X6779706Y-14831603D02*
X6770182Y-14869698D01*
X6770182Y-14869698D02*
X6770182Y-14945888D01*
X6770182Y-14945888D02*
X6779706Y-14964936D01*
X6779706Y-14964936D02*
X6789229Y-14974460D01*
X6789229Y-14974460D02*
X6808277Y-14983984D01*
X6808277Y-14983984D02*
X6846372Y-14983984D01*
X6846372Y-14983984D02*
X6865420Y-14974460D01*
X6865420Y-14974460D02*
X6874944Y-14964936D01*
X6874944Y-14964936D02*
X6884467Y-14945888D01*
X6884467Y-14945888D02*
X6884467Y-14898269D01*
X6884467Y-14898269D02*
X6874944Y-14879222D01*
X6874944Y-14879222D02*
X6865420Y-14869698D01*
X6865420Y-14869698D02*
X6846372Y-14860174D01*
X6846372Y-14860174D02*
X6808277Y-14860174D01*
X6808277Y-14860174D02*
X6789229Y-14869698D01*
X6789229Y-14869698D02*
X6779706Y-14879222D01*
X6779706Y-14879222D02*
X6770182Y-14898269D01*
X7008277Y-14783984D02*
X7027325Y-14783984D01*
X7027325Y-14783984D02*
X7046372Y-14793508D01*
X7046372Y-14793508D02*
X7055896Y-14803031D01*
X7055896Y-14803031D02*
X7065420Y-14822079D01*
X7065420Y-14822079D02*
X7074944Y-14860174D01*
X7074944Y-14860174D02*
X7074944Y-14907793D01*
X7074944Y-14907793D02*
X7065420Y-14945888D01*
X7065420Y-14945888D02*
X7055896Y-14964936D01*
X7055896Y-14964936D02*
X7046372Y-14974460D01*
X7046372Y-14974460D02*
X7027325Y-14983984D01*
X7027325Y-14983984D02*
X7008277Y-14983984D01*
X7008277Y-14983984D02*
X6989229Y-14974460D01*
X6989229Y-14974460D02*
X6979706Y-14964936D01*
X6979706Y-14964936D02*
X6970182Y-14945888D01*
X6970182Y-14945888D02*
X6960658Y-14907793D01*
X6960658Y-14907793D02*
X6960658Y-14860174D01*
X6960658Y-14860174D02*
X6970182Y-14822079D01*
X6970182Y-14822079D02*
X6979706Y-14803031D01*
X6979706Y-14803031D02*
X6989229Y-14793508D01*
X6989229Y-14793508D02*
X7008277Y-14783984D01*
X7151134Y-14783984D02*
X7151134Y-14822079D01*
X7227325Y-14783984D02*
X7227325Y-14822079D01*
X7522563Y-15060174D02*
X7513039Y-15050650D01*
X7513039Y-15050650D02*
X7493991Y-15022079D01*
X7493991Y-15022079D02*
X7484468Y-15003031D01*
X7484468Y-15003031D02*
X7474944Y-14974460D01*
X7474944Y-14974460D02*
X7465420Y-14926841D01*
X7465420Y-14926841D02*
X7465420Y-14888746D01*
X7465420Y-14888746D02*
X7474944Y-14841127D01*
X7474944Y-14841127D02*
X7484468Y-14812555D01*
X7484468Y-14812555D02*
X7493991Y-14793508D01*
X7493991Y-14793508D02*
X7513039Y-14764936D01*
X7513039Y-14764936D02*
X7522563Y-14755412D01*
X7589229Y-14803031D02*
X7598753Y-14793508D01*
X7598753Y-14793508D02*
X7617801Y-14783984D01*
X7617801Y-14783984D02*
X7665420Y-14783984D01*
X7665420Y-14783984D02*
X7684468Y-14793508D01*
X7684468Y-14793508D02*
X7693991Y-14803031D01*
X7693991Y-14803031D02*
X7703515Y-14822079D01*
X7703515Y-14822079D02*
X7703515Y-14841127D01*
X7703515Y-14841127D02*
X7693991Y-14869698D01*
X7693991Y-14869698D02*
X7579706Y-14983984D01*
X7579706Y-14983984D02*
X7703515Y-14983984D01*
X7941610Y-14983984D02*
X7941610Y-14783984D01*
X8027325Y-14983984D02*
X8027325Y-14879222D01*
X8027325Y-14879222D02*
X8017801Y-14860174D01*
X8017801Y-14860174D02*
X7998753Y-14850650D01*
X7998753Y-14850650D02*
X7970182Y-14850650D01*
X7970182Y-14850650D02*
X7951134Y-14860174D01*
X7951134Y-14860174D02*
X7941610Y-14869698D01*
X8151134Y-14983984D02*
X8132087Y-14974460D01*
X8132087Y-14974460D02*
X8122563Y-14964936D01*
X8122563Y-14964936D02*
X8113039Y-14945888D01*
X8113039Y-14945888D02*
X8113039Y-14888746D01*
X8113039Y-14888746D02*
X8122563Y-14869698D01*
X8122563Y-14869698D02*
X8132087Y-14860174D01*
X8132087Y-14860174D02*
X8151134Y-14850650D01*
X8151134Y-14850650D02*
X8179706Y-14850650D01*
X8179706Y-14850650D02*
X8198753Y-14860174D01*
X8198753Y-14860174D02*
X8208277Y-14869698D01*
X8208277Y-14869698D02*
X8217801Y-14888746D01*
X8217801Y-14888746D02*
X8217801Y-14945888D01*
X8217801Y-14945888D02*
X8208277Y-14964936D01*
X8208277Y-14964936D02*
X8198753Y-14974460D01*
X8198753Y-14974460D02*
X8179706Y-14983984D01*
X8179706Y-14983984D02*
X8151134Y-14983984D01*
X8332087Y-14983984D02*
X8313039Y-14974460D01*
X8313039Y-14974460D02*
X8303515Y-14955412D01*
X8303515Y-14955412D02*
X8303515Y-14783984D01*
X8484468Y-14974460D02*
X8465420Y-14983984D01*
X8465420Y-14983984D02*
X8427325Y-14983984D01*
X8427325Y-14983984D02*
X8408277Y-14974460D01*
X8408277Y-14974460D02*
X8398753Y-14955412D01*
X8398753Y-14955412D02*
X8398753Y-14879222D01*
X8398753Y-14879222D02*
X8408277Y-14860174D01*
X8408277Y-14860174D02*
X8427325Y-14850650D01*
X8427325Y-14850650D02*
X8465420Y-14850650D01*
X8465420Y-14850650D02*
X8484468Y-14860174D01*
X8484468Y-14860174D02*
X8493992Y-14879222D01*
X8493992Y-14879222D02*
X8493992Y-14898269D01*
X8493992Y-14898269D02*
X8398753Y-14917317D01*
X8570182Y-14974460D02*
X8589230Y-14983984D01*
X8589230Y-14983984D02*
X8627325Y-14983984D01*
X8627325Y-14983984D02*
X8646373Y-14974460D01*
X8646373Y-14974460D02*
X8655896Y-14955412D01*
X8655896Y-14955412D02*
X8655896Y-14945888D01*
X8655896Y-14945888D02*
X8646373Y-14926841D01*
X8646373Y-14926841D02*
X8627325Y-14917317D01*
X8627325Y-14917317D02*
X8598753Y-14917317D01*
X8598753Y-14917317D02*
X8579706Y-14907793D01*
X8579706Y-14907793D02*
X8570182Y-14888746D01*
X8570182Y-14888746D02*
X8570182Y-14879222D01*
X8570182Y-14879222D02*
X8579706Y-14860174D01*
X8579706Y-14860174D02*
X8598753Y-14850650D01*
X8598753Y-14850650D02*
X8627325Y-14850650D01*
X8627325Y-14850650D02*
X8646373Y-14860174D01*
X8722563Y-15060174D02*
X8732087Y-15050650D01*
X8732087Y-15050650D02*
X8751134Y-15022079D01*
X8751134Y-15022079D02*
X8760658Y-15003031D01*
X8760658Y-15003031D02*
X8770182Y-14974460D01*
X8770182Y-14974460D02*
X8779706Y-14926841D01*
X8779706Y-14926841D02*
X8779706Y-14888746D01*
X8779706Y-14888746D02*
X8770182Y-14841127D01*
X8770182Y-14841127D02*
X8760658Y-14812555D01*
X8760658Y-14812555D02*
X8751134Y-14793508D01*
X8751134Y-14793508D02*
X8732087Y-14764936D01*
X8732087Y-14764936D02*
X8722563Y-14755412D01*
X9084468Y-15060174D02*
X9074944Y-15050650D01*
X9074944Y-15050650D02*
X9055896Y-15022079D01*
X9055896Y-15022079D02*
X9046373Y-15003031D01*
X9046373Y-15003031D02*
X9036849Y-14974460D01*
X9036849Y-14974460D02*
X9027325Y-14926841D01*
X9027325Y-14926841D02*
X9027325Y-14888746D01*
X9027325Y-14888746D02*
X9036849Y-14841127D01*
X9036849Y-14841127D02*
X9046373Y-14812555D01*
X9046373Y-14812555D02*
X9055896Y-14793508D01*
X9055896Y-14793508D02*
X9074944Y-14764936D01*
X9074944Y-14764936D02*
X9084468Y-14755412D01*
X9160658Y-14850650D02*
X9160658Y-14983984D01*
X9160658Y-14869698D02*
X9170182Y-14860174D01*
X9170182Y-14860174D02*
X9189230Y-14850650D01*
X9189230Y-14850650D02*
X9217801Y-14850650D01*
X9217801Y-14850650D02*
X9236849Y-14860174D01*
X9236849Y-14860174D02*
X9246373Y-14879222D01*
X9246373Y-14879222D02*
X9246373Y-14983984D01*
X9370182Y-14983984D02*
X9351134Y-14974460D01*
X9351134Y-14974460D02*
X9341611Y-14964936D01*
X9341611Y-14964936D02*
X9332087Y-14945888D01*
X9332087Y-14945888D02*
X9332087Y-14888746D01*
X9332087Y-14888746D02*
X9341611Y-14869698D01*
X9341611Y-14869698D02*
X9351134Y-14860174D01*
X9351134Y-14860174D02*
X9370182Y-14850650D01*
X9370182Y-14850650D02*
X9398754Y-14850650D01*
X9398754Y-14850650D02*
X9417801Y-14860174D01*
X9417801Y-14860174D02*
X9427325Y-14869698D01*
X9427325Y-14869698D02*
X9436849Y-14888746D01*
X9436849Y-14888746D02*
X9436849Y-14945888D01*
X9436849Y-14945888D02*
X9427325Y-14964936D01*
X9427325Y-14964936D02*
X9417801Y-14974460D01*
X9417801Y-14974460D02*
X9398754Y-14983984D01*
X9398754Y-14983984D02*
X9370182Y-14983984D01*
X9493992Y-14850650D02*
X9570182Y-14850650D01*
X9522563Y-14783984D02*
X9522563Y-14955412D01*
X9522563Y-14955412D02*
X9532087Y-14974460D01*
X9532087Y-14974460D02*
X9551134Y-14983984D01*
X9551134Y-14983984D02*
X9570182Y-14983984D01*
X9789230Y-14850650D02*
X9789230Y-15050650D01*
X9789230Y-14860174D02*
X9808277Y-14850650D01*
X9808277Y-14850650D02*
X9846373Y-14850650D01*
X9846373Y-14850650D02*
X9865420Y-14860174D01*
X9865420Y-14860174D02*
X9874944Y-14869698D01*
X9874944Y-14869698D02*
X9884468Y-14888746D01*
X9884468Y-14888746D02*
X9884468Y-14945888D01*
X9884468Y-14945888D02*
X9874944Y-14964936D01*
X9874944Y-14964936D02*
X9865420Y-14974460D01*
X9865420Y-14974460D02*
X9846373Y-14983984D01*
X9846373Y-14983984D02*
X9808277Y-14983984D01*
X9808277Y-14983984D02*
X9789230Y-14974460D01*
X9998754Y-14983984D02*
X9979706Y-14974460D01*
X9979706Y-14974460D02*
X9970182Y-14955412D01*
X9970182Y-14955412D02*
X9970182Y-14783984D01*
X10160658Y-14983984D02*
X10160658Y-14879222D01*
X10160658Y-14879222D02*
X10151135Y-14860174D01*
X10151135Y-14860174D02*
X10132087Y-14850650D01*
X10132087Y-14850650D02*
X10093992Y-14850650D01*
X10093992Y-14850650D02*
X10074944Y-14860174D01*
X10160658Y-14974460D02*
X10141611Y-14983984D01*
X10141611Y-14983984D02*
X10093992Y-14983984D01*
X10093992Y-14983984D02*
X10074944Y-14974460D01*
X10074944Y-14974460D02*
X10065420Y-14955412D01*
X10065420Y-14955412D02*
X10065420Y-14936365D01*
X10065420Y-14936365D02*
X10074944Y-14917317D01*
X10074944Y-14917317D02*
X10093992Y-14907793D01*
X10093992Y-14907793D02*
X10141611Y-14907793D01*
X10141611Y-14907793D02*
X10160658Y-14898269D01*
X10227325Y-14850650D02*
X10303515Y-14850650D01*
X10255896Y-14783984D02*
X10255896Y-14955412D01*
X10255896Y-14955412D02*
X10265420Y-14974460D01*
X10265420Y-14974460D02*
X10284468Y-14983984D01*
X10284468Y-14983984D02*
X10303515Y-14983984D01*
X10446373Y-14974460D02*
X10427325Y-14983984D01*
X10427325Y-14983984D02*
X10389230Y-14983984D01*
X10389230Y-14983984D02*
X10370182Y-14974460D01*
X10370182Y-14974460D02*
X10360658Y-14955412D01*
X10360658Y-14955412D02*
X10360658Y-14879222D01*
X10360658Y-14879222D02*
X10370182Y-14860174D01*
X10370182Y-14860174D02*
X10389230Y-14850650D01*
X10389230Y-14850650D02*
X10427325Y-14850650D01*
X10427325Y-14850650D02*
X10446373Y-14860174D01*
X10446373Y-14860174D02*
X10455896Y-14879222D01*
X10455896Y-14879222D02*
X10455896Y-14898269D01*
X10455896Y-14898269D02*
X10360658Y-14917317D01*
X10627325Y-14983984D02*
X10627325Y-14783984D01*
X10627325Y-14974460D02*
X10608277Y-14983984D01*
X10608277Y-14983984D02*
X10570182Y-14983984D01*
X10570182Y-14983984D02*
X10551135Y-14974460D01*
X10551135Y-14974460D02*
X10541611Y-14964936D01*
X10541611Y-14964936D02*
X10532087Y-14945888D01*
X10532087Y-14945888D02*
X10532087Y-14888746D01*
X10532087Y-14888746D02*
X10541611Y-14869698D01*
X10541611Y-14869698D02*
X10551135Y-14860174D01*
X10551135Y-14860174D02*
X10570182Y-14850650D01*
X10570182Y-14850650D02*
X10608277Y-14850650D01*
X10608277Y-14850650D02*
X10627325Y-14860174D01*
X10703516Y-15060174D02*
X10713039Y-15050650D01*
X10713039Y-15050650D02*
X10732087Y-15022079D01*
X10732087Y-15022079D02*
X10741611Y-15003031D01*
X10741611Y-15003031D02*
X10751135Y-14974460D01*
X10751135Y-14974460D02*
X10760658Y-14926841D01*
X10760658Y-14926841D02*
X10760658Y-14888746D01*
X10760658Y-14888746D02*
X10751135Y-14841127D01*
X10751135Y-14841127D02*
X10741611Y-14812555D01*
X10741611Y-14812555D02*
X10732087Y-14793508D01*
X10732087Y-14793508D02*
X10713039Y-14764936D01*
X10713039Y-14764936D02*
X10703516Y-14755412D01*
X3947500Y-15212500D02*
G75*
G02*
X3747500Y-15212500I-100000J0D01*
G01*
X3747500Y-15212500D02*
G75*
G02*
X3947500Y-15212500I100000J0D01*
G01*
X4189229Y-15103984D02*
X4313039Y-15103984D01*
X4313039Y-15103984D02*
X4246372Y-15180174D01*
X4246372Y-15180174D02*
X4274944Y-15180174D01*
X4274944Y-15180174D02*
X4293991Y-15189698D01*
X4293991Y-15189698D02*
X4303515Y-15199222D01*
X4303515Y-15199222D02*
X4313039Y-15218269D01*
X4313039Y-15218269D02*
X4313039Y-15265888D01*
X4313039Y-15265888D02*
X4303515Y-15284936D01*
X4303515Y-15284936D02*
X4293991Y-15294460D01*
X4293991Y-15294460D02*
X4274944Y-15303984D01*
X4274944Y-15303984D02*
X4217801Y-15303984D01*
X4217801Y-15303984D02*
X4198753Y-15294460D01*
X4198753Y-15294460D02*
X4189229Y-15284936D01*
X4398753Y-15284936D02*
X4408277Y-15294460D01*
X4408277Y-15294460D02*
X4398753Y-15303984D01*
X4398753Y-15303984D02*
X4389229Y-15294460D01*
X4389229Y-15294460D02*
X4398753Y-15284936D01*
X4398753Y-15284936D02*
X4398753Y-15303984D01*
X4522563Y-15189698D02*
X4503515Y-15180174D01*
X4503515Y-15180174D02*
X4493991Y-15170650D01*
X4493991Y-15170650D02*
X4484467Y-15151603D01*
X4484467Y-15151603D02*
X4484467Y-15142079D01*
X4484467Y-15142079D02*
X4493991Y-15123031D01*
X4493991Y-15123031D02*
X4503515Y-15113508D01*
X4503515Y-15113508D02*
X4522563Y-15103984D01*
X4522563Y-15103984D02*
X4560658Y-15103984D01*
X4560658Y-15103984D02*
X4579705Y-15113508D01*
X4579705Y-15113508D02*
X4589229Y-15123031D01*
X4589229Y-15123031D02*
X4598753Y-15142079D01*
X4598753Y-15142079D02*
X4598753Y-15151603D01*
X4598753Y-15151603D02*
X4589229Y-15170650D01*
X4589229Y-15170650D02*
X4579705Y-15180174D01*
X4579705Y-15180174D02*
X4560658Y-15189698D01*
X4560658Y-15189698D02*
X4522563Y-15189698D01*
X4522563Y-15189698D02*
X4503515Y-15199222D01*
X4503515Y-15199222D02*
X4493991Y-15208746D01*
X4493991Y-15208746D02*
X4484467Y-15227793D01*
X4484467Y-15227793D02*
X4484467Y-15265888D01*
X4484467Y-15265888D02*
X4493991Y-15284936D01*
X4493991Y-15284936D02*
X4503515Y-15294460D01*
X4503515Y-15294460D02*
X4522563Y-15303984D01*
X4522563Y-15303984D02*
X4560658Y-15303984D01*
X4560658Y-15303984D02*
X4579705Y-15294460D01*
X4579705Y-15294460D02*
X4589229Y-15284936D01*
X4589229Y-15284936D02*
X4598753Y-15265888D01*
X4598753Y-15265888D02*
X4598753Y-15227793D01*
X4598753Y-15227793D02*
X4589229Y-15208746D01*
X4589229Y-15208746D02*
X4579705Y-15199222D01*
X4579705Y-15199222D02*
X4560658Y-15189698D01*
X4789229Y-15303984D02*
X4674944Y-15303984D01*
X4732086Y-15303984D02*
X4732086Y-15103984D01*
X4732086Y-15103984D02*
X4713039Y-15132555D01*
X4713039Y-15132555D02*
X4693991Y-15151603D01*
X4693991Y-15151603D02*
X4674944Y-15161127D01*
X4913039Y-15103984D02*
X4932086Y-15103984D01*
X4932086Y-15103984D02*
X4951134Y-15113508D01*
X4951134Y-15113508D02*
X4960658Y-15123031D01*
X4960658Y-15123031D02*
X4970182Y-15142079D01*
X4970182Y-15142079D02*
X4979705Y-15180174D01*
X4979705Y-15180174D02*
X4979705Y-15227793D01*
X4979705Y-15227793D02*
X4970182Y-15265888D01*
X4970182Y-15265888D02*
X4960658Y-15284936D01*
X4960658Y-15284936D02*
X4951134Y-15294460D01*
X4951134Y-15294460D02*
X4932086Y-15303984D01*
X4932086Y-15303984D02*
X4913039Y-15303984D01*
X4913039Y-15303984D02*
X4893991Y-15294460D01*
X4893991Y-15294460D02*
X4884467Y-15284936D01*
X4884467Y-15284936D02*
X4874944Y-15265888D01*
X4874944Y-15265888D02*
X4865420Y-15227793D01*
X4865420Y-15227793D02*
X4865420Y-15180174D01*
X4865420Y-15180174D02*
X4874944Y-15142079D01*
X4874944Y-15142079D02*
X4884467Y-15123031D01*
X4884467Y-15123031D02*
X4893991Y-15113508D01*
X4893991Y-15113508D02*
X4913039Y-15103984D01*
X5065420Y-15303984D02*
X5065420Y-15170650D01*
X5065420Y-15189698D02*
X5074944Y-15180174D01*
X5074944Y-15180174D02*
X5093991Y-15170650D01*
X5093991Y-15170650D02*
X5122563Y-15170650D01*
X5122563Y-15170650D02*
X5141610Y-15180174D01*
X5141610Y-15180174D02*
X5151134Y-15199222D01*
X5151134Y-15199222D02*
X5151134Y-15303984D01*
X5151134Y-15199222D02*
X5160658Y-15180174D01*
X5160658Y-15180174D02*
X5179705Y-15170650D01*
X5179705Y-15170650D02*
X5208277Y-15170650D01*
X5208277Y-15170650D02*
X5227325Y-15180174D01*
X5227325Y-15180174D02*
X5236848Y-15199222D01*
X5236848Y-15199222D02*
X5236848Y-15303984D01*
X5332086Y-15303984D02*
X5332086Y-15170650D01*
X5332086Y-15189698D02*
X5341610Y-15180174D01*
X5341610Y-15180174D02*
X5360658Y-15170650D01*
X5360658Y-15170650D02*
X5389229Y-15170650D01*
X5389229Y-15170650D02*
X5408277Y-15180174D01*
X5408277Y-15180174D02*
X5417801Y-15199222D01*
X5417801Y-15199222D02*
X5417801Y-15303984D01*
X5417801Y-15199222D02*
X5427325Y-15180174D01*
X5427325Y-15180174D02*
X5446372Y-15170650D01*
X5446372Y-15170650D02*
X5474944Y-15170650D01*
X5474944Y-15170650D02*
X5493991Y-15180174D01*
X5493991Y-15180174D02*
X5503515Y-15199222D01*
X5503515Y-15199222D02*
X5503515Y-15303984D01*
X5893991Y-15094460D02*
X5722563Y-15351603D01*
X6151134Y-15103984D02*
X6170182Y-15103984D01*
X6170182Y-15103984D02*
X6189229Y-15113508D01*
X6189229Y-15113508D02*
X6198753Y-15123031D01*
X6198753Y-15123031D02*
X6208277Y-15142079D01*
X6208277Y-15142079D02*
X6217801Y-15180174D01*
X6217801Y-15180174D02*
X6217801Y-15227793D01*
X6217801Y-15227793D02*
X6208277Y-15265888D01*
X6208277Y-15265888D02*
X6198753Y-15284936D01*
X6198753Y-15284936D02*
X6189229Y-15294460D01*
X6189229Y-15294460D02*
X6170182Y-15303984D01*
X6170182Y-15303984D02*
X6151134Y-15303984D01*
X6151134Y-15303984D02*
X6132086Y-15294460D01*
X6132086Y-15294460D02*
X6122563Y-15284936D01*
X6122563Y-15284936D02*
X6113039Y-15265888D01*
X6113039Y-15265888D02*
X6103515Y-15227793D01*
X6103515Y-15227793D02*
X6103515Y-15180174D01*
X6103515Y-15180174D02*
X6113039Y-15142079D01*
X6113039Y-15142079D02*
X6122563Y-15123031D01*
X6122563Y-15123031D02*
X6132086Y-15113508D01*
X6132086Y-15113508D02*
X6151134Y-15103984D01*
X6303515Y-15284936D02*
X6313039Y-15294460D01*
X6313039Y-15294460D02*
X6303515Y-15303984D01*
X6303515Y-15303984D02*
X6293991Y-15294460D01*
X6293991Y-15294460D02*
X6303515Y-15284936D01*
X6303515Y-15284936D02*
X6303515Y-15303984D01*
X6503515Y-15303984D02*
X6389229Y-15303984D01*
X6446372Y-15303984D02*
X6446372Y-15103984D01*
X6446372Y-15103984D02*
X6427325Y-15132555D01*
X6427325Y-15132555D02*
X6408277Y-15151603D01*
X6408277Y-15151603D02*
X6389229Y-15161127D01*
X6684467Y-15103984D02*
X6589229Y-15103984D01*
X6589229Y-15103984D02*
X6579706Y-15199222D01*
X6579706Y-15199222D02*
X6589229Y-15189698D01*
X6589229Y-15189698D02*
X6608277Y-15180174D01*
X6608277Y-15180174D02*
X6655896Y-15180174D01*
X6655896Y-15180174D02*
X6674944Y-15189698D01*
X6674944Y-15189698D02*
X6684467Y-15199222D01*
X6684467Y-15199222D02*
X6693991Y-15218269D01*
X6693991Y-15218269D02*
X6693991Y-15265888D01*
X6693991Y-15265888D02*
X6684467Y-15284936D01*
X6684467Y-15284936D02*
X6674944Y-15294460D01*
X6674944Y-15294460D02*
X6655896Y-15303984D01*
X6655896Y-15303984D02*
X6608277Y-15303984D01*
X6608277Y-15303984D02*
X6589229Y-15294460D01*
X6589229Y-15294460D02*
X6579706Y-15284936D01*
X6817801Y-15103984D02*
X6836848Y-15103984D01*
X6836848Y-15103984D02*
X6855896Y-15113508D01*
X6855896Y-15113508D02*
X6865420Y-15123031D01*
X6865420Y-15123031D02*
X6874944Y-15142079D01*
X6874944Y-15142079D02*
X6884467Y-15180174D01*
X6884467Y-15180174D02*
X6884467Y-15227793D01*
X6884467Y-15227793D02*
X6874944Y-15265888D01*
X6874944Y-15265888D02*
X6865420Y-15284936D01*
X6865420Y-15284936D02*
X6855896Y-15294460D01*
X6855896Y-15294460D02*
X6836848Y-15303984D01*
X6836848Y-15303984D02*
X6817801Y-15303984D01*
X6817801Y-15303984D02*
X6798753Y-15294460D01*
X6798753Y-15294460D02*
X6789229Y-15284936D01*
X6789229Y-15284936D02*
X6779706Y-15265888D01*
X6779706Y-15265888D02*
X6770182Y-15227793D01*
X6770182Y-15227793D02*
X6770182Y-15180174D01*
X6770182Y-15180174D02*
X6779706Y-15142079D01*
X6779706Y-15142079D02*
X6789229Y-15123031D01*
X6789229Y-15123031D02*
X6798753Y-15113508D01*
X6798753Y-15113508D02*
X6817801Y-15103984D01*
X7008277Y-15103984D02*
X7027325Y-15103984D01*
X7027325Y-15103984D02*
X7046372Y-15113508D01*
X7046372Y-15113508D02*
X7055896Y-15123031D01*
X7055896Y-15123031D02*
X7065420Y-15142079D01*
X7065420Y-15142079D02*
X7074944Y-15180174D01*
X7074944Y-15180174D02*
X7074944Y-15227793D01*
X7074944Y-15227793D02*
X7065420Y-15265888D01*
X7065420Y-15265888D02*
X7055896Y-15284936D01*
X7055896Y-15284936D02*
X7046372Y-15294460D01*
X7046372Y-15294460D02*
X7027325Y-15303984D01*
X7027325Y-15303984D02*
X7008277Y-15303984D01*
X7008277Y-15303984D02*
X6989229Y-15294460D01*
X6989229Y-15294460D02*
X6979706Y-15284936D01*
X6979706Y-15284936D02*
X6970182Y-15265888D01*
X6970182Y-15265888D02*
X6960658Y-15227793D01*
X6960658Y-15227793D02*
X6960658Y-15180174D01*
X6960658Y-15180174D02*
X6970182Y-15142079D01*
X6970182Y-15142079D02*
X6979706Y-15123031D01*
X6979706Y-15123031D02*
X6989229Y-15113508D01*
X6989229Y-15113508D02*
X7008277Y-15103984D01*
X7151134Y-15103984D02*
X7151134Y-15142079D01*
X7227325Y-15103984D02*
X7227325Y-15142079D01*
X7522563Y-15380174D02*
X7513039Y-15370650D01*
X7513039Y-15370650D02*
X7493991Y-15342079D01*
X7493991Y-15342079D02*
X7484468Y-15323031D01*
X7484468Y-15323031D02*
X7474944Y-15294460D01*
X7474944Y-15294460D02*
X7465420Y-15246841D01*
X7465420Y-15246841D02*
X7465420Y-15208746D01*
X7465420Y-15208746D02*
X7474944Y-15161127D01*
X7474944Y-15161127D02*
X7484468Y-15132555D01*
X7484468Y-15132555D02*
X7493991Y-15113508D01*
X7493991Y-15113508D02*
X7513039Y-15084936D01*
X7513039Y-15084936D02*
X7522563Y-15075412D01*
X7693991Y-15103984D02*
X7598753Y-15103984D01*
X7598753Y-15103984D02*
X7589229Y-15199222D01*
X7589229Y-15199222D02*
X7598753Y-15189698D01*
X7598753Y-15189698D02*
X7617801Y-15180174D01*
X7617801Y-15180174D02*
X7665420Y-15180174D01*
X7665420Y-15180174D02*
X7684468Y-15189698D01*
X7684468Y-15189698D02*
X7693991Y-15199222D01*
X7693991Y-15199222D02*
X7703515Y-15218269D01*
X7703515Y-15218269D02*
X7703515Y-15265888D01*
X7703515Y-15265888D02*
X7693991Y-15284936D01*
X7693991Y-15284936D02*
X7684468Y-15294460D01*
X7684468Y-15294460D02*
X7665420Y-15303984D01*
X7665420Y-15303984D02*
X7617801Y-15303984D01*
X7617801Y-15303984D02*
X7598753Y-15294460D01*
X7598753Y-15294460D02*
X7589229Y-15284936D01*
X7941610Y-15303984D02*
X7941610Y-15103984D01*
X8027325Y-15303984D02*
X8027325Y-15199222D01*
X8027325Y-15199222D02*
X8017801Y-15180174D01*
X8017801Y-15180174D02*
X7998753Y-15170650D01*
X7998753Y-15170650D02*
X7970182Y-15170650D01*
X7970182Y-15170650D02*
X7951134Y-15180174D01*
X7951134Y-15180174D02*
X7941610Y-15189698D01*
X8151134Y-15303984D02*
X8132087Y-15294460D01*
X8132087Y-15294460D02*
X8122563Y-15284936D01*
X8122563Y-15284936D02*
X8113039Y-15265888D01*
X8113039Y-15265888D02*
X8113039Y-15208746D01*
X8113039Y-15208746D02*
X8122563Y-15189698D01*
X8122563Y-15189698D02*
X8132087Y-15180174D01*
X8132087Y-15180174D02*
X8151134Y-15170650D01*
X8151134Y-15170650D02*
X8179706Y-15170650D01*
X8179706Y-15170650D02*
X8198753Y-15180174D01*
X8198753Y-15180174D02*
X8208277Y-15189698D01*
X8208277Y-15189698D02*
X8217801Y-15208746D01*
X8217801Y-15208746D02*
X8217801Y-15265888D01*
X8217801Y-15265888D02*
X8208277Y-15284936D01*
X8208277Y-15284936D02*
X8198753Y-15294460D01*
X8198753Y-15294460D02*
X8179706Y-15303984D01*
X8179706Y-15303984D02*
X8151134Y-15303984D01*
X8332087Y-15303984D02*
X8313039Y-15294460D01*
X8313039Y-15294460D02*
X8303515Y-15275412D01*
X8303515Y-15275412D02*
X8303515Y-15103984D01*
X8484468Y-15294460D02*
X8465420Y-15303984D01*
X8465420Y-15303984D02*
X8427325Y-15303984D01*
X8427325Y-15303984D02*
X8408277Y-15294460D01*
X8408277Y-15294460D02*
X8398753Y-15275412D01*
X8398753Y-15275412D02*
X8398753Y-15199222D01*
X8398753Y-15199222D02*
X8408277Y-15180174D01*
X8408277Y-15180174D02*
X8427325Y-15170650D01*
X8427325Y-15170650D02*
X8465420Y-15170650D01*
X8465420Y-15170650D02*
X8484468Y-15180174D01*
X8484468Y-15180174D02*
X8493992Y-15199222D01*
X8493992Y-15199222D02*
X8493992Y-15218269D01*
X8493992Y-15218269D02*
X8398753Y-15237317D01*
X8570182Y-15294460D02*
X8589230Y-15303984D01*
X8589230Y-15303984D02*
X8627325Y-15303984D01*
X8627325Y-15303984D02*
X8646373Y-15294460D01*
X8646373Y-15294460D02*
X8655896Y-15275412D01*
X8655896Y-15275412D02*
X8655896Y-15265888D01*
X8655896Y-15265888D02*
X8646373Y-15246841D01*
X8646373Y-15246841D02*
X8627325Y-15237317D01*
X8627325Y-15237317D02*
X8598753Y-15237317D01*
X8598753Y-15237317D02*
X8579706Y-15227793D01*
X8579706Y-15227793D02*
X8570182Y-15208746D01*
X8570182Y-15208746D02*
X8570182Y-15199222D01*
X8570182Y-15199222D02*
X8579706Y-15180174D01*
X8579706Y-15180174D02*
X8598753Y-15170650D01*
X8598753Y-15170650D02*
X8627325Y-15170650D01*
X8627325Y-15170650D02*
X8646373Y-15180174D01*
X8722563Y-15380174D02*
X8732087Y-15370650D01*
X8732087Y-15370650D02*
X8751134Y-15342079D01*
X8751134Y-15342079D02*
X8760658Y-15323031D01*
X8760658Y-15323031D02*
X8770182Y-15294460D01*
X8770182Y-15294460D02*
X8779706Y-15246841D01*
X8779706Y-15246841D02*
X8779706Y-15208746D01*
X8779706Y-15208746D02*
X8770182Y-15161127D01*
X8770182Y-15161127D02*
X8760658Y-15132555D01*
X8760658Y-15132555D02*
X8751134Y-15113508D01*
X8751134Y-15113508D02*
X8732087Y-15084936D01*
X8732087Y-15084936D02*
X8722563Y-15075412D01*
X9084468Y-15380174D02*
X9074944Y-15370650D01*
X9074944Y-15370650D02*
X9055896Y-15342079D01*
X9055896Y-15342079D02*
X9046373Y-15323031D01*
X9046373Y-15323031D02*
X9036849Y-15294460D01*
X9036849Y-15294460D02*
X9027325Y-15246841D01*
X9027325Y-15246841D02*
X9027325Y-15208746D01*
X9027325Y-15208746D02*
X9036849Y-15161127D01*
X9036849Y-15161127D02*
X9046373Y-15132555D01*
X9046373Y-15132555D02*
X9055896Y-15113508D01*
X9055896Y-15113508D02*
X9074944Y-15084936D01*
X9074944Y-15084936D02*
X9084468Y-15075412D01*
X9160658Y-15170650D02*
X9160658Y-15303984D01*
X9160658Y-15189698D02*
X9170182Y-15180174D01*
X9170182Y-15180174D02*
X9189230Y-15170650D01*
X9189230Y-15170650D02*
X9217801Y-15170650D01*
X9217801Y-15170650D02*
X9236849Y-15180174D01*
X9236849Y-15180174D02*
X9246373Y-15199222D01*
X9246373Y-15199222D02*
X9246373Y-15303984D01*
X9370182Y-15303984D02*
X9351134Y-15294460D01*
X9351134Y-15294460D02*
X9341611Y-15284936D01*
X9341611Y-15284936D02*
X9332087Y-15265888D01*
X9332087Y-15265888D02*
X9332087Y-15208746D01*
X9332087Y-15208746D02*
X9341611Y-15189698D01*
X9341611Y-15189698D02*
X9351134Y-15180174D01*
X9351134Y-15180174D02*
X9370182Y-15170650D01*
X9370182Y-15170650D02*
X9398754Y-15170650D01*
X9398754Y-15170650D02*
X9417801Y-15180174D01*
X9417801Y-15180174D02*
X9427325Y-15189698D01*
X9427325Y-15189698D02*
X9436849Y-15208746D01*
X9436849Y-15208746D02*
X9436849Y-15265888D01*
X9436849Y-15265888D02*
X9427325Y-15284936D01*
X9427325Y-15284936D02*
X9417801Y-15294460D01*
X9417801Y-15294460D02*
X9398754Y-15303984D01*
X9398754Y-15303984D02*
X9370182Y-15303984D01*
X9493992Y-15170650D02*
X9570182Y-15170650D01*
X9522563Y-15103984D02*
X9522563Y-15275412D01*
X9522563Y-15275412D02*
X9532087Y-15294460D01*
X9532087Y-15294460D02*
X9551134Y-15303984D01*
X9551134Y-15303984D02*
X9570182Y-15303984D01*
X9789230Y-15170650D02*
X9789230Y-15370650D01*
X9789230Y-15180174D02*
X9808277Y-15170650D01*
X9808277Y-15170650D02*
X9846373Y-15170650D01*
X9846373Y-15170650D02*
X9865420Y-15180174D01*
X9865420Y-15180174D02*
X9874944Y-15189698D01*
X9874944Y-15189698D02*
X9884468Y-15208746D01*
X9884468Y-15208746D02*
X9884468Y-15265888D01*
X9884468Y-15265888D02*
X9874944Y-15284936D01*
X9874944Y-15284936D02*
X9865420Y-15294460D01*
X9865420Y-15294460D02*
X9846373Y-15303984D01*
X9846373Y-15303984D02*
X9808277Y-15303984D01*
X9808277Y-15303984D02*
X9789230Y-15294460D01*
X9998754Y-15303984D02*
X9979706Y-15294460D01*
X9979706Y-15294460D02*
X9970182Y-15275412D01*
X9970182Y-15275412D02*
X9970182Y-15103984D01*
X10160658Y-15303984D02*
X10160658Y-15199222D01*
X10160658Y-15199222D02*
X10151135Y-15180174D01*
X10151135Y-15180174D02*
X10132087Y-15170650D01*
X10132087Y-15170650D02*
X10093992Y-15170650D01*
X10093992Y-15170650D02*
X10074944Y-15180174D01*
X10160658Y-15294460D02*
X10141611Y-15303984D01*
X10141611Y-15303984D02*
X10093992Y-15303984D01*
X10093992Y-15303984D02*
X10074944Y-15294460D01*
X10074944Y-15294460D02*
X10065420Y-15275412D01*
X10065420Y-15275412D02*
X10065420Y-15256365D01*
X10065420Y-15256365D02*
X10074944Y-15237317D01*
X10074944Y-15237317D02*
X10093992Y-15227793D01*
X10093992Y-15227793D02*
X10141611Y-15227793D01*
X10141611Y-15227793D02*
X10160658Y-15218269D01*
X10227325Y-15170650D02*
X10303515Y-15170650D01*
X10255896Y-15103984D02*
X10255896Y-15275412D01*
X10255896Y-15275412D02*
X10265420Y-15294460D01*
X10265420Y-15294460D02*
X10284468Y-15303984D01*
X10284468Y-15303984D02*
X10303515Y-15303984D01*
X10446373Y-15294460D02*
X10427325Y-15303984D01*
X10427325Y-15303984D02*
X10389230Y-15303984D01*
X10389230Y-15303984D02*
X10370182Y-15294460D01*
X10370182Y-15294460D02*
X10360658Y-15275412D01*
X10360658Y-15275412D02*
X10360658Y-15199222D01*
X10360658Y-15199222D02*
X10370182Y-15180174D01*
X10370182Y-15180174D02*
X10389230Y-15170650D01*
X10389230Y-15170650D02*
X10427325Y-15170650D01*
X10427325Y-15170650D02*
X10446373Y-15180174D01*
X10446373Y-15180174D02*
X10455896Y-15199222D01*
X10455896Y-15199222D02*
X10455896Y-15218269D01*
X10455896Y-15218269D02*
X10360658Y-15237317D01*
X10627325Y-15303984D02*
X10627325Y-15103984D01*
X10627325Y-15294460D02*
X10608277Y-15303984D01*
X10608277Y-15303984D02*
X10570182Y-15303984D01*
X10570182Y-15303984D02*
X10551135Y-15294460D01*
X10551135Y-15294460D02*
X10541611Y-15284936D01*
X10541611Y-15284936D02*
X10532087Y-15265888D01*
X10532087Y-15265888D02*
X10532087Y-15208746D01*
X10532087Y-15208746D02*
X10541611Y-15189698D01*
X10541611Y-15189698D02*
X10551135Y-15180174D01*
X10551135Y-15180174D02*
X10570182Y-15170650D01*
X10570182Y-15170650D02*
X10608277Y-15170650D01*
X10608277Y-15170650D02*
X10627325Y-15180174D01*
X10703516Y-15380174D02*
X10713039Y-15370650D01*
X10713039Y-15370650D02*
X10732087Y-15342079D01*
X10732087Y-15342079D02*
X10741611Y-15323031D01*
X10741611Y-15323031D02*
X10751135Y-15294460D01*
X10751135Y-15294460D02*
X10760658Y-15246841D01*
X10760658Y-15246841D02*
X10760658Y-15208746D01*
X10760658Y-15208746D02*
X10751135Y-15161127D01*
X10751135Y-15161127D02*
X10741611Y-15132555D01*
X10741611Y-15132555D02*
X10732087Y-15113508D01*
X10732087Y-15113508D02*
X10713039Y-15084936D01*
X10713039Y-15084936D02*
X10703516Y-15075412D01*
M02*
